<svg id="Layer_1" data-name="Layer 1" xmlns="http://www.w3.org/2000/svg" viewBox="0 0 579 120"><defs><style>.cls-1{fill:#535b64;}.cls-2{fill:#252f3e;}.cls-3{fill:#f90;}.cls-4{fill:#232f3e;}</style></defs><path class="cls-1" d="M392.19,23.81l-1-3.15h-4.71l-.94,3.15h-3.13L387.28,10h3.29l4.87,13.81Zm-5.06-5.3h3.46l-1.75-5.78-1.71,5.78Zm16.69,5.3-.24-.9A4.19,4.19,0,0,1,400.65,24a4,4,0,0,1-2.21-.62A4.12,4.12,0,0,1,397,21.58a6.94,6.94,0,0,1-.53-2.81,6.17,6.17,0,0,1,1.18-4,3.76,3.76,0,0,1,3.1-1.48,4.31,4.31,0,0,1,2.73.9V9.06h2.91V23.81Zm-2.21-2a3.34,3.34,0,0,0,1.83-.55V16a3.77,3.77,0,0,0-2-.5,1.74,1.74,0,0,0-1.57.79,4.33,4.33,0,0,0-.52,2.38,4.09,4.09,0,0,0,.55,2.37,1.91,1.91,0,0,0,1.68.77Zm10.09,2-3.87-10.19h3.09l2.17,7.58,2.21-7.58h3l-3.85,10.19Zm13.92,0-.24-.9a4.86,4.86,0,0,1-1.43.89,4,4,0,0,1-1.55.33,3.3,3.3,0,0,1-2.37-.84,2.91,2.91,0,0,1-.88-2.23,3,3,0,0,1,.47-1.68A3.22,3.22,0,0,1,421,18.23a5.06,5.06,0,0,1,2.11-.41,9.8,9.8,0,0,1,2.11.25v-1a1.68,1.68,0,0,0-.38-1.26,2.07,2.07,0,0,0-1.39-.34,12.12,12.12,0,0,0-3.6.61V14.17a6.79,6.79,0,0,1,1.85-.61,11.4,11.4,0,0,1,2.26-.23,4.55,4.55,0,0,1,3,.83,3.27,3.27,0,0,1,.94,2.6v7Zm-2.4-1.64a2.74,2.74,0,0,0,1-.21,4.16,4.16,0,0,0,1-.6V19.63a9.29,9.29,0,0,0-1.57-.14c-1.16,0-1.74.46-1.74,1.39a1.26,1.26,0,0,0,.34.95,1.3,1.3,0,0,0,1,.34Zm14,1.64V17.13a1.68,1.68,0,0,0-.36-1.19,1.4,1.4,0,0,0-1.09-.38,4.09,4.09,0,0,0-2.18.68v7.57h-2.91V13.62h2.39l.29,1.1a6.08,6.08,0,0,1,3.82-1.39,3,3,0,0,1,2.18.76,3,3,0,0,1,.77,2.19v7.53Zm13-.44a4.18,4.18,0,0,1-1.29.49,6.83,6.83,0,0,1-1.58.17,4.9,4.9,0,0,1-3.72-1.35,5.51,5.51,0,0,1-1.28-3.91,5.46,5.46,0,0,1,1.36-3.95,5,5,0,0,1,3.76-1.41,5.82,5.82,0,0,1,2.69.63V16a7.65,7.65,0,0,0-2.15-.34,2.67,2.67,0,0,0-2.06.71,3.25,3.25,0,0,0-.65,2.23v.29a3.17,3.17,0,0,0,.65,2.22,2.59,2.59,0,0,0,2,.71,8.61,8.61,0,0,0,2.27-.36v1.93Zm4.25-3.95a2.56,2.56,0,0,0,.79,1.91,3.56,3.56,0,0,0,2.26.58,11.74,11.74,0,0,0,3.1-.49v1.93a6.21,6.21,0,0,1-1.66.56,10,10,0,0,1-2,.2,5.1,5.1,0,0,1-3.86-1.38,5.56,5.56,0,0,1-1.32-4,5.57,5.57,0,0,1,1.31-4,4.7,4.7,0,0,1,3.65-1.42,4.05,4.05,0,0,1,3,1.09,4.21,4.21,0,0,1,1.06,3.09c0,.3,0,.63-.05,1a6.6,6.6,0,0,1-.15.91Zm2.17-4.08a2.07,2.07,0,0,0-1.55.59,2.64,2.64,0,0,0-.64,1.7h3.9v-.34q0-1.95-1.71-1.95Zm13.31,8.47-.24-.9A4.21,4.21,0,0,1,466.77,24a4,4,0,0,1-2.21-.62,4.06,4.06,0,0,1-1.48-1.83,6.78,6.78,0,0,1-.53-2.81,6.22,6.22,0,0,1,1.17-4,3.77,3.77,0,0,1,3.11-1.48,4.31,4.31,0,0,1,2.73.9V9.06h2.91V23.81Zm-2.21-2a3.34,3.34,0,0,0,1.83-.55V16a3.77,3.77,0,0,0-2-.5,1.77,1.77,0,0,0-1.58.79,4.42,4.42,0,0,0-.52,2.38,4.16,4.16,0,0,0,.55,2.37,1.92,1.92,0,0,0,1.69.77Z"/><path class="cls-1" d="M398.9,67.87q-6.76,0-10.24-3.81t-3.48-11.23q0-7.36,3.6-11.24t10.33-3.88a19.47,19.47,0,0,1,6,.94.76.76,0,0,1,.38.26.94.94,0,0,1,.12.54v.93c0,.37-.16.55-.5.55a7.9,7.9,0,0,1-1.23-.25,15.35,15.35,0,0,0-2.2-.4,19.75,19.75,0,0,0-2.29-.15q-5.81,0-8.66,3t-2.86,9.12v1.06q0,12.12,11.22,12.11a20.64,20.64,0,0,0,5.42-.72,4.93,4.93,0,0,1,1-.21c.33,0,.5.18.5.55V66a1,1,0,0,1-.12.55.89.89,0,0,1-.38.26,21,21,0,0,1-6.65,1.06Zm20.71.16a9.08,9.08,0,0,1-7.25-3q-2.58-3-2.58-8.32c0-3.56.86-6.32,2.58-8.3a10.35,10.35,0,0,1,14.49,0c1.72,2,2.58,4.74,2.58,8.3s-.86,6.33-2.58,8.32a9.06,9.06,0,0,1-7.24,3Zm0-2.2q7.32,0,7.32-9.1t-7.32-9.06q-7.33,0-7.33,9.06t7.33,9.1Zm16,1.57a.56.56,0,0,1-.64-.63v-20a.56.56,0,0,1,.64-.63h.85a.63.63,0,0,1,.72.63l.17,1.82a17.77,17.77,0,0,1,4.35-2.28,13.56,13.56,0,0,1,4.45-.8,6.37,6.37,0,0,1,4.72,1.63,6.47,6.47,0,0,1,1.63,4.8V66.77a.56.56,0,0,1-.63.63h-1.15a.56.56,0,0,1-.63-.63V52.92a6.18,6.18,0,0,0-1.05-4,4.21,4.21,0,0,0-3.4-1.25,14.63,14.63,0,0,0-8.25,2.7v16.4a.56.56,0,0,1-.64.63Zm28.79.63A17.24,17.24,0,0,1,461,67.7a15.41,15.41,0,0,1-3-.93.83.83,0,0,1-.5-.85V65.2c0-.34.15-.52.46-.52a2.17,2.17,0,0,1,.4.09l1.21.38a17.13,17.13,0,0,0,5,.72,6.37,6.37,0,0,0,3.93-1,3.58,3.58,0,0,0,1.36-3,2.6,2.6,0,0,0-.83-2,8.12,8.12,0,0,0-2.77-1.52l-3.85-1.44c-3-1.13-4.54-3-4.54-5.55a5.25,5.25,0,0,1,2-4.25A7.81,7.81,0,0,1,465,45.47a15.17,15.17,0,0,1,5.54,1.05.84.84,0,0,1,.51.86V48c0,.36-.15.54-.46.54a5.25,5.25,0,0,1-1.06-.2,18.22,18.22,0,0,0-4.66-.72,5.61,5.61,0,0,0-3.47.91,3.17,3.17,0,0,0-1.19,2.69,2.91,2.91,0,0,0,.83,2.22,10.65,10.65,0,0,0,3.24,1.71l3.38,1.27a8.09,8.09,0,0,1,3.46,2.18,4.84,4.84,0,0,1,1.08,3.2,5.51,5.51,0,0,1-2.1,4.55,8.93,8.93,0,0,1-5.7,1.67ZM483,68a6.3,6.3,0,0,1-4.68-1.65,6.62,6.62,0,0,1-1.63-4.83V46.73a.56.56,0,0,1,.64-.63h1.15a.56.56,0,0,1,.63.63V60.54a6.19,6.19,0,0,0,1.06,4,4.14,4.14,0,0,0,3.35,1.25,11.84,11.84,0,0,0,3.89-.63,16.75,16.75,0,0,0,3.89-2.08V46.73a.56.56,0,0,1,.64-.63H493a.56.56,0,0,1,.64.63v20a.56.56,0,0,1-.64.63h-.85a.66.66,0,0,1-.72-.63l-.16-1.7A13.9,13.9,0,0,1,483,68Zm20.92-.5a3.52,3.52,0,0,1-2.65-1,3.85,3.85,0,0,1-1-2.77V36.7a.56.56,0,0,1,.64-.63h1.14a.56.56,0,0,1,.64.63v27a1.93,1.93,0,0,0,.36,1.32,1.76,1.76,0,0,0,1.29.37l.57,0a3.79,3.79,0,0,1,.53,0,.52.52,0,0,1,.59.59v.8a.61.61,0,0,1-.55.64,6.85,6.85,0,0,1-1.61.17Zm13.55.12a5.11,5.11,0,0,1-3.81-1.33,5.28,5.28,0,0,1-1.32-3.87V48.22H509a.56.56,0,0,1-.64-.64v-.42a.87.87,0,0,1,.12-.51.77.77,0,0,1,.52-.21l3.42-.3.3-5.59a.82.82,0,0,1,.19-.48.61.61,0,0,1,.45-.15h.76a.56.56,0,0,1,.63.63V46.1h6.15a.56.56,0,0,1,.63.63v.85a.56.56,0,0,1-.63.64h-6.15v14.1a3.35,3.35,0,0,0,.74,2.45,3.5,3.5,0,0,0,2.48.72,9.88,9.88,0,0,0,2.16-.21l.74-.14a1.72,1.72,0,0,1,.41-.07c.31,0,.46.17.46.51v.63c0,.48-.15.78-.46.9a12.36,12.36,0,0,1-3.82.54ZM527,67.4a.56.56,0,0,1-.63-.63v-20a.56.56,0,0,1,.63-.63h1.15a.56.56,0,0,1,.63.63v20a.56.56,0,0,1-.63.63Zm.59-25.87a1.76,1.76,0,0,1-1.33-.51,1.91,1.91,0,0,1-.48-1.36,1.86,1.86,0,0,1,.48-1.35,2,2,0,0,1,2.67,0,1.86,1.86,0,0,1,.48,1.35,1.91,1.91,0,0,1-.48,1.36,1.77,1.77,0,0,1-1.34.51Zm8.6,25.87a.56.56,0,0,1-.64-.63v-20a.56.56,0,0,1,.64-.63H537a.63.63,0,0,1,.72.63l.17,1.82a17.77,17.77,0,0,1,4.35-2.28,13.56,13.56,0,0,1,4.45-.8,6.41,6.41,0,0,1,4.73,1.63,6.51,6.51,0,0,1,1.62,4.8V66.77a.56.56,0,0,1-.63.63h-1.15a.56.56,0,0,1-.63-.63V52.92a6.18,6.18,0,0,0-1-4,4.2,4.2,0,0,0-3.39-1.25,14.63,14.63,0,0,0-8.26,2.7v16.4a.56.56,0,0,1-.64.63Zm30.91,9.23a16.68,16.68,0,0,1-3.47-.36,12.17,12.17,0,0,1-3-1,.86.86,0,0,1-.46-.88v-.6c0-.36.15-.54.46-.54a1,1,0,0,1,.28,0c.1,0,.28.08.53.16a18,18,0,0,0,5.51,1c2.62,0,4.54-.64,5.77-1.94s1.85-3.35,1.85-6.14V64.27a13,13,0,0,1-3.48,2.07,9.76,9.76,0,0,1-3.64.77A8.11,8.11,0,0,1,561,64.2a11.46,11.46,0,0,1-2.46-7.68,12.4,12.4,0,0,1,2.44-8.09,8.16,8.16,0,0,1,6.63-3,10.14,10.14,0,0,1,7.07,2.83l.17-1.57a.66.66,0,0,1,.72-.63h.85a.56.56,0,0,1,.63.63v19.7c0,3.32-.85,5.86-2.54,7.6s-4.15,2.6-7.37,2.6ZM568,64.9a10.62,10.62,0,0,0,6.56-2.71V50.42a13.11,13.11,0,0,0-3.35-2.1,9.1,9.1,0,0,0-3.43-.65,6.08,6.08,0,0,0-5.1,2.2c-1.14,1.47-1.72,3.64-1.72,6.51s.6,4.89,1.8,6.34A6.42,6.42,0,0,0,568,64.9Z"/><path class="cls-1" d="M386.66,111a.56.56,0,0,1-.63-.63V82.28a.56.56,0,0,1,.63-.64h9.49A8.7,8.7,0,0,1,402.56,84a9.59,9.59,0,0,1,0,12.67,8.7,8.7,0,0,1-6.41,2.37h-7.71v11.31a.56.56,0,0,1-.63.63Zm9.4-14.19q6.27,0,6.27-6.43t-6.27-6.48h-7.62V96.8Zm19.23,14.66a6.35,6.35,0,0,1-4.64-1.68,6.65,6.65,0,0,1,.4-9.33,8.66,8.66,0,0,1,5.77-1.78,21.31,21.31,0,0,1,6.05,1V96.08a4.81,4.81,0,0,0-1.23-3.7,6,6,0,0,0-4.07-1.12,20.1,20.1,0,0,0-6.17,1.06,2.32,2.32,0,0,1-.65.12c-.28,0-.41-.18-.41-.55v-.67a1,1,0,0,1,.12-.53,1,1,0,0,1,.42-.32A19.29,19.29,0,0,1,418,89.06q3.74,0,5.53,1.56a6,6,0,0,1,1.8,4.74v15a.56.56,0,0,1-.63.63h-.9a.6.6,0,0,1-.67-.63l-.17-1.82a12.07,12.07,0,0,1-7.62,2.92Zm.34-2.2a10.43,10.43,0,0,0,3.47-.66,19.5,19.5,0,0,0,3.77-1.84v-5.3a21.2,21.2,0,0,0-5.51-.77q-5.92,0-5.93,4.58a3.92,3.92,0,0,0,1.07,3,4.34,4.34,0,0,0,3.13,1ZM432.44,111a.56.56,0,0,1-.64-.63v-20a.56.56,0,0,1,.64-.63h.8a.63.63,0,0,1,.72.63l.21,2.46a10.9,10.9,0,0,1,3.16-2.52,8,8,0,0,1,3.49-.74c.45,0,.82,0,1.11,0a.61.61,0,0,1,.63.68V91.3a.47.47,0,0,1-.13.32.44.44,0,0,1-.34.14c-.23,0-.44,0-.64,0l-.89,0a7.87,7.87,0,0,0-3.44.72,9.11,9.11,0,0,0-2.9,2.33v15.59a.56.56,0,0,1-.64.63Zm20.49.25a5.09,5.09,0,0,1-3.81-1.33A5.28,5.28,0,0,1,447.8,106V91.81h-3.33a.57.57,0,0,1-.65-.64v-.42a.87.87,0,0,1,.13-.51.77.77,0,0,1,.52-.21l3.42-.3.3-5.59a.82.82,0,0,1,.19-.48.6.6,0,0,1,.45-.15h.75a.56.56,0,0,1,.64.63v5.55h6.15a.56.56,0,0,1,.63.63v.85a.56.56,0,0,1-.63.64h-6.15v14.1a3.35,3.35,0,0,0,.74,2.45,3.5,3.5,0,0,0,2.48.72,9.88,9.88,0,0,0,2.16-.21l.74-.14a1.72,1.72,0,0,1,.41-.07c.31,0,.46.17.46.51v.63c0,.48-.15.78-.46.9a12.36,12.36,0,0,1-3.82.54Zm9.41-.25a.57.57,0,0,1-.65-.63v-20a.57.57,0,0,1,.65-.63h.84a.63.63,0,0,1,.72.63l.17,1.82a17.65,17.65,0,0,1,4.36-2.28,13.46,13.46,0,0,1,4.44-.8,6.39,6.39,0,0,1,4.73,1.63,6.51,6.51,0,0,1,1.63,4.8v14.87a.56.56,0,0,1-.64.63h-1.14a.56.56,0,0,1-.64-.63V96.51a6.18,6.18,0,0,0-1.05-4,4.2,4.2,0,0,0-3.39-1.25,14.58,14.58,0,0,0-8.25,2.7v16.4a.57.57,0,0,1-.65.63Zm32.42.63q-5,0-7.57-2.85c-1.7-1.91-2.54-4.74-2.54-8.49q0-5.34,2.56-8.28a9,9,0,0,1,7.17-2.94,7.68,7.68,0,0,1,5.91,2.2,8.87,8.87,0,0,1,2,6.3,14.66,14.66,0,0,1-.16,2.55.69.69,0,0,1-.72.63H487.11q0,4.45,1.94,6.57c1.27,1.41,3.24,2.11,5.89,2.11a16,16,0,0,0,5.8-1.06,2.66,2.66,0,0,1,.76-.21.4.4,0,0,1,.3.15.57.57,0,0,1,.13.36v.64a.85.85,0,0,1-.47.88,15.46,15.46,0,0,1-6.7,1.44ZM500,98.8c0-.4,0-.87,0-1.4a6.5,6.5,0,0,0-1.49-4.62,5.71,5.71,0,0,0-4.35-1.56q-6.69,0-7.07,7.58ZM508.32,111a.56.56,0,0,1-.64-.63v-20a.56.56,0,0,1,.64-.63h.8a.63.63,0,0,1,.72.63l.21,2.46a10.9,10.9,0,0,1,3.16-2.52,8,8,0,0,1,3.49-.74c.45,0,.82,0,1.11,0a.61.61,0,0,1,.63.68V91.3a.47.47,0,0,1-.13.32.43.43,0,0,1-.34.14c-.22,0-.44,0-.63,0l-.89,0a7.88,7.88,0,0,0-3.45.72,9.11,9.11,0,0,0-2.9,2.33v15.59a.56.56,0,0,1-.64.63Z"/><path class="cls-2" d="M113.38,51.5A17.86,17.86,0,0,0,119,53.44a29.84,29.84,0,0,0,7.59.8,23.16,23.16,0,0,0,7-1,19.2,19.2,0,0,0,5.49-2.74,11.75,11.75,0,0,0,3.56-4.37,13.46,13.46,0,0,0,1.29-5.81,11.92,11.92,0,0,0-2.26-7c-1.46-1.94-4-3.55-7.6-4.69l-6.94-2.26a14.44,14.44,0,0,1-5.5-2.74,4.76,4.76,0,0,1-1.45-3.56,4.78,4.78,0,0,1,2.26-4.36,12.6,12.6,0,0,1,6.62-1.46,22.91,22.91,0,0,1,9.54,1.94,6.5,6.5,0,0,0,1.94.65c.8,0,1.13-.49,1.13-1.62V13.36a2.37,2.37,0,0,0-.49-1.61,3.75,3.75,0,0,0-1.45-1.29,6.18,6.18,0,0,0-2.1-.81c-.81-.33-1.78-.49-2.75-.81a19.57,19.57,0,0,0-3.23-.48A11.83,11.83,0,0,0,128.25,8a24.7,24.7,0,0,0-6.14.81,17.06,17.06,0,0,0-5.17,2.59,14.2,14.2,0,0,0-3.56,4,10.28,10.28,0,0,0-1.29,5.5,11.51,11.51,0,0,0,2.42,7.11c1.62,2.26,4.2,3.88,7.92,5l7.11,2.26a13,13,0,0,1,5,2.58,4.5,4.5,0,0,1,1.29,3.4A5.27,5.27,0,0,1,133.26,46c-1.78,1.13-4,1.62-7.28,1.62a23.54,23.54,0,0,1-5.81-.65,22.09,22.09,0,0,1-5.5-1.77,13.29,13.29,0,0,1-1.29-.49,2.07,2.07,0,0,0-1-.16c-.81,0-1.13.48-1.13,1.61v2.43A4.73,4.73,0,0,0,111.6,50a5.46,5.46,0,0,0,1.78,1.46Z"/><path class="cls-2" d="M29.84,27.58a28.88,28.88,0,0,0-5.17-.32q-7.5,0-12.11,3.88A12.6,12.6,0,0,0,8,41.32c0,4,1.13,7.11,3.56,9.53s5.65,3.56,9.85,3.56A18.37,18.37,0,0,0,36,47.62a24.54,24.54,0,0,0,1.46,2.91,11.91,11.91,0,0,0,1.78,2.26,2,2,0,0,0,1.45.65A2.61,2.61,0,0,0,42,53L45,50.85a1.94,1.94,0,0,0,1-1.45,4,4,0,0,0-.32-1.13,23.06,23.06,0,0,1-1.62-3.56,16.37,16.37,0,0,1-.48-4.36V24.19c0-5.33-1.29-9.37-4-12.12S32.59,8,26.61,8a31.52,31.52,0,0,0-13.89,3.23,3.1,3.1,0,0,0-1.3,1c-.32.33-.32,1-.32,1.78v2.42c0,1,.32,1.62,1,1.62a1.78,1.78,0,0,0,.81-.16c.32-.16,1-.32,1.78-.65A33.47,33.47,0,0,1,20,15.63,19.85,19.85,0,0,1,25.32,15c3.88,0,6.46.81,8.08,2.26s2.26,4.2,2.26,7.92v3.55c-2.1-.48-3.88-.8-5.82-1.13Zm5.66,8.73a16,16,0,0,1-.48,4.2,7.11,7.11,0,0,1-1.62,3.07,10,10,0,0,1-4.69,3.07,15.18,15.18,0,0,1-5.17,1,7.15,7.15,0,0,1-5.17-1.78,7.15,7.15,0,0,1-1.77-5.17A6.86,6.86,0,0,1,19,35c1.61-1.3,4-1.94,7.27-1.94,1.45,0,3.07.16,4.69.32a36,36,0,0,1,4.52.81v2.1Z"/><path class="cls-2" d="M60.38,50.69a5.49,5.49,0,0,0,1,1.94,2.84,2.84,0,0,0,1.94.48h4.2a2.82,2.82,0,0,0,1.94-.48,5.32,5.32,0,0,0,1-1.94L78,18.86l7.75,31.83a2.79,2.79,0,0,0,1,1.94,3.12,3.12,0,0,0,1.94.48h4.2a3.48,3.48,0,0,0,1.94-.48,3.63,3.63,0,0,0,1-1.94l12-38.13a6.81,6.81,0,0,0,.32-1.13c0-.33.16-.49.16-.81,0-.81-.32-1.13-1.13-1.13h-4.52a2.82,2.82,0,0,0-1.94.48,5.09,5.09,0,0,0-1,1.94L91.08,45,83.17,11.75a2.81,2.81,0,0,0-1-1.94,3.14,3.14,0,0,0-1.94-.49h-4a2.82,2.82,0,0,0-1.94.49,5.24,5.24,0,0,0-1,1.94L65.55,44.39,57.31,11.75a5.09,5.09,0,0,0-1-1.94,2.82,2.82,0,0,0-1.94-.49H49.56c-.81,0-1.13.33-1.13,1.14a7.9,7.9,0,0,0,.48,1.93l11.47,38.3Z"/><path class="cls-3" d="M133.58,74.6A144.8,144.8,0,0,1,77.67,86.07C51,86.07,25.16,78.8,4.32,66.52c-1.78-1.13-3.24.81-1.62,2.27A108.81,108.81,0,0,0,76.06,96.74c20.19,0,43.78-6.3,60.1-18.42,2.43-1.94.17-4.85-2.58-3.72Z"/><path class="cls-3" d="M123.4,67.82c-1.46,1-1.13,2.42.32,2.26,5.17-.65,17-2.1,18.91.64,2.1,2.59-2.27,13.58-4.2,18.59-.65,1.45.64,2.1,2.1,1,8.72-7.28,11-22.63,9.21-24.73-1.78-2.42-17.13-4.2-26.34,2.27Z"/><path class="cls-2" d="M188.68,42.93a.59.59,0,0,1-.65-.64V15.63a.59.59,0,0,1,.65-.65h.8c.49,0,.65.16.65.65l.16,1.61a13.82,13.82,0,0,1,3.56-2.1,8.75,8.75,0,0,1,3.55-.64,7.28,7.28,0,0,1,6,2.74,11.67,11.67,0,0,1,2.26,7.43,12.66,12.66,0,0,1-2.26,7.76,7.6,7.6,0,0,1-6.3,2.91,10,10,0,0,1-6.63-2.75v9.7a.59.59,0,0,1-.64.64Zm8.08-9.69a5.72,5.72,0,0,0,4.84-2.1c1.13-1.46,1.62-3.56,1.62-6.3q0-8.25-6.3-8.24a10,10,0,0,0-6.47,2.58V30.65a14.9,14.9,0,0,0,3.07,2.1,18.51,18.51,0,0,0,3.24.49Z"/><path class="cls-2" d="M215.18,35.18a5.87,5.87,0,0,1-4.37-1.62,5.25,5.25,0,0,1-1.61-4.2,5.6,5.6,0,0,1,1.94-4.52,7.8,7.8,0,0,1,5.33-1.62,18.73,18.73,0,0,1,5.65,1V21c0-1.62-.32-2.75-1.13-3.39a5.67,5.67,0,0,0-3.71-1,18,18,0,0,0-5.66,1c-.16,0-.48.16-.65.16-.32,0-.32-.16-.32-.49v-.81a.59.59,0,0,1,.16-.48l.33-.32a17.87,17.87,0,0,1,6.62-1.3,7.89,7.89,0,0,1,5.17,1.46,5.39,5.39,0,0,1,1.62,4.36v13.9a.59.59,0,0,1-.65.64h-.81a.59.59,0,0,1-.64-.64l-.16-1.62a10.72,10.72,0,0,1-7.11,2.75Zm.32-1.94a8.12,8.12,0,0,0,3.23-.65,24.06,24.06,0,0,0,3.56-1.78V26a18.78,18.78,0,0,0-5.18-.65c-3.71,0-5.49,1.46-5.49,4.2a3.8,3.8,0,0,0,1,2.75,4,4,0,0,0,2.91,1Z"/><path class="cls-2" d="M231.17,34.85a.59.59,0,0,1-.64-.64V15.63a.59.59,0,0,1,.64-.65H232c.48,0,.65.16.65.65l.16,2.26A7.63,7.63,0,0,1,238.93,15h1a.59.59,0,0,1,.64.65v1c0,.16,0,.16-.16.32,0,.16-.16.16-.32.16H238.6a7.16,7.16,0,0,0-3.23.65,10.25,10.25,0,0,0-2.74,2.1V34.21a.59.59,0,0,1-.65.64Z"/><path class="cls-2" d="M250.88,35A4.48,4.48,0,0,1,246,30.17V17.08H243a.59.59,0,0,1-.65-.65v-.32a.59.59,0,0,1,.16-.48c0-.17.16-.17.49-.17l3.23-.32.32-5.17c0-.16.16-.32.16-.48.17-.17.17-.17.49-.17h.64a.6.6,0,0,1,.65.65v5.17h5.66a.59.59,0,0,1,.64.65v.81a.59.59,0,0,1-.64.64h-5.66V30.33a2.89,2.89,0,0,0,.65,2.26,3.12,3.12,0,0,0,2.26.65,6.74,6.74,0,0,0,1.94-.16c.32,0,.48-.16.64-.16h.33a.42.42,0,0,1,.48.48v.65a.74.74,0,0,1-.48.8c-1,0-2.1.17-3.4.17Z"/><path class="cls-2" d="M259.61,34.85a.59.59,0,0,1-.65-.64V15.63a.6.6,0,0,1,.65-.65h.81c.48,0,.64.16.64.65l.17,1.61a13.8,13.8,0,0,1,4-2.1,12.88,12.88,0,0,1,4-.81,5.94,5.94,0,0,1,4.37,1.46,6.07,6.07,0,0,1,1.45,4.52V34.05a.59.59,0,0,1-.64.64h-1.14a.59.59,0,0,1-.64-.64V21.44a5.71,5.71,0,0,0-1-3.71,3.8,3.8,0,0,0-3.07-1.13,12.67,12.67,0,0,0-7.6,2.58V34.37a.59.59,0,0,1-.64.65h-.81Z"/><path class="cls-2" d="M289.66,35.34c-3.07,0-5.49-.81-6.94-2.59-1.62-1.77-2.43-4.36-2.43-7.91,0-3.24.81-5.82,2.43-7.6a8.6,8.6,0,0,1,6.62-2.74,6.82,6.82,0,0,1,5.49,2.1c1.3,1.29,1.94,3.23,1.94,5.81a10.88,10.88,0,0,1-.16,2.43.69.69,0,0,1-.64.64H282.72c0,2.75.64,4.85,1.77,6.14s3.07,1.94,5.5,1.94a14.16,14.16,0,0,0,5.33-1,1.62,1.62,0,0,1,.65-.16c.16,0,.16,0,.32.16,0,.16.16.16.16.33v.64a.74.74,0,0,1-.48.81,27.33,27.33,0,0,1-6.31,1Zm4.85-11.8V22.25a6.2,6.2,0,0,0-1.29-4.2,5.37,5.37,0,0,0-4-1.45c-4.2,0-6.3,2.26-6.63,6.94Z"/><path class="cls-2" d="M302.11,34.85a.59.59,0,0,1-.65-.64V15.63a.59.59,0,0,1,.65-.65h.8c.49,0,.65.16.65.65l.16,2.26A7.63,7.63,0,0,1,309.86,15h1a.6.6,0,0,1,.65.65v1c0,.16,0,.16-.16.32,0,.16-.17.16-.33.16h-1.45a7.16,7.16,0,0,0-3.23.65,10.28,10.28,0,0,0-2.75,2.1V34.21a.59.59,0,0,1-.65.64Z"/><path class="cls-2" d="M188.68,78.32a.59.59,0,0,1-.65-.65V59.25a.59.59,0,0,1,.65-.64h.8c.49,0,.65.16.65.64l.16,1.62a13.8,13.8,0,0,1,4-2.1,12.72,12.72,0,0,1,4-.81,5.91,5.91,0,0,1,4.36,1.45,6.1,6.1,0,0,1,1.46,4.53V77.67a.59.59,0,0,1-.65.65h-1.13a.6.6,0,0,1-.65-.65V64.91a5.74,5.74,0,0,0-1-3.72,3.8,3.8,0,0,0-3.07-1.13,12.66,12.66,0,0,0-7.6,2.59V77.83a.59.59,0,0,1-.65.65h-.8Z"/><path class="cls-2" d="M218.73,79c-3.07,0-5.49-.81-6.95-2.59-1.61-1.78-2.42-4.36-2.42-7.92,0-3.23.81-5.81,2.42-7.59a8.65,8.65,0,0,1,6.63-2.75,6.85,6.85,0,0,1,5.49,2.1q1.93,1.94,1.94,5.82a10.74,10.74,0,0,1-.16,2.42.69.69,0,0,1-.65.65H211.78c0,2.75.65,4.85,1.78,6.14s3.07,1.94,5.49,1.94a14.41,14.41,0,0,0,5.34-1,1.59,1.59,0,0,1,.64-.16c.16,0,.16,0,.33.16,0,.16.16.16.16.32v.65A.75.75,0,0,1,225,78a26,26,0,0,1-6.3,1Zm4.85-12V65.72a6.28,6.28,0,0,0-1.29-4.21,5.43,5.43,0,0,0-4-1.45c-4.21,0-6.31,2.26-6.63,7Z"/><path class="cls-2" d="M236.83,78.64A4.47,4.47,0,0,1,232,73.79V60.55h-3.07a.6.6,0,0,1-.65-.65v-.32a.58.58,0,0,1,.17-.49c0-.16.16-.16.48-.16l3.23-.32.32-5.17c0-.17.17-.33.17-.49.16-.16.16-.16.48-.16h.65a.59.59,0,0,1,.64.65v5.17h5.66a.59.59,0,0,1,.65.64v.81a.6.6,0,0,1-.65.65H234.4V73.79a3,3,0,0,0,.65,2.27,3.17,3.17,0,0,0,2.26.64,6.71,6.71,0,0,0,1.94-.16c.32,0,.49-.16.65-.16h.32a.43.43,0,0,1,.49.48v.65a.75.75,0,0,1-.49.81,20.35,20.35,0,0,1-3.39.32Z"/><path class="cls-2" d="M249.59,78.32a.9.9,0,0,1-.81-.49l-6.14-18.25a1.26,1.26,0,0,1-.16-.65c0-.16.16-.32.49-.32h1.29c.32,0,.48.16.65.48l5.33,16.64,4.68-16.64a.76.76,0,0,1,.81-.48h1.46a.88.88,0,0,1,.8.48l4.69,16.64,5.49-16.8c.17-.32.33-.49.65-.49H270c.32,0,.49.17.49.33a1.15,1.15,0,0,1-.17.64l-6.46,18.26a.74.74,0,0,1-.81.49h-1.29a.89.89,0,0,1-.81-.49L256.22,61l-4.69,16.64a.74.74,0,0,1-.81.49h-1.13Z"/><path class="cls-2" d="M282.07,79a8.76,8.76,0,0,1-6.79-2.75c-1.61-1.78-2.42-4.36-2.42-7.76a11.74,11.74,0,0,1,2.42-7.75,9.76,9.76,0,0,1,13.58,0c1.61,1.77,2.42,4.36,2.42,7.75a11.77,11.77,0,0,1-2.42,7.76A8.76,8.76,0,0,1,282.07,79Zm0-2.11c4.52,0,6.79-2.74,6.79-8.4s-2.27-8.4-6.79-8.4-6.79,2.75-6.79,8.4,2.27,8.4,6.79,8.4Z"/><path class="cls-2" d="M296.93,78.32a.59.59,0,0,1-.64-.65V59.25a.59.59,0,0,1,.64-.64h.81c.49,0,.65.16.65.64l.16,2.26a7.21,7.21,0,0,1,2.91-2.26,7.29,7.29,0,0,1,3.23-.64h1a.59.59,0,0,1,.65.64v1c0,.16,0,.16-.17.33s-.16.16-.32.16h-1.45a7.29,7.29,0,0,0-3.23.64,10.49,10.49,0,0,0-2.75,2.1V77.83a.59.59,0,0,1-.65.65h-.81Z"/><path class="cls-2" d="M310.35,78.32a.59.59,0,0,1-.65-.65V49.88a.6.6,0,0,1,.65-.65h1.13a.59.59,0,0,1,.64.65V67.33l9.37-8.4a1.21,1.21,0,0,1,1-.32h1.46c.32,0,.48.16.48.32s-.16.32-.48.65L314.39,68l10.34,9.53c.16.16.32.32.32.49s-.16.32-.49.32H323a1.25,1.25,0,0,1-.81-.32l-10-9.38v9a.59.59,0,0,1-.64.65Z"/><rect class="cls-4" x="354.25" y="9.43" width="1.15" height="101.56"/></svg>