<svg xmlns="http://www.w3.org/2000/svg" width="552" height="340.329" viewBox="0 0 552 340.329"><defs><style>.a{fill:#ebebeb;}.b{fill:#e0e0e0;}.c{fill:#f5f5f5;}.d{fill:#fafafa;}.e{fill:#263238;}.f,.j{fill:#fff;}.g{opacity:0.3;}.h{fill:#455a64;}.i,.j{opacity:0.5;}.k{fill:#ffbe9d;}.l{fill:#eb996e;}.m{opacity:0.2;}</style></defs><g transform="translate(-53.29 -57.207)"><g transform="translate(58.238 174.409)"><path class="a" d="M138.691,419.546c15.065-13.2,16.429-34.771,13.727-53.723-.463-3.166-.48-6.546-2.3-9.171s-5.551-4.135-8.245-2.479c-2.239,1.373-2.96,4.229-4.032,6.64a18.694,18.694,0,0,1-6.666,7.936c-1.9,1.27-4.332,2.188-6.452,1.3-2.908-1.21-3.646-4.959-3.972-8.116q-.927-8.845-1.836-17.664c-.335-3.166-.678-6.391-1.99-9.274s-3.792-5.439-6.863-5.945-6.615,1.63-6.915,4.787a30.631,30.631,0,0,0,.343,3.946c.051,1.321-.386,2.84-1.6,3.337s-2.574-.249-3.629-1.064c-3.612-2.831-6.271-6.692-8.794-10.552s-4.984-7.816-8.322-10.964-7.721-5.456-12.285-5.216-9.068,3.569-9.72,8.133,2.445,8.811,5.662,12.1a70.813,70.813,0,0,0,16.163,12.371,5.861,5.861,0,0,1,2.745,2.368c.918,2.033-.858,4.341-2.848,5.268-2.265,1.038-4.847,1.081-7.275,1.639s-4.984,1.947-5.654,4.375c-.935,3.372,2.136,6.452,5.036,8.373a60.7,60.7,0,0,0,19,8.348c2.419.592,4.95,1.072,7,2.5s3.5,4.135,2.574,6.486-3.706,3.389-6.194,3.2-4.8-1.261-7.224-1.879c-4.521-1.158-10.089-.24-12.457,3.818a10.034,10.034,0,0,0-.086,8.948,23.026,23.026,0,0,0,5.722,7.275,61.048,61.048,0,0,0,27.942,15.365c10.458,2.376,19.878,2.3,29.478-2.462" transform="translate(-59.058 -210.798)"/><path class="b" d="M141.191,434.165a139.335,139.335,0,0,0-8.03-25.454,284.991,284.991,0,0,0-14.585-29.229l-4.221-7.464c-1.39-2.445-2.771-4.873-4.29-7.164a141.987,141.987,0,0,0-9.334-12.654c-3.166-3.886-6.314-7.455-9.283-10.775s-5.808-6.349-8.5-9.008a113.01,113.01,0,0,0-13.658-11.573c-1.716-1.235-3.071-2.153-4-2.762-.455-.283-.8-.515-1.064-.686a2.446,2.446,0,0,0-.377-.214,2.442,2.442,0,0,0,.343.266l1.03.738c.909.635,2.248,1.579,3.938,2.848a119.594,119.594,0,0,1,13.5,11.685c2.677,2.668,5.482,5.714,8.433,9.034s6.083,6.906,9.231,10.793a141.972,141.972,0,0,1,9.274,12.637c1.484,2.282,2.848,4.684,4.238,7.138l4.221,7.464a293.227,293.227,0,0,1,14.585,29.169,142.121,142.121,0,0,1,8.124,25.334" transform="translate(-59.739 -211.348)"/><path class="b" d="M117.5,366.912a7.637,7.637,0,0,0,.154-1.381c.069-.858.129-2.188.18-3.783.094-3.191.086-7.61.051-12.474s0-9.274.163-12.457c.069-1.587.137-2.883.2-3.766a5.748,5.748,0,0,0,0-1.39,6.512,6.512,0,0,0-.249,1.364c-.129.858-.257,2.171-.386,3.766-.249,3.191-.369,7.61-.335,12.483s.086,9.145.112,12.466v3.783A5.808,5.808,0,0,0,117.5,366.912Z" transform="translate(-67.329 -213.405)"/><path class="b" d="M69.23,369.041a8.816,8.816,0,0,0,1.647,0c1.047,0,2.574-.06,4.453-.052,3.766,0,8.965.163,14.688.6s10.9,1.072,14.585,1.639c1.862.266,3.372.523,4.41.695a9.86,9.86,0,0,0,1.63.214,8.743,8.743,0,0,0-1.587-.446c-1.03-.24-2.522-.558-4.384-.858-3.723-.669-8.9-1.355-14.645-1.81a145.994,145.994,0,0,0-14.739-.429c-1.887.043-3.432.146-4.461.24a9.058,9.058,0,0,0-1.6.206Z" transform="translate(-60.503 -218.648)"/><path class="b" d="M144,414.1a2.12,2.12,0,0,0,.223-.523l.532-1.544c.455-1.347,1.064-3.312,1.784-5.739,1.45-4.873,3.234-11.659,5.147-19.174s3.586-14.31,4.933-19.2l1.6-5.782c.172-.635.317-1.158.429-1.579a2.137,2.137,0,0,0,.112-.566,2.353,2.353,0,0,0-.223.523l-.532,1.553c-.455,1.338-1.064,3.3-1.784,5.739-1.45,4.864-3.234,11.65-5.147,19.166s-3.586,14.31-4.933,19.2l-1.6,5.791c-.172.626-.317,1.15-.429,1.579A2.059,2.059,0,0,0,144,414.1Z" transform="translate(-71.127 -217.43)"/><path class="b" d="M78.83,409.729a2.144,2.144,0,0,0,.558.163l1.621.352,6.005,1.235c5.053,1.047,12.011,2.574,19.732,4.29s14.67,3.157,19.732,4.092c2.574.472,4.59.858,6.005,1.055l1.639.24a1.777,1.777,0,0,0,.583.043,2.3,2.3,0,0,0-.558-.163l-1.63-.352-6.005-1.235c-5.053-1.038-12.011-2.574-19.732-4.29S92.111,412,87.049,411.068c-2.574-.472-4.6-.858-6.005-1.047l-1.647-.249A2.085,2.085,0,0,0,78.83,409.729Z" transform="translate(-61.867 -224.497)"/><rect class="c" width="72.717" height="222.758" transform="translate(80.895)"/><rect class="d" width="57.472" height="222.758" transform="translate(153.389)"/><rect class="b" width="61.684" height="17.364" transform="translate(84.798 35.646)"/><rect class="c" width="3.457" height="13.289" transform="translate(86.523 37.834)"/><path class="d" d="M168.316,241a1.1,1.1,0,1,1-1.1-1.1A1.1,1.1,0,0,1,168.316,241Z" transform="translate(-74.27 -200.367)"/><circle class="d" cx="1.098" cy="1.098" r="1.098" transform="translate(91.85 44.226)"/><rect class="c" width="3.397" height="10.209" transform="translate(98.439 39.533)"/><rect class="c" width="3.397" height="10.209" transform="translate(103.338 39.533)"/><rect class="c" width="3.397" height="10.209" transform="translate(108.245 39.533)"/><rect class="c" width="3.397" height="10.209" transform="translate(113.144 39.533)"/><rect class="c" width="3.397" height="10.209" transform="translate(118.051 39.533)"/><rect class="c" width="3.397" height="10.209" transform="translate(122.95 39.533)"/><rect class="c" width="3.397" height="10.209" transform="translate(127.857 39.533)"/><rect class="c" width="3.397" height="10.209" transform="translate(132.756 39.533)"/><rect class="c" width="3.397" height="10.209" transform="translate(137.663 39.533)"/><rect class="c" width="3.397" height="10.209" transform="translate(142.562 39.533)"/><rect class="b" width="61.684" height="17.364" transform="translate(84.798 63.469)"/><rect class="c" width="3.457" height="13.289" transform="translate(86.523 65.648)"/><path class="d" d="M168.316,273.418a1.1,1.1,0,1,1-1.1-1.1A1.1,1.1,0,0,1,168.316,273.418Z" transform="translate(-74.27 -204.974)"/><circle class="d" cx="1.098" cy="1.098" r="1.098" transform="translate(91.85 72.039)"/><rect class="c" width="3.397" height="10.209" transform="translate(98.439 67.346)"/><rect class="c" width="3.397" height="10.209" transform="translate(103.338 67.346)"/><rect class="c" width="3.397" height="10.209" transform="translate(108.245 67.346)"/><rect class="c" width="3.397" height="10.209" transform="translate(113.144 67.346)"/><rect class="c" width="3.397" height="10.209" transform="translate(118.051 67.346)"/><rect class="c" width="3.397" height="10.209" transform="translate(122.95 67.346)"/><rect class="c" width="3.397" height="10.209" transform="translate(127.857 67.346)"/><rect class="c" width="3.397" height="10.209" transform="translate(132.756 67.346)"/><rect class="c" width="3.397" height="10.209" transform="translate(137.663 67.346)"/><rect class="c" width="3.397" height="10.209" transform="translate(142.562 67.346)"/><rect class="b" width="61.684" height="17.364" transform="translate(84.798 91.282)"/><rect class="c" width="3.457" height="13.289" transform="translate(86.523 93.461)"/><path class="d" d="M168.316,305.818a1.1,1.1,0,1,1-1.1-1.1A1.1,1.1,0,0,1,168.316,305.818Z" transform="translate(-74.27 -209.577)"/><circle class="d" cx="1.098" cy="1.098" r="1.098" transform="translate(91.85 99.861)"/><rect class="c" width="3.397" height="10.209" transform="translate(98.439 95.16)"/><rect class="c" width="3.397" height="10.209" transform="translate(103.338 95.16)"/><rect class="c" width="3.397" height="10.209" transform="translate(108.245 95.16)"/><rect class="c" width="3.397" height="10.209" transform="translate(113.144 95.16)"/><rect class="c" width="3.397" height="10.209" transform="translate(118.051 95.16)"/><rect class="c" width="3.397" height="10.209" transform="translate(122.95 95.16)"/><rect class="c" width="3.397" height="10.209" transform="translate(127.857 95.16)"/><rect class="c" width="3.397" height="10.209" transform="translate(132.756 95.16)"/><rect class="c" width="3.397" height="10.209" transform="translate(137.663 95.16)"/><rect class="c" width="3.397" height="10.209" transform="translate(142.562 95.16)"/><rect class="b" width="61.684" height="17.364" transform="translate(84.798 119.096)"/><rect class="c" width="3.457" height="13.289" transform="translate(86.523 121.284)"/><path class="d" d="M168.316,338.268a1.1,1.1,0,1,1-1.1-1.1,1.1,1.1,0,0,1,1.1,1.1Z" transform="translate(-74.27 -214.188)"/><circle class="d" cx="1.098" cy="1.098" r="1.098" transform="translate(91.85 127.675)"/><rect class="c" width="3.397" height="10.209" transform="translate(98.439 122.982)"/><rect class="c" width="3.397" height="10.209" transform="translate(103.338 122.982)"/><rect class="c" width="3.397" height="10.209" transform="translate(108.245 122.982)"/><rect class="c" width="3.397" height="10.209" transform="translate(113.144 122.982)"/><rect class="c" width="3.397" height="10.209" transform="translate(118.051 122.982)"/><rect class="c" width="3.397" height="10.209" transform="translate(122.95 122.982)"/><rect class="c" width="3.397" height="10.209" transform="translate(127.857 122.982)"/><rect class="c" width="3.397" height="10.209" transform="translate(132.756 122.982)"/><rect class="c" width="3.397" height="10.209" transform="translate(137.663 122.982)"/><rect class="c" width="3.397" height="10.209" transform="translate(142.562 122.982)"/><rect class="b" width="61.684" height="17.364" transform="translate(84.798 146.918)"/><rect class="c" width="3.457" height="13.289" transform="translate(86.523 149.097)"/><path class="d" d="M168.316,370.688a1.1,1.1,0,1,1-1.1-1.1A1.1,1.1,0,0,1,168.316,370.688Z" transform="translate(-74.27 -218.794)"/><circle class="d" cx="1.098" cy="1.098" r="1.098" transform="translate(91.85 155.497)"/><rect class="c" width="3.397" height="10.209" transform="translate(98.439 150.796)"/><rect class="c" width="3.397" height="10.209" transform="translate(103.338 150.796)"/><rect class="c" width="3.397" height="10.209" transform="translate(108.245 150.796)"/><rect class="c" width="3.397" height="10.209" transform="translate(113.144 150.796)"/><rect class="c" width="3.397" height="10.209" transform="translate(118.051 150.796)"/><rect class="c" width="3.397" height="10.209" transform="translate(122.95 150.796)"/><rect class="c" width="3.397" height="10.209" transform="translate(127.857 150.796)"/><rect class="c" width="3.397" height="10.209" transform="translate(132.756 150.796)"/><rect class="c" width="3.397" height="10.209" transform="translate(137.663 150.796)"/><rect class="c" width="3.397" height="10.209" transform="translate(142.562 150.796)"/><rect class="b" width="61.684" height="17.364" transform="translate(84.798 174.732)"/><rect class="c" width="3.457" height="13.289" transform="translate(86.523 176.919)"/><path class="d" d="M168.316,403.107a1.1,1.1,0,1,1-.319-.782,1.1,1.1,0,0,1,.319.782Z" transform="translate(-74.27 -223.399)"/><circle class="d" cx="1.098" cy="1.098" r="1.098" transform="translate(91.85 183.311)"/><rect class="c" width="3.397" height="10.209" transform="translate(98.439 178.609)"/><rect class="c" width="3.397" height="10.209" transform="translate(103.338 178.609)"/><rect class="c" width="3.397" height="10.209" transform="translate(108.245 178.609)"/><rect class="c" width="3.397" height="10.209" transform="translate(113.144 178.609)"/><rect class="c" width="3.397" height="10.209" transform="translate(118.051 178.609)"/><rect class="c" width="3.397" height="10.209" transform="translate(122.95 178.609)"/><rect class="c" width="3.397" height="10.209" transform="translate(127.857 178.609)"/><rect class="c" width="3.397" height="10.209" transform="translate(132.756 178.609)"/><rect class="c" width="3.397" height="10.209" transform="translate(137.663 178.609)"/><rect class="c" width="3.397" height="10.209" transform="translate(142.562 178.609)"/><rect class="b" width="61.684" height="17.364" transform="translate(84.798 202.545)"/><rect class="c" width="3.457" height="13.289" transform="translate(86.523 204.733)"/><circle class="d" cx="1.098" cy="1.098" r="1.098" transform="translate(91.85 206.432)"/><circle class="d" cx="1.098" cy="1.098" r="1.098" transform="translate(91.85 211.124)"/><rect class="c" width="3.397" height="10.209" transform="translate(98.439 206.432)"/><rect class="c" width="3.397" height="10.209" transform="translate(103.338 206.432)"/><rect class="c" width="3.397" height="10.209" transform="translate(108.245 206.432)"/><rect class="c" width="3.397" height="10.209" transform="translate(113.144 206.432)"/><rect class="c" width="3.397" height="10.209" transform="translate(118.051 206.432)"/><rect class="c" width="3.397" height="10.209" transform="translate(122.95 206.432)"/><rect class="c" width="3.397" height="10.209" transform="translate(127.857 206.432)"/><rect class="c" width="3.397" height="10.209" transform="translate(132.756 206.432)"/><rect class="c" width="3.397" height="10.209" transform="translate(137.663 206.432)"/><rect class="c" width="3.397" height="10.209" transform="translate(142.562 206.432)"/><path class="b" d="M195.385,232.613a2.006,2.006,0,0,1-.069-.532,14.438,14.438,0,0,0-.069-1.544c-.069-.686,0-1.493-.077-2.436a15.331,15.331,0,0,0-.42-3.166A11.282,11.282,0,0,0,193.1,221.5a7.764,7.764,0,0,0-3.372-2.711,16.651,16.651,0,0,0-4.787-.969l-5.319-.455c-7.275-.635-13.881-1.038-18.668-1.132-2.394-.051-4.29-.043-5.662,0H153.75a2.213,2.213,0,0,1-.54,0,2.393,2.393,0,0,1,.54-.06l1.536-.1c1.338-.051,3.277-.12,5.679-.1,4.8,0,11.41.369,18.7,1l5.311.463a16.661,16.661,0,0,1,4.907,1.029,8.047,8.047,0,0,1,3.517,2.874,11.522,11.522,0,0,1,1.647,3.6,14.832,14.832,0,0,1,.369,3.234c0,.952,0,1.776,0,2.445v1.536a2.866,2.866,0,0,1-.034.455Z" transform="translate(-72.435 -196.967)"/><path class="b" d="M176.626,233.472a1.784,1.784,0,0,1-.043-.506v-1.45c0-.592,0-1.4-.069-2.282a7.018,7.018,0,0,0-.764-2.857,5.5,5.5,0,0,0-2.78-2.136,7.721,7.721,0,0,0-4.049-.4,6.931,6.931,0,0,0-2.093.7,4.049,4.049,0,0,0-1.621,1.536,2.188,2.188,0,0,0,0,2.153,2.917,2.917,0,0,0,1.836,1.381,2.316,2.316,0,0,0,2.136-.626,3.183,3.183,0,0,0,.969-2.042,3.131,3.131,0,0,0-.643-2.093,4.616,4.616,0,0,0-1.621-1.433,6.288,6.288,0,0,0-2.033-.558c-.695-.1-1.373-.2-2.025-.266-1.313-.146-2.574-.232-3.663-.283-2.248-.086-4.075-.06-5.328-.06h-1.458a2.624,2.624,0,0,1-.506,0,2.247,2.247,0,0,1,.506-.06l1.45-.077c1.261-.051,3.089-.137,5.345-.086a36.346,36.346,0,0,1,3.689.232c.661.069,1.347.146,2.05.249.352.051.695.094,1.064.163a4.289,4.289,0,0,1,1.1.386,4.907,4.907,0,0,1,1.784,1.553,3.509,3.509,0,0,1,.721,2.368,3.569,3.569,0,0,1-1.09,2.334,2.762,2.762,0,0,1-2.574.729,3.286,3.286,0,0,1-2.119-1.6,2.617,2.617,0,0,1,0-2.574,4.392,4.392,0,0,1,1.8-1.716,7.275,7.275,0,0,1,2.231-.746,7.987,7.987,0,0,1,4.29.472,5.748,5.748,0,0,1,2.917,2.325,7.232,7.232,0,0,1,.738,2.994c.043.9,0,1.716,0,2.3s-.051,1.072-.069,1.45a1.784,1.784,0,0,1-.077.523Z" transform="translate(-72.387 -197.826)"/><path class="b" d="M200.415,232.328a2.574,2.574,0,0,1-.129-.575c-.069-.378-.18-.935-.335-1.647a32.377,32.377,0,0,0-1.819-5.877,17.159,17.159,0,0,0-5.371-7.189,10.1,10.1,0,0,0-4.907-1.87,50.279,50.279,0,0,0-5.782-.309c-7.97-.154-15.194-.12-20.418-.335-2.617-.094-4.727-.214-6.186-.326l-1.716-.137a2.873,2.873,0,0,1-.583-.086,2.848,2.848,0,0,1,.592,0l1.716.06c1.458.051,3.569.129,6.186.18,5.216.129,12.44.051,20.418.206a49.761,49.761,0,0,1,5.834.317,10.535,10.535,0,0,1,5.1,1.973,15.443,15.443,0,0,1,3.432,3.6,20.5,20.5,0,0,1,2.016,3.8,29.536,29.536,0,0,1,1.716,6.005c.129.721.215,1.287.249,1.673a2.7,2.7,0,0,1-.009.532Z" transform="translate(-72.43 -196.682)"/><rect class="b" width="59.985" height="8.708" transform="translate(85.648 2.771)"/><rect class="c" width="32.661" height="4.358" transform="translate(98.842 7.121)"/></g><g transform="translate(53.29 397.09)"><path class="e" d="M605.29,453.6c0,.12-123.583.223-275.983.223s-276.017-.1-276.017-.223,123.54-.223,276.017-.223S605.29,453.483,605.29,453.6Z" transform="translate(-53.29 -453.38)"/></g><g transform="translate(121.153 289.692)"><path class="f" d="M634.043,328.594s-4.942-3.209-10.836,8.579a151.926,151.926,0,0,0-8.116,18.617s-1.561,2.479-3.269.858-4.067-6.151-6.941-5.3-3.929,4.221-3.32,9.111,1.553,15.648,1.63,16.626-.455,2.368-1.784,1.467-9.06-9.36-12.869-5.456.146,17.253.549,18.72.12,2.093-.575,2.462-3.02-2.711-5.319-5.027-5.353-4.6-7.352-2.162-2.574,12.474,7.121,28.7l4.984,7.224,8.794-.558c18.745-2.351,26.321-8.974,27.007-12.011s-2.994-4.092-6.237-4.47-7.1-.317-7.232-1.1.189-1.381,1.587-1.973,14.344-5.688,15.091-11.084-10.672-6.271-12.2-6.769-.755-1.793.051-2.316,9.883-6.417,14.113-8.94,6.271-5.345,5.148-8.227-6.134-1.845-8.45-2.2-1.313-3.123-1.313-3.123a152.227,152.227,0,0,0,9.677-17.853c5.679-11.925,0-13.855,0-13.855" transform="translate(-195.23 -328.195)"/><path class="e" d="M629.915,341l-.112.257-.335.738-1.321,2.831c-1.15,2.454-2.84,6.005-4.942,10.364-4.2,8.742-10.115,20.762-16.686,34.016s-12.526,25.266-16.772,33.982l-5.027,10.295-1.373,2.805-.36.729c-.086.163-.137.24-.137.24l.1-.257.343-.738c.309-.661.746-1.613,1.321-2.831,1.141-2.454,2.831-6.005,4.942-10.364,4.2-8.742,10.115-20.762,16.7-34.025s12.508-25.257,16.764-33.973l5.027-10.295,1.373-2.805.36-.729A1.748,1.748,0,0,1,629.915,341Z" transform="translate(-196.396 -330.015)"/><path class="e" d="M613.44,362.82a3.23,3.23,0,0,1,.232.592c.129.386.3.952.506,1.647.412,1.4.935,3.346,1.458,5.508s.978,4.041,1.338,5.534q.249.978.412,1.673a2.372,2.372,0,0,1,.12.618,2.575,2.575,0,0,1-.232-.592c-.129-.386-.309-.944-.506-1.647-.395-1.407-.858-3.354-1.416-5.516s-1-4.041-1.373-5.525c-.172-.652-.309-1.21-.42-1.673A2.369,2.369,0,0,1,613.44,362.82Z" transform="translate(-200.742 -333.115)"/><path class="e" d="M619.12,380.274c0-.086,3.946-1.33,8.862-2.788s8.914-2.574,8.94-2.5-3.938,1.33-8.854,2.788S619.146,380.351,619.12,380.274Z" transform="translate(-201.549 -334.843)"/><path class="e" d="M606.28,404.227a2.523,2.523,0,0,1,.652-.043h1.759c1.484,0,3.543,0,5.8-.137s4.29-.266,5.791-.395l1.716-.146a2.179,2.179,0,0,1,.643,0,2.575,2.575,0,0,1-.626.129c-.412.069-1.012.154-1.716.249-1.476.18-3.526.377-5.8.48s-4.29.094-5.817.051c-.746,0-1.347-.051-1.759-.086a3.122,3.122,0,0,1-.643-.1Z" transform="translate(-199.725 -338.892)"/><path class="e" d="M597.49,388.9a2.229,2.229,0,0,1,.352.489c.215.317.506.789.858,1.373.721,1.175,1.716,2.805,2.754,4.616s2.008,3.432,2.677,4.65c.335.6.6,1.09.781,1.433a2.446,2.446,0,0,1,.257.54,2.288,2.288,0,0,1-.352-.48c-.214-.326-.506-.8-.858-1.381-.721-1.175-1.716-2.805-2.754-4.616s-2.008-3.432-2.677-4.65c-.335-.6-.6-1.09-.781-1.433A2.446,2.446,0,0,1,597.49,388.9Z" transform="translate(-198.476 -336.82)"/><path class="e" d="M583.56,407.94a4.1,4.1,0,0,1,.438.626c.3.463.669,1.055,1.115,1.767.927,1.493,2.2,3.578,3.578,5.877s2.617,4.4,3.5,5.928l1.03,1.819a3.327,3.327,0,0,1,.343.686,4.292,4.292,0,0,1-.446-.635l-1.107-1.759c-.935-1.5-2.2-3.578-3.578-5.885s-2.574-4.4-3.5-5.928c-.412-.721-.764-1.33-1.029-1.81A3.6,3.6,0,0,1,583.56,407.94Z" transform="translate(-196.496 -339.526)"/><path class="e" d="M595.07,426.607a4.916,4.916,0,0,1,.858-.069l2.23-.094c1.879-.086,4.487-.206,7.352-.42s5.465-.463,7.335-.661l2.222-.232a3.516,3.516,0,0,1,.858-.043,4.778,4.778,0,0,1-.806.163c-.523.086-1.278.2-2.213.326-1.87.249-4.461.54-7.344.746s-5.482.3-7.37.326h-2.231A3.9,3.9,0,0,1,595.07,426.607Z" transform="translate(-198.132 -341.961)"/><path class="f" d="M146.494,425.82a14.241,14.241,0,0,0-8.811-1.132,7.369,7.369,0,0,0-4.375,1.913c-1.1,1.2-1.313,3.312-.069,4.35a4.152,4.152,0,0,0,2.737.721c2.334,0,4.924-.4,6.778,1.012,1.055.806,1.759,2.145,3.02,2.574a3.011,3.011,0,0,0,3.32-1.45,5.148,5.148,0,0,0,.4-3.783,5.808,5.808,0,0,0-3-4.2Z" transform="translate(-132.393 -341.869)"/><g class="g" transform="translate(0 82.564)"><path d="M146.494,425.82a14.241,14.241,0,0,0-8.811-1.132,7.369,7.369,0,0,0-4.375,1.913c-1.1,1.2-1.313,3.312-.069,4.35a4.152,4.152,0,0,0,2.737.721c2.334,0,4.924-.4,6.778,1.012,1.055.806,1.759,2.145,3.02,2.574a3.011,3.011,0,0,0,3.32-1.45,5.148,5.148,0,0,0,.4-3.783,5.808,5.808,0,0,0-3-4.2Z" transform="translate(-132.393 -424.433)"/></g><path class="f" d="M154.292,408.237c-1.656,2.334-4.839,1.536-6.306.094s-2.076-3.517-2.634-5.5c-1.27-4.521-2.574-9.274-1.544-13.864a7.79,7.79,0,0,1,1.793-3.758,4.015,4.015,0,0,1,3.818-1.235c1.6.438,2.574,2.016,3.3,3.517a33.021,33.021,0,0,1,3.209,14.2,11.344,11.344,0,0,1-1.6,6.546" transform="translate(-133.962 -336.108)"/><g class="g" transform="translate(9.475 47.779)"><path class="f" d="M154.292,408.237c-1.656,2.334-4.839,1.536-6.306.094s-2.076-3.517-2.634-5.5c-1.27-4.521-2.574-9.274-1.544-13.864a7.79,7.79,0,0,1,1.793-3.758,4.015,4.015,0,0,1,3.818-1.235c1.6.438,2.574,2.016,3.3,3.517a33.021,33.021,0,0,1,3.209,14.2,11.344,11.344,0,0,1-1.6,6.546" transform="translate(-143.437 -383.887)"/></g><path class="f" d="M161.036,412.911a8.579,8.579,0,0,1-1.278-7.859,15.194,15.194,0,0,1,4.7-6.709,24.966,24.966,0,0,1,8.356-4.847,8.76,8.76,0,0,1,3.741-.609,3.929,3.929,0,0,1,3.131,1.922c.858,1.673,0,3.7-.909,5.345a62.893,62.893,0,0,1-5.525,8.279c-1.656,2.1-3.543,4.169-6.048,5.148s-5.1.806-6.409-.935" transform="translate(-136.218 -337.385)"/><path class="e" d="M153.932,449.891a5.364,5.364,0,0,1-.137-1.064c-.069-.772-.154-1.716-.266-2.908a40.847,40.847,0,0,0-.618-4.29,32.6,32.6,0,0,0-1.493-5.01,18.539,18.539,0,0,0-2.531-4.564,9.721,9.721,0,0,0-3.234-2.728,9.145,9.145,0,0,0-2.728-.858,4.835,4.835,0,0,1-1.055-.163,5.143,5.143,0,0,1,1.072,0,8.218,8.218,0,0,1,2.848.763,9.5,9.5,0,0,1,3.432,2.745,18.017,18.017,0,0,1,2.634,4.658,30.677,30.677,0,0,1,1.5,5.147,37.851,37.851,0,0,1,.54,4.29c.077,1.235.112,2.239.12,2.926A4.529,4.529,0,0,1,153.932,449.891Z" transform="translate(-133.739 -342.415)"/><path class="e" d="M154.882,442.909a1.861,1.861,0,0,1,0-.5c0-.369,0-.858,0-1.416v-5.19c-.077-4.384-.412-10.432-1.09-17.09s-1.621-12.646-2.479-16.944c-.2-1.072-.4-2.042-.6-2.891s-.335-1.587-.489-2.179-.232-1.012-.317-1.373a2.1,2.1,0,0,1-.086-.489,2.067,2.067,0,0,1,.172.463c.1.352.232.806.395,1.355s.36,1.321.566,2.162.446,1.819.669,2.891a160.515,160.515,0,0,1,2.574,16.961c.686,6.666.969,12.74.969,17.158,0,2.2-.051,3.972-.112,5.2,0,.575-.077,1.038-.1,1.407A2.1,2.1,0,0,1,154.882,442.909Z" transform="translate(-134.869 -337.664)"/><path class="e" d="M155.776,431.825a11.4,11.4,0,0,1,0-1.476c.069-.952.206-2.316.48-4a54.909,54.909,0,0,1,1.347-5.817,50.866,50.866,0,0,1,2.479-6.863,36.891,36.891,0,0,1,7.232-11.093,17.834,17.834,0,0,1,1.716-1.553c.257-.215.489-.429.721-.6l.661-.446a9.707,9.707,0,0,1,1.244-.789,43.432,43.432,0,0,0-4.1,3.6,38.881,38.881,0,0,0-7.052,11.05,56.073,56.073,0,0,0-2.5,6.812c-.652,2.136-1.09,4.1-1.424,5.765s-.5,3.011-.618,3.955A9.235,9.235,0,0,1,155.776,431.825Z" transform="translate(-135.712 -338.283)"/></g><g transform="translate(233.958 57.207)"><path class="e" d="M319.863,148.777c-.12,0-.223-9.437-.223-21.139s.1-21.148.223-21.148.223,9.437.223,21.148S319.992,148.777,319.863,148.777Z" transform="translate(-271.803 -64.21)"/><rect class="e" width="96.696" height="106.09" transform="translate(168.512 227.942)"/><rect class="h" width="105.704" height="26.226" transform="translate(154.399 249.158)"/><rect class="e" width="20.813" height="3.2" transform="translate(159.092 254.555)"/><rect class="e" width="20.813" height="3.2" transform="translate(159.092 260.071)"/><rect class="e" width="20.813" height="3.2" transform="translate(159.092 265.767)"/><path class="e" d="M482.775,355.982a1.193,1.193,0,1,1-1.192-1.193,1.192,1.192,0,0,1,1.192,1.193Z" transform="translate(-294.643 -99.489)"/><path class="e" d="M488.915,355.982a1.193,1.193,0,1,1-1.193-1.193A1.193,1.193,0,0,1,488.915,355.982Z" transform="translate(-295.515 -99.489)"/><path class="e" d="M495.055,355.982a1.193,1.193,0,1,1-1.193-1.193,1.193,1.193,0,0,1,1.193,1.193Z" transform="translate(-296.387 -99.489)"/><path class="e" d="M501.2,355.982A1.193,1.193,0,1,1,500,354.79a1.192,1.192,0,0,1,1.192,1.193Z" transform="translate(-297.26 -99.489)"/><path class="e" d="M548.785,355.982a1.193,1.193,0,1,1-1.193-1.193A1.193,1.193,0,0,1,548.785,355.982Z" transform="translate(-304.022 -99.489)"/><path class="e" d="M555.045,355.982a1.193,1.193,0,1,1-1.193-1.193A1.193,1.193,0,0,1,555.045,355.982Z" transform="translate(-304.911 -99.489)"/><path class="e" d="M507.335,355.982a1.193,1.193,0,1,1-1.193-1.193A1.193,1.193,0,0,1,507.335,355.982Z" transform="translate(-298.132 -99.489)"/><path class="e" d="M537.495,355.982a1.192,1.192,0,1,1-1.192-1.193,1.192,1.192,0,0,1,1.192,1.193Z" transform="translate(-302.418 -99.489)"/><path class="c" d="M513.475,355.982a1.193,1.193,0,1,1-1.193-1.193A1.193,1.193,0,0,1,513.475,355.982Z" transform="translate(-299.005 -99.489)"/><path class="c" d="M519.6,355.982a1.2,1.2,0,1,1-1.2-1.193,1.2,1.2,0,0,1,1.2,1.193Z" transform="translate(-299.873 -99.489)"/><path class="c" d="M532.082,355.982a1.2,1.2,0,1,1-1.2-1.193,1.2,1.2,0,0,1,1.2,1.193Z" transform="translate(-301.646 -99.489)"/><path class="c" d="M560.145,355.982a1.193,1.193,0,1,1-1.193-1.193A1.193,1.193,0,0,1,560.145,355.982Z" transform="translate(-305.636 -99.489)"/><path class="f" d="M525.762,355.982a1.2,1.2,0,1,1-1.193-1.193A1.2,1.2,0,0,1,525.762,355.982Z" transform="translate(-300.748 -99.489)"/><path class="f" d="M543.345,355.982a1.192,1.192,0,1,1-1.192-1.193,1.192,1.192,0,0,1,1.192,1.193Z" transform="translate(-303.249 -99.489)"/><path class="e" d="M557.76,362.693a1.193,1.193,0,1,1,1.193,1.193A1.193,1.193,0,0,1,557.76,362.693Z" transform="translate(-305.636 -100.442)"/><path class="e" d="M551.61,362.69a1.2,1.2,0,1,1,1.2,1.192,1.2,1.2,0,0,1-1.2-1.192Z" transform="translate(-304.762 -100.44)"/><path class="e" d="M545.47,362.69a1.2,1.2,0,1,1,1.193,1.193,1.2,1.2,0,0,1-1.193-1.193Z" transform="translate(-303.89 -100.44)"/><path class="e" d="M539.33,362.69a1.2,1.2,0,1,1,1.193,1.193A1.2,1.2,0,0,1,539.33,362.69Z" transform="translate(-303.017 -100.44)"/><path class="e" d="M491.74,362.69a1.2,1.2,0,1,1,1.193,1.193,1.2,1.2,0,0,1-1.193-1.193Z" transform="translate(-296.255 -100.44)"/><path class="e" d="M485.48,362.693a1.193,1.193,0,1,1,1.193,1.193A1.193,1.193,0,0,1,485.48,362.693Z" transform="translate(-295.366 -100.442)"/><path class="e" d="M533.19,362.693a1.193,1.193,0,1,1,1.193,1.193A1.193,1.193,0,0,1,533.19,362.693Z" transform="translate(-302.145 -100.442)"/><path class="e" d="M503,362.693a1.193,1.193,0,1,1,1.193,1.193A1.193,1.193,0,0,1,503,362.693Z" transform="translate(-297.855 -100.442)"/><path class="c" d="M527.05,362.693a1.193,1.193,0,1,1,1.193,1.193A1.193,1.193,0,0,1,527.05,362.693Z" transform="translate(-301.272 -100.442)"/><path class="c" d="M520.91,362.693a1.193,1.193,0,1,1,1.193,1.193A1.193,1.193,0,0,1,520.91,362.693Z" transform="translate(-300.4 -100.442)"/><path class="c" d="M508.45,362.693a1.193,1.193,0,1,1,1.193,1.193A1.193,1.193,0,0,1,508.45,362.693Z" transform="translate(-298.63 -100.442)"/><path class="c" d="M480.39,362.693a1.193,1.193,0,1,1,1.193,1.193A1.193,1.193,0,0,1,480.39,362.693Z" transform="translate(-294.643 -100.442)"/><path class="f" d="M514.77,362.693a1.193,1.193,0,1,1,1.193,1.193A1.193,1.193,0,0,1,514.77,362.693Z" transform="translate(-299.528 -100.442)"/><path class="f" d="M497.18,362.69a1.2,1.2,0,1,1,1.2,1.192,1.2,1.2,0,0,1-1.2-1.192Z" transform="translate(-297.028 -100.44)"/><circle class="e" cx="1.193" cy="1.193" r="1.193" transform="translate(185.747 266.171)"/><circle class="e" cx="1.193" cy="1.193" r="1.193" transform="translate(191.015 266.171)"/><circle class="e" cx="1.193" cy="1.193" r="1.193" transform="translate(196.283 266.171)"/><circle class="e" cx="1.193" cy="1.193" r="1.193" transform="translate(201.55 266.171)"/><circle class="e" cx="1.193" cy="1.193" r="1.193" transform="translate(242.378 266.171)"/><circle class="e" cx="1.193" cy="1.193" r="1.193" transform="translate(247.749 266.171)"/><circle class="e" cx="1.193" cy="1.193" r="1.193" transform="translate(206.818 266.171)"/><path class="e" d="M537.495,368.652a1.192,1.192,0,1,1-1.192-1.193,1.192,1.192,0,0,1,1.192,1.193Z" transform="translate(-302.418 -101.289)"/><circle class="c" cx="1.193" cy="1.193" r="1.193" transform="translate(212.085 266.171)"/><path class="c" d="M519.6,368.652a1.2,1.2,0,1,1-1.2-1.193,1.2,1.2,0,0,1,1.2,1.193Z" transform="translate(-299.873 -101.289)"/><circle class="c" cx="1.193" cy="1.193" r="1.193" transform="translate(228.043 266.171)"/><path class="c" d="M560.145,368.652a1.193,1.193,0,1,1-1.193-1.193,1.192,1.192,0,0,1,1.193,1.193Z" transform="translate(-305.636 -101.289)"/><circle class="f" cx="1.193" cy="1.193" r="1.193" transform="translate(222.629 266.171)"/><circle class="f" cx="1.193" cy="1.193" r="1.193" transform="translate(237.711 266.171)"/><rect class="h" width="105.704" height="26.226" transform="translate(154.399 281.519)"/><path class="e" d="M482.465,393.4a1.193,1.193,0,1,1-1.193-1.193,1.193,1.193,0,0,1,1.193,1.193Z" transform="translate(-294.599 -104.806)"/><path class="e" d="M488.605,393.4a1.193,1.193,0,1,1-1.193-1.193,1.193,1.193,0,0,1,1.193,1.193Z" transform="translate(-295.471 -104.806)"/><path class="e" d="M494.752,393.4a1.2,1.2,0,1,1-1.2-1.193,1.2,1.2,0,0,1,1.2,1.193Z" transform="translate(-296.342 -104.806)"/><path class="e" d="M500.892,393.4a1.2,1.2,0,1,1-1.193-1.193,1.2,1.2,0,0,1,1.193,1.193Z" transform="translate(-297.214 -104.806)"/><path class="e" d="M548.482,393.4a1.2,1.2,0,1,1-1.2-1.193,1.2,1.2,0,0,1,1.2,1.193Z" transform="translate(-303.976 -104.806)"/><path class="e" d="M554.745,393.4a1.193,1.193,0,1,1-1.193-1.193,1.193,1.193,0,0,1,1.193,1.193Z" transform="translate(-304.868 -104.806)"/><path class="e" d="M507.032,393.4a1.2,1.2,0,1,1-1.193-1.193,1.2,1.2,0,0,1,1.193,1.193Z" transform="translate(-298.087 -104.806)"/><path class="e" d="M537.192,393.4A1.2,1.2,0,1,1,536,392.21a1.2,1.2,0,0,1,1.193,1.193Z" transform="translate(-302.372 -104.806)"/><path class="c" d="M513.175,393.4a1.192,1.192,0,1,1-1.192-1.193,1.192,1.192,0,0,1,1.192,1.193Z" transform="translate(-298.962 -104.806)"/><path class="c" d="M519.315,393.4a1.193,1.193,0,1,1-1.193-1.193,1.193,1.193,0,0,1,1.193,1.193Z" transform="translate(-299.834 -104.806)"/><path class="c" d="M531.775,393.4a1.193,1.193,0,1,1-1.193-1.193,1.193,1.193,0,0,1,1.193,1.193Z" transform="translate(-301.605 -104.806)"/><path class="c" d="M559.835,393.4a1.193,1.193,0,1,1-1.193-1.193,1.193,1.193,0,0,1,1.193,1.193Z" transform="translate(-305.592 -104.806)"/><path class="f" d="M525.455,393.4a1.193,1.193,0,1,1-1.193-1.193,1.193,1.193,0,0,1,1.193,1.193Z" transform="translate(-300.707 -104.806)"/><path class="f" d="M543.042,393.4a1.2,1.2,0,1,1-1.2-1.193,1.2,1.2,0,0,1,1.2,1.193Z" transform="translate(-303.203 -104.806)"/><path class="e" d="M557.45,400.112a1.193,1.193,0,1,1,1.193,1.193,1.193,1.193,0,0,1-1.193-1.193Z" transform="translate(-305.592 -105.759)"/><path class="e" d="M551.31,400.112a1.193,1.193,0,1,1,1.193,1.193,1.193,1.193,0,0,1-1.193-1.193Z" transform="translate(-304.719 -105.759)"/><path class="e" d="M545.17,400.112a1.193,1.193,0,1,1,1.193,1.193,1.193,1.193,0,0,1-1.193-1.193Z" transform="translate(-303.847 -105.759)"/><path class="e" d="M539,400.112a1.193,1.193,0,1,1,1.193,1.193A1.193,1.193,0,0,1,539,400.112Z" transform="translate(-302.97 -105.759)"/><path class="e" d="M491.44,400.112a1.193,1.193,0,1,1,1.193,1.193,1.193,1.193,0,0,1-1.193-1.193Z" transform="translate(-296.213 -105.759)"/><path class="e" d="M485.18,400.112a1.193,1.193,0,1,1,1.193,1.193,1.193,1.193,0,0,1-1.193-1.193Z" transform="translate(-295.323 -105.759)"/><path class="e" d="M532.89,400.112a1.193,1.193,0,1,1,1.193,1.193,1.193,1.193,0,0,1-1.193-1.193Z" transform="translate(-302.102 -105.759)"/><path class="e" d="M502.73,400.112a1.193,1.193,0,1,1,1.193,1.193,1.193,1.193,0,0,1-1.193-1.193Z" transform="translate(-297.817 -105.759)"/><path class="c" d="M526.74,400.11a1.2,1.2,0,1,1,1.2,1.193,1.2,1.2,0,0,1-1.2-1.193Z" transform="translate(-301.228 -105.756)"/><path class="c" d="M520.6,400.11a1.2,1.2,0,1,1,1.2,1.193,1.2,1.2,0,0,1-1.2-1.193Z" transform="translate(-300.356 -105.756)"/><path class="c" d="M508.14,400.11a1.2,1.2,0,1,1,1.2,1.193,1.2,1.2,0,0,1-1.2-1.193Z" transform="translate(-298.586 -105.756)"/><path class="c" d="M480.08,400.112a1.193,1.193,0,1,1,1.192,1.193,1.193,1.193,0,0,1-1.192-1.193Z" transform="translate(-294.599 -105.759)"/><path class="f" d="M514.46,400.11a1.2,1.2,0,1,1,1.193,1.193A1.2,1.2,0,0,1,514.46,400.11Z" transform="translate(-299.484 -105.756)"/><path class="f" d="M496.88,400.112a1.193,1.193,0,1,1,1.193,1.193,1.193,1.193,0,0,1-1.193-1.193Z" transform="translate(-296.986 -105.759)"/><circle class="e" cx="1.193" cy="1.193" r="1.193" transform="translate(185.481 298.274)"/><circle class="e" cx="1.193" cy="1.193" r="1.193" transform="translate(190.749 298.274)"/><circle class="e" cx="1.193" cy="1.193" r="1.193" transform="translate(196.017 298.274)"/><circle class="e" cx="1.193" cy="1.193" r="1.193" transform="translate(201.293 298.274)"/><circle class="e" cx="1.193" cy="1.193" r="1.193" transform="translate(242.112 298.274)"/><circle class="e" cx="1.193" cy="1.193" r="1.193" transform="translate(247.491 298.274)"/><circle class="e" cx="1.193" cy="1.193" r="1.193" transform="translate(206.56 298.274)"/><circle class="e" cx="1.193" cy="1.193" r="1.193" transform="translate(232.435 298.274)"/><circle class="c" cx="1.193" cy="1.193" r="1.193" transform="translate(211.828 298.274)"/><circle class="c" cx="1.193" cy="1.193" r="1.193" transform="translate(217.096 298.274)"/><circle class="c" cx="1.193" cy="1.193" r="1.193" transform="translate(227.785 298.274)"/><path class="c" d="M559.835,406.072a1.193,1.193,0,1,1-1.193-1.193A1.192,1.192,0,0,1,559.835,406.072Z" transform="translate(-305.592 -106.606)"/><circle class="f" cx="1.193" cy="1.193" r="1.193" transform="translate(222.363 298.274)"/><circle class="f" cx="1.193" cy="1.193" r="1.193" transform="translate(237.445 298.274)"/><rect class="e" width="20.813" height="3.2" transform="translate(159.092 286.924)"/><rect class="e" width="20.813" height="3.2" transform="translate(159.092 292.432)"/><rect class="e" width="20.813" height="3.2" transform="translate(159.092 298.128)"/><rect class="h" width="105.704" height="26.226" transform="translate(154.399 313.879)"/><rect class="e" width="20.813" height="3.2" transform="translate(159.092 319.284)"/><rect class="e" width="20.813" height="3.2" transform="translate(159.092 324.792)"/><rect class="e" width="20.813" height="3.2" transform="translate(159.092 330.489)"/><path class="e" d="M482.022,431.122a1.2,1.2,0,1,1-1.193-1.193,1.2,1.2,0,0,1,1.193,1.193Z" transform="translate(-294.533 -110.165)"/><path class="e" d="M488.165,431.122a1.192,1.192,0,1,1-1.192-1.193,1.192,1.192,0,0,1,1.192,1.193Z" transform="translate(-295.409 -110.165)"/><path class="e" d="M494.305,431.122a1.193,1.193,0,1,1-1.193-1.193,1.193,1.193,0,0,1,1.193,1.193Z" transform="translate(-296.281 -110.165)"/><path class="e" d="M500.445,431.122a1.193,1.193,0,1,1-1.193-1.193,1.193,1.193,0,0,1,1.193,1.193Z" transform="translate(-297.153 -110.165)"/><path class="e" d="M548.035,431.122a1.193,1.193,0,1,1-1.193-1.193,1.193,1.193,0,0,1,1.193,1.193Z" transform="translate(-303.915 -110.165)"/><path class="e" d="M554.295,431.122a1.193,1.193,0,1,1-1.193-1.193,1.193,1.193,0,0,1,1.193,1.193Z" transform="translate(-304.805 -110.165)"/><path class="e" d="M506.6,431.122a1.193,1.193,0,1,1-1.193-1.193,1.193,1.193,0,0,1,1.193,1.193Z" transform="translate(-298.029 -110.165)"/><path class="e" d="M536.745,431.122a1.193,1.193,0,1,1-1.193-1.193,1.193,1.193,0,0,1,1.193,1.193Z" transform="translate(-302.311 -110.165)"/><path class="c" d="M512.725,431.122a1.192,1.192,0,1,1-1.192-1.193,1.193,1.193,0,0,1,1.192,1.193Z" transform="translate(-298.898 -110.165)"/><path class="c" d="M518.865,431.122a1.193,1.193,0,1,1-1.193-1.193,1.193,1.193,0,0,1,1.193,1.193Z" transform="translate(-299.771 -110.165)"/><path class="c" d="M531.325,431.122a1.193,1.193,0,1,1-1.193-1.193,1.193,1.193,0,0,1,1.193,1.193Z" transform="translate(-301.541 -110.165)"/><path class="c" d="M559.392,431.122a1.2,1.2,0,1,1-1.193-1.193,1.2,1.2,0,0,1,1.193,1.193Z" transform="translate(-305.526 -110.165)"/><path class="f" d="M525.012,431.122a1.2,1.2,0,1,1-1.2-1.193,1.2,1.2,0,0,1,1.2,1.193Z" transform="translate(-300.641 -110.165)"/><path class="f" d="M542.6,431.122a1.193,1.193,0,1,1-1.193-1.193,1.193,1.193,0,0,1,1.193,1.193Z" transform="translate(-303.144 -110.165)"/><path class="e" d="M557,437.8a1.2,1.2,0,1,1,1.2,1.192A1.2,1.2,0,0,1,557,437.8Z" transform="translate(-305.528 -111.112)"/><path class="e" d="M550.86,437.8a1.2,1.2,0,1,1,1.193,1.193,1.2,1.2,0,0,1-1.193-1.193Z" transform="translate(-304.655 -111.112)"/><path class="e" d="M544.72,437.8a1.193,1.193,0,1,1,1.193,1.193A1.192,1.192,0,0,1,544.72,437.8Z" transform="translate(-303.783 -111.114)"/><path class="e" d="M538.58,437.8a1.193,1.193,0,1,1,1.193,1.193A1.192,1.192,0,0,1,538.58,437.8Z" transform="translate(-302.911 -111.114)"/><path class="e" d="M491,437.8a1.193,1.193,0,1,1,1.193,1.193A1.193,1.193,0,0,1,491,437.8Z" transform="translate(-296.15 -111.114)"/><path class="e" d="M484.73,437.8a1.193,1.193,0,1,1,1.193,1.193,1.193,1.193,0,0,1-1.193-1.193Z" transform="translate(-295.259 -111.114)"/><path class="e" d="M532.44,437.8a1.193,1.193,0,1,1,1.193,1.193A1.192,1.192,0,0,1,532.44,437.8Z" transform="translate(-302.038 -111.114)"/><path class="e" d="M502.28,437.8a1.193,1.193,0,1,1,1.193,1.193A1.193,1.193,0,0,1,502.28,437.8Z" transform="translate(-297.753 -111.114)"/><path class="c" d="M526.3,437.8a1.193,1.193,0,1,1,1.193,1.193A1.192,1.192,0,0,1,526.3,437.8Z" transform="translate(-301.166 -111.114)"/><path class="c" d="M520.16,437.8a1.193,1.193,0,1,1,1.193,1.193A1.192,1.192,0,0,1,520.16,437.8Z" transform="translate(-300.293 -111.114)"/><path class="c" d="M507.7,437.8a1.193,1.193,0,1,1,1.193,1.193A1.193,1.193,0,0,1,507.7,437.8Z" transform="translate(-298.523 -111.114)"/><path class="c" d="M479.63,437.8a1.2,1.2,0,1,1,1.2,1.192,1.2,1.2,0,0,1-1.2-1.192Z" transform="translate(-294.535 -111.112)"/><path class="f" d="M514,437.8a1.193,1.193,0,1,1,1.193,1.193A1.192,1.192,0,0,1,514,437.8Z" transform="translate(-299.418 -111.114)"/><path class="f" d="M496.43,437.8a1.2,1.2,0,1,1,1.193,1.193A1.2,1.2,0,0,1,496.43,437.8Z" transform="translate(-296.922 -111.112)"/><path class="e" d="M482.022,443.8a1.2,1.2,0,1,1-.358-.855,1.2,1.2,0,0,1,.358.855Z" transform="translate(-294.533 -111.965)"/><path class="e" d="M488.165,443.8a1.192,1.192,0,1,1-1.192-1.193A1.192,1.192,0,0,1,488.165,443.8Z" transform="translate(-295.409 -111.967)"/><path class="e" d="M494.305,443.8a1.193,1.193,0,1,1-1.193-1.193A1.193,1.193,0,0,1,494.305,443.8Z" transform="translate(-296.281 -111.967)"/><path class="e" d="M500.445,443.8a1.193,1.193,0,1,1-1.193-1.193A1.193,1.193,0,0,1,500.445,443.8Z" transform="translate(-297.153 -111.967)"/><path class="e" d="M548.035,443.8a1.2,1.2,0,1,1-.361-.859,1.192,1.192,0,0,1,.361.859Z" transform="translate(-303.915 -111.965)"/><path class="e" d="M554.295,443.8a1.193,1.193,0,1,1-1.193-1.193A1.192,1.192,0,0,1,554.295,443.8Z" transform="translate(-304.805 -111.967)"/><path class="e" d="M506.6,443.8a1.193,1.193,0,1,1-1.193-1.193A1.193,1.193,0,0,1,506.6,443.8Z" transform="translate(-298.029 -111.967)"/><path class="e" d="M536.745,443.8a1.193,1.193,0,1,1-1.193-1.193A1.192,1.192,0,0,1,536.745,443.8Z" transform="translate(-302.311 -111.967)"/><path class="c" d="M512.725,443.8a1.192,1.192,0,1,1-1.192-1.193A1.192,1.192,0,0,1,512.725,443.8Z" transform="translate(-298.898 -111.967)"/><path class="c" d="M518.865,443.8a1.193,1.193,0,1,1-1.193-1.193A1.192,1.192,0,0,1,518.865,443.8Z" transform="translate(-299.771 -111.967)"/><path class="c" d="M531.325,443.8a1.193,1.193,0,1,1-1.193-1.193A1.192,1.192,0,0,1,531.325,443.8Z" transform="translate(-301.541 -111.967)"/><path class="c" d="M559.392,443.8a1.2,1.2,0,1,1-1.193-1.193A1.2,1.2,0,0,1,559.392,443.8Z" transform="translate(-305.526 -111.967)"/><path class="f" d="M525.012,443.8a1.2,1.2,0,1,1-1.2-1.193,1.2,1.2,0,0,1,1.2,1.193Z" transform="translate(-300.641 -111.967)"/><path class="f" d="M542.6,443.8a1.193,1.193,0,1,1-1.193-1.193A1.192,1.192,0,0,1,542.6,443.8Z" transform="translate(-303.144 -111.967)"/><path class="e" d="M582.947,373.806l-15.9.043V347.623l15.9-.043Z" transform="translate(-306.956 -98.465)"/><path class="e" d="M582.947,336.637l-15.9.043V310.453l15.9-.043Z" transform="translate(-306.956 -93.183)"/><path class="e" d="M582.947,411.286l-15.9.043V385.1l15.9-.043Z" transform="translate(-306.956 -103.79)"/><path class="e" d="M582.947,449.246l-15.9.043V423.063l15.9-.043Z" transform="translate(-306.956 -109.183)"/><rect class="h" width="105.704" height="26.226" transform="translate(155.163 217.029)"/><rect class="e" width="20.813" height="3.2" transform="translate(159.855 222.426)"/><rect class="e" width="20.813" height="3.2" transform="translate(159.855 227.942)"/><rect class="e" width="20.813" height="3.2" transform="translate(159.855 233.639)"/><path class="e" d="M483.665,318.533a1.192,1.192,0,1,1-1.192-1.193,1.193,1.193,0,0,1,1.192,1.193Z" transform="translate(-294.769 -94.168)"/><path class="e" d="M489.805,318.533a1.193,1.193,0,1,1-1.193-1.193,1.193,1.193,0,0,1,1.193,1.193Z" transform="translate(-295.642 -94.168)"/><path class="e" d="M495.945,318.533a1.193,1.193,0,1,1-1.193-1.193A1.193,1.193,0,0,1,495.945,318.533Z" transform="translate(-296.514 -94.168)"/><path class="e" d="M502.085,318.533a1.193,1.193,0,1,1-1.193-1.193A1.193,1.193,0,0,1,502.085,318.533Z" transform="translate(-297.386 -94.168)"/><path class="e" d="M549.675,318.533a1.193,1.193,0,1,1-1.193-1.193A1.193,1.193,0,0,1,549.675,318.533Z" transform="translate(-304.148 -94.168)"/><path class="e" d="M555.942,318.533a1.2,1.2,0,1,1-1.2-1.193A1.2,1.2,0,0,1,555.942,318.533Z" transform="translate(-305.036 -94.168)"/><path class="e" d="M508.232,318.533a1.2,1.2,0,1,1-1.2-1.193,1.2,1.2,0,0,1,1.2,1.193Z" transform="translate(-298.257 -94.168)"/><path class="e" d="M538.385,318.533a1.193,1.193,0,1,1-1.193-1.193A1.193,1.193,0,0,1,538.385,318.533Z" transform="translate(-302.544 -94.168)"/><path class="c" d="M514.372,318.533a1.2,1.2,0,1,1-1.2-1.193A1.2,1.2,0,0,1,514.372,318.533Z" transform="translate(-299.13 -94.168)"/><path class="c" d="M520.512,318.533a1.2,1.2,0,1,1-1.193-1.193A1.2,1.2,0,0,1,520.512,318.533Z" transform="translate(-300.002 -94.168)"/><path class="c" d="M532.972,318.533a1.2,1.2,0,1,1-1.193-1.193A1.2,1.2,0,0,1,532.972,318.533Z" transform="translate(-301.772 -94.168)"/><path class="c" d="M561.035,318.533a1.193,1.193,0,1,1-1.193-1.193,1.193,1.193,0,0,1,1.193,1.193Z" transform="translate(-305.762 -94.168)"/><path class="f" d="M526.655,318.533a1.192,1.192,0,1,1-1.192-1.193,1.192,1.192,0,0,1,1.192,1.193Z" transform="translate(-300.877 -94.168)"/><path class="f" d="M544.235,318.533a1.193,1.193,0,1,1-1.193-1.193A1.193,1.193,0,0,1,544.235,318.533Z" transform="translate(-303.375 -94.168)"/><path class="e" d="M558.65,325.242a1.193,1.193,0,1,1,1.193,1.193A1.193,1.193,0,0,1,558.65,325.242Z" transform="translate(-305.762 -95.121)"/><path class="e" d="M552.51,325.242a1.193,1.193,0,1,1,1.193,1.193A1.193,1.193,0,0,1,552.51,325.242Z" transform="translate(-304.89 -95.121)"/><path class="e" d="M546.37,325.242a1.193,1.193,0,1,1,1.193,1.193A1.193,1.193,0,0,1,546.37,325.242Z" transform="translate(-304.017 -95.121)"/><path class="e" d="M540.22,325.24a1.2,1.2,0,1,1,1.2,1.193,1.2,1.2,0,0,1-1.2-1.193Z" transform="translate(-303.144 -95.119)"/><path class="e" d="M492.64,325.242a1.193,1.193,0,1,1,1.193,1.193A1.193,1.193,0,0,1,492.64,325.242Z" transform="translate(-296.383 -95.121)"/><path class="e" d="M486.37,325.24a1.2,1.2,0,1,1,1.193,1.193,1.2,1.2,0,0,1-1.193-1.193Z" transform="translate(-295.492 -95.119)"/><path class="e" d="M534.08,325.24a1.2,1.2,0,1,1,1.193,1.193A1.2,1.2,0,0,1,534.08,325.24Z" transform="translate(-302.271 -95.119)"/><path class="e" d="M503.92,325.24a1.2,1.2,0,1,1,1.193,1.193A1.2,1.2,0,0,1,503.92,325.24Z" transform="translate(-297.986 -95.119)"/><path class="c" d="M527.94,325.242a1.193,1.193,0,1,1,1.193,1.193A1.193,1.193,0,0,1,527.94,325.242Z" transform="translate(-301.399 -95.121)"/><path class="c" d="M521.8,325.242a1.193,1.193,0,1,1,1.193,1.193A1.193,1.193,0,0,1,521.8,325.242Z" transform="translate(-300.526 -95.121)"/><path class="c" d="M509.34,325.242a1.192,1.192,0,1,1,1.193,1.193A1.193,1.193,0,0,1,509.34,325.242Z" transform="translate(-298.756 -95.121)"/><path class="c" d="M481.28,325.242a1.193,1.193,0,1,1,1.193,1.193,1.193,1.193,0,0,1-1.193-1.193Z" transform="translate(-294.769 -95.121)"/><path class="f" d="M515.66,325.242a1.193,1.193,0,1,1,1.193,1.193A1.193,1.193,0,0,1,515.66,325.242Z" transform="translate(-299.654 -95.121)"/><path class="f" d="M498.08,325.242a1.193,1.193,0,1,1,1.193,1.193,1.193,1.193,0,0,1-1.193-1.193Z" transform="translate(-297.156 -95.121)"/><path class="e" d="M483.665,331.2a1.192,1.192,0,1,1-1.192-1.193,1.193,1.193,0,0,1,1.192,1.193Z" transform="translate(-294.769 -95.968)"/><path class="e" d="M489.805,331.2a1.193,1.193,0,1,1-1.193-1.193,1.193,1.193,0,0,1,1.193,1.193Z" transform="translate(-295.642 -95.968)"/><path class="e" d="M495.945,331.2a1.193,1.193,0,1,1-1.15-1.2A1.192,1.192,0,0,1,495.945,331.2Z" transform="translate(-296.514 -95.967)"/><path class="e" d="M502.085,331.2a1.193,1.193,0,1,1-1.193-1.193A1.193,1.193,0,0,1,502.085,331.2Z" transform="translate(-297.386 -95.968)"/><path class="e" d="M549.675,331.2a1.193,1.193,0,1,1-1.193-1.193A1.193,1.193,0,0,1,549.675,331.2Z" transform="translate(-304.148 -95.968)"/><path class="e" d="M555.942,331.2a1.2,1.2,0,1,1-1.2-1.193,1.2,1.2,0,0,1,1.2,1.193Z" transform="translate(-305.036 -95.968)"/><path class="e" d="M508.232,331.2a1.2,1.2,0,1,1-1.2-1.193,1.2,1.2,0,0,1,1.2,1.193Z" transform="translate(-298.257 -95.968)"/><path class="e" d="M538.385,331.2a1.193,1.193,0,1,1-1.193-1.193A1.193,1.193,0,0,1,538.385,331.2Z" transform="translate(-302.544 -95.968)"/><path class="c" d="M514.372,331.2a1.2,1.2,0,1,1-1.2-1.193,1.2,1.2,0,0,1,1.2,1.193Z" transform="translate(-299.13 -95.968)"/><path class="c" d="M520.512,331.2a1.2,1.2,0,1,1-1.193-1.193A1.2,1.2,0,0,1,520.512,331.2Z" transform="translate(-300.002 -95.968)"/><path class="c" d="M532.972,331.2A1.2,1.2,0,1,1,531.8,330,1.2,1.2,0,0,1,532.972,331.2Z" transform="translate(-301.772 -95.967)"/><path class="c" d="M561.035,331.2a1.193,1.193,0,1,1-.358-.861A1.193,1.193,0,0,1,561.035,331.2Z" transform="translate(-305.762 -95.967)"/><path class="f" d="M526.655,331.2a1.192,1.192,0,1,1-1.192-1.193,1.192,1.192,0,0,1,1.192,1.193Z" transform="translate(-300.877 -95.968)"/><path class="f" d="M544.235,331.2a1.193,1.193,0,1,1-1.193-1.193A1.193,1.193,0,0,1,544.235,331.2Z" transform="translate(-303.375 -95.968)"/><path class="e" d="M365.11,90.977H378.5l36.65-.069,120.889-.069a26.733,26.733,0,0,1,8.725,1.338,24.133,24.133,0,0,1,7.635,4.2,25.18,25.18,0,0,1,8.759,14.327A41.554,41.554,0,0,1,561.65,119v23.824c0,20.453,0,38.881-.052,54.349v16.112a10.294,10.294,0,0,1-.978,4.667,9.686,9.686,0,0,1-6.477,5.31,14.722,14.722,0,0,1-3.775.292h0a14.68,14.68,0,0,0,3.732-.3,9.437,9.437,0,0,0,6.3-5.216,9.943,9.943,0,0,0,.858-4.581V119.168a41.046,41.046,0,0,0-.48-8.2,24.8,24.8,0,0,0-8.579-14.1,23.885,23.885,0,0,0-7.5-4.127,26.544,26.544,0,0,0-8.579-1.313l-120.889-.06-36.65-.077H366.045Z" transform="translate(-278.263 -61.985)"/><rect class="a" width="82.883" height="253.9" transform="translate(0.326 85.734)"/><path class="b" d="M426.24,411.04H360.85l-.12-253.9h65.51Z" transform="translate(-277.641 -71.406)"/><rect class="e" width="70.306" height="19.792" transform="translate(4.907 126.373)"/><rect class="h" width="3.938" height="15.151" transform="translate(6.872 128.861)"/><path class="f" d="M281.475,210.913a1.253,1.253,0,1,1-1.253-1.253,1.253,1.253,0,0,1,1.253,1.253Z" transform="translate(-266.024 -78.868)"/><path class="f" d="M281.475,217.153a1.253,1.253,0,1,1-1.253-1.253,1.253,1.253,0,0,1,1.253,1.253Z" transform="translate(-266.024 -79.755)"/><rect class="h" width="3.869" height="11.633" transform="translate(20.453 130.792)"/><rect class="h" width="3.869" height="11.633" transform="translate(26.038 130.792)"/><rect class="h" width="3.869" height="11.633" transform="translate(31.631 130.792)"/><rect class="h" width="3.869" height="11.633" transform="translate(37.216 130.792)"/><rect class="h" width="3.869" height="11.633" transform="translate(42.801 130.792)"/><rect class="h" width="3.869" height="11.633" transform="translate(48.395 130.792)"/><rect class="h" width="3.869" height="11.633" transform="translate(53.98 130.792)"/><rect class="h" width="3.869" height="11.633" transform="translate(59.565 130.792)"/><rect class="h" width="3.869" height="11.633" transform="translate(65.159 130.792)"/><rect class="h" width="3.869" height="11.633" transform="translate(70.744 130.792)"/><rect class="e" width="70.306" height="19.792" transform="translate(4.907 154.805)"/><rect class="h" width="3.938" height="15.151" transform="translate(6.872 157.293)"/><path class="f" d="M281.475,244.063a1.253,1.253,0,1,1-1.253-1.253,1.253,1.253,0,0,1,1.253,1.253Z" transform="translate(-266.024 -83.578)"/><path class="f" d="M281.475,250.3a1.253,1.253,0,1,1-1.253-1.253A1.253,1.253,0,0,1,281.475,250.3Z" transform="translate(-266.024 -84.465)"/><rect class="h" width="3.869" height="11.633" transform="translate(20.453 159.232)"/><rect class="h" width="3.869" height="11.633" transform="translate(26.038 159.232)"/><rect class="h" width="3.869" height="11.633" transform="translate(31.631 159.232)"/><rect class="h" width="3.869" height="11.633" transform="translate(37.216 159.232)"/><rect class="h" width="3.869" height="11.633" transform="translate(42.801 159.232)"/><rect class="h" width="3.869" height="11.633" transform="translate(48.395 159.232)"/><rect class="h" width="3.869" height="11.633" transform="translate(53.98 159.232)"/><rect class="h" width="3.869" height="11.633" transform="translate(59.565 159.232)"/><rect class="h" width="3.869" height="11.633" transform="translate(65.159 159.232)"/><rect class="h" width="3.869" height="11.633" transform="translate(70.744 159.232)"/><rect class="e" width="70.306" height="19.792" transform="translate(4.907 183.468)"/><rect class="h" width="3.938" height="15.151" transform="translate(6.872 185.956)"/><path class="f" d="M281.475,277.473a1.253,1.253,0,1,1-1.253-1.253,1.253,1.253,0,0,1,1.253,1.253Z" transform="translate(-266.024 -88.326)"/><path class="f" d="M281.475,283.713a1.253,1.253,0,1,1-1.253-1.253,1.253,1.253,0,0,1,1.253,1.253Z" transform="translate(-266.024 -89.212)"/><rect class="h" width="3.869" height="11.633" transform="translate(20.453 187.894)"/><rect class="h" width="3.869" height="11.633" transform="translate(26.038 187.894)"/><rect class="h" width="3.869" height="11.633" transform="translate(31.631 187.894)"/><rect class="h" width="3.869" height="11.633" transform="translate(37.216 187.894)"/><rect class="h" width="3.869" height="11.633" transform="translate(42.801 187.894)"/><rect class="h" width="3.869" height="11.633" transform="translate(48.395 187.894)"/><rect class="h" width="3.869" height="11.633" transform="translate(53.98 187.894)"/><rect class="h" width="3.869" height="11.633" transform="translate(59.565 187.894)"/><rect class="h" width="3.869" height="11.633" transform="translate(65.159 187.894)"/><rect class="h" width="3.869" height="11.633" transform="translate(70.744 187.894)"/><rect class="e" width="70.306" height="19.792" transform="translate(4.907 214.438)"/><rect class="h" width="3.938" height="15.151" transform="translate(6.872 216.926)"/><path class="f" d="M281.475,313.563a1.253,1.253,0,1,1-1.253-1.253,1.253,1.253,0,0,1,1.253,1.253Z" transform="translate(-266.024 -93.453)"/><path class="f" d="M281.475,319.793a1.253,1.253,0,1,1-1.253-1.253A1.253,1.253,0,0,1,281.475,319.793Z" transform="translate(-266.024 -94.338)"/><rect class="h" width="3.869" height="11.633" transform="translate(20.453 218.857)"/><rect class="h" width="3.869" height="11.633" transform="translate(26.038 218.857)"/><rect class="h" width="3.869" height="11.633" transform="translate(31.631 218.857)"/><rect class="h" width="3.869" height="11.633" transform="translate(37.216 218.857)"/><rect class="h" width="3.869" height="11.633" transform="translate(42.801 218.857)"/><rect class="h" width="3.869" height="11.633" transform="translate(48.395 218.857)"/><rect class="h" width="3.869" height="11.633" transform="translate(53.98 218.857)"/><rect class="h" width="3.869" height="11.633" transform="translate(59.565 218.857)"/><rect class="h" width="3.869" height="11.633" transform="translate(65.159 218.857)"/><rect class="h" width="3.869" height="11.633" transform="translate(70.744 218.857)"/><rect class="e" width="70.306" height="19.792" transform="translate(4.907 245.709)"/><rect class="h" width="3.938" height="15.151" transform="translate(6.872 248.197)"/><path class="f" d="M281.475,350.013a1.253,1.253,0,1,1-1.253-1.253,1.253,1.253,0,0,1,1.253,1.253Z" transform="translate(-266.024 -98.632)"/><path class="f" d="M281.475,356.253A1.253,1.253,0,1,1,280.223,355,1.253,1.253,0,0,1,281.475,356.253Z" transform="translate(-266.024 -99.519)"/><rect class="h" width="3.869" height="11.633" transform="translate(20.453 250.128)"/><rect class="h" width="3.869" height="11.633" transform="translate(26.038 250.128)"/><rect class="h" width="3.869" height="11.633" transform="translate(31.631 250.128)"/><rect class="h" width="3.869" height="11.633" transform="translate(37.216 250.128)"/><rect class="h" width="3.869" height="11.633" transform="translate(42.801 250.128)"/><rect class="h" width="3.869" height="11.633" transform="translate(48.395 250.128)"/><rect class="h" width="3.869" height="11.633" transform="translate(53.98 250.128)"/><rect class="h" width="3.869" height="11.633" transform="translate(59.565 250.128)"/><rect class="h" width="3.869" height="11.633" transform="translate(65.159 250.128)"/><rect class="h" width="3.869" height="11.633" transform="translate(70.744 250.128)"/><rect class="e" width="70.306" height="19.792" transform="translate(4.907 307.943)"/><rect class="h" width="3.938" height="15.151" transform="translate(6.872 310.431)"/><path class="f" d="M281.475,422.553a1.253,1.253,0,1,1-1.253-1.253,1.253,1.253,0,0,1,1.253,1.253Z" transform="translate(-266.024 -108.939)"/><path class="f" d="M281.475,428.793a1.253,1.253,0,1,1-1.253-1.253A1.253,1.253,0,0,1,281.475,428.793Z" transform="translate(-266.024 -109.826)"/><rect class="h" width="3.869" height="11.633" transform="translate(20.453 312.361)"/><rect class="h" width="3.869" height="11.633" transform="translate(26.038 312.361)"/><rect class="h" width="3.869" height="11.633" transform="translate(31.631 312.361)"/><rect class="h" width="3.869" height="11.633" transform="translate(37.216 312.361)"/><rect class="h" width="3.869" height="11.633" transform="translate(42.801 312.361)"/><rect class="h" width="3.869" height="11.633" transform="translate(48.395 312.361)"/><rect class="h" width="3.869" height="11.633" transform="translate(53.98 312.361)"/><rect class="h" width="3.869" height="11.633" transform="translate(59.565 312.361)"/><rect class="h" width="3.869" height="11.633" transform="translate(65.159 312.361)"/><rect class="h" width="3.869" height="11.633" transform="translate(70.744 312.361)"/><rect class="e" width="70.306" height="19.792" transform="translate(4.907 276.852)"/><rect class="h" width="3.938" height="15.151" transform="translate(6.872 279.34)"/><path class="f" d="M281.475,386.313a1.253,1.253,0,1,1-1.253-1.253,1.253,1.253,0,0,1,1.253,1.253Z" transform="translate(-266.024 -103.79)"/><path class="f" d="M281.475,392.553a1.253,1.253,0,1,1-1.253-1.253,1.253,1.253,0,0,1,1.253,1.253Z" transform="translate(-266.024 -104.677)"/><rect class="h" width="3.869" height="11.633" transform="translate(20.453 281.27)"/><rect class="h" width="3.869" height="11.633" transform="translate(26.038 281.27)"/><rect class="h" width="3.869" height="11.633" transform="translate(31.631 281.27)"/><rect class="h" width="3.869" height="11.633" transform="translate(37.216 281.27)"/><rect class="h" width="3.869" height="11.633" transform="translate(42.801 281.27)"/><rect class="h" width="3.869" height="11.633" transform="translate(48.395 281.27)"/><rect class="h" width="3.869" height="11.633" transform="translate(53.98 281.27)"/><rect class="h" width="3.869" height="11.633" transform="translate(59.565 281.27)"/><rect class="h" width="3.869" height="11.633" transform="translate(65.159 281.27)"/><rect class="h" width="3.869" height="11.633" transform="translate(70.744 281.27)"/><path class="e" d="M312.336,201.367a3,3,0,0,1-.077-.618c0-.395-.043-1-.069-1.716s0-1.716-.077-2.771a18.145,18.145,0,0,0-.48-3.612,13.108,13.108,0,0,0-1.879-3.964,8.768,8.768,0,0,0-3.861-3.1,18.686,18.686,0,0,0-5.465-1.115l-6.048-.523c-8.3-.721-15.829-1.175-21.285-1.278-2.728-.06-4.933,0-6.46,0h-1.716a2.743,2.743,0,0,1-.609,0,3.433,3.433,0,0,1,.609-.069l1.716-.1c1.527-.06,3.74-.129,6.477-.112,5.465,0,13.006.429,21.311,1.15l6.057.54a18.815,18.815,0,0,1,5.585,1.167,9.068,9.068,0,0,1,4,3.26,13.1,13.1,0,0,1,1.879,4.092,17.157,17.157,0,0,1,.429,3.689c0,1.081,0,2.016,0,2.78v1.716A3.435,3.435,0,0,1,312.336,201.367Z" transform="translate(-263.941 -74.993)"/><path class="e" d="M290.947,202.351a2.349,2.349,0,0,1-.043-.583v-1.647c0-.678,0-1.6-.086-2.574a7.91,7.91,0,0,0-.858-3.26,6.177,6.177,0,0,0-3.174-2.445,8.691,8.691,0,0,0-4.633-.472,7.661,7.661,0,0,0-2.394.806,4.573,4.573,0,0,0-1.853,1.716,2.522,2.522,0,0,0,0,2.488,3.363,3.363,0,0,0,2.11,1.587,2.685,2.685,0,0,0,2.471-.721,3.543,3.543,0,0,0,.369-4.77A5.225,5.225,0,0,0,281,190.838a6.863,6.863,0,0,0-2.325-.6c-.789-.12-1.561-.223-2.308-.309-1.5-.163-2.9-.257-4.178-.309-2.574-.1-4.641-.06-6.074-.06h-1.656a2.711,2.711,0,0,1-.575,0,2.77,2.77,0,0,1,.575-.06l1.647-.077c1.441-.06,3.517-.146,6.091-.086a42.033,42.033,0,0,1,4.2.266c.755.069,1.536.172,2.334.283.4.06.8.112,1.218.189a4.908,4.908,0,0,1,1.235.429,5.628,5.628,0,0,1,2.025,1.767,4.006,4.006,0,0,1,.858,2.677,4.1,4.1,0,0,1-1.3,2.677,3.123,3.123,0,0,1-2.874.858,3.749,3.749,0,0,1-2.4-1.8,2.951,2.951,0,0,1,0-2.908,4.967,4.967,0,0,1,2.033-1.922,8.236,8.236,0,0,1,2.531-.858,9.085,9.085,0,0,1,4.839.532,6.52,6.52,0,0,1,3.312,2.634,8.1,8.1,0,0,1,.858,3.432c.06,1.021,0,1.9,0,2.625s-.051,1.227-.069,1.647A4.366,4.366,0,0,1,290.947,202.351Z" transform="translate(-263.88 -75.978)"/><path class="e" d="M318.088,201.045a3.27,3.27,0,0,1-.146-.661c-.077-.429-.2-1.064-.369-1.879a36.511,36.511,0,0,0-2.068-6.709,19.6,19.6,0,0,0-6.117-8.21,11.651,11.651,0,0,0-5.611-2.136,58.458,58.458,0,0,0-6.6-.352c-9.085-.172-17.321-.137-23.275-.369-2.977-.1-5.388-.24-7.052-.36l-1.913-.154a2.968,2.968,0,0,1-.661-.094h.618l1.913.077c1.664.06,4.075.154,7.052.214,5.954.154,14.181.069,23.275.24a56,56,0,0,1,6.649.369,11.831,11.831,0,0,1,5.791,2.239,17.691,17.691,0,0,1,3.869,4.092,23.893,23.893,0,0,1,2.3,4.29,33.707,33.707,0,0,1,1.947,6.795c.146.858.24,1.467.283,1.9a5.383,5.383,0,0,1,.112.7Z" transform="translate(-263.937 -74.671)"/><rect class="e" width="68.376" height="9.926" transform="translate(5.877 88.891)"/><rect class="h" width="37.225" height="4.959" transform="translate(20.916 93.858)"/><path class="e" d="M378.354,400.77c0,.051-.755.129-2.068.506a17.93,17.93,0,0,0-5.147,2.531,14.112,14.112,0,0,0-2.9,2.694,9.713,9.713,0,0,0-1.193,1.845,11.686,11.686,0,0,0-.746,2.2c-.781,3.131-.549,6.726-.395,10.467s-.086,7.455-1.561,10.449a11.6,11.6,0,0,1-2.788,3.732,13.632,13.632,0,0,1-6.632,3.131,11.4,11.4,0,0,1-2.522.1,8,8,0,0,1-1.57-.249,3.27,3.27,0,0,1-.532-.154c0-.06.746.172,2.11.232a12.055,12.055,0,0,0,2.471-.18,13.4,13.4,0,0,0,3.114-1,13.674,13.674,0,0,0,3.312-2.162,11.281,11.281,0,0,0,2.66-3.638c1.416-2.9,1.647-6.537,1.493-10.252s-.386-7.37.438-10.587a12.274,12.274,0,0,1,.8-2.273,10.023,10.023,0,0,1,1.253-1.9,14.841,14.841,0,0,1,3-2.72,17.158,17.158,0,0,1,5.3-2.436,12.378,12.378,0,0,1,1.561-.3,3.326,3.326,0,0,1,.54-.043Z" transform="translate(-276.159 -106.022)"/><rect class="e" width="5.611" height="6.829" transform="translate(70.632 328.936)"/><rect class="h" width="31.477" height="34.488" transform="translate(102.152 277.504)"/><circle class="e" cx="10.364" cy="10.364" r="10.364" transform="translate(105.514 302.739) rotate(-77.54)"/><path class="h" d="M405.625,400.077a5.147,5.147,0,1,1-5.147-5.147,5.147,5.147,0,0,1,5.147,5.147Z" transform="translate(-282.557 -105.192)"/><circle class="e" cx="0.961" cy="0.961" r="0.961" transform="translate(105.446 281.896)"/><circle class="e" cx="0.961" cy="0.961" r="0.961" transform="translate(127.847 281.896)"/><path class="e" d="M415.069,416.441a.969.969,0,1,1-.969-.961.97.97,0,0,1,.969.961Z" transform="translate(-285.086 -108.112)"/><circle class="e" cx="0.961" cy="0.961" r="0.961" transform="translate(105.446 307.762)"/><rect class="e" width="2.539" height="34.488" transform="translate(133.629 277.504)"/><path class="f" d="M360.486,104.712c3.106-7.258,1.218-14.825-3.886-20.847a21.86,21.86,0,0,0-21.388-6.932,23.91,23.91,0,0,0-47.426,3.08A17.9,17.9,0,0,0,274.119,104.3Z" transform="translate(-265.154 -57.207)"/><path class="e" d="M579.784,317.677a1.416,1.416,0,0,1,.309,0h.858l3.432-.043a18.609,18.609,0,0,0,5.379-.635,16.506,16.506,0,0,0,11.153-10.346,14.576,14.576,0,0,0,.961-4.71c.094-1.656,0-3.432.043-5.147V267.669a25.522,25.522,0,0,0-.112-2.934,12.635,12.635,0,0,0-.669-2.78,13.28,13.28,0,0,0-7.275-7.721c-3.226-1.484-6.709-.978-9.84-1.115l-8.776-.086-12.7-.163-3.432-.06h29.8a13.331,13.331,0,0,1,5.147,1.072,13.727,13.727,0,0,1,7.524,8,12.867,12.867,0,0,1,.7,2.874,24.866,24.866,0,0,1,.12,2.986v29.126c0,1.784.043,3.492-.06,5.19a17.921,17.921,0,0,1-.317,2.488,18.363,18.363,0,0,1-.686,2.334,16.764,16.764,0,0,1-11.487,10.467,18.754,18.754,0,0,1-5.439.558h-4.29A1.209,1.209,0,0,1,579.784,317.677Z" transform="translate(-305.663 -84.999)"/><path class="f" d="M315.691,108.123V95.966H309.6l9.171-12.946,9.171,12.86h-5.98v12.242Z" transform="translate(-270.376 -60.875)"/></g><g transform="translate(385.403 136.262)"><path class="b" d="M559.84,294.422l6.477,8.459,12.328-5.456-7.884-12.654Z" transform="translate(-457.376 -168.595)"/><path class="h" d="M564.31,297.18l.2,4.187,4.084,1.913-.214-4.29Z" transform="translate(-458.011 -170.359)"/><path class="h" d="M568.82,294.45l.2,4.187,4.084,1.913-.206-4.29Z" transform="translate(-458.652 -169.971)"/><path class="h" d="M573.41,291.73l.2,4.187,4.084,1.9-.214-4.281Z" transform="translate(-459.304 -169.584)"/><path class="f" d="M580.1,298.957l-1.407-2.145-12.079,7.644,2.848,4.77.789-.395c3.517-1.784,17.733-9.343,19.612-11.359C591.953,295.25,580.1,298.957,580.1,298.957Z" transform="translate(-458.338 -170.299)"/><g class="i" transform="translate(108.967 134.311)"><path class="f" d="M573.983,307.832a5,5,0,0,0-3.063-1.845,4.161,4.161,0,0,0-3.5.918l2.059,3.432Z" transform="translate(-567.42 -305.91)"/></g><path class="j" d="M586.446,297.32s4.29-1.072,4.178-.206-14.19,9.051-20.719,12.114l-.146-.283,16.506-9.4S585.743,297.766,586.446,297.32Z" transform="translate(-458.786 -170.301)"/><path class="e" d="M569.53,309.069a.739.739,0,0,0,.232-.1l.626-.317,2.3-1.2c1.93-1.03,4.581-2.5,7.481-4.169s5.474-3.252,7.335-4.418l2.188-1.4.583-.386.206-.146a.394.394,0,0,0-.223.12l-.6.36c-.609.36-1.347.815-2.222,1.347-1.87,1.141-4.461,2.694-7.352,4.375s-5.534,3.149-7.455,4.2l-2.273,1.253-.609.352A1,1,0,0,0,569.53,309.069Z" transform="translate(-458.753 -170.323)"/><path class="e" d="M589.076,299.8a5.33,5.33,0,0,1-.206-1.313,5.427,5.427,0,0,1,.266-1.3,1.853,1.853,0,0,0-.437,1.3,1.913,1.913,0,0,0,.377,1.321Z" transform="translate(-461.476 -170.359)"/><path class="e" d="M583.628,300.307c.051,0,.1-.309.12-.7a1.716,1.716,0,0,0-.06-.7c-.051,0-.1.309-.12.7A1.716,1.716,0,0,0,583.628,300.307Z" transform="translate(-460.746 -170.603)"/><path class="e" d="M582.117,300.411a2.316,2.316,0,0,0,.266-.54c.1-.309.146-.583.1-.6s-.163.232-.266.54S582.074,300.394,582.117,300.411Z" transform="translate(-460.539 -170.655)"/><path class="e" d="M580.6,299.547a1.738,1.738,0,0,0,.686-.292c.36-.206.635-.4.609-.446s-.335.094-.695.292S580.574,299.5,580.6,299.547Z" transform="translate(-460.326 -170.589)"/><path class="e" d="M579.79,298.738a1.519,1.519,0,0,0,.858-.206c.438-.214.712-.5.678-.532a4.291,4.291,0,0,0-.755.369,4.634,4.634,0,0,0-.781.369Z" transform="translate(-460.211 -170.475)"/><path class="e" d="M583.4,298.631a2.573,2.573,0,0,0,.789-.463,5.146,5.146,0,0,0,.738-.678,3.2,3.2,0,0,0,.369-.48.5.5,0,0,0,.052-.36.369.369,0,0,0-.3-.249,1.716,1.716,0,0,0-1.553,1.476,1.629,1.629,0,0,0,0,.678c.052.154.094.232.112.223a2.573,2.573,0,0,1,0-.858,1.716,1.716,0,0,1,.42-.858,1.441,1.441,0,0,1,.987-.489c.18,0,.214.2.12.36a2.813,2.813,0,0,1-.335.455,6.472,6.472,0,0,1-.695.686C583.692,298.433,583.383,298.631,583.4,298.631Z" transform="translate(-460.724 -170.248)"/><path class="e" d="M583.381,298.718a.857.857,0,0,0-.232-.609,1.39,1.39,0,0,0-.549-.446.927.927,0,0,0-.858,0,.36.36,0,0,0,0,.506.859.859,0,0,0,.335.275,2.66,2.66,0,0,0,.661.266,1.3,1.3,0,0,0,.635.06,5.263,5.263,0,0,1-.6-.18,2.575,2.575,0,0,1-.609-.283c-.206-.1-.455-.36-.283-.506a.858.858,0,0,1,.721,0,1.6,1.6,0,0,1,.523.386,4.035,4.035,0,0,1,.258.532Z" transform="translate(-460.473 -170.412)"/><path class="e" d="M567.54,306.825a5.473,5.473,0,0,1,.927-.5,4.547,4.547,0,0,1,2.471-.335,4.461,4.461,0,0,1,2.256,1.03c.5.42.721.764.746.746s0-.094-.137-.249a4.519,4.519,0,0,0-.523-.592,4.444,4.444,0,0,0-2.316-1.107,4.29,4.29,0,0,0-2.574.395,3.436,3.436,0,0,0-.669.412A.788.788,0,0,0,567.54,306.825Z" transform="translate(-458.47 -171.579)"/><path class="e" d="M576.07,305.36a8.336,8.336,0,0,0,1.9-.858,7.858,7.858,0,0,0,1.716-1.193c0-.043-.806.472-1.8,1.038S576.053,305.309,576.07,305.36Z" transform="translate(-459.682 -171.229)"/><path class="e" d="M573.25,307.327c0,.043.163.129.352.266s.335.275.369.249-.043-.232-.266-.386S573.259,307.284,573.25,307.327Z" transform="translate(-459.282 -171.797)"/><path class="e" d="M571.42,306.614c0,.051.137.129.343.189s.377.06.386,0-.137-.129-.343-.189S571.429,306.571,571.42,306.614Z" transform="translate(-459.022 -171.693)"/><path class="e" d="M569.549,306.853c0,.043.2-.06.412-.1s.4,0,.42-.06-.189-.163-.455-.1S569.515,306.827,569.549,306.853Z" transform="translate(-458.755 -171.693)"/><path class="e" d="M568.3,307.228c0,.043.112.069.24.043s.223-.069.215-.12-.112-.069-.24-.051S568.291,307.176,568.3,307.228Z" transform="translate(-458.578 -171.767)"/><path class="e" d="M464.45,280.4,512.7,234.93a15.829,15.829,0,0,1,11.342-4.77h0a15.846,15.846,0,0,1,13.727,7.987l24.691,42.415L546.793,289.6,523.02,259.363l-23.781,21.5Z" transform="translate(-443.823 -160.836)"/><path class="e" d="M447.875,289.824c-.2.618-1.63,16.155,19.226,16.155h55.765A12.766,12.766,0,0,0,535.639,293.2h0a12.774,12.774,0,0,0-12.774-12.774H470.944a12.706,12.706,0,0,0-5.379,1.193Z" transform="translate(-441.454 -167.979)"/><path class="h" d="M532.475,280.393c0,.129-11.513.223-25.737.223S481,280.522,481,280.393s11.5-.223,25.737-.223S532.475,280.273,532.475,280.393Z" transform="translate(-446.174 -167.942)"/><path class="h" d="M530.983,251.77c.129,0,.137,2.419.575,5.336s1.115,5.242.987,5.276a22.417,22.417,0,0,1-1.561-10.612Z" transform="translate(-453.262 -163.906)"/><path class="h" d="M533.59,251.37a33.9,33.9,0,0,1-.935,10.9c-.129,0,.214-2.445.463-5.448S533.462,251.37,533.59,251.37Z" transform="translate(-453.51 -163.85)"/><path class="e" d="M482.636,168.456a1.63,1.63,0,0,1-2.625,1.45c-.952-.738-.8-2.222-.369-3.346s1.072-2.291.8-3.432a8.091,8.091,0,0,0-1.424-2.342,5.2,5.2,0,0,1-.575-4.607,4.375,4.375,0,0,1,3.612-2.84c1.63-.129,3.432.721,4.821-.18,1-.643,1.3-1.965,2.145-2.814,1.3-1.313,3.432-1.132,5.216-.54s3.432,1.527,5.3,1.433c1.536-.077,2.943-.858,4.435-1.227a8.073,8.073,0,0,1,8.2,12.869c-.746.935-2.437,3.732-5.791,3.037" transform="translate(-445.769 -149.355)"/><path class="k" d="M484.344,156.81l-.446,2.419-7,36.135a7.9,7.9,0,0,0,6.64,9.077h0a8.333,8.333,0,0,0,9.84-6.126c.935-4.427,2-9.077,2-9.077s5.911.232,8.648-6.975c1.355-3.586,2.436-9.712,3.157-14.748a8.047,8.047,0,0,0-7.164-9.145Z" transform="translate(-445.572 -150.414)"/><path class="e" d="M507.948,173.3a.978.978,0,0,1-1.124.772.935.935,0,0,1-.806-1.072.978.978,0,0,1,1.124-.772.935.935,0,0,1,.806,1.072Z" transform="translate(-449.727 -152.603)"/><path class="e" d="M509.285,172.416c-.146.1-.755-.583-1.784-.8s-1.9.146-1.973,0,.12-.266.5-.438a2.668,2.668,0,0,1,1.621-.189,2.574,2.574,0,0,1,1.39.789C509.294,172.124,509.362,172.373,509.285,172.416Z" transform="translate(-449.657 -152.422)"/><path class="e" d="M496.479,170.961a.978.978,0,0,1-1.124.781.944.944,0,0,1-.806-1.072.978.978,0,0,1,1.124-.772.935.935,0,0,1,.806,1.064Z" transform="translate(-448.098 -152.272)"/><path class="e" d="M497.444,170.2c-.137.094-.755-.592-1.784-.8s-1.887.146-1.973,0,.12-.266.5-.438a2.677,2.677,0,0,1,1.613-.146,2.574,2.574,0,0,1,1.39.789C497.453,169.909,497.522,170.158,497.444,170.2Z" transform="translate(-447.974 -152.112)"/><path class="e" d="M500.58,178.789a6.648,6.648,0,0,1,1.716,0c.266,0,.532,0,.609-.146a1.372,1.372,0,0,0,0-.858c-.12-.686-.24-1.407-.369-2.162a34.924,34.924,0,0,1-.652-5.594,35.894,35.894,0,0,1,1.107,5.534c.111.755.223,1.476.326,2.162a1.6,1.6,0,0,1-.077,1.064.669.669,0,0,1-.515.292,1.852,1.852,0,0,1-.455,0,6.922,6.922,0,0,1-1.69-.292Z" transform="translate(-448.956 -152.293)"/><path class="l" d="M496.9,193.824a19.38,19.38,0,0,1-9.437-4.744s1.364,5.628,8.974,6.477Z" transform="translate(-447.092 -154.999)"/><path class="e" d="M496.819,180.33c.163,0-.06,1.15.729,2.136s2.008,1.115,1.982,1.278-.309.154-.858.069a2.814,2.814,0,0,1-1.664-1,2.462,2.462,0,0,1-.549-1.767C496.561,180.562,496.742,180.313,496.819,180.33Z" transform="translate(-448.369 -153.756)"/><path class="e" d="M498.566,165.589c-.163.257-1.158-.086-2.394-.189s-2.291,0-2.394-.266c-.051-.137.18-.36.626-.549a3.912,3.912,0,0,1,1.862-.249,4,4,0,0,1,1.784.592C498.463,165.2,498.635,165.469,498.566,165.589Z" transform="translate(-447.989 -151.48)"/><path class="e" d="M509.62,168.853c-.232.2-.858-.2-1.716-.386s-1.613-.163-1.716-.446c-.051-.137.112-.343.472-.5a2.574,2.574,0,0,1,2.788.669C509.68,168.493,509.723,168.767,509.62,168.853Z" transform="translate(-449.752 -151.913)"/><path class="e" d="M508.947,164.031s-4.221,1.2-8.845-2.213c-3.028-2.239-6.769-3.732-7.721-3.209s-1.716,3.912-5.216,4.29c0,0-.918,6.58-3.483,5.894s.532-13.632.532-13.632l7.224,1.107,7.181-.1,6.4,2.076,4.83,2.273Z" transform="translate(-446.411 -150.18)"/><path class="e" d="M484.69,152.985c0-.1.643-.206,1.3.2s.858,1.038.772,1.072-.42-.395-.978-.729S484.69,153.1,484.69,152.985Z" transform="translate(-446.699 -149.857)"/><path class="e" d="M487.642,151c.12,0-.077.789-.129,1.716s.2,1.63.094,1.716-.549-.678-.489-1.716a2.616,2.616,0,0,1,.523-1.716Z" transform="translate(-447.043 -149.589)"/><path class="k" d="M483.809,167.889c-.094-.069-4-2.368-4.95,1.973s3.6,4.393,3.638,4.29S483.809,167.889,483.809,167.889Z" transform="translate(-445.851 -151.893)"/><path class="l" d="M481.721,172.4a.574.574,0,0,0-.232.069.858.858,0,0,1-.566-.112,1.913,1.913,0,0,1-.5-1.87,2.573,2.573,0,0,1,.446-1.038.858.858,0,0,1,.695-.455.4.4,0,0,1,.4.3v.232c0,.017.1-.051.112-.24a.472.472,0,0,0-.112-.309.575.575,0,0,0-.395-.206,1.1,1.1,0,0,0-.935.506,2.574,2.574,0,0,0-.532,1.15,2.025,2.025,0,0,0,.695,2.119.858.858,0,0,0,.721,0C481.721,172.536,481.721,172.442,481.721,172.4Z" transform="translate(-446.037 -152.113)"/><path class="h" d="M499.85,170.212a7.785,7.785,0,0,0-.232-1.107,4.6,4.6,0,0,0-1.716-2.436,4.427,4.427,0,1,0-4.2,7.721,4.5,4.5,0,0,0,4.2-.6,4.633,4.633,0,0,0,1.716-2.436c.2-.695.189-1.107.232-1.107s0,.1,0,.3a3.6,3.6,0,0,1-.094.858,4.59,4.59,0,0,1-1.664,2.642,4.77,4.77,0,0,1-4.53.738,4.71,4.71,0,0,1-2.248-1.673,4.761,4.761,0,0,1,0-5.714,4.641,4.641,0,0,1,2.248-1.664,4.753,4.753,0,0,1,4.53.729,4.615,4.615,0,0,1,1.664,2.642,3.653,3.653,0,0,1,.094.858A.477.477,0,0,1,499.85,170.212Z" transform="translate(-447.506 -151.642)"/><path class="h" d="M512.753,172.507a9.847,9.847,0,0,0-.232-1.1,4.539,4.539,0,0,0-1.716-2.436,4.418,4.418,0,1,0,0,7.078,4.539,4.539,0,0,0,1.716-2.436c.2-.695.18-1.107.232-1.107a.918.918,0,0,1,0,.3,3.431,3.431,0,0,1-.086.858,4.582,4.582,0,0,1-1.716,2.651,4.8,4.8,0,1,1,0-7.593,4.582,4.582,0,0,1,1.716,2.651,3.431,3.431,0,0,1,.086.858A.859.859,0,0,1,512.753,172.507Z" transform="translate(-449.333 -151.964)"/><path class="h" d="M490.361,167.958a17.382,17.382,0,0,1-5.551,0,8.983,8.983,0,0,1,2.771-.232,9.127,9.127,0,0,1,2.78.232Z" transform="translate(-446.716 -151.962)"/><path class="h" d="M503.254,172.116c-.112.043-.386-.369-.858-.515s-.961.051-1.03-.051.043-.18.249-.292a1.235,1.235,0,0,1,1.621.472C503.314,171.936,503.306,172.09,503.254,172.116Z" transform="translate(-449.065 -152.448)"/><path class="b" d="M491.68,273.464V270.6l40.751.832L555.9,233.94l2.153,1.553L534.01,273.824Z" transform="translate(-447.692 -161.373)"/><path class="k" d="M522.629,265.133l2.05,3.046v6.263a1.364,1.364,0,0,1-1.484-.609,24.709,24.709,0,0,1-1-3.749l-.987,2.574A2.2,2.2,0,0,1,518.64,274l-7.55-1.9,3.088-8.828Z" transform="translate(-450.45 -165.542)"/><path class="f" d="M470.857,195s-11.282,2.814-14.662,7.893-7.241,13.495-11.393,29.838c-3.62,14.25-6.417,37.019-2.488,42.364,2.7,3.68,4.418,4.616,4.418,4.616l8.708-3.123a67.277,67.277,0,0,0,22.666-13.641l13.358-12.182-7.069-5.576s5.371-29.049,3.946-39.2C487.089,197.068,470.857,195,470.857,195Z" transform="translate(-440.407 -155.84)"/><path class="f" d="M475.849,202.172c-4.341,1.081-8.519,2.84-14.447,3.337a6.58,6.58,0,0,1-4.006-.858c-3.74-2.308-2.445-6.589-.4-9.437,2.171-3.054,5.585-5.688,9.317-5.311a4.29,4.29,0,0,1,2.128-5.019,7.018,7.018,0,0,1,5.774-.137,21.2,21.2,0,0,1,5.053,3.106l6.374,4.821a12.011,12.011,0,0,1,3.732,3.8c.858,1.587,3.878,7.833,2.522,9a4.2,4.2,0,0,1-2.574,0l-.154-.1a15.614,15.614,0,0,0-13.315-3.2Z" transform="translate(-442.482 -154.305)"/><path class="f" d="M470.549,211.32l-7.455,34.849a12.466,12.466,0,0,0,7.927,14.336l32.4,6.211,4.041-12.079h0l-26.3-8.2,7.721-33.665Z" transform="translate(-443.59 -158.159)"/><path class="e" d="M462.81,251.427a.7.7,0,0,1,.051.206l.12.6a2.453,2.453,0,0,0,.094.446,4.371,4.371,0,0,0,.189.523l.214.6.36.652a8.682,8.682,0,0,0,2.617,2.771,14.722,14.722,0,0,0,4.753,2.068l32.086,5.868-.214.129c1.33-3.826,2.745-7.876,4.212-12.088l.137.266-26.3-8.185-.2-.06.051-.206c.455-1.8.944-3.723,1.441-5.654,1.527-6.108,2.96-12.079,4.2-17.879.609-2.9,1.193-5.757,1.587-8.579.12-.7.12-1.4.18-2.093a8.958,8.958,0,0,0-.232-2.033,8.5,8.5,0,0,0-1.793-3.577,8.776,8.776,0,0,0-6.863-3.071,8.965,8.965,0,0,0-6.409,3.26,16.884,16.884,0,0,0-3.26,6.005,53.716,53.716,0,0,0-1.493,6.271c-1.6,8.082-2.883,14.585-3.783,19.166-.446,2.248-.806,4-1.047,5.208-.12.575-.214,1.03-.283,1.347s-.112.463-.112.463a2.443,2.443,0,0,1,.069-.472c.069-.309.137-.772.24-1.355.223-1.21.549-2.968.969-5.225.858-4.547,2.1-11.1,3.638-19.192a52.4,52.4,0,0,1,1.476-6.314,16.935,16.935,0,0,1,3.337-6.194,9.3,9.3,0,0,1,6.64-3.38,9.188,9.188,0,0,1,7.2,3.2,8.974,8.974,0,0,1,1.887,3.749,9.821,9.821,0,0,1,.249,2.136c-.069.7-.069,1.441-.18,2.145-.4,2.84-.978,5.7-1.587,8.579-1.235,5.808-2.668,11.788-4.2,17.888l-1.45,5.662-.146-.275,26.287,8.219.206.069-.069.2c-1.484,4.212-2.9,8.253-4.29,12.071l-.051.163h-.163c-13.263-2.479-24.3-4.5-32.043-6.005a14.669,14.669,0,0,1-4.8-2.153,8.682,8.682,0,0,1-2.625-2.848c-.12-.24-.24-.455-.352-.669a3.256,3.256,0,0,1-.206-.618c-.06-.2-.129-.369-.18-.523l-.069-.455c-.043-.257-.077-.463-.094-.618a1.167,1.167,0,0,1-.009-.206Z" transform="translate(-443.59 -156.795)"/><path class="e" d="M478.932,256.825c-.051,0-.094-.4.069-1.038a4.864,4.864,0,0,1,3.517-3.38c.643-.137,1.047-.077,1.047,0s-.386.129-.961.326a5.894,5.894,0,0,0-1.99,1.235,5.757,5.757,0,0,0-1.313,1.947A5.932,5.932,0,0,1,478.932,256.825Z" transform="translate(-445.874 -163.985)"/><g class="m" transform="translate(17.978 52.689)"><path d="M469.579,210.77a201.553,201.553,0,0,0-7.807,37.225,30.3,30.3,0,0,0-.172,8.759,9.722,9.722,0,0,0,12.3,8.536c2.694-.506,7.043-1.107,9.514-2.273l-14.5-2.986s-9.343-.583-5.336-18.488S469.579,210.77,469.579,210.77Z" transform="translate(-461.362 -210.77)"/></g><g class="m" transform="translate(13.821 41.905)"><path d="M456.528,206.016c-.06,1.424.077,3.191,1.381,3.792s2.78-.506,3.861-1.5A62.5,62.5,0,0,1,476.517,198.2a34.548,34.548,0,0,0-19.964,8.073" transform="translate(-456.517 -198.2)"/></g><path class="e" d="M484.876,201.6a24.941,24.941,0,0,0-4-2.128,16.814,16.814,0,0,0-4.753-1.081,15.545,15.545,0,0,0-5.911.643,29.772,29.772,0,0,0-5.508,2.411c-1.63.858-3.089,1.716-4.341,2.385a32.391,32.391,0,0,1-3.028,1.433,5.611,5.611,0,0,1-1.167.395,7.249,7.249,0,0,1,1.1-.549c.712-.343,1.716-.858,2.943-1.553l4.29-2.471a28.544,28.544,0,0,1,5.576-2.479,15.536,15.536,0,0,1,6.074-.626,16.231,16.231,0,0,1,4.839,1.2,13.89,13.89,0,0,1,2.934,1.63c.326.223.558.438.721.566S484.884,201.59,484.876,201.6Z" transform="translate(-442.646 -156.254)"/><path class="e" d="M491.16,202.444c-.06.06-1.081-.969-2.891-2.428a41.779,41.779,0,0,0-16.137-8.039c-2.256-.566-3.689-.772-3.672-.858a5.26,5.26,0,0,1,1.012.069,27.124,27.124,0,0,1,2.737.472,37.448,37.448,0,0,1,16.258,8.107,25.614,25.614,0,0,1,2.025,1.9,4.582,4.582,0,0,1,.669.781Z" transform="translate(-444.393 -155.289)"/><path class="b" d="M497.355,233.085a3.518,3.518,0,0,1-.172-.729c-.086-.472-.206-1.167-.283-2.059a10.452,10.452,0,0,1,.146-3.2,1.87,1.87,0,0,1,1.415-1.441,1.1,1.1,0,0,1,1.1.446.987.987,0,0,1-.069,1.261l-.043.043h-.06a1.39,1.39,0,0,1-1.235-.48,2.325,2.325,0,0,1-.523-1.21c-.1-.858-.112-1.716-.163-2.574-.214-4.109-.386-7.841-.48-10.535-.043-1.278-.077-2.351-.094-3.191a5.232,5.232,0,0,1,0-1.175,6.947,6.947,0,0,1,.146,1.167c.06.858.137,1.9.232,3.183.18,2.694.4,6.417.618,10.527.051.858.06,1.716.154,2.514a1.793,1.793,0,0,0,.4.987,1,1,0,0,0,.858.36l-.112.051a.575.575,0,0,0,0-.721.686.686,0,0,0-.7-.292,1.493,1.493,0,0,0-1.124,1.158,10.672,10.672,0,0,0-.223,3.08C497.26,232.056,497.423,233.077,497.355,233.085Z" transform="translate(-448.425 -157.722)"/><path class="e" d="M475.8,270.26a7.6,7.6,0,0,1-1.047.987c-.686.618-1.716,1.476-3.011,2.505a96.15,96.15,0,0,1-10.681,7.309,91.925,91.925,0,0,1-11.6,5.739c-1.536.618-2.788,1.09-3.663,1.381a8.15,8.15,0,0,1-1.381.42,10.511,10.511,0,0,1,1.355-.549c.858-.343,2.093-.858,3.612-1.51a108.09,108.09,0,0,0,11.488-5.834,111.831,111.831,0,0,0,10.69-7.241c1.321-1,2.376-1.81,3.1-2.385a10.3,10.3,0,0,1,1.141-.824Z" transform="translate(-440.977 -166.534)"/><path class="e" d="M450.247,292.572c-.1.069-.618-.446-1.15-1.15a3.448,3.448,0,0,1-.789-1.424c.069-.077.609.446,1.15,1.15S450.342,292.5,450.247,292.572Z" transform="translate(-441.528 -169.337)"/><path class="e" d="M456.214,290.014c-.069.1-.772-.3-1.441-1.03s-1-1.476-.858-1.536.592.54,1.227,1.235S456.291,289.92,456.214,290.014Z" transform="translate(-442.322 -168.975)"/><path class="e" d="M463.7,287.4c-.086.086-.806-.575-1.6-1.476a5.764,5.764,0,0,1-1.27-1.776c.094-.086.815.583,1.6,1.476S463.8,287.323,463.7,287.4Z" transform="translate(-443.308 -168.506)"/><path class="e" d="M471.808,283c-.094.077-.858-.686-1.716-1.716a6.761,6.761,0,0,1-1.373-2.008c.094-.077.858.695,1.716,1.716A6.649,6.649,0,0,1,471.808,283Z" transform="translate(-444.43 -167.814)"/><path class="e" d="M479.322,277.491a5.928,5.928,0,0,1-1.827-1.356c-.935-.858-1.622-1.6-1.536-1.716a6.082,6.082,0,0,1,1.836,1.355C478.721,276.633,479.425,277.371,479.322,277.491Z" transform="translate(-445.457 -167.125)"/></g><g transform="translate(466.824 158.598)"><circle class="h" cx="1.99" cy="1.99" r="1.99" transform="translate(10.285 19.856) rotate(-76.7)"/><path class="h" d="M545.147,193.18a5.516,5.516,0,0,1,7.987-.1,1.124,1.124,0,0,0,1.6-1.579,7.79,7.79,0,0,0-11.153.094c-1,1.038.575,2.634,1.57,1.587Z" transform="translate(-536.441 -177.351)"/><path class="h" d="M537.258,181.919a16.3,16.3,0,0,1,10.69-4.29,15.871,15.871,0,0,1,10.913,4.178c1.047.987,2.642-.592,1.587-1.579a18.222,18.222,0,0,0-12.491-4.839,18.694,18.694,0,0,0-12.277,4.924c-1.09.944.489,2.531,1.578,1.6Z" transform="translate(-535.312 -175.39)"/><path class="h" d="M540.378,188.026a10.956,10.956,0,0,1,16.1-.223c1,1.03,2.574-.549,1.587-1.579a13.186,13.186,0,0,0-19.269.214c-.978,1.055.6,2.651,1.579,1.587Z" transform="translate(-535.764 -176.35)"/></g></g></svg>