<svg id="Layer_1" data-name="Layer 1" xmlns="http://www.w3.org/2000/svg" viewBox="0 0 612 120"><defs><style>.cls-1{fill:#231f20;}.cls-2{fill:#426cab;}.cls-3{opacity:0.8;}.cls-4{fill:#76c5d5;}</style></defs><path class="cls-1" d="M146.37,53.8A14.55,14.55,0,0,0,158.3,48l6.42,6.57c-5.07,5.67-10.89,8.5-17.75,8.5S134.59,61,130.11,56.64s-6.56-9.7-6.56-16.26A21.89,21.89,0,0,1,130.26,24,24.07,24.07,0,0,1,165,25.76l-6.12,7A14.4,14.4,0,0,0,147.27,27a13.79,13.79,0,0,0-9.55,3.58q-4,3.59-4,9.85c0,4.17,1.19,7.45,3.73,10A13.32,13.32,0,0,0,146.37,53.8Z"/><path class="cls-1" d="M172.48,62.45V18.15h9.84v35.5h19v8.8Z"/><path class="cls-1" d="M244.53,56.34a24.18,24.18,0,0,1-33.12,0,21.82,21.82,0,0,1-6.71-16.26,21.56,21.56,0,0,1,6.71-16.26,24.16,24.16,0,0,1,33.12,0,21.83,21.83,0,0,1,6.71,16.26A21.63,21.63,0,0,1,244.53,56.34Zm-3.44-16.26a14.9,14.9,0,0,0-3.87-10.15,12.68,12.68,0,0,0-18.8,0,14.59,14.59,0,0,0-3.88,10.15,14.82,14.82,0,0,0,3.88,10.14,12.66,12.66,0,0,0,18.8,0A13.94,13.94,0,0,0,241.09,40.08Z"/><path class="cls-1" d="M271.38,51.12a8.07,8.07,0,0,0,6.71,3.13,7.63,7.63,0,0,0,6.56-3.13C286.29,49,287,46.19,287,42.76V18.3h9.85V43.06q0,9.63-5.37,14.77a18.83,18.83,0,0,1-13.58,5.22,19.15,19.15,0,0,1-13.72-5.22q-5.37-5.14-5.37-14.77V18.3h9.84V42.76A14.33,14.33,0,0,0,271.38,51.12Z"/><path class="cls-1" d="M341,24c4.18,3.88,6.41,9.25,6.41,16.11s-2.08,12.38-6.11,16.41-10.44,6-18.8,6H307.18V18.15h15.66C330.75,18.15,336.86,20.09,341,24Zm-7.16,26.4c2.39-2.24,3.58-5.67,3.58-10s-1.19-7.76-3.58-10q-3.58-3.59-11.19-3.58h-5.52v27h6.27C327.91,53.8,331.34,52.61,333.88,50.37Z"/><path class="cls-1" d="M403.69,18.15h9.85v44.3h-9.85L382.51,34.71V62.45h-9.85V18.15h9.25l21.78,28.49Z"/><path class="cls-1" d="M456.05,62.45l-4.17-9.54H433.23l-4.18,9.54H418.46l19.09-44.3h9.55l19.1,44.3Zm-13.27-31-5.52,12.82h11Z"/><path class="cls-1" d="M487.38,26.8V62.6h-9.85V26.8H465V18.3h35.06v8.5Z"/><path class="cls-1" d="M507.07,18.15h9.84v44.3h-9.84Z"/><path class="cls-1" d="M544.21,46.34l11.34-28.19h10.74l-17.75,44.3h-8.35l-17.76-44.3h10.74Z"/><path class="cls-1" d="M603.43,18.15V27H581.36v9.1H601.2v8.5H581.36V53.8h22.82v8.8H571.51V18.3h31.92Z"/><path class="cls-1" d="M135,100.19a8.19,8.19,0,0,0,6.72-3.28l3.58,3.73a13.12,13.12,0,0,1-10,4.78,12.74,12.74,0,0,1-9.4-3.58,12.07,12.07,0,0,1-3.73-9.1,12.39,12.39,0,0,1,3.73-9.25,12.6,12.6,0,0,1,9.25-3.73,13.33,13.33,0,0,1,10.3,4.62L142,88.26A7.9,7.9,0,0,0,135.48,85a7.78,7.78,0,0,0-5.37,2.09,7,7,0,0,0-2.24,5.52A7.46,7.46,0,0,0,130,98.11,6.53,6.53,0,0,0,135,100.19Z"/><path class="cls-1" d="M169.94,101.69a13.26,13.26,0,0,1-9.25,3.73,12.4,12.4,0,0,1-9.25-3.73,13,13,0,0,1,0-18.2,13.21,13.21,0,0,1,9.25-3.73,12.36,12.36,0,0,1,9.25,3.73,13,13,0,0,1,0,18.2Zm-1.79-9.1a8.3,8.3,0,0,0-2.09-5.67,7.15,7.15,0,0,0-5.22-2.39,6.43,6.43,0,0,0-5.22,2.39,7.65,7.65,0,0,0-2.09,5.67,8.62,8.62,0,0,0,2.09,5.67,7.14,7.14,0,0,0,5.22,2.38,6.42,6.42,0,0,0,5.22-2.38A8.34,8.34,0,0,0,168.15,92.59Z"/><path class="cls-1" d="M200.67,89.45,194,103h-3.29L184,89.45v15.67h-5.52V80.21h7.46l6.42,13.57,6.41-13.57h7.46v24.91h-5.52V89.45Z"/><path class="cls-1" d="M229.46,82.59c1.79,1.49,2.68,3.73,2.68,6.86s-.89,5.37-2.68,6.72-4.48,2.09-8.21,2.09H218v6.86h-5.52V80.21h8.8C225,80.35,227.67,81.1,229.46,82.59Zm-4,9.7a5,5,0,0,0,1-3.28,3.21,3.21,0,0,0-1.35-3,7.35,7.35,0,0,0-4-.89H218v8.35h3.73A5.08,5.08,0,0,0,225.43,92.29Z"/><path class="cls-1" d="M243,98.7a4.78,4.78,0,0,0,7.46,0,7.52,7.52,0,0,0,1.35-4.77V80.21h5.51V94.08c0,3.58-1,6.41-3,8.35a11.38,11.38,0,0,1-15.21-.15c-1.94-1.94-3-4.77-3-8.35V80.06h5.52V93.78A7.47,7.47,0,0,0,243,98.7Z"/><path class="cls-1" d="M273.61,85.13v20H268.1v-20h-7V80.35h19.69v4.78Z"/><path class="cls-1" d="M284.8,80.35h5.52v24.92H284.8Z"/><path class="cls-1" d="M313.74,80.35h5.52v24.92h-5.52L302,89.75v15.52h-5.52V80.35h5.22l12.23,16v-16Z"/><path class="cls-1" d="M341.64,92.59h5.52v8.8a13.38,13.38,0,0,1-10.3,4.17,13.08,13.08,0,0,1-9.25-3.58,12,12,0,0,1-3.72-9.1,12.72,12.72,0,0,1,12.82-13A13.06,13.06,0,0,1,346,83.49l-2.83,4.17A7.32,7.32,0,0,0,340,85.72a9.93,9.93,0,0,0-3-.59,7.78,7.78,0,0,0-5.37,2.09,7.52,7.52,0,0,0-2.24,5.66,8,8,0,0,0,2.09,5.67,6.76,6.76,0,0,0,4.93,2.09,9.1,9.1,0,0,0,4.77-1v-7Z"/><path class="cls-1" d="M378.48,80.35v4.93H367v5.37h10.89v4.92H367v9.7h-5.52V80.35Z"/><path class="cls-1" d="M404.14,101.69a13.26,13.26,0,0,1-9.25,3.73,12.4,12.4,0,0,1-9.25-3.73,13,13,0,0,1,0-18.2,13.21,13.21,0,0,1,9.25-3.73,12.36,12.36,0,0,1,9.25,3.73,13,13,0,0,1,0,18.2Zm-1.94-9.1a8.26,8.26,0,0,0-2.09-5.67,7.15,7.15,0,0,0-5.22-2.39,6.43,6.43,0,0,0-5.22,2.39,7.65,7.65,0,0,0-2.09,5.67,8.62,8.62,0,0,0,2.09,5.67,7.14,7.14,0,0,0,5.22,2.38,6.42,6.42,0,0,0,5.22-2.38A7.68,7.68,0,0,0,402.2,92.59Z"/><path class="cls-1" d="M419.21,98.7a4.78,4.78,0,0,0,7.46,0A7.58,7.58,0,0,0,428,93.93V80.21h5.52V94.08c0,3.58-1,6.41-3,8.35a10.23,10.23,0,0,1-7.6,2.84,10.34,10.34,0,0,1-7.61-3c-1.94-1.94-3-4.77-3-8.35V80.06h5.52V93.78A6.67,6.67,0,0,0,419.21,98.7Z"/><path class="cls-1" d="M456.65,80.35h5.52v24.92h-5.52L444.86,89.75v15.52h-5.52V80.35h5.23l12.23,16v-16Z"/><path class="cls-1" d="M487.23,83.64c2.39,2.23,3.58,5.22,3.58,9.1a12.27,12.27,0,0,1-3.43,9.1c-2.24,2.23-5.82,3.43-10.59,3.43h-8.51V80.35h8.81C481.56,80.35,485,81.4,487.23,83.64Zm-4,14.76a7.42,7.42,0,0,0,2.09-5.52,7.78,7.78,0,0,0-2.09-5.66c-1.34-1.35-3.43-1.94-6.26-1.94H473.8v15.06h3.58C479.92,100.19,481.86,99.6,483.2,98.4Z"/><path class="cls-1" d="M512.59,105.12l-2.24-5.37H499.91l-2.24,5.37h-6l10.74-24.91h5.37l10.75,24.91Zm-7.46-17.46L502,94.82h6.26Z"/><path class="cls-1" d="M530.19,85.13v20h-5.52v-20h-7.16V80.35H537.2v4.78Z"/><path class="cls-1" d="M541.23,80.35h5.52v24.92h-5.52Z"/><path class="cls-1" d="M573.75,101.69a13.26,13.26,0,0,1-9.25,3.73,12.4,12.4,0,0,1-9.25-3.73,13,13,0,0,1,0-18.2,13.21,13.21,0,0,1,9.25-3.73,12.36,12.36,0,0,1,9.25,3.73,13,13,0,0,1,0,18.2ZM572,92.59a8.3,8.3,0,0,0-2.09-5.67,7.15,7.15,0,0,0-5.22-2.39,6.43,6.43,0,0,0-5.22,2.39,7.65,7.65,0,0,0-2.09,5.67,8.62,8.62,0,0,0,2.09,5.67,7.14,7.14,0,0,0,5.22,2.38,6.42,6.42,0,0,0,5.22-2.38A8.34,8.34,0,0,0,572,92.59Z"/><path class="cls-1" d="M599.56,80.35h5.52v24.92h-5.52L587.77,89.75v15.52h-5.52V80.35h5.22l12.24,16-.15-16Z"/><polygon class="cls-2" points="17.04 75.73 3.46 75.73 3.46 107.65 35.24 107.65 35.24 93.93 17.04 93.93 17.04 75.73"/><polygon class="cls-2" points="85.36 75.88 85.36 93.93 67.16 93.93 67.16 93.78 67.16 107.65 98.93 107.65 98.93 75.73 85.21 75.73 85.36 75.88"/><polygon class="cls-2" points="3.46 43.96 17.19 43.96 17.04 43.81 17.04 25.76 17.04 25.76 35.24 25.76 35.24 25.76 35.24 12.03 3.46 12.03 3.46 43.96"/><polygon class="cls-2" points="67.16 12.03 67.16 25.76 85.36 25.76 85.36 43.96 98.93 43.96 98.93 12.03 67.16 12.03"/><g class="cls-3"><polygon class="cls-4" points="65.37 43.96 47.17 25.76 67.16 25.76 67.16 12.03 35.24 12.03 35.24 25.76 53.44 43.96 65.37 43.96"/><polygon class="cls-4" points="48.96 75.73 37.03 75.73 52.09 90.8 55.08 93.93 48.96 93.93 35.24 93.93 35.24 107.65 67.16 107.65 67.16 93.78 58.06 84.83 48.96 75.73"/><polygon class="cls-4" points="85.36 43.96 85.36 57.53 85.36 63.8 82.23 60.66 67.16 45.6 67.16 57.68 76.11 66.63 85.21 75.73 98.93 75.73 98.93 43.96 85.36 43.96"/><polygon class="cls-4" points="35.24 62.01 17.19 43.96 3.46 43.96 3.46 75.73 17.04 75.73 17.04 55.89 35.24 74.09 35.24 62.01"/></g></svg>