<svg xmlns="http://www.w3.org/2000/svg" width="377.464" height="350.086" viewBox="0 0 377.464 350.086"><defs><style>.a{fill:#f5f5f5;}.b{fill:#37474f;}.c{fill:#455a64;}.d{fill:#263238;}.e,.k,.n{fill:#fff;}.f,.p{opacity:0.1;}.g{opacity:0.25;}.h,.o{opacity:0.3;}.i{fill:#fafafa;}.j{fill:#e0e0e0;}.k,.m{opacity:0.4;}.l{opacity:0.15;}.n,.o,.p,.q{fill-rule:evenodd;}.q,.r{opacity:0.2;}.s{fill:#ffa8a7;}.t{fill:#ebebeb;}.u{fill:#f28f8f;}</style></defs><g transform="translate(-20.22 -31.533)"><g transform="translate(20.22 163.681)"><ellipse class="a" cx="188.732" cy="108.969" rx="188.732" ry="108.969"/></g><g transform="translate(68.774 76.263)"><path class="b" d="M83.65,351.582l-2.567-1.512a3.27,3.27,0,0,1-1.463-2.542V157.292a3.27,3.27,0,0,1,1.463-2.534L199.117,86.6a3.27,3.27,0,0,1,2.935,0l2.567,1.488a3.27,3.27,0,0,1,1.471,2.534V280.893a3.27,3.27,0,0,1-1.471,2.542L86.584,351.582a3.27,3.27,0,0,1-2.935,0Z" transform="translate(-79.62 -86.255)"/><path class="c" d="M206.168,90.387c-.106-.752-.719-1.03-1.455-.6L86.679,157.93a2.959,2.959,0,0,0-1.038,1.087l-5.5-3.172a3.024,3.024,0,0,1,1.038-1.087L199.212,86.6a3.27,3.27,0,0,1,2.935,0l2.567,1.488A3.27,3.27,0,0,1,206.168,90.387Z" transform="translate(-79.715 -86.255)"/><path class="d" d="M86.323,367.25a.172.172,0,0,1-.082,0l-.155.057h-.057a1.1,1.1,0,0,0-.27.074h0a3.319,3.319,0,0,1-1.741-.131,2.341,2.341,0,0,1-.327-.147l-2.608-1.488a3.27,3.27,0,0,1-1.463-2.542V172.837a3.041,3.041,0,0,1,.425-1.447l5.5,3.172a2.984,2.984,0,0,0-.433,1.447V366.285a1.242,1.242,0,0,0,.221.768.817.817,0,0,0,.817.253Z" transform="translate(-79.62 -101.799)"/><path class="e" d="M136.325,154.156a1.153,1.153,0,0,0-.262-.54l-.1-.082a.58.58,0,0,0-.548-.082.629.629,0,0,0-.2.09,2.305,2.305,0,0,0-.817,1.005,3.556,3.556,0,0,0-.343,1.471,1.463,1.463,0,0,0,.327,1.054.646.646,0,0,0,.817.065,1.733,1.733,0,0,0,.458-.4,3.493,3.493,0,0,0,.311-.482,3.67,3.67,0,0,0,.4-1.586,2.452,2.452,0,0,0-.041-.515Zm19.193-42.89a2.73,2.73,0,0,0-1.406-.376,5.542,5.542,0,0,0-2.648.817,11.975,11.975,0,0,0-4.9,5.861c-.155.343-.3.7-.433,1.054s-.27.711-.384,1.079-.245.736-.351,1.1c-.041.123-.074.253-.114.368l-.213.744a.532.532,0,0,1,0,.106c-.123.45-.237.916-.368,1.373-.065.253-.123.49-.188.736l-.188.728c-.262.973-.523,1.9-.817,2.8l-.188.539c-.09.253-.18.507-.278.752s-.155.376-.229.548c-.123.3-.253.589-.392.866s-.172.351-.262.523c-2.068,3.973-4.594,5.526-6.057,7.569-1.283,1.782-1.635,3.2-3.368,6.024-.548.9-1.234,1.937-2.133,3.18-2.493,3.433-3.384,5.133-3.687,6.163a.343.343,0,0,0,0,.082.333.333,0,0,1-.057.229.3.3,0,0,0,0,.074,1.961,1.961,0,0,0,0,.2,4.087,4.087,0,0,0-.041.6v7.635l2.746,1.586v-7.643a3.686,3.686,0,0,1,.172-1.177c.3-1.03,1.185-2.722,3.687-6.155.9-1.251,1.586-2.289,2.133-3.188,1.717-2.812,2.084-4.242,3.368-6.008h0c1.463-2.052,3.989-3.6,6.057-7.577a18.73,18.73,0,0,0,.793-1.88c1.324-3.27,1.921-7.675,3.548-11.378a11.9,11.9,0,0,1,4.9-5.844c1.676-.965,2.9-1.046,3.842-.6Zm12.04,9.76h0a2.943,2.943,0,0,0-.727-.294c-1.038-.245-2.583.36-4.136.18,2.182,2.82,5.215,1.005,6.883,1.406a2.575,2.575,0,0,1,.736.3h0Zm5.82,10.487a1.521,1.521,0,0,0-.229.172l-.114.114-.106.123a3.441,3.441,0,0,0-.719,2.068,1.52,1.52,0,0,0,.319,1.046,1.037,1.037,0,0,0,.1.082.564.564,0,0,0,.54.082.7.7,0,0,0,.213-.09c.082-.049.155-.114.237-.172a2.345,2.345,0,0,0,.319-.368,3.515,3.515,0,0,0,.613-1.929c0-.989-.523-1.5-1.169-1.128Zm1.8-6.907a8.992,8.992,0,0,0-2.836-1.005c-.425-.1-.817-.2-1.136-.311a7.97,7.97,0,0,0,3.875,1.888,11.133,11.133,0,0,1,2.534.817Z" transform="translate(-88.236 -90.753)"/><path class="e" d="M178.428,126.49l-.221-.131a11.133,11.133,0,0,0-2.534-.817,7.937,7.937,0,0,1-3.875-1.888,5.526,5.526,0,0,0-.891-.67,2.608,2.608,0,0,0-.736-.294c-1.635-.4-4.7,1.414-6.874-1.406l-.074-.09c-1.52-2.052-2.076-6.629-4.357-7.97l-.229-.131c-.94-.441-2.166-.36-3.842.6-6.041,3.49-6.245,11.779-8.419,17.231s-5.264,7.161-6.94,9.506-1.79,4.087-5.509,9.2-3.858,6.376-3.858,7.357v7.635l49.47-28.609v-7.635A1.929,1.929,0,0,0,178.428,126.49Zm-42.62,31c-.646.376-1.161-.123-1.161-1.12a3.082,3.082,0,0,1,1.161-2.452c.646-.376,1.161.131,1.161,1.128a3.065,3.065,0,0,1-1.161,2.444Zm18.988-23a2.452,2.452,0,0,1-3.809-1.169,7.038,7.038,0,0,1-.6-3.073c0-3.752,1.97-7.929,4.406-9.335a3.49,3.49,0,0,1,1.063-.417c1.929-.384,3.343,1.463,3.343,4.659C159.2,128.91,157.233,133.086,154.8,134.492Zm19.176.965c-.646.376-1.169-.123-1.169-1.112a3.09,3.09,0,0,1,1.169-2.452c.646-.368,1.169.131,1.169,1.128a3.057,3.057,0,0,1-1.169,2.436Z" transform="translate(-88.832 -91.108)"/><path class="f" d="M178.428,126.49l-.221-.131a11.133,11.133,0,0,0-2.534-.817,7.937,7.937,0,0,1-3.875-1.888,5.526,5.526,0,0,0-.891-.67,2.608,2.608,0,0,0-.736-.294c-1.635-.4-4.7,1.414-6.874-1.406l-.074-.09c-1.52-2.052-2.076-6.629-4.357-7.97l-.229-.131c-.94-.441-2.166-.36-3.842.6-6.041,3.49-6.245,11.779-8.419,17.231s-5.264,7.161-6.94,9.506-1.79,4.087-5.509,9.2-3.858,6.376-3.858,7.357v7.635l49.47-28.609v-7.635A1.929,1.929,0,0,0,178.428,126.49Zm-42.62,31c-.646.376-1.161-.123-1.161-1.12a3.082,3.082,0,0,1,1.161-2.452c.646-.376,1.161.131,1.161,1.128a3.065,3.065,0,0,1-1.161,2.444Zm18.988-23a2.452,2.452,0,0,1-3.809-1.169,7.038,7.038,0,0,1-.6-3.073c0-3.752,1.97-7.929,4.406-9.335a3.49,3.49,0,0,1,1.063-.417c1.929-.384,3.343,1.463,3.343,4.659C159.2,128.91,157.233,133.086,154.8,134.492Zm19.176.965c-.646.376-1.169-.123-1.169-1.112a3.09,3.09,0,0,1,1.169-2.452c.646-.368,1.169.131,1.169,1.128a3.057,3.057,0,0,1-1.169,2.436Z" transform="translate(-88.832 -91.108)"/><path class="g" d="M129.628,165.036a3.686,3.686,0,0,0-.172,1.177v7.643l-2.746-1.586v-7.635a4.088,4.088,0,0,1,.041-.6q0-.1,0-.2a.3.3,0,0,1,0-.074.355.355,0,0,1,.057-.229v-.082h0Z" transform="translate(-88.218 -100.35)"/><path class="g" d="M140.156,146.248c-1.283,1.766-1.635,3.2-3.368,6.008l-2.738-1.6c1.717-2.82,2.084-4.242,3.368-6.024h0Z" transform="translate(-89.558 -96.913)"/><path class="g" d="M152.757,120.648c-1.635,3.7-2.223,8.068-3.548,11.378a18.733,18.733,0,0,1-.883,1.937l-2.747-1.578c.09-.172.18-.351.262-.523s.27-.564.392-.866c.074-.172.155-.36.229-.548s.188-.5.278-.752l.188-.539c.294-.891.556-1.823.817-2.8l.188-.727c.065-.245.123-.482.188-.736.131-.458.245-.924.368-1.373a.528.528,0,0,0,0-.106l.213-.744c.041-.114.074-.245.114-.368.106-.368.229-.736.351-1.1s.245-.719.384-1.079.278-.711.433-1.054Z" transform="translate(-91.664 -92.246)"/><path class="e" d="M136,159.96a3.556,3.556,0,0,0-.343,1.471,1.463,1.463,0,0,0,.327,1.054,1.512,1.512,0,0,1-.319-1.054A3.687,3.687,0,0,1,136,159.96Zm1.994.123a2.451,2.451,0,0,0-.057-.515,2.452,2.452,0,0,1,.049.515,3.662,3.662,0,0,1-.392,1.586A3.67,3.67,0,0,0,138,160.082Zm36.244-19.552a.564.564,0,0,0,.539.082.621.621,0,0,1-.54-.082Z" transform="translate(-89.851 -96.165)"/><path class="e" d="M163.883,126.858c0,3.752-1.978,7.929-4.414,9.335a2.493,2.493,0,0,1-3.809-1.161,3.482,3.482,0,0,0,1.071-.425c2.452-1.414,4.406-5.583,4.406-9.335a6.923,6.923,0,0,0-.6-3.073C162.477,121.815,163.883,123.662,163.883,126.858Z" transform="translate(-93.504 -92.808)"/><path class="h" d="M163.883,126.858c0,3.752-1.978,7.929-4.414,9.335a2.493,2.493,0,0,1-3.809-1.161,3.482,3.482,0,0,0,1.071-.425c2.452-1.414,4.406-5.583,4.406-9.335a6.923,6.923,0,0,0-.6-3.073C162.477,121.815,163.883,123.662,163.883,126.858Z" transform="translate(-93.504 -92.808)"/><path class="b" d="M137.573,165.756a2.55,2.55,0,0,1-.3.482,1.733,1.733,0,0,1-.458.4.646.646,0,0,1-.817-.065,1.463,1.463,0,0,1-.327-1.054,3.556,3.556,0,0,1,.343-1.471,2.3,2.3,0,0,1,.817-1.005.629.629,0,0,1,.2-.09.6.6,0,0,1,.646.163,1.153,1.153,0,0,1,.262.539,2.451,2.451,0,0,1,.057.515A3.466,3.466,0,0,1,137.573,165.756Z" transform="translate(-89.853 -100.253)"/><path class="b" d="M184.687,137.221a3.515,3.515,0,0,1-.613,1.929,2.347,2.347,0,0,1-.319.368c-.082.057-.155.123-.237.172a.7.7,0,0,1-.213.09.6.6,0,0,1-.638-.163,1.52,1.52,0,0,1-.319-1.046,3.441,3.441,0,0,1,.719-2.068l.106-.123.114-.114a1.521,1.521,0,0,1,.229-.172C184.164,135.716,184.687,136.231,184.687,137.221Z" transform="translate(-98.377 -95.332)"/><path class="a" d="M97.313,182.417l102.716-59.3a1.954,1.954,0,0,1,1.757,0l.989.572a1.97,1.97,0,0,1,.883,1.529v156.7a1.945,1.945,0,0,1-.883,1.52l-102.716,59.3a1.9,1.9,0,0,1-1.757,0l-.989-.572a1.937,1.937,0,0,1-.883-1.52v-156.7a1.945,1.945,0,0,1,.883-1.529Z" transform="translate(-82.689 -92.947)"/><path class="i" d="M203.684,124.945a.5.5,0,0,0-.817-.245L100.118,184a1.8,1.8,0,0,0-.621.662l-2.746-1.586a1.635,1.635,0,0,1,.621-.654l102.716-59.3a1.888,1.888,0,0,1,1.749,0l1,.564A1.962,1.962,0,0,1,203.684,124.945Z" transform="translate(-82.748 -92.947)"/><path class="j" d="M99.855,356.307a1.469,1.469,0,0,1-.327.082h-.172a2.319,2.319,0,0,1-.531,0,1.364,1.364,0,0,1-.327-.082l-.2-.1-.989-.572a1.921,1.921,0,0,1-.883-1.52V197.386a1.725,1.725,0,0,1,.262-.866l2.747,1.586a1.847,1.847,0,0,0-.253.866v156.7C99.185,356.152,99.463,356.389,99.855,356.307Z" transform="translate(-82.689 -106.388)"/><path class="e" d="M149.515,151.68l-.139.229a5.722,5.722,0,0,0-.7,1.733v.1a.147.147,0,0,0,0,.041L147,163.214l-.523,3.016a1.67,1.67,0,0,1-.09.376,3.624,3.624,0,0,1-.114.36.747.747,0,0,1-.09.245l2.746,1.586a4.643,4.643,0,0,0,.286-.981l.539-3.016,1.635-9.433a5.084,5.084,0,0,1,.858-2.1Z" transform="translate(-91.773 -98.201)"/><path class="e" d="M126.348,188.645c-.278.441-.539.883-.817,1.324-.114.213-.229.425-.335.638s-.262.548-.376.817-.262.6-.376.915-.229.621-.335.932-.237.727-.335,1.1c-.065.237-.131.474-.2.727q-.229.866-.417,1.766a4.173,4.173,0,0,1-.123.621c-.033.2-.106.507-.147.752v.041c0,.2,0,.327.1.384a.1.1,0,0,0,.082,0h0l2.362-1.847.384-.3.188-.139.2-.163.163-.123.139-.114a20.82,20.82,0,0,1,3.392-6.923l-2.747-1.586C126.887,187.852,126.609,188.253,126.348,188.645Z" transform="translate(-87.521 -104.734)"/><path class="e" d="M162.363,126.29c-.131.213-.245.425-.36.638a2.623,2.623,0,0,0-.2.368c-.1.172-.18.351-.27.531s-.147.286-.213.433c-.139.278-.262.556-.376.817s-.262.6-.376.907c-.114.27-.2.539-.294.817-.147.409-.27.817-.384,1.234-.065.221-.114.433-.172.646a.283.283,0,0,1,0,.049,2.461,2.461,0,0,1-.074.335c-.065.253-.114.515-.155.768a4.763,4.763,0,0,1-.139.6c-.057.2-.106.425-.172.638s-.131.4-.2.6v.057c-.082.221-.172.45-.27.678s-.18.45-.294.687a1.778,1.778,0,0,0-.074.188c-.082.172-.172.343-.253.523l-.433.817c-.1.2-.2.376-.3.564l2.755,1.586a18.629,18.629,0,0,0,2.142-5.379,23.631,23.631,0,0,1,2.894-7.586Z" transform="translate(-93.814 -93.565)"/><path class="e" d="M183.37,133.737a1.046,1.046,0,0,0-.45-.147,3.36,3.36,0,0,0,2.452,1.553,1.782,1.782,0,0,1,.687.147Z" transform="translate(-98.481 -94.898)"/><path class="k" d="M183.37,133.737a1.046,1.046,0,0,0-.45-.147,3.36,3.36,0,0,0,2.452,1.553,1.782,1.782,0,0,1,.687.147Z" transform="translate(-98.481 -94.898)"/><path class="e" d="M193.982,148.313a2.959,2.959,0,0,0-2.755.082c-3.2,1.406-4.577,2.044-6.229,2.73-.319,2.125.932,2.321,1.553,2.068,2.321-.915,3.507-1.48,7.43-3.2a2.967,2.967,0,0,1,2.73-.09Z" transform="translate(-98.852 -97.531)"/><path class="k" d="M193.982,148.313a2.959,2.959,0,0,0-2.755.082c-3.2,1.406-4.577,2.044-6.229,2.73-.319,2.125.932,2.321,1.553,2.068,2.321-.915,3.507-1.48,7.43-3.2a2.967,2.967,0,0,1,2.73-.09Z" transform="translate(-98.852 -97.531)"/><path class="e" d="M145.613,172.266a11.239,11.239,0,0,1-2.452,3.449l-8.6,6.466a22.889,22.889,0,0,0-3.695,3.8L128.12,184.4a22.6,22.6,0,0,1,3.695-3.809l8.615-6.458a11.443,11.443,0,0,0,2.411-3.449Z" transform="translate(-88.476 -101.67)"/><path class="k" d="M145.613,172.266a11.239,11.239,0,0,1-2.452,3.449l-8.6,6.466a22.889,22.889,0,0,0-3.695,3.8L128.12,184.4a22.6,22.6,0,0,1,3.695-3.809l8.615-6.458a11.443,11.443,0,0,0,2.411-3.449Z" transform="translate(-88.476 -101.67)"/><path class="e" d="M158.777,143.746a29.279,29.279,0,0,1-4.349,6.049,10.332,10.332,0,0,0-1.422,1.733l-2.747-1.586a9.375,9.375,0,0,1,1.422-1.733,29.287,29.287,0,0,0,4.34-6.049Z" transform="translate(-92.518 -96.462)"/><path class="k" d="M158.777,143.746a29.279,29.279,0,0,1-4.349,6.049,10.332,10.332,0,0,0-1.422,1.733l-2.747-1.586a9.375,9.375,0,0,1,1.422-1.733,29.287,29.287,0,0,0,4.34-6.049Z" transform="translate(-92.518 -96.462)"/><path class="e" d="M176.7,118.834a4.212,4.212,0,0,0-3.948.392c-2.354,1.234-4.725,3.85-6.539,6.94l-2.747-1.635c1.8-3.09,4.169-5.722,6.539-6.94a5.534,5.534,0,0,1,2.518-.711,3.016,3.016,0,0,1,1.512.384Z" transform="translate(-94.93 -91.846)"/><path class="k" d="M176.7,118.834a4.212,4.212,0,0,0-3.948.392c-2.354,1.234-4.725,3.85-6.539,6.94l-2.747-1.635c1.8-3.09,4.169-5.722,6.539-6.94a5.534,5.534,0,0,1,2.518-.711,3.016,3.016,0,0,1,1.512.384Z" transform="translate(-94.93 -91.846)"/><path class="l" d="M129.948,189.049a20.819,20.819,0,0,0-3.392,6.923l-.139.114-.163.123-.2.163-.188.139-.384.3-2.33,1.864h0a.1.1,0,0,1-.082,0c-.09-.057-.131-.188-.1-.384v-.041a3.594,3.594,0,0,1,.147-.752c.057-.253.082-.417.123-.621q.188-.891.417-1.766c.065-.253.131-.49.2-.727.1-.368.213-.727.335-1.1s.213-.621.335-.932.237-.613.376-.915.245-.564.376-.817.221-.425.335-.638a11.611,11.611,0,0,1,.817-1.324c.319-.441.539-.817.817-1.185Z" transform="translate(-87.533 -104.737)"/><path class="l" d="M152.265,153.266a5.084,5.084,0,0,0-.858,2.1l-1.635,9.433-.54,3.016a4.643,4.643,0,0,1-.286.981l-2.747-1.586c0-.082.065-.163.09-.245a3.632,3.632,0,0,0,.114-.36,1.94,1.94,0,0,1,.09-.376l.523-3.016,1.676-9.433a.147.147,0,0,1,0-.041v-.1a5.721,5.721,0,0,1,.7-1.733l.139-.229Z" transform="translate(-91.777 -98.201)"/><path class="l" d="M165.1,127.9a23.631,23.631,0,0,0-2.894,7.586,18.628,18.628,0,0,1-2.142,5.379l-2.755-1.586c.106-.188.2-.368.3-.564l.433-.817c.082-.18.172-.351.253-.523a1.782,1.782,0,0,1,.074-.188c.106-.229.2-.466.294-.687s.188-.458.27-.678v-.057c.065-.2.139-.4.2-.6s.123-.425.172-.638.1-.409.139-.6.09-.515.155-.768a1.643,1.643,0,0,1,.074-.335.283.283,0,0,0,0-.049c.057-.213.106-.425.172-.646.114-.417.237-.817.384-1.234.09-.278.18-.548.294-.817.114-.3.245-.6.376-.907s.237-.556.376-.817c.065-.147.139-.286.213-.433s.172-.36.27-.531a2.625,2.625,0,0,1,.2-.368c.114-.213.229-.425.36-.638Z" transform="translate(-93.805 -93.579)"/><path class="e" d="M123.16,200.764h0l2.321-1.864C124.558,199.644,123.3,200.617,123.16,200.764Z" transform="translate(-87.57 -106.822)"/><path class="e" d="M185.433,144.6h0a3,3,0,0,0-2.738.082c-3.915,1.733-5.1,2.3-7.422,3.221-.621.245-1.872.049-1.553-2.076a.994.994,0,0,1,0-.139l.531-3.016,1.488-8.223s.335-1.3-.523-1.782h-.065a1.439,1.439,0,0,0-.678-.147,3.368,3.368,0,0,1-2.452-1.569,6.18,6.18,0,0,1-.924-4.7c.629-3.531-.057-6-1.635-6.915l-.123-.082a4.212,4.212,0,0,0-3.948.392c-4.177,2.191-8.395,8.689-9.425,14.525-.646,3.678-4.349,9.343-6.49,11.444a6.826,6.826,0,0,0-2.281,3.834l-1.635,9.433-.539,3.016c-.392,2.256-2.706,4.439-2.706,4.439l-8.665,6.392a20.754,20.754,0,0,0-7.087,10.724s-3.27,2.5-3.433,2.706h0l1.1-.629,59.442-34.176s.687-.368.817-.466,2.542-2.354,2.542-2.354C186.994,146.59,186.43,145.2,185.433,144.6Zm-17.166-17.337c-.638,3.588-3.221,7.586-5.787,8.934-1.774.924-3.073.351-3.507-1.283a6.841,6.841,0,0,1,0-2.779c.629-3.588,3.229-7.586,5.8-8.926a4.331,4.331,0,0,1,.744-.319c2.1-.638,3.286,1.153,2.738,4.373Z" transform="translate(-87.564 -92.22)"/><path class="e" d="M123.168,192.784l60.554-34.805.817-.466c.147-.09,2.542-2.362,2.542-2.362l-60.488,34.92S122.93,192.914,123.168,192.784Z" transform="translate(-87.569 -98.834)"/><path class="h" d="M123.168,192.784l60.554-34.805.817-.466c.147-.09,2.542-2.362,2.542-2.362l-60.488,34.92S122.93,192.914,123.168,192.784Z" transform="translate(-87.569 -98.834)"/><path class="e" d="M173.507,123.751a4.331,4.331,0,0,0-.744.319c-2.567,1.341-5.166,5.338-5.8,8.926a6.842,6.842,0,0,0,0,2.779c.433,1.635,1.733,2.207,3.507,1.283,2.567-1.349,5.15-5.346,5.787-8.934C176.777,124.9,175.592,123.114,173.507,123.751Zm-6.376,11.959a6.7,6.7,0,0,1,0-2.681c.629-3.548,3.188-7.5,5.722-8.812a4.848,4.848,0,0,1,.654-.286,6.875,6.875,0,0,1,0,2.616c-.629,3.588-3.221,7.586-5.8,8.934a4.323,4.323,0,0,1-.58.253Z" transform="translate(-95.543 -93.078)"/><path class="m" d="M173.507,123.751a4.331,4.331,0,0,0-.744.319c-2.567,1.341-5.166,5.338-5.8,8.926a6.842,6.842,0,0,0,0,2.779c.433,1.635,1.733,2.207,3.507,1.283,2.567-1.349,5.15-5.346,5.787-8.934C176.777,124.9,175.592,123.114,173.507,123.751Zm-6.376,11.959a6.7,6.7,0,0,1,0-2.681c.629-3.548,3.188-7.5,5.722-8.812a4.848,4.848,0,0,1,.654-.286,6.875,6.875,0,0,1,0,2.616c-.629,3.588-3.221,7.586-5.8,8.934a4.323,4.323,0,0,1-.58.253Z" transform="translate(-95.543 -93.078)"/><path class="c" d="M116.5,255.934a.727.727,0,0,1-.368-.1.866.866,0,0,1-.392-.817v-3.49a1.937,1.937,0,0,1,.9-1.561l3.049-1.757a.817.817,0,0,1,1.267.728v3.523a1.921,1.921,0,0,1-.9,1.561l-3.049,1.766a1.022,1.022,0,0,1-.507.147Zm3.695-7.144a.638.638,0,0,0-.139.057l-3.049,1.757a1.21,1.21,0,0,0-.531.924v3.523a.27.27,0,0,0,0,.147.424.424,0,0,0,.139-.049l3.049-1.766a1.21,1.21,0,0,0,.531-.924v-3.523a.466.466,0,0,0,0-.106Z" transform="translate(-86.214 -115.801)"/><path class="j" d="M125.129,246.048l12.016-6.94c.4-.229.719-.049.719.409v.94a1.578,1.578,0,0,1-.719,1.234l-12.016,6.94c-.392.229-.719.049-.719-.409v-.94a1.578,1.578,0,0,1,.719-1.234Z" transform="translate(-87.798 -114.146)"/><path class="c" d="M152.927,234.893a.711.711,0,0,1-.368-.1.867.867,0,0,1-.4-.817v-3.523a1.945,1.945,0,0,1,.907-1.561l3.049-1.757a.8.8,0,0,1,1.267.727v3.523a1.921,1.921,0,0,1-.9,1.561l-3.049,1.766a1.021,1.021,0,0,1-.507.18Zm3.687-7.144a1.118,1.118,0,0,0-.131.057l-3.049,1.757a1.218,1.218,0,0,0-.54.924v3.523a.229.229,0,0,0,0,.147.507.507,0,0,0,.139-.049l3.049-1.766a1.193,1.193,0,0,0,.531-.924V227.9a.254.254,0,0,0,0-.147Z" transform="translate(-92.864 -111.95)"/><path class="j" d="M161.559,225.018l12.016-6.94c.4-.229.719-.049.719.409v.94a1.578,1.578,0,0,1-.719,1.234l-12.016,6.94c-.4.229-.719.049-.719-.409v-.94A1.635,1.635,0,0,1,161.559,225.018Z" transform="translate(-94.45 -110.306)"/><path class="c" d="M189.349,213.866a.728.728,0,0,1-.368-.1.883.883,0,0,1-.392-.817v-3.523a1.945,1.945,0,0,1,.9-1.561h0l3.049-1.757a.817.817,0,0,1,1.275.736v3.515a1.929,1.929,0,0,1-.907,1.561l-3.049,1.766A1.006,1.006,0,0,1,189.349,213.866Zm.507-5.33a1.234,1.234,0,0,0-.531.924v3.523a.229.229,0,0,0,0,.147.286.286,0,0,0,.131-.049l3.049-1.766a1.218,1.218,0,0,0,.539-.924v-3.515a.27.27,0,0,0,0-.155.3.3,0,0,0-.139.057Z" transform="translate(-99.516 -108.113)"/><path class="j" d="M197.989,203.988l12.016-6.94c.392-.229.719-.049.719.409v.94a1.635,1.635,0,0,1-.719,1.234l-12.016,6.94c-.4.229-.719.049-.719-.409v-.94a1.578,1.578,0,0,1,.719-1.234Z" transform="translate(-101.102 -106.466)"/><path class="j" d="M125.33,217.03V218.4c0,.752.523,1.054,1.169.678l70.3-40.552a2.6,2.6,0,0,0,1.169-2.035v-1.381c0-.744-.523-1.046-1.169-.678l-70.3,40.56A2.6,2.6,0,0,0,125.33,217.03Z" transform="translate(-87.966 -102.327)"/><path class="c" d="M118.78,203.91v1.373c0,.752.523,1.054,1.177.678l70.256-40.552a2.583,2.583,0,0,0,1.177-2.035v-1.381c0-.744-.523-1.046-1.177-.678L119.957,201.9a2.583,2.583,0,0,0-1.177,2.011Z" transform="translate(-86.77 -99.931)"/><path class="j" d="M125.33,227.2v1.381c0,.744.523,1.046,1.169.678l70.3-40.552a2.6,2.6,0,0,0,1.169-2.035v-1.381c0-.744-.523-1.046-1.169-.678l-70.3,40.56A2.6,2.6,0,0,0,125.33,227.2Z" transform="translate(-87.966 -104.186)"/><path class="c" d="M115.424,236.037c1.839-1.823,2.3-2.6,2.3-3.27s-.27-1.03-1.1-.556a2.828,2.828,0,0,0-1.365,1.962l-2.011.45a7.52,7.52,0,0,1,3.441-5.15c2.011-1.161,3.18-.294,3.18,1.635a7.463,7.463,0,0,1-2.289,4.945v1.594l-2.158,1.242Z" transform="translate(-85.76 -112.309)"/><path class="c" d="M115.88,243.625a2.256,2.256,0,0,1,1.1-1.954c.719-.417,1.087-.049,1.087.695a2.264,2.264,0,0,1-1.087,1.97C116.248,244.753,115.88,244.36,115.88,243.625Z" transform="translate(-86.241 -114.6)"/><path class="e" d="M117.229,251.868l.9.678-.817,1.553a.548.548,0,0,0,0,.654c.155.114.376,0,.507-.245l.817-1.545.9.678c.131.1.327,0,.441-.213a.474.474,0,0,0,0-.564l-.9-.678.817-1.553a.548.548,0,0,0,0-.654c-.155-.114-.376,0-.507.245l-.817,1.553-.9-.678c-.131-.1-.327,0-.441.2a.474.474,0,0,0,0,.564Z" transform="translate(-86.47 -116.141)"/><path class="c" d="M116.5,293.9a.719.719,0,0,1-.368-.09.867.867,0,0,1-.392-.817v-3.523a1.921,1.921,0,0,1,.9-1.561l3.049-1.757a.817.817,0,0,1,1.267.728V290.4a1.921,1.921,0,0,1-.9,1.561l-3.049,1.757A1.022,1.022,0,0,1,116.5,293.9Zm3.695-7.136a.359.359,0,0,0-.139.057l-3.049,1.757a1.21,1.21,0,0,0-.531.924v3.523a.27.27,0,0,0,0,.147.425.425,0,0,0,.139-.049l3.049-1.766a1.21,1.21,0,0,0,.531-.924V286.91a.466.466,0,0,0,0-.147Z" transform="translate(-86.214 -122.729)"/><path class="j" d="M125.129,284.019l12.016-6.932c.4-.229.719-.049.719.409v.932a1.578,1.578,0,0,1-.719,1.242l-12.016,6.94c-.392.229-.719.041-.719-.417v-.932A1.586,1.586,0,0,1,125.129,284.019Z" transform="translate(-87.798 -121.081)"/><path class="c" d="M152.927,272.865a.7.7,0,0,1-.368-.09.866.866,0,0,1-.4-.817v-3.523a1.929,1.929,0,0,1,.907-1.561l3.049-1.757a.8.8,0,0,1,1.267.728v3.523a1.921,1.921,0,0,1-.9,1.561l-3.049,1.757A1.021,1.021,0,0,1,152.927,272.865Zm3.687-7.136a.424.424,0,0,0-.131.057l-3.049,1.757a1.218,1.218,0,0,0-.54.924v3.523a.229.229,0,0,0,0,.147.505.505,0,0,0,.139-.049l3.049-1.766a1.21,1.21,0,0,0,.531-.924v-3.523A.254.254,0,0,0,156.614,265.729Z" transform="translate(-92.864 -118.885)"/><path class="j" d="M161.559,262.989l12.016-6.932c.4-.229.719-.049.719.409v.932a1.578,1.578,0,0,1-.719,1.242l-12.016,6.94a.446.446,0,0,1-.719-.417v-.932A1.635,1.635,0,0,1,161.559,262.989Z" transform="translate(-94.45 -117.241)"/><path class="c" d="M189.349,251.837a.719.719,0,0,1-.368-.09.883.883,0,0,1-.392-.817v-3.523a1.945,1.945,0,0,1,.9-1.561h0l3.049-1.757a.817.817,0,0,1,1.275.727v3.523a1.929,1.929,0,0,1-.907,1.561l-3.049,1.757a1.006,1.006,0,0,1-.507.18Zm.507-5.321a1.234,1.234,0,0,0-.531.924v3.523a.229.229,0,0,0,0,.147.524.524,0,0,0,.131-.049L192.5,249.3a1.218,1.218,0,0,0,.539-.924v-3.523a.253.253,0,0,0,0-.147.507.507,0,0,0-.139.057Z" transform="translate(-99.516 -115.048)"/><path class="j" d="M197.989,241.959l12.016-6.932c.392-.229.719-.049.719.409v.932a1.635,1.635,0,0,1-.719,1.242l-12.016,6.94c-.4.229-.719.041-.719-.417V243.2A1.578,1.578,0,0,1,197.989,241.959Z" transform="translate(-101.102 -113.401)"/><path class="j" d="M125.33,255v1.381c0,.744.523,1.046,1.169.678l70.3-40.552a2.6,2.6,0,0,0,1.169-2.035v-1.381c0-.744-.523-1.046-1.169-.678l-70.3,40.56A2.6,2.6,0,0,0,125.33,255Z" transform="translate(-87.966 -109.262)"/><path class="j" d="M125.33,265.181v1.381c0,.744.523,1.046,1.169.678l70.3-40.56a2.567,2.567,0,0,0,1.169-2.027v-1.381c0-.752-.523-1.054-1.169-.678l-70.3,40.56A2.6,2.6,0,0,0,125.33,265.181Z" transform="translate(-87.966 -111.119)"/><path class="c" d="M115.424,274.017c1.839-1.823,2.3-2.6,2.3-3.27s-.27-1.03-1.1-.556a2.828,2.828,0,0,0-1.365,1.962l-2.011.45a7.52,7.52,0,0,1,3.441-5.15c2.011-1.161,3.18-.294,3.18,1.676a7.463,7.463,0,0,1-2.289,4.945v1.594l-2.158,1.242Z" transform="translate(-85.76 -119.244)"/><path class="c" d="M115.88,281.6a2.256,2.256,0,0,1,1.1-1.954c.719-.417,1.087-.049,1.087.695a2.272,2.272,0,0,1-1.087,1.97C116.248,282.733,115.88,282.357,115.88,281.6Z" transform="translate(-86.241 -121.535)"/><path class="e" d="M153.654,268.779l.9.678-.817,1.553a.548.548,0,0,0,0,.654c.147.114.376,0,.507-.245l.817-1.545.9.678c.131.1.327,0,.433-.213a.474.474,0,0,0,0-.564l-.9-.678.817-1.553a.54.54,0,0,0-.041-.654c-.147-.106-.376,0-.507.245l-.817,1.553-.9-.678c-.123-.1-.319,0-.433.2A.466.466,0,0,0,153.654,268.779Z" transform="translate(-93.116 -119.229)"/><path class="c" d="M116.5,331.886a.727.727,0,0,1-.368-.1.817.817,0,0,1-.392-.777v-3.523a1.921,1.921,0,0,1,.9-1.561l3.049-1.757a.817.817,0,0,1,1.267.728v3.523a1.921,1.921,0,0,1-.9,1.561l-3.049,1.757A1.022,1.022,0,0,1,116.5,331.886Zm3.695-7.136a.359.359,0,0,0-.139.057l-3.049,1.757a1.21,1.21,0,0,0-.531.924v3.523a.294.294,0,0,0,0,.147.359.359,0,0,0,.139-.057l3.049-1.757a1.21,1.21,0,0,0,.531-.924V324.9a.466.466,0,0,0,0-.147Z" transform="translate(-86.214 -129.671)"/><path class="j" d="M125.129,322l12.016-6.94c.4-.229.719-.041.719.417v.932a1.578,1.578,0,0,1-.719,1.242l-12.016,6.94c-.392.229-.719.041-.719-.417v-.932A1.586,1.586,0,0,1,125.129,322Z" transform="translate(-87.798 -128.014)"/><path class="c" d="M152.928,310.853a.712.712,0,0,1-.368-.1.817.817,0,0,1-.4-.777v-3.523a1.929,1.929,0,0,1,.907-1.561l3.049-1.757a.866.866,0,0,1,.875-.057.883.883,0,0,1,.392.817v3.523a1.921,1.921,0,0,1-.9,1.561l-3.049,1.757A1.022,1.022,0,0,1,152.928,310.853Zm3.687-7.136a.426.426,0,0,0-.131.057l-3.049,1.757a1.218,1.218,0,0,0-.54.924v3.523a.253.253,0,0,0,0,.147.417.417,0,0,0,.139-.057l3.082-1.757a1.21,1.21,0,0,0,.531-.924v-3.523a.229.229,0,0,0-.033-.147Z" transform="translate(-92.864 -125.828)"/><path class="j" d="M161.559,300.969l12.016-6.94c.4-.221.719-.041.719.417v.932a1.578,1.578,0,0,1-.719,1.242l-12.016,6.94c-.4.229-.719.041-.719-.417v-.932A1.635,1.635,0,0,1,161.559,300.969Z" transform="translate(-94.45 -124.175)"/><path class="c" d="M189.349,289.822a.727.727,0,0,1-.368-.1.817.817,0,0,1-.392-.777v-3.523a1.921,1.921,0,0,1,.9-1.561h0l3.049-1.757a.817.817,0,0,1,1.291.7v3.523a1.929,1.929,0,0,1-.907,1.561l-3.049,1.757A1.006,1.006,0,0,1,189.349,289.822Zm.507-5.321a1.234,1.234,0,0,0-.531.924v3.523a.253.253,0,0,0,0,.147.425.425,0,0,0,.131-.057l3.049-1.757a1.218,1.218,0,0,0,.539-.924v-3.548a.253.253,0,0,0,0-.147.627.627,0,0,0-.139.049Z" transform="translate(-99.516 -121.987)"/><path class="j" d="M197.989,279.94,210.005,273a.448.448,0,0,1,.719.417v.932a1.635,1.635,0,0,1-.719,1.242l-12.016,6.94c-.4.229-.719.041-.719-.417v-.956a1.578,1.578,0,0,1,.719-1.218Z" transform="translate(-101.102 -120.337)"/><path class="j" d="M125.33,292.981v1.381c0,.744.523,1.046,1.169.678l70.3-40.56a2.567,2.567,0,0,0,1.169-2.027v-1.381c0-.744-.523-1.054-1.169-.678l-70.3,40.56A2.6,2.6,0,0,0,125.33,292.981Z" transform="translate(-87.966 -116.196)"/><path class="j" d="M125.33,303.161v1.381c0,.744.523,1.046,1.169.67l70.3-40.552a2.583,2.583,0,0,0,1.169-2.027v-1.381c0-.752-.523-1.054-1.169-.678l-70.3,40.56A2.583,2.583,0,0,0,125.33,303.161Z" transform="translate(-87.966 -118.054)"/><path class="c" d="M115.424,312c1.839-1.823,2.3-2.6,2.3-3.27s-.27-1.038-1.1-.556a2.828,2.828,0,0,0-1.365,1.962l-2.011.441a7.52,7.52,0,0,1,3.441-5.142c2.011-1.161,3.18-.294,3.18,1.635a7.463,7.463,0,0,1-2.289,4.945v1.594l-2.158,1.242Z" transform="translate(-85.76 -126.179)"/><path class="c" d="M115.88,319.584a2.264,2.264,0,0,1,1.1-1.962c.719-.409,1.087-.041,1.087.7a2.281,2.281,0,0,1-1.087,1.97C116.248,320.712,115.88,320.352,115.88,319.584Z" transform="translate(-86.241 -128.469)"/><path class="e" d="M190.083,285.728l.891.678-.817,1.553a.54.54,0,0,0,0,.654c.147.114.376,0,.507-.245l.817-1.553.9.678c.131.1.319,0,.433-.2a.466.466,0,0,0,0-.564l-.9-.678.817-1.553a.564.564,0,0,0-.041-.654c-.147-.114-.376,0-.507.245l-.817,1.553-.9-.687c-.131-.1-.327,0-.433.213A.466.466,0,0,0,190.083,285.728Z" transform="translate(-99.767 -122.324)"/><path class="c" d="M116.5,369.863a.727.727,0,0,1-.368-.1.817.817,0,0,1-.392-.777v-3.523a1.921,1.921,0,0,1,.9-1.561l3.049-1.766a.891.891,0,0,1,.875-.049.866.866,0,0,1,.392.817v3.523a1.945,1.945,0,0,1-.9,1.561l-3.049,1.757A1.021,1.021,0,0,1,116.5,369.863Zm3.695-7.136a.427.427,0,0,0-.139.049l-3.049,1.766a1.21,1.21,0,0,0-.531.924v3.523a.3.3,0,0,0,0,.147.639.639,0,0,0,.139-.057l3.049-1.757a1.21,1.21,0,0,0,.531-.924v-3.523a.409.409,0,0,0,0-.147Z" transform="translate(-86.214 -136.602)"/><path class="j" d="M125.129,359.978l12.016-6.94c.4-.229.719-.041.719.417v.932a1.578,1.578,0,0,1-.719,1.242l-12.016,6.94a.447.447,0,0,1-.719-.417v-.932A1.586,1.586,0,0,1,125.129,359.978Z" transform="translate(-87.798 -134.949)"/><path class="c" d="M152.927,348.825a.712.712,0,0,1-.368-.1.817.817,0,0,1-.4-.817v-3.523a1.929,1.929,0,0,1,.907-1.561l3.049-1.766a.817.817,0,0,1,1.267.736v3.523a1.921,1.921,0,0,1-.9,1.561l-3.049,1.757a1.022,1.022,0,0,1-.507.188Zm3.687-7.136a.523.523,0,0,0-.131.049l-3.049,1.766a1.218,1.218,0,0,0-.54.924v3.523a.253.253,0,0,0,0,.147.9.9,0,0,0,.139-.057l3.049-1.757a1.21,1.21,0,0,0,.531-.924V341.8a.229.229,0,0,0,0-.114Z" transform="translate(-92.863 -132.755)"/><path class="j" d="M161.559,338.95l12.016-6.94a.446.446,0,0,1,.719.417v.932a1.578,1.578,0,0,1-.719,1.242l-12.016,6.94c-.4.229-.719.041-.719-.417v-.965a1.635,1.635,0,0,1,.719-1.21Z" transform="translate(-94.45 -131.11)"/><path class="c" d="M189.349,327.8a.727.727,0,0,1-.368-.1.817.817,0,0,1-.392-.777v-3.523a1.921,1.921,0,0,1,.9-1.561h0l3.049-1.766a.907.907,0,0,1,.883-.049.883.883,0,0,1,.392.817v3.523a1.945,1.945,0,0,1-.907,1.561l-3.049,1.757a1,1,0,0,1-.507.114Zm.507-5.321a1.234,1.234,0,0,0-.531.924v3.523a.253.253,0,0,0,0,.147,1.113,1.113,0,0,0,.131-.057l3.049-1.757a1.218,1.218,0,0,0,.539-.924v-3.531a.229.229,0,0,0,0-.147.631.631,0,0,0-.139.049Z" transform="translate(-99.516 -128.923)"/><path class="j" d="M197.989,317.918l12.016-6.94c.392-.229.719-.041.719.417v.932a1.635,1.635,0,0,1-.719,1.242l-12.016,6.94a.446.446,0,0,1-.719-.417v-.94A1.578,1.578,0,0,1,197.989,317.918Z" transform="translate(-101.102 -127.269)"/><path class="j" d="M125.33,330.961v1.381c0,.744.523,1.046,1.169.67l70.3-40.552a2.583,2.583,0,0,0,1.169-2.027v-1.381c0-.752-.523-1.054-1.169-.678l-70.3,40.56A2.583,2.583,0,0,0,125.33,330.961Z" transform="translate(-87.966 -123.13)"/><path class="j" d="M125.33,341.141v1.381c0,.744.523,1.046,1.169.67l70.3-40.552a2.6,2.6,0,0,0,1.169-2.027v-1.381c0-.752-.523-1.054-1.169-.678l-70.3,40.56a2.583,2.583,0,0,0-1.169,2.027Z" transform="translate(-87.966 -124.989)"/><path class="c" d="M115.424,349.977c1.839-1.823,2.3-2.6,2.3-3.27s-.27-1.038-1.1-.556a2.828,2.828,0,0,0-1.365,1.954l-2.011.45a7.52,7.52,0,0,1,3.441-5.142c2.011-1.161,3.18-.294,3.18,1.676a7.463,7.463,0,0,1-2.289,4.945v1.594l-2.158,1.242Z" transform="translate(-85.76 -133.114)"/><path class="c" d="M115.88,357.524a2.264,2.264,0,0,1,1.1-1.962c.719-.409,1.087-.049,1.087.7a2.256,2.256,0,0,1-1.087,1.962C116.248,358.684,115.88,358.341,115.88,357.524Z" transform="translate(-86.241 -135.396)"/><path class="e" d="M190.083,323.868l.891.678-.817,1.553a.54.54,0,0,0,0,.654c.147.114.376,0,.507-.245l.817-1.553.9.687c.131.1.319,0,.433-.213a.466.466,0,0,0,0-.564l-.9-.678.817-1.553a.564.564,0,0,0-.041-.654c-.147-.114-.376,0-.507.245l-.817,1.553-.9-.687c-.131-.09-.327,0-.433.213A.466.466,0,0,0,190.083,323.868Z" transform="translate(-99.767 -129.287)"/></g><g transform="translate(204.489 133.976)"><path class="e" d="M279.885,161.437l-6.008-3.466h0l-.057-.041h0c-2.992-1.692-7.087-1.439-11.624,1.185a33.114,33.114,0,0,0-11.043,11.256c-3.376,5.444-5.493,11.738-5.493,17.386,0,5.272,1.839,8.992,4.823,10.7h0l6.106,3.49c3.008,1.921,7.267,1.749,11.983-.973,9.139-5.28,16.544-18.106,16.544-28.65C285.108,166.857,283.1,163.072,279.885,161.437Z" transform="translate(-245.652 -156.86)"/><path class="f" d="M256.456,204.961l-5.983-3.425h0c-2.984-1.733-4.823-5.436-4.823-10.7,0-5.648,2.117-11.942,5.493-17.386l6.384,3.687c-3.376,5.436-5.493,11.73-5.493,17.37C252.018,199.509,253.7,203.114,256.456,204.961Z" transform="translate(-245.65 -159.889)"/><path class="k" d="M280.984,161.376c-2.943-1.43-6.874-1.071-11.2,1.422a32.779,32.779,0,0,0-11.051,11.28l-6.384-3.687a32.969,32.969,0,0,1,11.043-11.256c4.537-2.624,8.632-2.869,11.624-1.185h0l.057.041h0Z" transform="translate(-246.873 -156.864)"/><path class="c" d="M268.509,181.086a4.136,4.136,0,0,1-1.569,3.319c-.866.5-1.569-.172-1.569-1.5a4.136,4.136,0,0,1,1.569-3.319C267.806,179.076,268.509,179.754,268.509,181.086Z" transform="translate(-249.251 -160.978)"/><path class="c" d="M279.439,174.777a4.136,4.136,0,0,1-1.569,3.319c-.866.5-1.569-.172-1.569-1.5a4.136,4.136,0,0,1,1.569-3.319C278.736,172.775,279.439,173.445,279.439,174.777Z" transform="translate(-251.246 -159.827)"/><path class="c" d="M262.478,201.988a.746.746,0,0,1-.188,0,.891.891,0,0,1-.695-1.063c1.422-6.76,5.043-12.678,9.22-15.089a6.539,6.539,0,0,1,5.836-.7c1.97.817,3.49,2.787,4.275,5.583a.907.907,0,0,1-1.741.482c-.621-2.24-1.766-3.8-3.212-4.4a4.839,4.839,0,0,0-4.242.6c-3.695,2.133-7.054,7.716-8.354,13.9A.907.907,0,0,1,262.478,201.988Z" transform="translate(-248.558 -161.951)"/></g><g transform="translate(204.489 81.698)"><path class="e" d="M279.885,97.467,273.877,94h-.057c-2.992-1.692-7.087-1.439-11.624,1.185a33.114,33.114,0,0,0-11.043,11.256c-3.376,5.444-5.493,11.738-5.493,17.386,0,5.272,1.839,8.992,4.823,10.7h0l6.106,3.49c3.008,1.921,7.267,1.749,11.983-.973,9.139-5.28,16.544-18.106,16.544-28.609C285.108,102.886,283.1,99.1,279.885,97.467Z" transform="translate(-245.652 -92.909)"/><path class="f" d="M256.456,140.961l-5.983-3.425h0c-2.984-1.733-4.823-5.436-4.823-10.7,0-5.648,2.117-11.942,5.493-17.386l6.384,3.687c-3.376,5.436-5.493,11.73-5.493,17.37C252.018,135.525,253.7,139.13,256.456,140.961Z" transform="translate(-245.65 -95.925)"/><path class="k" d="M280.984,97.4c-2.943-1.43-6.874-1.071-11.2,1.422a32.779,32.779,0,0,0-11.051,11.28l-6.384-3.687a32.969,32.969,0,0,1,11.043-11.256c4.537-2.624,8.632-2.869,11.624-1.185h.057Z" transform="translate(-246.873 -92.904)"/><path class="c" d="M267.549,134.523a5.942,5.942,0,0,1-2.264-.441c-2.133-.875-3.768-3.008-4.61-6.024a.973.973,0,0,1,1.872-.523c.678,2.452,1.913,4.087,3.474,4.749a5.207,5.207,0,0,0,4.594-.646c3.981-2.3,7.61-8.329,8.992-15a.973.973,0,1,1,1.9.4c-1.537,7.291-5.444,13.683-9.948,16.291A8.174,8.174,0,0,1,267.549,134.523Z" transform="translate(-248.389 -97.097)"/><path class="c" d="M268.114,118.487a4.488,4.488,0,0,1-1.692,3.588c-.94.539-1.692-.188-1.692-1.635a4.447,4.447,0,0,1,1.692-3.58C267.354,116.321,268.114,117.048,268.114,118.487Z" transform="translate(-249.134 -97.246)"/><path class="c" d="M279.914,111.675a4.471,4.471,0,0,1-1.692,3.58c-.932.539-1.692-.188-1.692-1.635a4.471,4.471,0,0,1,1.692-3.58C279.154,109.5,279.914,110.237,279.914,111.675Z" transform="translate(-251.288 -96.001)"/></g><g transform="translate(201.178 176.856)"><path class="c" d="M291.438,265.917,248.115,290.93a3.1,3.1,0,0,1-2.812,0l-2.3-1.332a3.106,3.106,0,0,1-1.406-2.452V237.12a3.106,3.106,0,0,1,1.406-2.452l43.323-25.013a3.082,3.082,0,0,1,2.8,0l2.3,1.341a3.09,3.09,0,0,1,1.406,2.452v50.034a3.106,3.106,0,0,1-1.4,2.436Z" transform="translate(-241.6 -209.317)"/><path class="d" d="M247.88,296.934a3.139,3.139,0,0,1-2.575-.106l-2.3-1.341a3.082,3.082,0,0,1-1.4-2.452V243.01a2.8,2.8,0,0,1,.409-1.39l5.1,2.967a2.861,2.861,0,0,0-.409,1.381v50.026C246.711,296.82,247.209,297.2,247.88,296.934Z" transform="translate(-241.602 -215.215)"/><path class="b" d="M292.579,266.62l-43.323,25.013c-.777.45-1.406.09-1.406-.817V240.822a3.106,3.106,0,0,1,1.406-2.452l43.323-25.013c.777-.45,1.406-.082,1.406.817v50.034A3.106,3.106,0,0,1,292.579,266.62Z" transform="translate(-242.741 -210.02)"/><path class="n" d="M271.991,260.876,260.22,277.551c5.2,5.256,15.2,1.308,22.348-8.82,4.291-6.073,6.6-12.629,6.6-18.751l-14.247,8.19A11.108,11.108,0,0,0,271.991,260.876Z" transform="translate(-245 -216.742)"/><path class="o" d="M271.991,260.876,260.22,277.551c5.2,5.256,15.2,1.308,22.348-8.82,4.291-6.073,6.6-12.629,6.6-18.751l-14.247,8.19A11.108,11.108,0,0,0,271.991,260.876Z" transform="translate(-245 -216.742)"/><path class="e" d="M259.459,276.962l11.771-16.675h0a11.665,11.665,0,0,1,3.155-2.885l14.247-8.223a.736.736,0,0,1,1.1.638c0,6.31-2.33,12.948-6.727,19.176-4.733,6.7-10.814,10.97-16.266,11.444a8.771,8.771,0,0,1-7.21-2.509.736.736,0,0,1-.114-.883A.147.147,0,0,1,259.459,276.962Zm28.773-25.855-13.079,7.569a10.192,10.192,0,0,0-2.7,2.452l-11.4,16.144a7.447,7.447,0,0,0,5.591,1.635c4.953-.409,10.773-4.545,15.179-10.8.752-1.054,1.43-2.125,2.052-3.2A31.135,31.135,0,0,0,288.232,251.107Z" transform="translate(-244.836 -216.577)"/><path class="n" d="M271.837,256.072l-4.308-12.792c-8.4,8-13,21.081-10.275,29.206a9.425,9.425,0,0,0,2.272,3.842L271.3,259.653A4.488,4.488,0,0,0,271.837,256.072Z" transform="translate(-244.315 -215.519)"/><path class="e" d="M266.876,242.584a.727.727,0,0,1,.678-.188.76.76,0,0,1,.523.482l4.3,12.792a5.272,5.272,0,0,1-.621,4.242l-11.738,16.675a.76.76,0,0,1-.539.3.719.719,0,0,1-.589-.213,10.177,10.177,0,0,1-2.452-4.087c-1.986-5.91-.221-14.362,4.013-21.694A36.784,36.784,0,0,1,266.876,242.584Zm3.678,16.479a3.752,3.752,0,0,0,.425-2.926h0l-3.924-11.673c-7.667,7.863-11.8,20.027-9.253,27.628a9.082,9.082,0,0,0,1.512,2.885Z" transform="translate(-244.161 -215.353)"/><path class="n" d="M276.124,254.991l11.771-16.675c-4.152-4.2-11.166-2.787-17.885,3.621l4.3,12.792C274.661,255.792,275.478,255.907,276.124,254.991Z" transform="translate(-246.787 -214.176)"/><path class="p" d="M276.124,254.991l11.771-16.675c-4.152-4.2-11.166-2.787-17.885,3.621l4.3,12.792C274.661,255.792,275.478,255.907,276.124,254.991Z" transform="translate(-246.787 -214.176)"/><path class="e" d="M269.338,241.241c7.03-6.7,14.46-8.117,18.915-3.6a.736.736,0,0,1,.082.94l-11.779,16.675a1.635,1.635,0,0,1-3.114-.458L269.142,242a.728.728,0,0,1,.065-.6A.507.507,0,0,1,269.338,241.241Zm17.419-2.967C282.94,235,276.744,236.4,270.687,242l4.152,12.343a1.4,1.4,0,0,0,.2.384.817.817,0,0,0,.319-.311Z" transform="translate(-246.622 -214.011)"/><path class="n" d="M277.99,256.142l14.247-8.174c0-4.087-.981-6.989-3.057-9.1L277.41,255.545C276.764,256.444,277.009,256.73,277.99,256.142Z" transform="translate(-248.073 -214.713)"/><path class="q" d="M277.99,256.142l14.247-8.174c0-4.087-.981-6.989-3.057-9.1L277.41,255.545C276.764,256.444,277.009,256.73,277.99,256.142Z" transform="translate(-248.073 -214.713)"/><path class="e" d="M276.638,254.937l11.779-16.675a.727.727,0,0,1,.539-.3.711.711,0,0,1,.58.213c2.232,2.256,3.27,5.313,3.27,9.613a.736.736,0,0,1-.368.638L278.2,256.645c-.311.18-1.242.719-1.815.09a1.21,1.21,0,0,1,0-1.463ZM289.1,239.872l-10.471,14.836,12.719-7.357C291.27,244.106,290.551,241.695,289.1,239.872Z" transform="translate(-247.906 -214.546)"/></g><g transform="translate(260.081 31.533)"><path class="d" d="M395.481,186.381a5.354,5.354,0,0,0-4.831.09l-74.5,43.012A5.5,5.5,0,0,0,313.7,233.8v21.253a4.676,4.676,0,0,0,7.16,4.136l74.5-43.012a5.5,5.5,0,0,0,2.452-4.316V190.607a5.346,5.346,0,0,0-2.33-4.226Z" transform="translate(-313.667 -59.709)"/><path class="c" d="M397.942,190.135c-.2-1.259-1.226-1.7-2.452-.981L364.428,207.08l-43.437,25.078a5.084,5.084,0,0,0-1.766,1.856l-4.676-2.7a5.157,5.157,0,0,1,1.757-1.864l74.5-43a4.651,4.651,0,0,1,7.136,3.687Z" transform="translate(-313.823 -59.687)"/><path class="b" d="M319.37,237.162v21.253c0,1.586,1.12,2.232,2.493,1.439l74.5-43.012a5.5,5.5,0,0,0,2.452-4.316V191.273c0-1.586-1.112-2.232-2.452-1.439L365.3,207.768l-43.445,25.078A5.509,5.509,0,0,0,319.37,237.162Z" transform="translate(-314.703 -60.375)"/><g transform="translate(11.571 141.956)"><path class="e" d="M333.582,243.96l1.218,2.583a.286.286,0,0,0,.392.155l2.722-1.038c.433-.172.6.441.294,1.03l-1.97,3.695a1.268,1.268,0,0,0-.155.7l.466,3.351c.074.531-.376,1.226-.76,1.177l-2.452-.3a.613.613,0,0,0-.49.286l-2.452,3.114c-.384.49-.817.311-.76-.3l.466-3.883a.58.58,0,0,0-.155-.531l-1.97-1.422c-.311-.229-.139-1.038.294-1.365l2.722-2.1a1.21,1.21,0,0,0,.392-.613l1.218-3.989C332.871,243.879,333.386,243.56,333.582,243.96Z" transform="translate(-327.816 -212.243)"/><path class="e" d="M350.438,234.319l1.218,2.583a.278.278,0,0,0,.392.155l2.722-1.038c.433-.172.6.441.294,1.03l-1.945,3.695a1.284,1.284,0,0,0-.155.711l.466,3.343c.074.531-.376,1.226-.76,1.177l-2.452-.294a.58.58,0,0,0-.49.278l-2.452,3.114c-.384.49-.817.319-.76-.3l.466-3.883a.58.58,0,0,0-.155-.531l-1.97-1.422c-.311-.229-.139-1.03.294-1.365l2.722-2.1a1.209,1.209,0,0,0,.392-.613l1.218-3.989C349.685,234.229,350.241,233.911,350.438,234.319Z" transform="translate(-330.898 -210.482)"/><path class="e" d="M367.282,224.678l1.218,2.583a.286.286,0,0,0,.392.155l2.722-1.046c.433-.163.6.441.294,1.03l-1.97,3.695a1.3,1.3,0,0,0-.155.711l.466,3.343c.074.531-.376,1.234-.76,1.185l-2.452-.3a.613.613,0,0,0-.49.286l-2.452,3.106c-.384.5-.817.319-.76-.294l.466-3.883a.6.6,0,0,0-.155-.539l-1.97-1.422c-.311-.221-.139-1.03.294-1.365l2.722-2.1a1.21,1.21,0,0,0,.392-.613l1.218-3.989C366.53,224.588,367.086,224.261,367.282,224.678Z" transform="translate(-333.969 -208.721)"/><path class="e" d="M384.132,215.031l1.218,2.583a.286.286,0,0,0,.392.155l2.722-1.046c.433-.163.6.441.294,1.03l-1.97,3.695a1.3,1.3,0,0,0-.155.711l.466,3.343c.074.531-.376,1.234-.76,1.185l-2.452-.3a.613.613,0,0,0-.49.286l-2.452,3.106c-.384.5-.817.319-.76-.294l.466-3.883a.58.58,0,0,0-.155-.531l-1.97-1.422c-.311-.229-.139-1.038.294-1.373l2.722-2.093a1.284,1.284,0,0,0,.392-.613l1.218-3.989C383.38,214.973,383.936,214.622,384.132,215.031Z" transform="translate(-337.046 -206.961)"/><path class="e" d="M400.989,205.379l1.218,2.583a.286.286,0,0,0,.392.155l2.722-1.038c.433-.172.6.441.294,1.03l-1.97,3.695a1.268,1.268,0,0,0-.155.7l.466,3.351c.074.531-.376,1.226-.76,1.177l-2.452-.3a.613.613,0,0,0-.49.286l-2.452,3.114c-.384.49-.817.311-.76-.3l.466-3.883a.58.58,0,0,0-.155-.531l-1.937-1.39c-.311-.229-.139-1.038.294-1.365l2.722-2.1a1.21,1.21,0,0,0,.392-.613l1.218-3.989C400.237,205.29,400.769,204.971,400.989,205.379Z" transform="translate(-340.13 -205.198)"/></g><path class="e" d="M331.235,226.2l-4.087-2.354a.442.442,0,0,1-.2-.172l-.752-1.308,2.452-1.4-.074.213Z" transform="translate(-315.95 -66.122)"/><path class="r" d="M331.235,226.2l-4.087-2.354a.442.442,0,0,1-.2-.172l-.752-1.308,2.452-1.4-.074.213Z" transform="translate(-315.95 -66.122)"/><path class="e" d="M328.73,220.366l2.828,4.9a.417.417,0,0,0,.76-.074l2.984-8.607Z" transform="translate(-316.412 -65.322)"/><path class="e" d="M397.321,136.735a4.332,4.332,0,0,0-1.97-3.409h0a4.4,4.4,0,0,0-3.94,0L315.67,177.033a4.365,4.365,0,0,0-1.97,3.417v24.931a4.365,4.365,0,0,0,1.97,3.417h0a4.349,4.349,0,0,0,3.94,0l75.929-43.83a3.055,3.055,0,0,0,1.79-3.27Z" transform="translate(-313.667 -50.034)"/><path class="r" d="M313.66,215.566a4.365,4.365,0,0,0,1.97,3.417h0a4.39,4.39,0,0,0,3.6.172c-.924.352-1.635-.18-1.635-1.308V192.908a3.965,3.965,0,0,1,.58-1.937l-3.948-2.281a4.088,4.088,0,0,0-.572,1.945Z" transform="translate(-313.66 -60.228)"/><path class="k" d="M397.354,136.177c-.229-.817-1-1.1-1.9-.58L319.7,179.3a3.9,3.9,0,0,0-1.39,1.471l-3.94-2.281a4.087,4.087,0,0,1,1.39-1.471l75.741-43.7a4.349,4.349,0,0,1,3.94,0h0A4.332,4.332,0,0,1,397.354,136.177Z" transform="translate(-313.79 -50.033)"/><path class="e" d="M324.733,185.556l68.017-39.35c.662-.376,1.2-.2,1.2.392a2.379,2.379,0,0,1-1.2,1.766l-68.017,39.326c-.654.384-1.193.213-1.193-.384a2.4,2.4,0,0,1,1.193-1.749Z" transform="translate(-315.464 -52.435)"/><path class="e" d="M324.733,200.432l58.339-33.677c.662-.384,1.193-.213,1.193.384a2.4,2.4,0,0,1-1.193,1.774l-58.339,33.669c-.654.384-1.193.2-1.193-.392A2.452,2.452,0,0,1,324.733,200.432Z" transform="translate(-315.464 -56.185)"/><path class="e" d="M324.733,205.971l66.627-38.516c.654-.384,1.193-.2,1.193.392a2.452,2.452,0,0,1-1.193,1.766l-66.627,38.508c-.654.384-1.193.213-1.193-.384a2.4,2.4,0,0,1,1.193-1.766Z" transform="translate(-315.464 -56.314)"/><path class="e" d="M324.733,192.351l66.627-38.516c.654-.384,1.193-.2,1.193.392a2.4,2.4,0,0,1-1.193,1.766l-66.627,38.549c-.654.376-1.193.2-1.193-.392a2.4,2.4,0,0,1,1.193-1.8Z" transform="translate(-315.464 -53.827)"/><path class="d" d="M395.481,85.071a5.354,5.354,0,0,0-4.831.09l-74.5,43a5.526,5.526,0,0,0-2.452,4.316v21.253a4.676,4.676,0,0,0,7.16,4.136l74.5-43.012a5.5,5.5,0,0,0,2.452-4.316V89.289A5.346,5.346,0,0,0,395.481,85.071Z" transform="translate(-313.667 -41.211)"/><path class="c" d="M397.942,88.825c-.2-1.259-1.226-1.7-2.452-.989l-31.062,17.926L320.991,130.84a5.174,5.174,0,0,0-1.766,1.864l-4.676-2.7a5.092,5.092,0,0,1,1.757-1.864l74.5-43a4.651,4.651,0,0,1,7.136,3.687Z" transform="translate(-313.823 -41.189)"/><path class="b" d="M319.37,135.852v21.253c0,1.586,1.12,2.232,2.493,1.439l74.5-43.012a5.5,5.5,0,0,0,2.452-4.316V89.963c0-1.586-1.112-2.232-2.452-1.439L365.3,106.45l-43.445,25.086A5.509,5.509,0,0,0,319.37,135.852Z" transform="translate(-314.703 -41.877)"/><g transform="translate(11.571 59.144)"><path class="e" d="M333.582,142.659l1.218,2.583a.286.286,0,0,0,.392.155l2.722-1.046c.433-.163.6.45.294,1.03l-1.97,3.695a1.3,1.3,0,0,0-.155.711l.466,3.343c.074.531-.376,1.234-.76,1.185l-2.452-.3a.613.613,0,0,0-.49.286l-2.452,3.106c-.384.5-.817.319-.76-.294l.466-3.883a.58.58,0,0,0-.155-.531l-1.97-1.422c-.311-.229-.139-1.038.294-1.373l2.722-2.093a1.25,1.25,0,0,0,.392-.613l1.218-3.989C332.871,142.569,333.386,142.251,333.582,142.659Z" transform="translate(-327.816 -110.934)"/><path class="e" d="M350.438,133.009l1.218,2.583a.286.286,0,0,0,.392.155l2.722-1.038c.433-.172.6.441.294,1.03l-1.945,3.695a1.267,1.267,0,0,0-.155.7l.466,3.351c.074.531-.376,1.226-.76,1.177l-2.452-.3a.613.613,0,0,0-.49.286l-2.452,3.114c-.384.49-.817.319-.76-.3l.466-3.883a.58.58,0,0,0-.155-.531l-1.97-1.422c-.311-.229-.139-1.038.294-1.365l2.722-2.1a1.21,1.21,0,0,0,.392-.613l1.218-3.989C349.685,132.919,350.241,132.6,350.438,133.009Z" transform="translate(-330.898 -109.172)"/><path class="e" d="M367.282,123.36l1.218,2.591a.286.286,0,0,0,.392.155l2.722-1.046c.433-.163.6.441.294,1.03l-1.97,3.695a1.283,1.283,0,0,0-.155.711l.466,3.343c.074.531-.376,1.226-.76,1.185l-2.452-.3a.58.58,0,0,0-.49.278l-2.452,3.114c-.384.49-.817.319-.76-.3l.466-3.883a.589.589,0,0,0-.155-.531l-1.97-1.422c-.311-.221-.139-1.03.294-1.365l2.722-2.1a1.21,1.21,0,0,0,.392-.613l1.218-3.989C366.53,123.278,367.086,122.951,367.282,123.36Z" transform="translate(-333.969 -107.41)"/><path class="e" d="M384.138,113.718l1.218,2.583a.286.286,0,0,0,.392.155l2.722-1.046c.433-.163.6.441.294,1.03l-1.97,3.695a1.3,1.3,0,0,0-.155.711l.466,3.343c.074.531-.376,1.234-.76,1.185l-2.452-.3a.613.613,0,0,0-.49.286l-2.452,3.106c-.384.5-.817.319-.76-.294l.466-3.883a.6.6,0,0,0-.131-.564l-1.97-1.422c-.311-.221-.139-1.03.294-1.365l2.722-2.093a1.275,1.275,0,0,0,.392-.621l1.218-3.989C383.385,113.628,383.941,113.3,384.138,113.718Z" transform="translate(-337.052 -105.649)"/><path class="c" d="M400.982,104.069l1.218,2.583a.286.286,0,0,0,.392.155l2.722-1.046c.433-.163.6.45.294,1.03l-1.97,3.727a1.3,1.3,0,0,0-.155.711l.466,3.343c.074.531-.376,1.234-.76,1.185l-2.452-.3a.613.613,0,0,0-.49.286l-2.452,3.106c-.384.5-.817.319-.76-.294l.466-3.883a.58.58,0,0,0-.155-.531l-1.97-1.422c-.311-.229-.139-1.038.294-1.373l2.722-2.093a1.21,1.21,0,0,0,.392-.613L400,104.65C400.23,103.98,400.761,103.661,400.982,104.069Z" transform="translate(-340.123 -103.888)"/></g><path class="e" d="M331.235,124.891l-4.087-2.354a.441.441,0,0,1-.2-.172l-.752-1.308,2.452-1.4-.074.213Z" transform="translate(-315.95 -47.624)"/><path class="r" d="M331.235,124.891l-4.087-2.354a.441.441,0,0,1-.2-.172l-.752-1.308,2.452-1.4-.074.213Z" transform="translate(-315.95 -47.624)"/><path class="e" d="M328.73,119.056l2.828,4.9a.417.417,0,0,0,.76-.074l2.984-8.607Z" transform="translate(-316.412 -46.824)"/><path class="e" d="M397.314,35.421A4.365,4.365,0,0,0,395.344,32h0a4.349,4.349,0,0,0-3.94,0L315.63,75.712a4.365,4.365,0,0,0-1.97,3.417v24.931a4.365,4.365,0,0,0,1.97,3.417h0a4.349,4.349,0,0,0,3.94,0L395.5,63.638a3.045,3.045,0,0,0,1.79-3.27Z" transform="translate(-313.66 -31.533)"/><path class="r" d="M313.66,114.256a4.365,4.365,0,0,0,1.97,3.417h0a4.357,4.357,0,0,0,3.6.163c-.924.352-1.635-.172-1.635-1.3V91.6a4.021,4.021,0,0,1,.58-1.945l-3.948-2.272a4.088,4.088,0,0,0-.572,1.945Z" transform="translate(-313.66 -41.73)"/><path class="k" d="M397.354,34.867c-.229-.817-1-1.1-1.9-.58L319.7,77.993a3.9,3.9,0,0,0-1.39,1.471l-3.94-2.281a4.087,4.087,0,0,1,1.39-1.471L391.5,32.006a4.4,4.4,0,0,1,3.94,0h0a4.332,4.332,0,0,1,1.913,2.861Z" transform="translate(-313.79 -31.534)"/><path class="e" d="M324.733,84.238,392.75,44.9c.662-.376,1.2-.2,1.2.392a2.379,2.379,0,0,1-1.2,1.766L324.733,86.4c-.654.384-1.193.213-1.193-.384A2.452,2.452,0,0,1,324.733,84.238Z" transform="translate(-315.464 -33.936)"/><path class="e" d="M324.733,99.112l58.339-33.677c.662-.384,1.193-.213,1.193.384a2.371,2.371,0,0,1-1.193,1.766L324.733,101.27c-.654.376-1.193.2-1.193-.392A2.4,2.4,0,0,1,324.733,99.112Z" transform="translate(-315.464 -37.685)"/><path class="e" d="M324.733,104.653l66.627-38.508c.654-.384,1.193-.2,1.193.384a2.452,2.452,0,0,1-1.193,1.774l-66.627,38.508c-.654.384-1.193.213-1.193-.384a2.452,2.452,0,0,1,1.193-1.774Z" transform="translate(-315.464 -37.816)"/><path class="e" d="M324.733,91.081l66.627-38.516c.654-.384,1.193-.2,1.193.392a2.452,2.452,0,0,1-1.193,1.766L324.733,93.231c-.654.384-1.193.213-1.193-.384A2.4,2.4,0,0,1,324.733,91.081Z" transform="translate(-315.464 -35.336)"/></g><g transform="translate(166.704 231.866)"><path class="s" d="M359.58,282.243l28.65-5.616a.891.891,0,0,1,.817,1.463l-19.43,22Z" transform="translate(-228.667 -276.616)"/><path class="e" d="M394.215,278.091a.891.891,0,0,0-.817-1.463l-5.607,1.12h0a4.9,4.9,0,0,1,2.305,4.569v.507Z" transform="translate(-233.818 -276.616)"/><path class="b" d="M238.909,362.614l2.338-1.349,2.836-1.635,101.645-58.306a13.079,13.079,0,0,0-.817-9.5c-2.035-4.545-5.975-8.174-9.245-8.346L234.1,341.778l-5.4,3.1C232.313,343.061,242.506,360.742,238.909,362.614Z" transform="translate(-204.77 -277.869)"/><path class="t" d="M249.823,369.4l5.231-3.008c1.545-.817.662-4.618-1.144-8.542-2.395-5.215-7.1-10.267-9.147-9.18l-3.858,2.215-1.365.817c2.052-1.087,6.76,3.956,9.147,9.18,1.725,3.76,2.608,7.414,1.292,8.411h0a.352.352,0,0,1-.155.106Z" transform="translate(-206.749 -289.744)"/><path class="e" d="M250.243,369.143c3.588-1.9-6.686-19.618-10.283-17.705l-5.24,2.992c3.588-1.9,13.9,15.8,10.275,17.705Z" transform="translate(-205.869 -290.251)"/><path class="t" d="M238.909,375.624l5.174-2.959c3.539-1.847-6.237-19.013-9.981-17.877a.629.629,0,0,0-.213.082l-5.191,3.016C232.313,356.071,242.506,373.752,238.909,375.624Z" transform="translate(-204.77 -290.879)"/><path class="l" d="M366.829,277.129l-.965-.5L345.078,288,237.589,349.682c-.2-.319-.368-.343-.5-.123,3.057,4.765,5.362,10.765,3.351,11.812l2.338-1.349,2.836-1.635,101.645-58.306h0l19.43-22A.817.817,0,0,0,366.829,277.129Z" transform="translate(-206.302 -276.618)"/><path class="u" d="M211.6,388.861,233.564,376.3c1.537-.817.687-4.561-1.087-8.46-2.379-5.223-7.062-10.324-9.122-9.278h0l-22.054,12.6c-4.381,2.526-.351,12.024,4.528,16.275C207.644,389.057,209.7,389.768,211.6,388.861Z" transform="translate(-199.425 -291.552)"/><path class="f" d="M212.917,384.861c-1.259-4.953-5.264-9.809-8.951-10.847a3.6,3.6,0,0,0-3.27.45c-3.27,3.065.548,11.779,5.166,15.8,1.774,1.569,3.76,2.272,5.656,1.447C213.138,390.746,213.8,388.212,212.917,384.861Z" transform="translate(-199.433 -294.362)"/></g></g></svg>