<svg xmlns="http://www.w3.org/2000/svg" width="536" height="510.074" viewBox="0 0 536 510.074"><defs><style>.a{fill:#f0f0f0;}.b{fill:#e0e0e0;}.c{fill:#ebebeb;}.d{fill:#263238;}.e{fill:#1034fe;}.f{fill:#455a64;}.g{fill:#fafafa;}.h{fill:#ffbe9d;}.i{fill:#eb996e;}</style></defs><g transform="translate(-42.339 -42.39)"><g transform="translate(75.25 79.661)"><circle class="a" cx="28.058" cy="28.058" r="28.058"/><path class="b" d="M104.921,99.345a21.781,21.781,0,0,1-3.685.209c-2.309,0-5.528.1-9.177.111H91.74V97.527c0-4.066,0-7.739.1-10.405a30.38,30.38,0,0,1,.221-4.312,29.038,29.038,0,0,1,.233,4.312c0,2.666.086,6.339.086,10.405v1.818l-.319-.332c3.685,0,6.867,0,9.177.111A21.78,21.78,0,0,1,104.921,99.345Z" transform="translate(-63.965 -70.427)"/><path class="b" d="M92.059,76.48c.184,0,.319,1.056.319,2.359s-.135,2.359-.319,2.359-.319-1.056-.319-2.359A5.42,5.42,0,0,1,92.059,76.48Z" transform="translate(-63.965 -71.873)"/><path class="b" d="M103.066,79.563c.123.123-.516.958-1.413,1.867s-1.744,1.548-1.88,1.425.516-.97,1.425-1.88S102.943,79.44,103.066,79.563Z" transform="translate(-62.133 -71.173)"/><path class="b" d="M109.27,86.217c.086.16-.774.749-1.855,1.4s-2,1.155-2.113,1.007.663-.872,1.781-1.548S109.2,86.058,109.27,86.217Z" transform="translate(-60.869 -69.658)"/><path class="b" d="M113.295,96.136a8.194,8.194,0,0,1-3.219.319,8.157,8.157,0,0,1-3.206-.319,8.439,8.439,0,0,1,3.206-.319A8.476,8.476,0,0,1,113.295,96.136Z" transform="translate(-60.508 -67.464)"/><path class="b" d="M76.949,95.786a7.3,7.3,0,0,1-3.034.319,7.371,7.371,0,0,1-3.034-.319,7.592,7.592,0,0,1,3.034-.319,7.543,7.543,0,0,1,3.034.319Z" transform="translate(-68.73 -67.544)"/><path class="b" d="M79.288,103.07c.111.135-.872,1.106-2.211,2.187s-2.457,1.83-2.6,1.683.884-1.118,2.211-2.187a7.481,7.481,0,0,1,2.6-1.683Z" transform="translate(-67.913 -65.799)"/><path class="b" d="M85.319,108.751a9.889,9.889,0,0,1-1.45,2.764c-.884,1.462-1.609,2.653-1.769,2.567a6.474,6.474,0,0,1,1.228-2.9C84.225,109.7,85.171,108.641,85.319,108.751Z" transform="translate(-66.167 -64.503)"/><path class="b" d="M92.066,117.265a8.476,8.476,0,0,1-.319-3.219,8.44,8.44,0,0,1,.319-3.206,8.157,8.157,0,0,1,.319,3.206A8.194,8.194,0,0,1,92.066,117.265Z" transform="translate(-63.971 -64.024)"/><path class="b" d="M104.216,113.356a6.363,6.363,0,0,1-2.739-1.708,6.646,6.646,0,0,1-2.076-2.457c.147-.123,1.228.86,2.457,2S104.314,113.209,104.216,113.356Z" transform="translate(-62.215 -64.403)"/><path class="b" d="M109.355,107.637c-.123.123-1.118-.676-2.223-1.781s-1.9-2.1-1.769-2.223,1.118.663,2.223,1.769S109.478,107.5,109.355,107.637Z" transform="translate(-60.856 -65.673)"/><path class="b" d="M78.8,89.344c-.123.123-1.007-.565-1.978-1.523S75.18,85.966,75.3,85.843s1.007.553,1.978,1.523S78.927,89.221,78.8,89.344Z" transform="translate(-67.723 -69.738)"/><path class="b" d="M85.322,82.456c-.123.123-1-.541-1.941-1.486S81.76,79.164,81.883,79s1,.541,1.953,1.486S85.445,82.333,85.322,82.456Z" transform="translate(-66.22 -71.302)"/><path class="a" d="M150.386,467.1c16.854-9.828,22.174-30.208,23.07-48.843.147-3.12.749-6.363-.5-9.2s-4.533-4.988-7.371-3.906c-2.457.9-3.685,3.489-5.1,5.6a18.145,18.145,0,0,1-7.838,6.351c-2.064.86-4.558,1.29-6.425,0-2.555-1.7-2.567-5.417-2.285-8.5l1.523-17.2a28.746,28.746,0,0,0-.184-9.238A9.594,9.594,0,0,0,139.8,375.2c-2.875-1.056-6.646.332-7.506,3.3a28.343,28.343,0,0,0-.405,3.833,3.268,3.268,0,0,1-2.15,2.9c-1.228.258-2.457-.712-3.268-1.7-2.936-3.378-4.766-7.567-6.462-11.719a56.8,56.8,0,0,0-5.921-12.039c-2.617-3.685-6.388-6.658-10.786-7.272s-9.336,1.732-10.81,5.97.7,8.882,3.182,12.629a68.919,68.919,0,0,0,13.218,14.852,5.737,5.737,0,0,1,2.187,2.776c.491,2.113-1.622,3.992-3.685,4.5-2.359.577-4.84.135-7.26.221s-5.123.934-6.228,3.133c-1.523,3.059.848,6.572,3.268,8.955a59.053,59.053,0,0,0,16.56,11.474,20,20,0,0,1,6.228,3.685c1.7,1.744-1.609,7.162-2.887,9.238s0,0-2.346-.627-4.361-2.113-6.56-3.145c-4.1-1.953-9.607-2.113-12.616,1.327a9.828,9.828,0,0,0-1.757,8.6,22.456,22.456,0,0,0,4.054,8.009,59.445,59.445,0,0,0,23.869,19.889c9.557,4.214,18.6,5.9,28.672,3.12" transform="translate(-63.903 -8.836)"/><path class="b" d="M148.5,480.483a135.868,135.868,0,0,0-2.948-25.8,276.9,276.9,0,0,0-8.525-30.711l-2.653-7.924c-.872-2.6-1.744-5.184-2.752-7.653a139.246,139.246,0,0,0-6.585-13.845c-2.309-4.312-4.656-8.3-6.879-12.039s-4.373-7.15-6.462-10.184a109.853,109.853,0,0,0-10.86-13.611c-1.413-1.5-2.543-2.629-3.317-3.391l-.9-.848-.307-.27a2.344,2.344,0,0,0,.27.307l.848.9c.749.786,1.855,1.929,3.243,3.452a117.571,117.571,0,0,1,10.737,13.685c2.064,3.059,4.177,6.486,6.388,10.221s4.533,7.727,6.83,12.027a140.051,140.051,0,0,1,6.523,13.82c1,2.457,1.855,5.012,2.727,7.616l2.653,7.924a286.116,286.116,0,0,1,8.6,30.588,137.922,137.922,0,0,1,3.071,25.8" transform="translate(-62.918 -8.425)"/><path class="b" d="M124.93,404.546a6.341,6.341,0,0,0,.405-1.3c.233-.835.528-2.064.872-3.575.688-3.034,1.5-7.26,2.371-11.928s1.744-8.869,2.457-11.879c.369-1.511.676-2.739.9-3.575a6.93,6.93,0,0,0,.283-1.327,6.893,6.893,0,0,0-.5,1.228c-.283.823-.651,2.027-1.056,3.526-.835,3.01-1.769,7.211-2.641,11.879s-1.622,8.771-2.211,11.953c-.27,1.437-.5,2.641-.688,3.612a6.645,6.645,0,0,0-.184,1.388Z" transform="translate(-56.382 -4.598)"/><path class="b" d="M93.13,389.611a9.381,9.381,0,0,0,1.572.319c1.007.172,2.457.418,4.275.774,3.6.688,8.6,1.818,13.931,3.3s10.221,3.047,13.685,4.275c1.732.6,3.12,1.13,4.091,1.486a8.39,8.39,0,0,0,1.511.516,8.283,8.283,0,0,0-1.437-.725c-.934-.418-2.309-1.007-4.029-1.658-3.427-1.327-8.255-2.948-13.66-4.447a140.576,140.576,0,0,0-14.029-3.145c-1.806-.319-3.292-.5-4.312-.6A9.068,9.068,0,0,0,93.13,389.611Z" transform="translate(-63.647 -0.338)"/><path class="b" d="M136.05,444.46a2.664,2.664,0,0,0,.319-.467l.786-1.376c.688-1.228,1.634-2.973,2.776-5.16,2.285-4.386,5.258-10.552,8.439-17.395s6.142-13.022,8.292-17.444l2.666-5.258.712-1.425a3.309,3.309,0,0,0,.209-.516,4.956,4.956,0,0,0-.319.455c-.2.307-.479.835-.786,1.376-.688,1.228-1.634,2.973-2.776,5.16-2.3,4.4-5.258,10.552-8.452,17.395s-6.081,13.022-8.28,17.456l-2.6,5.233-.713,1.437A2.456,2.456,0,0,0,136.05,444.46Z" transform="translate(-53.842 0.99)"/><path class="b" d="M94.27,418a1.979,1.979,0,0,0,.516.258l1.486.639,5.491,2.3c4.644,1.941,11.056,4.68,18.058,7.727s13.513,5.749,18.132,7.592c2.346.921,4.25,1.646,5.565,2.125l1.536.528a2.456,2.456,0,0,0,.541.16,4.114,4.114,0,0,0-.5-.258l-1.486-.639-5.442-2.322c-4.644-1.941-11.056-4.693-18.071-7.739s-13.513-5.737-18.132-7.58c-2.334-.921-4.238-1.646-5.565-2.125l-1.523-.541a2.811,2.811,0,0,0-.6-.123Z" transform="translate(-63.387 6.148)"/><rect class="b" width="7.518" height="53.364" transform="translate(440.352 418.203)"/><rect class="b" width="7.518" height="53.364" transform="translate(413.448 418.203)"/><rect class="b" width="7.518" height="53.364" transform="translate(345.92 418.203)"/><rect class="b" width="7.518" height="53.364" transform="translate(322.789 418.203)"/><path class="c" d="M358.055,338.882s-20.527-5.933-26.67,2.629-6.806,91.053-6.806,91.053,39.753.725,40.539,0S358.055,338.882,358.055,338.882Z" transform="translate(-10.772 -12.384)"/><path class="c" d="M468.458,440.57,466.64,284c-1.228-18.906-15-21.645-17-22.788-8.427-4.779-88.793-7.813-95.4,10.712s0,164.293,0,164.293Z" transform="translate(-4.667 -30.5)"/><path class="c" d="M473.3,408.814s-20.245-29.864-44.028-30.834-75.059,0-75.059,0-22.726.86-24.311,29v16.572H473.3Z" transform="translate(-9.556 -3.093)"/><path class="a" d="M454.967,339.207s-34.065-8.82-40.22,2.776-7.248,91.458-7.248,91.458,49.138,1.806,49.3-.258S454.967,339.207,454.967,339.207Z" transform="translate(8.172 -12.586)"/><path class="b" d="M454.4,338.655s-22.493-5.786-28.635,2.776S418,433.664,418,433.664s35.9,1.056,36.633.344S454.4,338.655,454.4,338.655Z" transform="translate(10.571 -12.415)"/><path class="b" d="M447.4,354.406a2.014,2.014,0,0,1,0-.393c0-.295-.061-.688-.111-1.167-.074-1.069-.184-2.567-.332-4.484-.258-3.931-.627-9.557-1.093-16.5s-.97-15.27-1.548-24.459c-.283-4.607-.59-9.447-.9-14.459s-.356-10.258-1.855-15.319a18.207,18.207,0,0,0-3.685-6.781,26.5,26.5,0,0,0-5.712-4.914,37.184,37.184,0,0,0-13.267-5.258,44.371,44.371,0,0,0-6.67-.639l-6.351-.246c-4.091-.135-7.911-.209-11.4-.233-6.978,0-12.616.086-16.51.307-1.953.111-3.464.221-4.484.319l-1.167.1h-.393a1.547,1.547,0,0,1,.393-.074l1.155-.16c1.02-.147,2.531-.295,4.472-.442,3.894-.295,9.545-.516,16.535-.516,3.489,0,7.371,0,11.425.16l6.351.209a46.085,46.085,0,0,1,6.757.627,37.652,37.652,0,0,1,13.513,5.307,27.026,27.026,0,0,1,5.847,5.049,18.537,18.537,0,0,1,3.771,7c1.536,5.2,1.5,10.479,1.867,15.466s.577,9.828.86,14.459c.528,9.2,1.007,17.493,1.413,24.471s.676,12.567.9,16.51c.086,1.916.16,3.415.209,4.484v1.228A1.228,1.228,0,0,1,447.4,354.406Z" transform="translate(0.044 -30.155)"/><path class="b" d="M435.278,281.6a8.92,8.92,0,0,1-2.74.663,9.031,9.031,0,0,1-2.789.393,8.157,8.157,0,0,1,5.528-1.056Z" transform="translate(13.255 -25.038)"/><path class="b" d="M438.255,284.774a17.1,17.1,0,0,1-4.054-.184,18.954,18.954,0,0,1-4.042-.491,17.2,17.2,0,0,1,8.1.676Z" transform="translate(13.349 -24.489)"/><path class="b" d="M436.055,307.469c0,.184-1.081.258-2.371.184s-2.346-.283-2.334-.455,1.069-.258,2.371-.184S436.055,307.3,436.055,307.469Z" transform="translate(13.621 -19.213)"/><path class="b" d="M407.009,298.663a3.759,3.759,0,0,0-1.843,1.646,2.96,2.96,0,0,0-.16,2.457,2.774,2.774,0,0,0,4.914-.074,2.948,2.948,0,0,0-.246-2.457,3.809,3.809,0,0,0-1.843-1.536,1.333,1.333,0,0,1,.712.074A3.084,3.084,0,0,1,410.068,300a3.366,3.366,0,0,1,.405,2.9,3.317,3.317,0,0,1-6.007.1,3.378,3.378,0,0,1,.319-2.911,3,3,0,0,1,1.486-1.228C406.751,298.6,407.009,298.639,407.009,298.663Z" transform="translate(7.435 -21.119)"/><path class="b" d="M411.438,298.928a4.582,4.582,0,0,1-2.1.528,12.2,12.2,0,0,1-5.27-.614,12.039,12.039,0,0,1-4.447-2.789,4.8,4.8,0,0,1-1.29-1.732c.086-.074.6.565,1.6,1.4a14.337,14.337,0,0,0,4.349,2.518,14.028,14.028,0,0,0,4.914.811A18.142,18.142,0,0,1,411.438,298.928Z" transform="translate(6.077 -22.108)"/><path class="b" d="M402.967,317.321a8.6,8.6,0,0,1-.712-2.359,14,14,0,0,1-.147-5.995,7.371,7.371,0,0,1,3.55-4.8,3.428,3.428,0,0,1,2.457-.442,9.828,9.828,0,0,0-2.236.835,7.432,7.432,0,0,0-3.157,4.558,16.117,16.117,0,0,0,0,5.761A10.565,10.565,0,0,1,402.967,317.321Z" transform="translate(6.882 -19.974)"/><path class="b" d="M415.586,310.959a3.39,3.39,0,0,1-1.732-.479,8.747,8.747,0,0,1-3.268-2.85,8.6,8.6,0,0,1-1.486-4.066,3.538,3.538,0,0,1,.16-1.794,10.2,10.2,0,0,1,.283,1.732,9.975,9.975,0,0,0,1.572,3.759,9.828,9.828,0,0,0,2.961,2.813C414.971,310.652,415.61,310.848,415.586,310.959Z" transform="translate(8.526 -20.405)"/><path class="b" d="M376.143,298.668a3.686,3.686,0,0,0-1.794,1.6,2.96,2.96,0,0,0-.172,2.457,2.776,2.776,0,0,0,4.914-.074,3,3,0,0,0-.246-2.457,3.759,3.759,0,0,0-1.855-1.536,1.081,1.081,0,0,1,.712.074,3.034,3.034,0,0,1,1.523,1.228,3.2,3.2,0,1,1-5.27.086,2.986,2.986,0,0,1,1.474-1.228A1.118,1.118,0,0,1,376.143,298.668Z" transform="translate(0.391 -21.123)"/><path class="b" d="M380.534,298.937a4.582,4.582,0,0,1-2.1.528,12.2,12.2,0,0,1-5.2-.663,11.94,11.94,0,0,1-4.447-2.788,4.8,4.8,0,0,1-1.29-1.732c.086-.074.6.565,1.6,1.4a14.335,14.335,0,0,0,4.349,2.518,14.029,14.029,0,0,0,4.914.811,18.107,18.107,0,0,1,2.174-.074Z" transform="translate(-0.966 -22.117)"/><path class="b" d="M372.109,317.321a8.118,8.118,0,0,1-.713-2.359,13.979,13.979,0,0,1-.16-5.995,7.371,7.371,0,0,1,3.563-4.8,3.4,3.4,0,0,1,2.457-.442,9.908,9.908,0,0,0-2.223.835,7.371,7.371,0,0,0-3.157,4.558,16.138,16.138,0,0,0,0,5.761,11.118,11.118,0,0,1,.233,2.445Z" transform="translate(-0.17 -19.974)"/><path class="b" d="M384.716,310.959a3.366,3.366,0,0,1-1.72-.479,8.759,8.759,0,0,1-4.766-6.916,3.3,3.3,0,0,1,.172-1.794,10.2,10.2,0,0,1,.283,1.732,9.927,9.927,0,0,0,1.56,3.759,10.048,10.048,0,0,0,2.961,2.813C384.1,310.652,384.753,310.848,384.716,310.959Z" transform="translate(1.473 -20.405)"/><path class="b" d="M352.652,336.39a14.334,14.334,0,0,1,0,2.015c0,1.4-.061,3.231-.111,5.454-.1,4.607-.246,10.97-.332,18.009s-.111,13.353-.111,18.009v5.454a11.536,11.536,0,0,1-.086,2.015,11.484,11.484,0,0,1-.16-2c-.061-1.29-.123-3.157-.172-5.467-.111-4.607-.16-10.982-.074-18.021s.307-13.4.516-18.009c.111-2.31.221-4.177.319-5.454a10.732,10.732,0,0,1,.209-2Z" transform="translate(-4.607 -12.496)"/><path class="b" d="M428.715,378.232H409.44l-20.884-.1-12.285-.086c-4.275,0-8.7,0-13.194.356a53.369,53.369,0,0,0-12.886,2.457,34.565,34.565,0,0,0-10.7,5.761,25.708,25.708,0,0,0-4,4,20.879,20.879,0,0,0-1.585,2.211c-.491.749-.934,1.511-1.339,2.273a33.769,33.769,0,0,0-3.219,9.054,49.925,49.925,0,0,0-.7,13.955c.135,1.646.283,2.936.393,3.8l.111,1v.332a1.044,1.044,0,0,0-.086-.332,7.256,7.256,0,0,1-.184-.97c-.147-.86-.332-2.15-.5-3.8a48.425,48.425,0,0,1,.5-14.066,33.509,33.509,0,0,1,3.194-9.213,24.725,24.725,0,0,1,1.351-2.322,23.062,23.062,0,0,1,1.6-2.273,26.791,26.791,0,0,1,4.066-4.115,35.294,35.294,0,0,1,10.884-5.884,53.552,53.552,0,0,1,13.022-2.555c4.545-.381,8.98-.368,13.255-.344l12.285.123,20.884.233,14.066.209,3.82.086h1Z" transform="translate(-9.971 -3.136)"/></g><g transform="translate(82.228 550.908)"><path class="d" d="M525.763,456.659c0,.184-100.954.319-225.47.319s-225.483-.135-225.483-.319,100.93-.319,225.483-.319S525.763,456.487,525.763,456.659Z" transform="translate(-74.81 -456.34)"/></g><g transform="translate(42.339 42.39)"><path class="d" d="M193.937,267.179c0,.184-8.01.319-17.9.319s-17.9-.135-17.9-.319,8.01-.319,17.9-.319S193.937,267.032,193.937,267.179Z" transform="translate(-15.884 8.891)"/><path class="d" d="M193.286,270.942c0,.172-7.862.319-17.579.319s-17.567-.147-17.567-.319,7.862-.332,17.567-.332S193.286,270.757,193.286,270.942Z" transform="translate(-15.884 9.748)"/><path class="d" d="M193.286,274.689c0,.172-7.862.319-17.579.319s-17.567-.147-17.567-.319,7.862-.319,17.567-.319S193.286,274.505,193.286,274.689Z" transform="translate(-15.884 10.607)"/><path class="d" d="M193.286,278.439c0,.172-7.862.319-17.579.319s-17.567-.147-17.567-.319,7.862-.319,17.567-.319S193.286,278.255,193.286,278.439Z" transform="translate(-15.884 11.463)"/><path class="d" d="M193.286,282.189c0,.172-7.862.319-17.579.319s-17.567-.147-17.567-.319,7.862-.319,17.567-.319S193.286,282.03,193.286,282.189Z" transform="translate(-15.884 12.32)"/><path class="d" d="M175.288,285.947a58.486,58.486,0,0,1-8.6.319,58.39,58.39,0,0,1-8.6-.319,56.393,56.393,0,0,1,8.6-.319,56.5,56.5,0,0,1,8.6.319Z" transform="translate(-15.895 13.169)"/><path class="e" d="M185.322,263.059c0,.184-6.142.319-13.636.319s-13.636-.135-13.636-.319,6.142-.319,13.636-.319S185.322,262.912,185.322,263.059Z" transform="translate(-15.905 7.95)"/><path class="d" d="M205.559,304.948v-3.771c0-2.457,0-6.007-.074-10.528,0-9.054-.074-21.952-.135-37.468l.27.27H149.038l.307-.307h0v51.8l-.283-.283,40.9.147,11.56.074h.123l-11.5.074-41.079.147h-.283V253.022h0l.332-.332h56.865v.27c0,15.577-.1,28.549-.135,37.64,0,4.5,0,8.022-.074,10.466v2.739A3.214,3.214,0,0,1,205.559,304.948Z" transform="translate(-18.022 5.654)"/><path class="e" d="M169.061,145.382l27.2-.172a34.642,34.642,0,0,0-8.747-22.444,32.2,32.2,0,0,0-28.168-10.823c-1.3.147-2.617.356-3.956.639h-.1l7.371,32.775Z" transform="translate(-16.535 -26.554)"/><path class="f" d="M177.428,172.245A32.271,32.271,0,0,0,195.94,145.8c0-.344.074-.688.1-1.044a5.86,5.86,0,0,0,0-.663c0-.639,0-1.3.061-1.966V142h0l-27.21.184H162.5l-7.162,32.787h0a33.057,33.057,0,0,0,7.064.725A35.269,35.269,0,0,0,177.428,172.245Z" transform="translate(-16.524 -19.634)"/><path class="d" d="M164.78,146.645l-7.371-32.775a33.6,33.6,0,0,0,.221,65.612l7.15-32.787" transform="translate(-22.044 -26.06)"/><rect class="e" width="7.358" height="55.563" transform="translate(61.62 265.26)"/><rect class="f" width="7.358" height="32.185" transform="translate(50.282 288.638)"/><rect class="e" width="7.358" height="37.198" transform="translate(38.943 283.625)"/><rect class="f" width="7.358" height="14.999" transform="translate(27.592 305.824)"/><rect class="e" width="7.358" height="67.7" transform="translate(84.31 253.123)"/><rect class="f" width="7.358" height="61.521" transform="translate(72.971 259.302)"/><rect class="e" width="7.358" height="74.407" transform="translate(106.999 246.416)"/><rect class="f" width="7.358" height="89.1" transform="translate(95.649 231.723)"/><path class="d" d="M71.851,309.292a8.7,8.7,0,0,1-3.255.319,8.7,8.7,0,0,1-3.255-.319,8.4,8.4,0,0,1,3.268-.283,8.4,8.4,0,0,1,3.243.283Z" transform="translate(-37.084 18.509)"/><path class="d" d="M80.951,309.3a8.6,8.6,0,0,1-3.255.319,8.7,8.7,0,0,1-3.255-.319,8.4,8.4,0,0,1,3.255-.319,8.354,8.354,0,0,1,3.255.319Z" transform="translate(-35.005 18.504)"/><path class="d" d="M90.061,309.292a8.7,8.7,0,0,1-3.255.319,8.6,8.6,0,0,1-3.255-.319,8.354,8.354,0,0,1,3.255-.283A8.4,8.4,0,0,1,90.061,309.292Z" transform="translate(-32.924 18.509)"/><path class="d" d="M99.211,309.293a8.7,8.7,0,0,1-3.255.319,8.6,8.6,0,0,1-3.255-.319,8.353,8.353,0,0,1,3.194-.283,8.4,8.4,0,0,1,3.317.283Z" transform="translate(-30.834 18.508)"/><path class="d" d="M108.261,309.3a8.7,8.7,0,0,1-3.255.319,8.7,8.7,0,0,1-3.255-.319,8.4,8.4,0,0,1,3.255-.319A8.4,8.4,0,0,1,108.261,309.3Z" transform="translate(-28.766 18.504)"/><path class="d" d="M117.361,309.3a8.7,8.7,0,0,1-3.255.319,8.7,8.7,0,0,1-3.255-.319,8.4,8.4,0,0,1,3.255-.319,8.4,8.4,0,0,1,3.255.319Z" transform="translate(-26.687 18.504)"/><path class="d" d="M126.461,309.3a8.6,8.6,0,0,1-3.255.319,8.7,8.7,0,0,1-3.255-.319,8.4,8.4,0,0,1,3.255-.319A8.355,8.355,0,0,1,126.461,309.3Z" transform="translate(-24.609 18.504)"/><path class="d" d="M135.559,309.3a16.683,16.683,0,0,1-6.5,0,8.353,8.353,0,0,1,3.255-.319,8.317,8.317,0,0,1,3.243.319Z" transform="translate(-22.527 18.504)"/><path class="d" d="M144.181,314.619c0,.172-7.985.319-17.849.319s-17.862-.147-17.862-.319,8-.319,17.862-.319S144.181,314.435,144.181,314.619Z" transform="translate(-27.231 19.729)"/><path class="d" d="M122.53,317.687a31.368,31.368,0,0,1-6.265.319,31.464,31.464,0,0,1-6.265-.319,30.39,30.39,0,0,1,6.265-.319A30.294,30.294,0,0,1,122.53,317.687Z" transform="translate(-26.882 20.42)"/><path class="d" d="M121.819,228.581a1.793,1.793,0,0,1,1.02.2,4.029,4.029,0,0,1,2.285,4.017,3.489,3.489,0,0,1-1.007,2.1,4.349,4.349,0,0,1-5,.884,4.533,4.533,0,0,1-2.187-4.594,4.066,4.066,0,0,1,.97-2.113,4.484,4.484,0,0,1,1.646-1.155,4.594,4.594,0,0,1,2.813-.246c.663.172.97.393.946.43s-.356-.1-.983-.184a4.631,4.631,0,0,0-2.592.418,3.747,3.747,0,0,0-2.224,2.924,4.017,4.017,0,0,0,1.9,3.956,3.82,3.82,0,0,0,4.287-.725,3.194,3.194,0,0,0,.688-3.513A3.833,3.833,0,0,0,122.728,229C122.175,228.691,121.807,228.642,121.819,228.581Z" transform="translate(-25.31 -0.088)"/><path class="d" d="M126.877,146.043a1.968,1.968,0,0,1-.43,0h-1.228l-4.914.074.16-.147c.1,8.71.16,26.055.16,45.993,0,14.508,0,27.628-.086,37.2,0,4.717-.086,8.6-.111,11.265V243.5a5.551,5.551,0,0,1,0,1.069,7.237,7.237,0,0,1-.061-1.069v-3.071c0-2.715,0-6.548-.1-11.265,0-9.57,0-22.69-.1-37.2,0-19.938.074-37.284.172-45.993v-.16h.147l4.914.074h1.228Z" transform="translate(-24.558 -18.763)"/><path class="d" d="M88.579,193.979c0,.172-8.022.319-17.911.319s-17.9-.147-17.9-.319,8.01-.319,17.9-.319S88.579,193.807,88.579,193.979Z" transform="translate(-39.956 -7.832)"/><path class="d" d="M87.928,197.729c0,.184-7.874.319-17.579.319s-17.579-.135-17.579-.319,7.862-.319,17.579-.319S87.928,197.557,87.928,197.729Z" transform="translate(-39.956 -6.975)"/><path class="d" d="M87.928,201.479c0,.184-7.874.319-17.579.319s-17.579-.135-17.579-.319,7.862-.319,17.579-.319S87.928,201.307,87.928,201.479Z" transform="translate(-39.956 -6.118)"/><path class="d" d="M87.928,205.229c0,.184-7.874.319-17.579.319s-17.579-.135-17.579-.319,7.862-.319,17.579-.319S87.928,205.021,87.928,205.229Z" transform="translate(-39.956 -5.262)"/><path class="d" d="M87.928,208.979c0,.184-7.874.319-17.579.319s-17.579-.135-17.579-.319,7.862-.319,17.579-.319S87.928,208.807,87.928,208.979Z" transform="translate(-39.956 -4.405)"/><path class="d" d="M69.928,212.737a56.634,56.634,0,0,1-8.6.319,56.512,56.512,0,0,1-8.6-.319,58.491,58.491,0,0,1,8.6-.319,58.63,58.63,0,0,1,8.6.319Z" transform="translate(-39.965 -3.556)"/><path class="e" d="M79.952,189.879c0,.172-6.142.319-13.636.319s-13.636-.147-13.636-.319,6.142-.319,13.636-.319S79.952,189.707,79.952,189.879Z" transform="translate(-39.977 -8.768)"/><path class="d" d="M99.291,231.272V227.5c0-2.457,0-6.007-.074-10.528,0-9.054-.086-21.952-.135-37.468l.27.27H42.758c-.074.074.6-.6.319-.307h0v51.8l-.283-.283,40.9.135,11.56.074h.111l-11.486.074-41.079.147h-.381V179.333h0c-.295.283.381-.405.319-.332H99.6v.27c0,15.577-.111,28.537-.135,37.64,0,4.5,0,8.022-.074,10.466v2.739A6.7,6.7,0,0,1,99.291,231.272Z" transform="translate(-42.339 -11.182)"/><path class="d" d="M74.967,242.989a84.254,84.254,0,0,1-.319-10.294,84.252,84.252,0,0,1,.319-10.294,84.245,84.245,0,0,1,.319,10.294,84.249,84.249,0,0,1-.319,10.294Z" transform="translate(-34.967 -1.266)"/><path class="d" d="M77.514,235.34a20.072,20.072,0,0,0-1.228,5.086v1.056l-.528-.749a9.828,9.828,0,0,1-2.027-4.914c.172-.061.9,2.162,2.555,4.5l-.59.172v-.147A7.555,7.555,0,0,1,77.514,235.34Z" transform="translate(-35.168 1.69)"/><path class="d" d="M361.389,121.615c-.172,0-.319-.823-.319-1.843s.147-1.843.319-1.843.319.823.319,1.843S361.561,121.615,361.389,121.615Z" transform="translate(30.476 -25.133)"/><path class="d" d="M361.389,127.628c-.172,0-.319-.823-.319-1.843s.147-1.855.319-1.855.319.835.319,1.855S361.561,127.628,361.389,127.628Z" transform="translate(30.476 -23.762)"/><path class="d" d="M361.389,133.625c-.172,0-.319-.823-.319-1.843s.147-1.843.319-1.843.319.823.319,1.843S361.561,133.625,361.389,133.625Z" transform="translate(30.476 -22.389)"/><path class="d" d="M361.389,139.613c-.172,0-.319-.823-.319-1.83s.147-1.843.319-1.843.319.823.319,1.843S361.561,139.613,361.389,139.613Z" transform="translate(30.476 -21.018)"/><path class="d" d="M361.389,145.615c-.172,0-.319-.823-.319-1.843s.147-1.843.319-1.843.319.823.319,1.843S361.561,145.615,361.389,145.615Z" transform="translate(30.476 -19.65)"/><path class="d" d="M361.389,151.605c-.172,0-.319-.823-.319-1.843s.147-1.843.319-1.843.319.823.319,1.843S361.561,151.605,361.389,151.605Z" transform="translate(30.476 -18.281)"/><path class="d" d="M361.389,157.605c-.172,0-.319-.835-.319-1.843s.147-1.843.319-1.843.319.823.319,1.843S361.561,157.605,361.389,157.605Z" transform="translate(30.476 -16.911)"/><path class="d" d="M361.389,163.6c-.172,0-.319-.823-.319-1.843s.147-1.843.319-1.843.319.823.319,1.843S361.561,163.6,361.389,163.6Z" transform="translate(30.476 -15.542)"/><rect class="f" width="197.216" height="83.83" rx="3.96" transform="translate(240.975)"/><path class="g" d="M289.414,70.073A21.375,21.375,0,0,0,272.043,57.6l-.688-.074h-1.867l-.1,18.009v4.238l21.633,4.9h0a21.063,21.063,0,0,0,.541-4.656,23.489,23.489,0,0,0-2.15-9.95Z" transform="translate(9.532 -38.931)"/><path class="b" d="M270.842,81.559v-3.98l.1-18.009a22.972,22.972,0,0,0-14.926,5.614,21.289,21.289,0,0,0-7.371,18.562c.074.774.2,1.56.344,2.359h-.16c2.875,10.368,12.285,18.206,21.486,17.616,10.638-.676,19.655-7.26,21.952-17.2Z" transform="translate(4.763 -38.465)"/><path class="d" d="M337.217,65.239c0,.172-8.685.319-19.4.319s-19.41-.147-19.41-.319,8.685-.319,19.41-.319S337.217,65.018,337.217,65.239Z" transform="translate(16.161 -37.243)"/><path class="d" d="M337.217,71.309c0,.172-8.685.319-19.4.319s-19.41-.147-19.41-.319,8.685-.319,19.41-.319S337.217,71.125,337.217,71.309Z" transform="translate(16.161 -35.856)"/><path class="d" d="M337.217,77.379c0,.172-8.685.319-19.4.319s-19.41-.147-19.41-.319,8.685-.319,19.41-.319S337.217,77.207,337.217,77.379Z" transform="translate(16.161 -34.47)"/><path class="d" d="M337.217,83.449c0,.172-8.685.319-19.4.319s-19.41-.147-19.41-.319,8.685-.319,19.41-.319S337.217,83.277,337.217,83.449Z" transform="translate(16.161 -33.083)"/><path class="d" d="M321.119,90.059a18.131,18.131,0,0,1-3.329.221c-2.052,0-4.914.1-8.034.1s-5.995,0-8.046-.1a18.132,18.132,0,0,1-3.329-.221,17.333,17.333,0,0,1,3.329-.233c2.052,0,4.914-.086,8.046-.086s5.983,0,8.034.086A17.332,17.332,0,0,1,321.119,90.059Z" transform="translate(16.154 -31.573)"/><path class="b" d="M353.28,59.774a2.457,2.457,0,0,1,.835-.442,7.125,7.125,0,0,1,2.58-.479,7.484,7.484,0,0,1,.885,0l.467.074h.061c-.16-.258.233.356.184.295h0v.356c-.147.639-.283,1.314-.442,2.015-.319,1.45-.676,3.022-1.044,4.68v.246H348.98v-.233a7.665,7.665,0,0,1,.8-3.3A6.782,6.782,0,0,1,351.4,60.9a6.378,6.378,0,0,1,1.425-.934c.356-.16.553-.221.565-.2a10.956,10.956,0,0,0-1.757,1.388,7.1,7.1,0,0,0-2.076,5.123l-.283-.295h7.1l-.307.246,1.106-4.656c.172-.7.344-1.376.5-2.015v-.344h0s.344.553.172.295h-.061l-.43-.086a6.524,6.524,0,0,0-.823-.1,11.928,11.928,0,0,0-3.255.442Z" transform="translate(27.714 -38.632)"/><path class="g" d="M357,67.114H349.81a7.6,7.6,0,0,0,1.843,4.914,6.977,6.977,0,0,0,6.069,2.457l.762-.111h0c3.391-.934,5.946-3.992,5.761-7.014a7.58,7.58,0,0,0-5.6-7.26Z" transform="translate(27.904 -38.344)"/><path class="g" d="M353.236,81.276a6.978,6.978,0,0,0-4.066,5.675v.786h7.162l1.634-7.076h0a6.977,6.977,0,0,0-1.523-.172,7.555,7.555,0,0,0-3.206.786Z" transform="translate(27.758 -33.686)"/><path class="b" d="M357.024,88.682a17.217,17.217,0,0,1,.344-1.966c.27-1.314.626-3.022,1.056-5.086V81.41h.233a7.922,7.922,0,0,1,5.675,9.324,7.715,7.715,0,0,1-2.715,3.882,9.139,9.139,0,0,1-2.948,1.56l-.319.086-.074-.332h0l.368.246a7.862,7.862,0,0,1-3.747-.184,7.371,7.371,0,0,1-2.985-1.83,7.752,7.752,0,0,1-2.224-5.479V88.4h.233l5.258.123a15.046,15.046,0,0,1,1.916.147,10.564,10.564,0,0,1-1.929.111l-5.258.074.233-.221a7.371,7.371,0,0,0,2.174,5.061,6.793,6.793,0,0,0,6.2,1.794h.307l.061.307h0l-.393-.246a8.4,8.4,0,0,0,2.825-1.425,7.088,7.088,0,0,0,2.457-3.55,6.855,6.855,0,0,0-.258-4.042,7.039,7.039,0,0,0-4.914-4.644l.27-.172c-.54,2.2-1,3.968-1.314,5.16a11.445,11.445,0,0,1-.54,1.806Z" transform="translate(27.876 -33.476)"/><path class="d" d="M392.1,84.279a119.956,119.956,0,0,1-12.284.319,120.113,120.113,0,0,1-12.285-.319,113.908,113.908,0,0,1,12.284-.332,113.753,113.753,0,0,1,12.285.332Z" transform="translate(31.952 -32.905)"/><path class="d" d="M379.815,86.939a59.333,59.333,0,0,1-12.284,0A59.335,59.335,0,0,1,379.815,86.939Z" transform="translate(31.952 -32.285)"/><path class="d" d="M392.1,62.757a113.758,113.758,0,0,1-12.285.332,113.9,113.9,0,0,1-12.284-.332,120.1,120.1,0,0,1,12.284-.319,119.956,119.956,0,0,1,12.285.319Z" transform="translate(31.952 -37.819)"/><path class="d" d="M379.815,65.429a59.335,59.335,0,0,1-12.284,0,59.335,59.335,0,0,1,12.285,0Z" transform="translate(31.952 -37.199)"/><path class="d" d="M339.929,113.566c-.184,0-.319-14.741-.319-33.033s.135-33.033.319-33.033.319,14.741.319,33.033S340.089,113.566,339.929,113.566Z" transform="translate(25.574 -41.223)"/><rect class="e" width="7.616" height="68.72" transform="translate(355.073 154.466)"/><rect class="e" width="7.616" height="45.379" transform="translate(369.766 177.806)"/><rect class="e" width="7.616" height="60.526" transform="translate(384.458 163.016)"/><rect class="e" width="7.616" height="66.066" transform="translate(399.163 157.119)"/><rect class="e" width="7.616" height="43.979" transform="translate(413.855 179.207)"/><rect class="e" width="7.616" height="35.355" transform="translate(428.547 187.831)"/><rect class="e" width="7.616" height="61.668" transform="translate(443.24 161.517)"/><rect class="e" width="7.616" height="50.551" transform="translate(457.932 172.635)"/><rect class="e" width="7.616" height="59.433" transform="translate(472.636 163.753)"/><rect class="e" width="7.616" height="40.49" transform="translate(487.329 182.696)"/><rect class="e" width="7.616" height="48.192" transform="translate(502.021 174.993)"/><path class="d" d="M480.448,181.027h-.467l-1.327-.209a21.3,21.3,0,0,0-2.174-.283l-1.388-.147-1.585-.061a41.066,41.066,0,0,0-8.157.442,45.1,45.1,0,0,0-10.4,2.825,43,43,0,0,0-11.24,6.646,59.187,59.187,0,0,0-10.049,11.142c-3.194,4.226-6.449,8.882-10.97,12.641a27.812,27.812,0,0,1-7.629,4.594,18.206,18.206,0,0,1-9.078,1.118,21.265,21.265,0,0,1-8.6-3.243,36.594,36.594,0,0,1-6.793-5.737c-4.029-4.263-6.953-9.091-10.024-13.415A49.333,49.333,0,0,0,370.551,186.2a26.36,26.36,0,0,0-5.872-3.341,27.628,27.628,0,0,0-6.044-1.622,29.053,29.053,0,0,0-18.292,3.4,28.258,28.258,0,0,0-4.2,3.01l-1,.9c-.221.209-.344.307-.356.295a2.081,2.081,0,0,1,.307-.344l.958-.946a26.562,26.562,0,0,1,4.152-3.133,29.016,29.016,0,0,1,18.427-3.685,27.84,27.84,0,0,1,6.142,1.622,25.982,25.982,0,0,1,6.019,3.378,49.384,49.384,0,0,1,10.172,11.216c3.108,4.336,6.032,9.14,10,13.329a36.127,36.127,0,0,0,6.732,5.614,20.883,20.883,0,0,0,8.3,3.157,17.763,17.763,0,0,0,8.783-1.081,26.767,26.767,0,0,0,7.444-4.5c4.447-3.685,7.69-8.268,10.909-12.506,1.6-2.125,3.194-4.189,4.914-6.142.835-.934,1.683-1.867,2.592-2.7l1.327-1.228c.455-.405.934-.774,1.388-1.155a43.082,43.082,0,0,1,11.4-6.646,44.693,44.693,0,0,1,10.528-2.764,41.768,41.768,0,0,1,8.218-.344l1.6.1,1.388.184a19.425,19.425,0,0,1,2.174.344l1.327.27Z" transform="translate(24.472 -10.972)"/><path class="d" d="M324.619,244.277c-.172,0-.319-19.594-.319-43.758s.147-43.77.319-43.77.319,19.594.319,43.77S324.791,244.277,324.619,244.277Z" transform="translate(22.076 -16.264)"/><path class="d" d="M489.709,228.059c0,.172-36.1.319-80.623.319s-80.636-.147-80.636-.319,36.092-.319,80.636-.319S489.709,227.851,489.709,228.059Z" transform="translate(23.024 -0.046)"/><path class="d" d="M342.322,232.429a50.144,50.144,0,0,1-11.3,0,50.147,50.147,0,0,1,11.3,0Z" transform="translate(23.611 0.952)"/><path class="d" d="M357.983,232.659a71.491,71.491,0,0,1-13.513,0A71.5,71.5,0,0,1,357.983,232.659Z" transform="translate(26.684 1.005)"/><path class="d" d="M370.993,232.659a71.491,71.491,0,0,1-13.513,0,71.5,71.5,0,0,1,13.513,0Z" transform="translate(29.656 1.005)"/><path class="d" d="M384,232.659a71.492,71.492,0,0,1-13.513,0A71.5,71.5,0,0,1,384,232.659Z" transform="translate(32.628 1.005)"/><path class="d" d="M397.013,232.659a71.491,71.491,0,0,1-13.513,0A71.5,71.5,0,0,1,397.013,232.659Z" transform="translate(35.6 1.005)"/><path class="d" d="M410.023,232.659a71.491,71.491,0,0,1-13.513,0,71.5,71.5,0,0,1,13.513,0Z" transform="translate(38.573 1.005)"/><path class="d" d="M423.033,232.659a71.491,71.491,0,0,1-13.513,0A71.5,71.5,0,0,1,423.033,232.659Z" transform="translate(41.545 1.005)"/><path class="d" d="M436.043,232.659a71.618,71.618,0,0,1-13.513,0,71.619,71.619,0,0,1,13.513,0Z" transform="translate(44.517 1.005)"/><path class="d" d="M449.043,232.659a71.491,71.491,0,0,1-13.513,0A71.5,71.5,0,0,1,449.043,232.659Z" transform="translate(47.487 1.005)"/><path class="d" d="M462.053,232.659a71.49,71.49,0,0,1-13.513,0,71.5,71.5,0,0,1,13.513,0Z" transform="translate(50.459 1.005)"/><path class="d" d="M374.139,194.747c0-.074.651,0,.909.9a1.621,1.621,0,0,1-.295,1.474,1.594,1.594,0,1,1-1.9-2.457c.823-.381,1.339,0,1.228.1s-.491-.086-1.044.295a1.229,1.229,0,0,0-.541.872,1.02,1.02,0,0,0,.651.946,1,1,0,0,0,1.13-.147,1.229,1.229,0,0,0,.295-.983C374.532,195.115,374.078,194.833,374.139,194.747Z" transform="translate(32.959 -7.641)"/><path class="d" d="M433.981,181.22a.569.569,0,0,1,.43,0,1.708,1.708,0,0,1,1.007.651,1.757,1.757,0,0,1,.27,1.781,2.039,2.039,0,0,1-1.867,1.228,1.9,1.9,0,0,1-1.744-1.376,1.818,1.818,0,0,1,.369-1.769c.749-.762,1.462-.639,1.437-.577a3.1,3.1,0,0,0-1.093.86,1.4,1.4,0,0,0-.147,1.3,1.339,1.339,0,0,0,1.228.921,1.511,1.511,0,0,0,1.314-.811,1.3,1.3,0,0,0-.111-1.228C434.595,181.355,433.956,181.318,433.981,181.22Z" transform="translate(46.677 -10.698)"/><ellipse class="d" cx="0.319" cy="0.921" rx="0.319" ry="0.921" transform="translate(481.53 136.592)"/><path class="d" d="M434.639,162.332c-.172,0-.319-.9-.319-2s.147-1.99.319-1.99.319.9.319,1.99S434.824,162.332,434.639,162.332Z" transform="translate(47.21 -15.901)"/><path class="d" d="M434.639,168.842c-.172,0-.319-.9-.319-2s.147-1.99.319-1.99.319.884.319,1.99S434.824,168.842,434.639,168.842Z" transform="translate(47.21 -14.414)"/><path class="d" d="M434.639,175.355c-.172,0-.319-.9-.319-2s.147-2,.319-2,.319.9.319,2S434.824,175.355,434.639,175.355Z" transform="translate(47.21 -12.929)"/><path class="d" d="M434.639,179.7c-.172,0-.319-.405-.319-.921s.147-.921.319-.921.319.418.319.921S434.824,179.7,434.639,179.7Z" transform="translate(47.21 -11.441)"/><path class="d" d="M489.032,144.819c0,.172-12.481.319-27.886.319s-27.886-.147-27.886-.319,12.493-.319,27.886-.319S489.032,144.647,489.032,144.819Z" transform="translate(46.968 -19.063)"/><path class="d" d="M469.833,139.679c0,.172-8.034.319-17.948.319s-17.935-.147-17.935-.319,8.034-.319,17.935-.319S469.833,139.507,469.833,139.679Z" transform="translate(47.126 -20.237)"/><path class="d" d="M165.649,109.13c.172,0,.319.418.319.921s-.147.921-.319.921-.319-.418-.319-.921S165.465,109.13,165.649,109.13Z" transform="translate(-14.241 -27.143)"/><path class="d" d="M165.649,103.34c.172,0,.319.8.319,1.781s-.147,1.769-.319,1.769-.319-.786-.319-1.769S165.465,103.34,165.649,103.34Z" transform="translate(-14.241 -28.466)"/><path class="d" d="M165.649,97.55c.172,0,.319.786.319,1.769s-.147,1.781-.319,1.781-.319-.8-.319-1.781S165.465,97.55,165.649,97.55Z" transform="translate(-14.241 -29.788)"/><path class="d" d="M165.649,91.76c.172,0,.319.8.319,1.781s-.147,1.769-.319,1.769-.319-.786-.319-1.769S165.465,91.76,165.649,91.76Z" transform="translate(-14.241 -31.111)"/><ellipse class="d" cx="0.319" cy="1.781" rx="0.319" ry="1.781" transform="translate(151.089 53.536)"/><path class="d" d="M165.649,80.19c.172,0,.319.8.319,1.781s-.147,1.769-.319,1.769-.319-.8-.319-1.769S165.465,80.19,165.649,80.19Z" transform="translate(-14.241 -33.754)"/><path class="d" d="M165.649,75.79c.172,0,.319.405.319.921s-.147.921-.319.921-.319-.418-.319-.921S165.465,75.79,165.649,75.79Z" transform="translate(-14.241 -34.76)"/><path class="d" d="M167.433,74.439c0,.172-.418.319-.921.319s-.921-.147-.921-.319.405-.319.921-.319S167.433,74.267,167.433,74.439Z" transform="translate(-14.182 -35.141)"/><path class="d" d="M173.954,74.439c0,.172-.848.319-1.892.319s-1.892-.147-1.892-.319.848-.319,1.892-.319S173.954,74.267,173.954,74.439Z" transform="translate(-13.136 -35.141)"/><path class="d" d="M180.114,74.439c0,.172-.848.319-1.892.319s-1.892-.147-1.892-.319.848-.319,1.892-.319S180.114,74.267,180.114,74.439Z" transform="translate(-11.728 -35.141)"/><path class="d" d="M186.274,74.439c0,.172-.848.319-1.892.319s-1.892-.147-1.892-.319.848-.319,1.892-.319S186.274,74.267,186.274,74.439Z" transform="translate(-10.321 -35.141)"/><path class="d" d="M192.421,74.439c0,.172-.848.319-1.892.319s-1.88-.147-1.88-.319.835-.319,1.88-.319S192.421,74.267,192.421,74.439Z" transform="translate(-8.914 -35.141)"/><path class="d" d="M198.571,74.439c0,.172-.848.319-1.892.319s-1.88-.147-1.88-.319.835-.319,1.88-.319S198.571,74.267,198.571,74.439Z" transform="translate(-7.509 -35.141)"/><path class="d" d="M204.7,74.439c0,.172-.848.319-1.88.319s-1.892-.147-1.892-.319.848-.319,1.892-.319S204.7,74.267,204.7,74.439Z" transform="translate(-6.108 -35.141)"/><path class="d" d="M210.884,74.439c0,.172-.848.319-1.892.319s-1.892-.147-1.892-.319.848-.319,1.892-.319S210.884,74.267,210.884,74.439Z" transform="translate(-4.699 -35.141)"/><path class="d" d="M217.034,74.439c0,.172-.848.319-1.892.319s-1.892-.147-1.892-.319.848-.319,1.892-.319S217.034,74.267,217.034,74.439Z" transform="translate(-3.294 -35.141)"/><path class="d" d="M223.181,74.439c0,.172-.835.319-1.88.319s-1.892-.147-1.892-.319.848-.319,1.892-.319S223.181,74.267,223.181,74.439Z" transform="translate(-1.887 -35.141)"/><path class="d" d="M229.344,74.439c0,.172-.848.319-1.892.319s-1.892-.147-1.892-.319.848-.319,1.892-.319S229.344,74.267,229.344,74.439Z" transform="translate(-0.482 -35.141)"/><path class="d" d="M233.593,74.439c0,.172-.405.319-.921.319s-.921-.147-.921-.319.418-.319.921-.319S233.593,74.267,233.593,74.439Z" transform="translate(0.933 -35.141)"/></g><g transform="translate(315.634 150.408)"><path class="d" d="M316.847,130.32H269.576a4.754,4.754,0,0,0-4.767,4.766v27.726a4.766,4.766,0,0,0,4.766,4.766h7.567v11.363l10.184-11.363h29.483a4.766,4.766,0,0,0,4.766-4.766V135.086A4.754,4.754,0,0,0,316.847,130.32Z" transform="translate(-264.81 -130.32)"/><path class="g" d="M284.056,146.368a1.965,1.965,0,1,1-.571-1.4,1.978,1.978,0,0,1,.571,1.4Z" transform="translate(-261.317 -127.106)"/><path class="g" d="M290.366,146.368a1.978,1.978,0,1,1-1.966-1.978,1.978,1.978,0,0,1,1.966,1.978Z" transform="translate(-259.875 -127.106)"/><path class="g" d="M296.486,146.368a1.978,1.978,0,1,1-1.978-1.978,1.978,1.978,0,0,1,1.978,1.978Z" transform="translate(-258.477 -127.106)"/></g><g transform="translate(198.715 153.969)"><path class="d" d="M222.5,161.729c-2.322-.577-1.941-6.965-2.187-8.919a6.388,6.388,0,0,1,.233-3.538,4.828,4.828,0,0,1,3.8-2.359c1.536-.233,3.108-.086,4.644-.307,3.1-.442,5.86-2.359,8.968-2.641a8.82,8.82,0,0,1,6.953,2.543,17.3,17.3,0,0,0,3.206,3.219,17.726,17.726,0,0,0,3.857,1.155,8.808,8.808,0,0,1,6.142,7.236,24.57,24.57,0,0,1-.43,5.909,9.029,9.029,0,0,0,.835,5.774c1.069,1.757,3.1,2.776,4.091,4.582a4.914,4.914,0,0,1-5.012,7.26c-.577-.086-1.228-.246-1.7.123a2.358,2.358,0,0,0-.528,1.376,3.746,3.746,0,0,1-7.371-1.339" transform="translate(-158.089 -130.771)"/><path class="h" d="M249.384,201.632l-20.343-1.622c-.123-2.371,0-11.56,0-11.56s-8.464-1.314-8.6-9.828,1.364-27.9,1.364-27.9h0a29.483,29.483,0,0,1,29.557,3.685l1.228.958Z" transform="translate(-158.029 -129.766)"/><path class="d" d="M223.552,161.918a1.228,1.228,0,1,0-1.732-.086A1.228,1.228,0,0,0,223.552,161.918Z" transform="translate(-157.785 -127.152)"/><path class="d" d="M221.5,160.814c.135.147.958-.491,2.125-.5s2.015.6,2.138.455-.061-.332-.43-.614a2.8,2.8,0,0,0-1.708-.541,2.9,2.9,0,0,0-1.708.577C221.564,160.482,221.441,160.753,221.5,160.814Z" transform="translate(-157.788 -127.19)"/><path class="d" d="M232.379,160.964a1.228,1.228,0,1,0,1.683.393A1.228,1.228,0,0,0,232.379,160.964Z" transform="translate(-155.434 -126.922)"/><path class="d" d="M231.8,161.642c.135.147.97-.491,2.138-.491s2,.59,2.138.442-.074-.332-.442-.614a2.85,2.85,0,0,0-1.708-.528,2.727,2.727,0,0,0-1.7.577C231.864,161.31,231.741,161.58,231.8,161.642Z" transform="translate(-155.435 -126.998)"/><path class="d" d="M228.559,171.135a5.8,5.8,0,0,0-1.88-.393c-.307,0-.553-.111-.577-.27a1.794,1.794,0,0,1,.221-.872c.307-.774.6-1.548.921-2.371a32.246,32.246,0,0,0,2-6.228,31.783,31.783,0,0,0-2.617,5.995c-.307.823-.59,1.609-.872,2.383a1.941,1.941,0,0,0-.172,1.228.8.8,0,0,0,.528.491,2.162,2.162,0,0,0,.516.074,5.959,5.959,0,0,0,1.929-.037Z" transform="translate(-156.86 -126.872)"/><path class="g" d="M232.142,170.325c1.228-.725-3.341,1.769-5.712,1.658a3.219,3.219,0,0,0,3.8,1.228C232.757,172.339,232.142,170.325,232.142,170.325Z" transform="translate(-156.659 -124.772)"/><path class="i" d="M227.44,181.473A19.741,19.741,0,0,0,238.5,178.34s-2.6,6.081-11.056,5.319Z" transform="translate(-156.428 -122.911)"/><path class="h" d="M245.6,161.265c.172-.1,6.007-1.99,6.757,5.184s-6.732,5.553-6.769,5.344S245.6,161.265,245.6,161.265Z" transform="translate(-152.285 -126.88)"/><path class="i" d="M247.171,168.633a1.9,1.9,0,0,0,.344.147,1.228,1.228,0,0,0,.946-.086,3.1,3.1,0,0,0,1.13-2.911,4.152,4.152,0,0,0-.528-1.757,1.45,1.45,0,0,0-1.044-.86.626.626,0,0,0-.7.418.535.535,0,0,0,0,.369c0,.012-.172-.111-.147-.405a.91.91,0,0,1,.233-.479.958.958,0,0,1,.676-.258,1.818,1.818,0,0,1,1.425.97,4.373,4.373,0,0,1,.639,1.953,3.255,3.255,0,0,1-1.5,3.292,1.327,1.327,0,0,1-1.155-.074C247.2,168.8,247.146,168.645,247.171,168.633Z" transform="translate(-151.922 -126.459)"/><path class="d" d="M221.874,150.856c1.622,3,5.184,4.508,8.6,4.656a33.021,33.021,0,0,0,10.012-1.769c1.781-.491,3.956-.872,5.258.43a4.914,4.914,0,0,1,1.118,2.973,32.358,32.358,0,0,1,.1,7.15,7.937,7.937,0,0,0,0,2.85,2.383,2.383,0,0,0,1.916,1.892c1.5.123,2.457-1.56,2.911-2.973a28.39,28.39,0,0,0,1.658-5.995,9.312,9.312,0,0,0-1.093-6.007,12.4,12.4,0,0,0-5.479-4.25,32.431,32.431,0,0,0-13.513-3.55,17.911,17.911,0,0,0-12.85,4.914" transform="translate(-158.012 -130.241)"/><path class="e" d="M222.26,454.87l-.061-11.3,21.154-.258.27,16.523-1.314.1c-5.835.405-29.692,1.6-33.61.467C204.313,459.133,222.26,454.87,222.26,454.87Z" transform="translate(-160.868 -62.378)"/><path class="e" d="M230.75,457.844A7.371,7.371,0,0,1,233.4,453.3a7.113,7.113,0,0,1,4.914-1.6l.074,5.921Z" transform="translate(-155.672 -60.463)"/><path class="e" d="M213.512,454.67s-6.277,1.892-5.479,2.924,24.95.713,35.625-.356v-.467l-28.181.6S214.74,454.707,213.512,454.67Z" transform="translate(-160.878 -59.782)"/><path class="d" d="M243.918,456.36h-.369l-1.044.074-3.845.221c-3.243.16-7.727.319-12.69.381s-9.447,0-12.7,0l-3.845-.111H225.97c4.963,0,9.435-.2,12.69-.307l3.845-.135h1.044Z" transform="translate(-160.867 -59.396)"/><path class="d" d="M214.386,457.74a8.452,8.452,0,0,0-.737-1.818,8.659,8.659,0,0,0-1.339-1.462,2.776,2.776,0,0,1,1.548,1.327A2.813,2.813,0,0,1,214.386,457.74Z" transform="translate(-159.885 -59.83)"/><path class="d" d="M219.3,454.815a2.6,2.6,0,0,1-.676-.8c-.307-.479-.528-.909-.467-.946s.369.319.676.8S219.366,454.778,219.3,454.815Z" transform="translate(-158.55 -60.148)"/><path class="d" d="M220.718,453.961a3.461,3.461,0,0,1-.749-.491c-.369-.319-.626-.627-.577-.688s.381.172.749.491S220.767,453.9,220.718,453.961Z" transform="translate(-158.269 -60.216)"/><path class="d" d="M221.751,452.123a2.531,2.531,0,0,1-1.106.147,2.285,2.285,0,0,1-1.106-.1,5.031,5.031,0,0,1,2.211-.049Z" transform="translate(-158.233 -60.392)"/><path class="d" d="M222.077,451a2.149,2.149,0,0,1-1.228.369,2.113,2.113,0,0,1-1.228-.147,7.464,7.464,0,0,1,1.228-.111,6.777,6.777,0,0,1,1.228-.11Z" transform="translate(-158.215 -60.621)"/><path class="d" d="M219.235,453.349a4.018,4.018,0,0,1-1.364,0,7.375,7.375,0,0,1-1.45-.295,4.209,4.209,0,0,1-.835-.332.749.749,0,0,1-.344-.418.553.553,0,0,1,.2-.553,2.457,2.457,0,0,1,3.1.7,2.359,2.359,0,0,1,.455.9c.061.233.061.368,0,.368a3.808,3.808,0,0,0-.627-1.155,2.457,2.457,0,0,0-1.228-.737,2.1,2.1,0,0,0-1.609.123c-.221.172-.135.418.111.565a3.909,3.909,0,0,0,.774.307,10.209,10.209,0,0,0,1.4.356A8.41,8.41,0,0,0,219.235,453.349Z" transform="translate(-159.218 -60.513)"/><path class="d" d="M218.233,453.541a1.513,1.513,0,0,1-.172-.934,2.371,2.371,0,0,1,.356-1.007,1.376,1.376,0,0,1,1.13-.7.553.553,0,0,1,.43.626,1.474,1.474,0,0,1-.233.6,3.994,3.994,0,0,1-.626.835c-.418.418-.762.59-.774.553s.27-.246.639-.676a5.294,5.294,0,0,0,.565-.823c.184-.295.295-.811,0-.86s-.688.307-.9.577a2.285,2.285,0,0,0-.369.9A5.252,5.252,0,0,0,218.233,453.541Z" transform="translate(-158.573 -60.644)"/><path class="d" d="M238.216,451.687s-.614,0-1.572.074a6.732,6.732,0,0,0-3.391,1.449,6.8,6.8,0,0,0-2.088,3.034c-.307.909-.332,1.523-.381,1.511s0-.147,0-.418a6.046,6.046,0,0,1,.221-1.142,6.437,6.437,0,0,1,5.639-4.619,5.88,5.88,0,0,1,1.228,0A1,1,0,0,1,238.216,451.687Z" transform="translate(-155.67 -60.497)"/><path class="d" d="M235.014,444.51a77.115,77.115,0,0,1,.221,8.7,35.42,35.42,0,0,1-.246-4.349,38.361,38.361,0,0,1,.025-4.349Z" transform="translate(-154.715 -62.104)"/><path class="d" d="M229.709,455.052a11.667,11.667,0,0,1-3.083.344,11.227,11.227,0,0,1-3.1-.209c0-.074,1.388,0,3.1,0S229.709,454.991,229.709,455.052Z" transform="translate(-157.322 -59.698)"/><path class="d" d="M232.051,455a4.4,4.4,0,0,1-.246.614c-.135.319-.209.6-.283.6s-.111-.332,0-.7A.8.8,0,0,1,232.051,455Z" transform="translate(-155.512 -59.707)"/><path class="d" d="M233.339,453.4a1.434,1.434,0,0,1-.295.5c-.209.221-.43.368-.491.319s.086-.27.307-.5S233.29,453.353,233.339,453.4Z" transform="translate(-155.264 -60.074)"/><path class="d" d="M235.224,452.683c0,.074-.295.074-.6.184s-.528.283-.59.233.123-.344.5-.479S235.224,452.609,235.224,452.683Z" transform="translate(-154.925 -60.264)"/><path class="d" d="M236.407,452.309c0,.061-.086.172-.258.246s-.344.074-.369,0,.1-.184.27-.246S236.383,452.247,236.407,452.309Z" transform="translate(-154.524 -60.332)"/><path class="e" d="M312.025,450l-3.452-10.749-20.183,6.314,4.914,15.8,1.228-.319c5.675-1.425,28.721-7.69,32.1-9.987C330.391,448.439,312.025,450,312.025,450Z" transform="translate(-142.504 -63.305)"/><path class="e" d="M299.963,455.951a7.37,7.37,0,0,0-3.919-3.5,7.186,7.186,0,0,0-5.184,0l1.769,5.651Z" transform="translate(-141.94 -60.4)"/><path class="e" d="M320.193,447.611s6.548-.16,6.142,1.069-23.5,8.439-33.954,10.724l-.111-.467,27.026-8.169S319.038,448.09,320.193,447.611Z" transform="translate(-141.618 -61.397)"/><path class="d" d="M292,458.874a1.573,1.573,0,0,0,.356,0l1.02-.258,3.685-.983c3.133-.86,7.444-2.1,12.186-3.575s8.992-2.911,12.063-3.992l3.624-1.29.97-.381.344-.135a1.758,1.758,0,0,0-.356.086l-.995.332-3.685,1.228c-3.083,1.032-7.371,2.457-12.076,3.919s-9.041,2.739-12.162,3.685l-3.685,1.069-1.007.295Z" transform="translate(-141.68 -61.247)"/><path class="d" d="M314.33,451.129a8.747,8.747,0,0,1,.135-1.966,8.44,8.44,0,0,1,.823-1.793,3.4,3.4,0,0,0-.958,3.759Z" transform="translate(-136.627 -61.45)"/><path class="d" d="M308.671,449.865a2.267,2.267,0,0,0,.393-.971c.147-.553.221-1.032.147-1.044s-.246.418-.393.971A2.458,2.458,0,0,0,308.671,449.865Z" transform="translate(-137.872 -61.341)"/><path class="d" d="M307.122,449.484a1.862,1.862,0,0,0,.565-.7c.246-.43.405-.786.344-.823s-.319.27-.565.7S307.061,449.447,307.122,449.484Z" transform="translate(-138.228 -61.316)"/><path class="d" d="M305.79,448.029a2.31,2.31,0,0,0,1.106-.2,2.457,2.457,0,0,0,1.02-.442,2.665,2.665,0,0,0-1.093.2,2.863,2.863,0,0,0-1.032.442Z" transform="translate(-138.529 -61.446)"/><path class="d" d="M305.16,447.011a2.273,2.273,0,0,0,1.228,0,2.163,2.163,0,0,0,1.155-.541,6.135,6.135,0,0,0-1.228.283,6.89,6.89,0,0,0-1.155.258Z" transform="translate(-138.673 -61.656)"/><path class="d" d="M308.78,448.385a3.806,3.806,0,0,0,1.3-.418,7.124,7.124,0,0,0,1.228-.737,3.569,3.569,0,0,0,.688-.565.7.7,0,0,0,.2-.5.5.5,0,0,0-.356-.455,2.457,2.457,0,0,0-2.875,2.6.761.761,0,0,0,.074.368,3.685,3.685,0,0,1,.246-1.29,2.457,2.457,0,0,1,.885-1.069,2.063,2.063,0,0,1,1.572-.381c.258.086.258.356,0,.565a3.8,3.8,0,0,1-.627.541,9.131,9.131,0,0,1-1.228.762C309.259,448.188,308.768,448.348,308.78,448.385Z" transform="translate(-137.846 -61.839)"/><path class="d" d="M309.5,448.249a1.314,1.314,0,0,0-.135-.946,2.125,2.125,0,0,0-.651-.848,1.376,1.376,0,0,0-1.228-.319.54.54,0,0,0-.221.725,1.573,1.573,0,0,0,.405.516,4.141,4.141,0,0,0,.86.59,2.027,2.027,0,0,0,.909.295s-.332-.16-.823-.455a4.057,4.057,0,0,1-.786-.614c-.258-.209-.541-.663-.233-.823a1.229,1.229,0,0,1,1.032.282,2.127,2.127,0,0,1,.626.725,4.707,4.707,0,0,1,.246.872Z" transform="translate(-138.207 -61.74)"/><path class="d" d="M290.93,452.441a8.692,8.692,0,0,1,1.511-.418,6.67,6.67,0,0,1,6.609,2.567c.577.774.786,1.339.835,1.327a1.228,1.228,0,0,0-.135-.418,6.338,6.338,0,0,0-.553-1.02,6.646,6.646,0,0,0-2.985-2.371,6.536,6.536,0,0,0-3.808-.258,6.017,6.017,0,0,0-1.106.368A1.535,1.535,0,0,0,290.93,452.441Z" transform="translate(-141.924 -60.465)"/><path class="d" d="M290.5,444.93a35.844,35.844,0,0,0,1.118,4.2,39.158,39.158,0,0,0,1.364,4.128,34.5,34.5,0,0,0-1.118-4.2,37.991,37.991,0,0,0-1.364-4.128Z" transform="translate(-142.022 -62.008)"/><path class="d" d="M299.84,453.333a11.331,11.331,0,0,0,3.034-.626,12.139,12.139,0,0,0,2.887-1.155c0-.074-1.327.418-2.961.909A23.71,23.71,0,0,0,299.84,453.333Z" transform="translate(-139.888 -60.497)"/><path class="d" d="M296.62,454.007s.184.246.418.5.393.5.455.479,0-.356-.258-.651S296.645,453.9,296.62,454.007Z" transform="translate(-140.624 -59.942)"/><path class="d" d="M294.93,452.834c0,.061.16.233.442.381s.516.221.553.16-.16-.233-.442-.381S295.016,452.773,294.93,452.834Z" transform="translate(-141.01 -60.207)"/><path class="d" d="M293,452.745c0,.061.295,0,.627,0s.59.1.627,0-.209-.283-.614-.295S292.928,452.684,293,452.745Z" transform="translate(-141.453 -60.29)"/><path class="d" d="M291.64,452.771c0,.061.135.135.332.147s.344,0,.344-.111-.147-.135-.332-.147S291.64,452.7,291.64,452.771Z" transform="translate(-141.762 -60.242)"/><path class="d" d="M207.89,270.1l9.877,219.463,32.947.7-5.479-183.74L304.95,492.45l26.928-7.371L271.794,270.1" transform="translate(-160.895 -101.948)"/><path class="f" d="M285.75,451.967l1.536,2.961,28.537-8.317-1.732-4.791Z" transform="translate(-143.107 -62.718)"/><path class="f" d="M306.163,440.931c.172-.061.418.295.565.786s.135.921,0,.97-.43-.295-.577-.786S305.991,441.017,306.163,440.931Z" transform="translate(-138.473 -62.923)"/><path class="f" d="M304.416,435.12c.172,0,.541.713.835,1.7s.405,1.818.233,1.88-.541-.713-.848-1.7S304.244,435.181,304.416,435.12Z" transform="translate(-138.863 -64.249)"/><path class="f" d="M302.675,429.32c.172,0,.541.712.835,1.7s.405,1.818.233,1.867-.541-.7-.835-1.683S302.5,429.381,302.675,429.32Z" transform="translate(-139.259 -65.574)"/><path class="f" d="M300.935,423.52c.172,0,.541.712.835,1.7s.405,1.818.233,1.867-.541-.7-.835-1.683S300.763,423.569,300.935,423.52Z" transform="translate(-139.657 -66.899)"/><path class="f" d="M299.2,417.72c.172,0,.541.712.835,1.7s.405,1.818.233,1.867-.541-.7-.835-1.683S298.978,417.769,299.2,417.72Z" transform="translate(-140.058 -68.224)"/><path class="f" d="M297.455,411.92c.172,0,.553.713.848,1.7s.393,1.818.221,1.867-.54-.7-.835-1.683S297.283,412.018,297.455,411.92Z" transform="translate(-140.452 -69.549)"/><path class="f" d="M295.715,406.12c.172,0,.553.712.848,1.7s.393,1.818.221,1.867-.541-.7-.835-1.683S295.543,406.169,295.715,406.12Z" transform="translate(-140.849 -70.874)"/><path class="f" d="M294.019,400.32c.172,0,.553.7.848,1.683s.393,1.83.221,1.88-.541-.7-.835-1.7S293.8,400.369,294.019,400.32Z" transform="translate(-141.242 -72.199)"/><path class="f" d="M292.235,394.52c.172,0,.553.7.848,1.683s.393,1.83.221,1.88-.541-.712-.835-1.7S292.063,394.569,292.235,394.52Z" transform="translate(-141.644 -73.524)"/><path class="f" d="M290.5,388.72c.172,0,.553.7.848,1.683s.393,1.83.221,1.88-.541-.712-.835-1.7S290.323,388.769,290.5,388.72Z" transform="translate(-142.042 -74.849)"/><path class="f" d="M288.754,382.92c.172,0,.553.7.848,1.683s.393,1.83.221,1.88-.541-.712-.835-1.7S288.594,383.018,288.754,382.92Z" transform="translate(-142.438 -76.174)"/><path class="f" d="M287.014,377.121c.172-.061.553.7.848,1.683s.393,1.83.221,1.88-.541-.712-.835-1.7S286.854,377.17,287.014,377.121Z" transform="translate(-142.836 -77.5)"/><path class="f" d="M285.274,371.321c.172-.061.553.7.848,1.683s.393,1.818.221,1.88-.541-.713-.835-1.7S285.114,371.37,285.274,371.321Z" transform="translate(-143.233 -78.825)"/><path class="f" d="M283.534,365.51c.172,0,.553.713.848,1.7s.393,1.818.221,1.867-.541-.7-.835-1.683S283.374,365.571,283.534,365.51Z" transform="translate(-143.631 -80.151)"/><path class="f" d="M281.794,359.71c.172,0,.553.713.848,1.7s.393,1.818.221,1.867-.541-.7-.835-1.683S281.634,359.759,281.794,359.71Z" transform="translate(-144.028 -81.476)"/><path class="f" d="M280.066,353.91c.16,0,.54.712.835,1.7s.393,1.818.221,1.867-.54-.7-.835-1.683S279.894,354.021,280.066,353.91Z" transform="translate(-144.425 -82.801)"/><path class="f" d="M278.326,348.11c.16,0,.541.712.835,1.7s.393,1.818.233,1.867-.553-.7-.848-1.683S278.154,348.159,278.326,348.11Z" transform="translate(-144.823 -84.126)"/><path class="f" d="M276.586,342.31c.16,0,.54.712.835,1.7s.393,1.818.233,1.867-.553-.7-.848-1.683S276.414,342.359,276.586,342.31Z" transform="translate(-145.22 -85.451)"/><path class="f" d="M274.846,336.51c.16,0,.541.7.835,1.7s.393,1.818.233,1.867-.553-.7-.848-1.7S274.674,336.559,274.846,336.51Z" transform="translate(-145.618 -86.777)"/><path class="f" d="M273.1,330.71c.16,0,.541.7.835,1.683s.393,1.83.233,1.88-.553-.712-.848-1.7A3.491,3.491,0,0,1,273.1,330.71Z" transform="translate(-146.01 -88.102)"/><path class="f" d="M271.366,324.91c.16,0,.541.7.835,1.683s.393,1.83.233,1.88-.553-.712-.848-1.7S271.194,325.021,271.366,324.91Z" transform="translate(-146.413 -89.427)"/><path class="f" d="M269.626,319.11c.172,0,.541.7.835,1.683s.405,1.83.233,1.88-.553-.712-.848-1.7S269.454,319.159,269.626,319.11Z" transform="translate(-146.81 -90.752)"/><path class="f" d="M267.886,313.311c.172-.061.541.7.835,1.683s.405,1.83.233,1.879-.553-.712-.848-1.7S267.714,313.36,267.886,313.311Z" transform="translate(-147.208 -92.077)"/><path class="f" d="M266.145,307.511c.172-.061.541.7.835,1.683s.405,1.818.233,1.88-.553-.712-.848-1.7S265.985,307.56,266.145,307.511Z" transform="translate(-147.604 -93.402)"/><path class="f" d="M264.406,301.7c.172,0,.541.712.835,1.7s.405,1.818.233,1.867-.553-.7-.848-1.683S264.234,301.761,264.406,301.7Z" transform="translate(-148.003 -94.729)"/><path class="f" d="M262.666,295.9c.172,0,.541.713.835,1.7s.405,1.818.233,1.867-.553-.7-.848-1.683S262.494,295.949,262.666,295.9Z" transform="translate(-148.4 -96.054)"/><path class="f" d="M260.925,290.1c.172,0,.54.712.835,1.7s.405,1.818.233,1.867-.541-.7-.835-1.683S260.753,290.149,260.925,290.1Z" transform="translate(-148.797 -97.379)"/><path class="f" d="M259.188,284.3c.172,0,.54.712.835,1.7s.405,1.818.233,1.867-.541-.7-.835-1.683S258.979,284.349,259.188,284.3Z" transform="translate(-149.198 -98.704)"/><path class="f" d="M257.445,278.5c.172,0,.541.712.835,1.7s.405,1.818.233,1.867-.541-.7-.835-1.683S257.273,278.549,257.445,278.5Z" transform="translate(-149.592 -100.029)"/><path class="f" d="M256.151,274.16c.172,0,.43.307.565.8s.135.921,0,.97-.43-.307-.565-.786S255.991,274.209,256.151,274.16Z" transform="translate(-149.895 -101.021)"/><path class="f" d="M238.171,447.86c.184,0,.344.393.369.9s-.086.921-.27.934-.332-.393-.369-.9S238.024,447.86,238.171,447.86Z" transform="translate(-154.04 -61.338)"/><path class="f" d="M237.93,441.9c.172,0,.344.811.381,1.818s-.074,1.83-.246,1.843-.344-.811-.393-1.818S237.746,441.912,237.93,441.9Z" transform="translate(-154.093 -62.7)"/><path class="f" d="M237.739,436c.184,0,.344.811.381,1.818s-.1,1.83-.27,1.843-.344-.811-.369-1.818S237.567,436,237.739,436Z" transform="translate(-154.135 -64.048)"/><path class="f" d="M237.591,430c.184,0,.344.811.369,1.818s-.1,1.83-.27,1.83-.344-.811-.369-1.818S237.419,430,237.591,430Z" transform="translate(-154.172 -65.418)"/><path class="f" d="M237.451,424c.184,0,.344.811.369,1.818s-.1,1.83-.283,1.843-.332-.811-.356-1.83S237.279,424,237.451,424Z" transform="translate(-154.204 -66.789)"/><path class="f" d="M237.3,418.08c.172,0,.344.811.369,1.818s-.1,1.843-.27,1.843-.344-.811-.369-1.818S237.117,418.08,237.3,418.08Z" transform="translate(-154.238 -68.142)"/><path class="f" d="M237.1,412.12c.172,0,.344.811.381,1.818s-.074,1.843-.246,1.843-.356-.811-.393-1.818S236.927,412.132,237.1,412.12Z" transform="translate(-154.282 -69.503)"/><path class="f" d="M236.848,406.17c.172,0,.356.811.393,1.818s-.061,1.83-.246,1.843-.344-.811-.393-1.818S236.676,406.182,236.848,406.17Z" transform="translate(-154.338 -70.862)"/><path class="f" d="M236.62,400.22c.172,0,.344.811.381,1.818s-.074,1.83-.246,1.843-.344-.811-.393-1.818S236.436,400.22,236.62,400.22Z" transform="translate(-154.393 -72.222)"/><path class="f" d="M236.409,394.27c.172,0,.344.8.381,1.818s-.086,1.83-.258,1.83-.344-.8-.381-1.818S236.237,394.27,236.409,394.27Z" transform="translate(-154.44 -73.581)"/><path class="f" d="M236.232,388.31c.172,0,.344.811.369,1.818s-.086,1.83-.258,1.83-.344-.8-.381-1.818S236.011,388.31,236.232,388.31Z" transform="translate(-154.484 -74.943)"/><path class="f" d="M236.051,382.35c.184,0,.344.811.369,1.818s-.1,1.843-.27,1.843-.344-.811-.369-1.818S235.9,382.362,236.051,382.35Z" transform="translate(-154.524 -76.304)"/><path class="f" d="M235.943,376.4c.184,0,.344.811.356,1.818s-.1,1.83-.283,1.843-.332-.823-.356-1.83S235.771,376.4,235.943,376.4Z" transform="translate(-154.551 -77.663)"/><path class="f" d="M235.843,370.44c.184,0,.332.811.356,1.83s-.123,1.83-.295,1.83-.332-.811-.344-1.83S235.671,370.44,235.843,370.44Z" transform="translate(-154.574 -79.025)"/><path class="f" d="M235.775,364.49c.184,0,.332.811.344,1.818s-.123,1.83-.307,1.83-.319-.811-.332-1.818S235.6,364.49,235.775,364.49Z" transform="translate(-154.592 -80.384)"/><path class="f" d="M235.737,358.53c.172,0,.319.811.332,1.83s-.135,1.83-.307,1.83-.332-.823-.332-1.83S235.565,358.53,235.737,358.53Z" transform="translate(-154.603 -81.746)"/><path class="f" d="M235.729,352.57c.172,0,.319.823.319,1.83s-.147,1.83-.319,1.83-.319-.823-.319-1.83S235.545,352.57,235.729,352.57Z" transform="translate(-154.608 -83.108)"/><path class="f" d="M235.74,346.62c.184,0,.319.811.319,1.83s-.16,1.818-.332,1.818-.319-.811-.307-1.83S235.568,346.62,235.74,346.62Z" transform="translate(-154.606 -84.467)"/><path class="f" d="M235.792,340.66c.172,0,.307.823.307,1.83s-.16,1.83-.344,1.83-.307-.823-.295-1.83S235.62,340.66,235.792,340.66Z" transform="translate(-154.596 -85.828)"/><path class="f" d="M235.874,334.7c.172,0,.307.823.295,1.843s-.172,1.818-.344,1.818-.319-.823-.295-1.83S235.69,334.7,235.874,334.7Z" transform="translate(-154.581 -87.19)"/><path class="f" d="M235.976,328.75c.184,0,.307.823.295,1.83s-.184,1.83-.356,1.83-.307-.823-.295-1.843S235.8,328.75,235.976,328.75Z" transform="translate(-154.56 -88.549)"/><path class="f" d="M236.119,322.79c.172,0,.295.823.27,1.843s-.184,1.818-.356,1.818-.307-.823-.283-1.843S235.935,322.79,236.119,322.79Z" transform="translate(-154.531 -89.911)"/><path class="f" d="M236.334,316.83c.172,0,.283.835.246,1.843s-.221,1.818-.393,1.818-.283-.835-.246-1.843S236.15,316.818,236.334,316.83Z" transform="translate(-154.488 -91.273)"/><path class="f" d="M236.685,310.88c.184,0,.27.835.209,1.843s-.27,1.818-.442,1.806-.27-.835-.2-1.843S236.513,310.868,236.685,310.88Z" transform="translate(-154.42 -92.632)"/><path class="f" d="M237.252,305c.172,0,.233.848.135,1.855s-.332,1.794-.5,1.781-.233-.848-.135-1.855S237.068,304.915,237.252,305Z" transform="translate(-154.313 -93.976)"/><path class="f" d="M237.82,300.52c.172,0,.258.455.184.958s-.27.9-.455.872-.258-.454-.184-.958S237.636,300.5,237.82,300.52Z" transform="translate(-154.167 -94.999)"/><path class="f" d="M215.23,450.593l34.839.565-.27-5.8-34.569.184Z" transform="translate(-159.218 -61.909)"/><path class="f" d="M233.848,272.37a6.4,6.4,0,0,1,.209,1.339c.086.86.2,2.125.319,3.685.258,3.108.553,7.371.848,12.137.135,2.359.27,4.607.393,6.683a20.036,20.036,0,0,0,.639,5.331,4.447,4.447,0,0,0,2.224,2.641,5.563,5.563,0,0,0,1.228.368,1.574,1.574,0,0,0-.356.061,2.849,2.849,0,0,1-1.007-.2,4.643,4.643,0,0,1-2.555-2.715,19.335,19.335,0,0,1-.8-5.454c-.135-2.076-.283-4.324-.442-6.683-.295-4.742-.516-9.041-.651-12.149-.074-1.548-.111-2.813-.135-3.685A5.049,5.049,0,0,1,233.848,272.37Z" transform="translate(-154.987 -101.43)"/><path class="f" d="M236.728,274.791a1.887,1.887,0,0,0-.307.823,1.02,1.02,0,0,0,.258.749.786.786,0,0,0,.86.111.749.749,0,0,0,.528-.676.983.983,0,0,0-.332-.725c-.381-.344-.774-.27-.8-.369s.418-.368,1.056,0a1.228,1.228,0,0,1-.221,2.346,1.3,1.3,0,0,1-1.523-.307,1.364,1.364,0,0,1-.27-1.228C236.175,274.8,236.728,274.7,236.728,274.791Z" transform="translate(-154.488 -100.939)"/><path class="f" d="M264.808,280.336a6.437,6.437,0,0,1-2.739,1.044,11.621,11.621,0,0,1-12.285-5.491,6.363,6.363,0,0,1-1.044-2.739c.111,0,.442,1.032,1.425,2.457a12.493,12.493,0,0,0,5.147,4.361,12.284,12.284,0,0,0,6.683.921C263.8,280.668,264.771,280.2,264.808,280.336Z" transform="translate(-151.562 -101.251)"/><path class="f" d="M219.214,272.37a4.73,4.73,0,0,1-.123,2.371,9.336,9.336,0,0,1-8.231,7.211,4.546,4.546,0,0,1-2.371-.2c0-.1.909,0,2.309-.246a9.828,9.828,0,0,0,7.85-6.879C219.079,273.267,219.1,272.37,219.214,272.37Z" transform="translate(-160.758 -101.43)"/><path class="h" d="M300.933,265.239a20.577,20.577,0,0,0-.1-27.1L267.973,200.88l-8.783,24.569c.59.418,25.564,27.173,25.564,27.173L263.293,279.4a15.393,15.393,0,0,0-2.543,14.643l5.737,14.041,15.7-7.039-1.228-1.83H269.165l-.7-2.838h0Z" transform="translate(-149.175 -117.762)"/><path class="f" d="M182.835,152.36s5.147,6.069,10.466-1.155c4.189-5.663,5.086-12.678,1.72-15.638l1.106-.737s5.6,3.685,3.071,11.56-7.985,12.014-11.855,11.388-4.914-4.668-4.914-4.668l.381-1.142" transform="translate(-166.711 -132.851)"/><path class="h" d="M219.467,202.156s-32.959,13.611-32.185,12.714l-.835-40.441H173.523s-9.177,53.339.663,59.617c13.452,8.6,46.018-9.275,46.018-9.275Z" transform="translate(-169.634 -123.804)"/><path class="h" d="M183.082,161.06l-.061.418-2.469,17.628-7.752-1.622,1-10.135" transform="translate(-168.911 -126.859)"/><path class="h" d="M184.138,160.552l-5.368,19.09,4.779.946s.676-1.4,2.236-5.54a12.494,12.494,0,0,0-.283-9.213s4.324-9.828,2.653-10.221S184.138,160.552,184.138,160.552Z" transform="translate(-167.547 -128.108)"/><path class="d" d="M189.254,153.7c-.283.823-11.719,29.213-11.719,29.213l-2.875-1.622,11.547-30.183Z" transform="translate(-168.486 -129.132)"/><path class="h" d="M173.2,177.383s-1.4-8.354.135-10.946c.553-.934,8.464-11.83,9.029-11.486s4,10.012,2.187,10.331a2.457,2.457,0,0,1-2.543-1.6s2.371,5.933.7,6.032-3.083-3.575-3.083-3.575,3.513,7,1.314,7.371-5.221-5.393-5.221-5.393Z" transform="translate(-168.954 -128.256)"/><path class="i" d="M179,158.11A15.172,15.172,0,0,1,180.757,162a11.848,11.848,0,0,0,.59,1.474,2.224,2.224,0,0,0,.823.86c.614.344,1.106.295,1.118.393s-.5.307-1.314,0a2.358,2.358,0,0,1-1.13-.958,7.371,7.371,0,0,1-.688-1.56A13.968,13.968,0,0,1,179,158.11Z" transform="translate(-167.495 -127.533)"/><path class="i" d="M177,160.32c.184,0,1.327,3.194,3.231,6.978.233.479.467.9.8,1.02s.59,0,.7-.393a3.9,3.9,0,0,0,0-1.228,9.742,9.742,0,0,0-.1-1.106c-.184-1.364-.467-2.187-.381-2.223a4.84,4.84,0,0,1,.823,2.138,9.888,9.888,0,0,1,.184,1.155,3.87,3.87,0,0,1,0,1.4,1.228,1.228,0,0,1-.5.762,1.142,1.142,0,0,1-1,.061,2.457,2.457,0,0,1-1.13-1.327A25.023,25.023,0,0,1,177,160.32Z" transform="translate(-167.952 -127.028)"/><path class="i" d="M175.3,163.62a10.06,10.06,0,0,1,1.327,2.088l1.228,2.359q.369.688.737,1.4a9.372,9.372,0,0,0,.811,1.388.835.835,0,0,0,1.093.246,1.228,1.228,0,0,0,.405-1.13,20.431,20.431,0,0,0-.786-2.457,9.532,9.532,0,0,1-.676-2.457,10.5,10.5,0,0,1,1.093,2.224l.479,1.155a5.7,5.7,0,0,1,.467,1.425,1.793,1.793,0,0,1-.614,1.708,1.228,1.228,0,0,1-1.044.221,1.769,1.769,0,0,1-.885-.541,7.273,7.273,0,0,1-.9-1.536l-.713-1.413-1.155-2.457a10.207,10.207,0,0,1-.872-2.223Z" transform="translate(-168.34 -126.274)"/><path class="d" d="M188.441,159.042a6.781,6.781,0,0,1-2.776-.577,8.268,8.268,0,0,1-4.558-6.523,18,18,0,0,1,7.543-17.051,7.678,7.678,0,0,1,12.444,5.5,16.989,16.989,0,0,1-1.388,9.582C197.262,155.492,192.63,159.042,188.441,159.042Zm5.27-23.341a7.15,7.15,0,0,0-3.747,1.228,15.552,15.552,0,0,0-6.437,14.557,5.933,5.933,0,0,0,3.133,4.8c3.44,1.511,8.39-1.806,10.8-7.248a14.435,14.435,0,0,0,1.228-8.157,5.934,5.934,0,0,0-3.12-4.7,4.459,4.459,0,0,0-1.855-.442Z" transform="translate(-167.047 -133.219)"/><path class="e" d="M301.671,219.638l-20.749-20.884h0A36.854,36.854,0,0,0,266.6,189.48a29.484,29.484,0,0,0-8.98-1.72h0a36.018,36.018,0,0,1-21.695,0,52.221,52.221,0,0,0-17.1,4.914h0L187.83,205.253l9.926,27.382,16.609-5.589.983,25.8-3.28,38.4,64.31.663-.835-34.95V231.665l9.275,9.041Z" transform="translate(-165.478 -120.759)"/><path class="d" d="M280.587,202.255a10.921,10.921,0,0,1-.909,1.4,19.411,19.411,0,0,1-3.317,3.477,20.5,20.5,0,0,1-6.646,3.685,19.655,19.655,0,0,1-10.012.651,20.5,20.5,0,0,1-10.749-5.651A10.269,10.269,0,0,1,247.038,203a5.9,5.9,0,0,1-.565-3.513,3.894,3.894,0,0,1,2.285-2.875,5.123,5.123,0,0,1,3.771,0,5.651,5.651,0,0,1,2.961,2.457,7.371,7.371,0,0,1,.8,3.845,13.513,13.513,0,0,1-3.01,7.371,20.159,20.159,0,0,1-14.508,7.555,18.759,18.759,0,0,1-8.366-1.376,13.022,13.022,0,0,1-6.339-5.258,8.292,8.292,0,0,1-.344-7.85,6.142,6.142,0,0,1,6.744-3.083,4.914,4.914,0,0,1,3,2.285,6.449,6.449,0,0,1,.835,3.563,7.371,7.371,0,0,1-3.685,5.712,11.818,11.818,0,0,1-6.142,1.646,25.959,25.959,0,0,1-5.835-.762,27.985,27.985,0,0,1-9.4-3.575,12.37,12.37,0,0,1-4.84-5.8,8.906,8.906,0,0,1-.59-4.754,5.575,5.575,0,0,1,.467-1.6,8.685,8.685,0,0,0-.344,1.622,9.2,9.2,0,0,0,.688,4.631,12.15,12.15,0,0,0,4.816,5.59,27.8,27.8,0,0,0,9.3,3.44,25.464,25.464,0,0,0,5.737.712,11.289,11.289,0,0,0,5.9-1.609,6.732,6.732,0,0,0,3.366-5.282,5.9,5.9,0,0,0-.762-3.243,4.251,4.251,0,0,0-2.654-2,5.589,5.589,0,0,0-6.056,2.789,7.641,7.641,0,0,0,.356,7.26,12.4,12.4,0,0,0,6.032,4.975,18.182,18.182,0,0,0,8.083,1.327,19.545,19.545,0,0,0,14.041-7.3,12.825,12.825,0,0,0,2.9-7,6.671,6.671,0,0,0-.713-3.538,5.049,5.049,0,0,0-2.641-2.224,4.557,4.557,0,0,0-3.341-.061,3.329,3.329,0,0,0-1.953,2.457,5.5,5.5,0,0,0,.5,3.182,10.269,10.269,0,0,0,1.806,2.678,20.233,20.233,0,0,0,10.454,5.565,19.582,19.582,0,0,0,9.828-.541,21.006,21.006,0,0,0,6.609-3.526,21.816,21.816,0,0,0,3.366-3.378C280.23,202.722,280.562,202.231,280.587,202.255Z" transform="translate(-161.85 -118.818)"/><path class="d" d="M268.4,248.612a5.591,5.591,0,0,1-1.228.626,9.5,9.5,0,0,1-4.017.516,13.636,13.636,0,0,1-6.081-2,32.8,32.8,0,0,1-6.535-5.454,9.311,9.311,0,0,1-2.6-4.263,5.294,5.294,0,0,1,.135-2.727,3.783,3.783,0,0,1,1.794-2.211,3.685,3.685,0,0,1,2.936-.147,6.031,6.031,0,0,1,2.457,1.732,8.6,8.6,0,0,1,1.892,5.847,10.553,10.553,0,0,1-2.187,6.069,11.941,11.941,0,0,1-5.54,3.833,14.888,14.888,0,0,1-6.941.639,19.654,19.654,0,0,1-6.781-2.346,25.8,25.8,0,0,1-5.725-4.324,9.459,9.459,0,0,1-3.01-6.29,6.142,6.142,0,0,1,.86-3.391,5.258,5.258,0,0,1,2.653-2.162,6.572,6.572,0,0,1,6.327.983,7.457,7.457,0,0,1,2.58,5.553,8.735,8.735,0,0,1-1.732,5.528,13.194,13.194,0,0,1-8.919,4.914c-6.314.688-11.535-.737-14.447-2.776a8.672,8.672,0,0,1-2.752-2.973,6.275,6.275,0,0,1-.418-.97,1.229,1.229,0,0,1-.111-.344,7.424,7.424,0,0,0,.651,1.228,8.709,8.709,0,0,0,2.764,2.825c2.875,1.941,8.071,3.268,14.25,2.531a12.7,12.7,0,0,0,8.6-4.8,8.182,8.182,0,0,0,1.609-5.2,6.978,6.978,0,0,0-2.457-5.123,6.007,6.007,0,0,0-5.737-.872,4.8,4.8,0,0,0-2.346,1.916,5.577,5.577,0,0,0-.762,3.047,8.869,8.869,0,0,0,2.789,5.872,25.172,25.172,0,0,0,5.577,4.2,19.176,19.176,0,0,0,6.56,2.285,14.422,14.422,0,0,0,6.646-.6,11.485,11.485,0,0,0,5.27-3.612,9.926,9.926,0,0,0,2.076-5.725,8,8,0,0,0-1.732-5.454,5.5,5.5,0,0,0-2.223-1.585,3.1,3.1,0,0,0-2.457.1,4.017,4.017,0,0,0-1.7,4.361,9.066,9.066,0,0,0,2.457,4.066,34.2,34.2,0,0,0,6.4,5.454,13.611,13.611,0,0,0,5.921,2.064,10.122,10.122,0,0,0,3.956-.393C267.961,248.833,268.391,248.575,268.4,248.612Z" transform="translate(-160.182 -110.619)"/></g></g></svg>