<svg xmlns="http://www.w3.org/2000/svg" width="552" height="411.306" viewBox="0 0 552 411.306"><defs><style>.a{fill:#e6e6e6;}.b{fill:#e0e0e0;}.c{fill:#f5f5f5;}.ab,.d,.p,.s,.v{fill:#fff;}.e,.m,.o,.r,.y{fill:#fafafa;}.f{fill:#f0f0f0;}.ac,.ag,.g,.n,.q,.x,.z{fill:#1034fe;}.ab,.h,.i{opacity:0.6;}.j,.s,.t{opacity:0.4;}.k{opacity:0.2;}.l{opacity:0.3;}.m{opacity:0.84;}.n{opacity:0.23;}.o{opacity:0.67;}.p{opacity:0.41;}.q{opacity:0.19;}.r{opacity:0.47;}.u,.v{opacity:0.5;}.w{fill:#263238;}.af,.x{opacity:0.1;}.y{opacity:0.48;}.z{opacity:0.14;}.aa{fill:#e58a7b;}.ac{opacity:0.28;}.ad{fill:#cf6f64;}.ae{fill:#df5753;}.ag{opacity:0.18;}</style></defs><g transform="translate(0 -55)"><g transform="translate(0 55)"><rect class="a" width="552" height="0.276" transform="translate(0 361.45)"/><rect class="a" width="20.457" height="0.276" transform="translate(471.761 370.999)"/><rect class="a" width="28.881" height="0.276" transform="translate(435.627 370.999)"/><rect class="a" width="21.373" height="0.276" transform="translate(364.353 371.275)"/><rect class="a" width="47.682" height="0.276" transform="translate(45.904 368.769)"/><rect class="a" width="6.988" height="0.276" transform="translate(29.079 368.769)"/><rect class="a" width="69.53" height="0.276" transform="translate(112.575 377.082)"/><path class="a" d="M257.674,367.211H44.5a6.3,6.3,0,0,1-6.293-6.3V61.249A6.3,6.3,0,0,1,44.5,55H257.674a6.3,6.3,0,0,1,6.3,6.3v299.6A6.3,6.3,0,0,1,257.674,367.211ZM44.5,55.221a6.028,6.028,0,0,0-6.017,6.028V360.907a6.028,6.028,0,0,0,6.017,6.028H257.674a6.039,6.039,0,0,0,6.028-6.028V61.249a6.039,6.039,0,0,0-6.028-6.028Z" transform="translate(3.974 -55)"/><path class="a" d="M473.986,367.211H260.8a6.315,6.315,0,0,1-6.3-6.3V61.249A6.315,6.315,0,0,1,260.8,55H473.986a6.3,6.3,0,0,1,6.282,6.249V360.907A6.3,6.3,0,0,1,473.986,367.211ZM260.8,55.221a6.039,6.039,0,0,0-6.028,6.028V360.907a6.039,6.039,0,0,0,6.028,6.028H473.986a6.039,6.039,0,0,0,6.028-6.028V61.249a6.039,6.039,0,0,0-6.028-6.028Z" transform="translate(26.468 -55)"/><rect class="b" width="149.813" height="143.034" transform="translate(314.993 33.738)"/><rect class="c" width="149.813" height="143.034" transform="translate(318.316 33.738)"/><rect class="d" width="129.61" height="137.856" transform="translate(462.156 40.451) rotate(90)"/><rect class="b" width="129.61" height="2.517" transform="translate(462.157 40.451) rotate(90)"/><rect class="c" width="144.867" height="9.009" transform="translate(320.789 129.775)"/><rect class="a" width="29.565" height="65.567" transform="translate(250.023 291.732)"/><rect class="a" width="130.184" height="4.151" transform="translate(255.708 357.299)"/><rect class="e" width="111.968" height="65.567" transform="translate(391.556 357.299) rotate(180)"/><rect class="a" width="88.717" height="21.506" transform="translate(379.931 321.308) rotate(180)"/><rect class="a" width="88.717" height="21.506" transform="translate(379.931 349.217) rotate(180)"/><rect class="e" width="29.201" height="2.948" rx="1.18" transform="translate(320.977 309.076)"/><rect class="e" width="29.201" height="2.948" rx="1.18" transform="translate(320.977 336.996)"/><rect class="a" width="30.161" height="130.791" transform="translate(68.856 222.368)"/><rect class="a" width="148.731" height="8.291" transform="translate(74.652 353.159)"/><rect class="e" width="130.151" height="130.791" transform="translate(229.168 353.159) rotate(180)"/><rect class="a" width="106.437" height="42.901" transform="translate(217.311 281.354) rotate(180)"/><rect class="a" width="106.437" height="42.901" transform="translate(217.311 337.062) rotate(180)"/><path class="e" d="M161.988,293.644h-23.9a2.948,2.948,0,0,1-2.937-2.937h0a2.948,2.948,0,0,1,2.937-2.948h23.9a2.948,2.948,0,0,1,2.937,2.948h0a2.948,2.948,0,0,1-2.937,2.937Z" transform="translate(14.056 -30.793)"/><path class="e" d="M161.988,344.093h-23.9a2.948,2.948,0,0,1-2.937-2.937h0a2.948,2.948,0,0,1,2.937-2.937h23.9a2.948,2.948,0,0,1,2.937,2.937h0A2.937,2.937,0,0,1,161.988,344.093Z" transform="translate(14.056 -25.545)"/><path class="e" d="M315.73,316.309s-22.213-38.3,8.6-68.779c0,0,8.048,5.233,7.927,12.288s-8.611,8.832-6.79,14.716,9.837,11.647,4.582,16.56.839,9.185.486,15.147S315.73,316.309,315.73,316.309Z" transform="translate(32.03 -34.977)"/><path class="a" d="M285.58,299.92s.762,21.34,29.885,21.34,29.874-21.34,29.874-21.34Z" transform="translate(29.7 -29.528)"/><path class="a" d="M319.721,318.894s9-43.354-29.808-62.564c0,0-5.973,7.518-3.632,14.164s10.952,5.664,11.04,11.824-5.675,14.164.861,17.112,2.087,9,4.306,14.54S319.721,318.894,319.721,318.894Z" transform="translate(29.717 -34.062)"/><path class="f" d="M156.05,145.84s.762,12.828,29.874,12.828S215.81,145.84,215.81,145.84Z" transform="translate(16.229 -45.553)"/><path class="c" d="M84.98,165.92,80.2,197.815h4.78L114.3,165.92Z" transform="translate(8.341 -43.464)"/><path class="b" d="M80.2,165.92v31.895l29.322-31.895Z" transform="translate(8.341 -43.464)"/><path class="c" d="M189.151,165.92l-4.791,31.895h4.791l29.322-31.895Z" transform="translate(19.173 -43.464)"/><path class="b" d="M184.36,165.92v31.895l29.333-31.895Z" transform="translate(19.173 -43.464)"/><rect class="b" width="31.895" height="9.947" transform="translate(98.896 123.063) rotate(180)"/><rect class="c" width="158.568" height="9.947" transform="translate(98.907 113.116)"/><path class="b" d="M119.82,123.449c8.247,1.1,13.347-16.77-4.858-31.939C115.944,109.064,105.456,121.473,119.82,123.449Z" transform="translate(11.667 -51.203)"/><path class="b" d="M127.719,145.057c11.945-8.379,3.765-37.646-33.219-35.527C110.508,131.036,106.876,159.652,127.719,145.057Z" transform="translate(9.828 -49.34)"/><path class="b" d="M121,143.773c-7.949-8.556,3.312-30.084,31.939-22.224C136.8,135.725,134.848,158.655,121,143.773Z" transform="translate(12.326 -48.255)"/><path class="c" d="M132.425,133.318c2.749-3.312,5.995-7.11,5.211-11.04s-2.76-6.944-1.192-11.184c1.877-5.078,1.512-11.139-1.656-10.632s-6.723,4.228-6.624,9.141-3.058,6.293-5.984,8.832-4.063,6.227-4.593,9.936c-.916,5.763-8.39,4.67-10.378,9.682-2.042,4.836,2.042,11.283,8.578,12.762s11.195,2.407,15.655-2.694C135.969,142.614,128.351,138.109,132.425,133.318Z" transform="translate(11.095 -50.275)"/><path class="a" d="M109.795,159h24.564l1.855-16.328H107.94Z" transform="translate(11.226 -45.882)"/><rect class="a" width="31.928" height="3.599" transform="translate(149.272 99.702) rotate(180)"/><rect class="c" width="26.673" height="17.587" transform="translate(174.101 204.77)"/><rect class="b" width="20.027" height="17.587" transform="translate(174.101 222.368) rotate(180)"/><rect class="c" width="11.437" height="26.96" transform="translate(134.82 195.408)"/><rect class="b" width="8.589" height="26.96" transform="translate(134.82 222.368) rotate(180)"/></g><g transform="translate(61.945 441.312)"><ellipse class="c" cx="214.055" cy="12.497" rx="214.055" ry="12.497"/></g><g transform="translate(148.239 202.438)"><path class="g" d="M159.562,236.32a14.352,14.352,0,0,0,4,1.1,12.144,12.144,0,0,0,8.092-1.877c3.787-2.451,6.083-6.745,5.719-10.7a.773.773,0,0,0-.784-.7,23.107,23.107,0,0,0-17.962,8.368c-1.038-4.416-1.954-9.086-2.616-13.9a13.9,13.9,0,0,0,6.282,2.694,8.723,8.723,0,0,0,2.837-.121c4.935-1.016,8.832-6.3,12.387-11.879a.85.85,0,0,0,.11-.684.74.74,0,0,0-.442-.5c-9-3.754-18.536,4.361-21.583,7.286a114.9,114.9,0,0,1-.74-12.21,33.262,33.262,0,0,0,5.906,1.3c4.847.563,8.92-.276,11.835-2.528,3.456-2.65,5.056-7.055,4.626-12.718a.784.784,0,0,0-.916-.707c-10.245,1.49-18.117,8.048-21.4,11.206a21.287,21.287,0,0,1,.077-2.208.784.784,0,0,0-.144-.508,9.351,9.351,0,0,0-3.908-7.01c-2.572-1.667-6.171-1.888-10.709-.673a.993.993,0,0,0-.618.519.839.839,0,0,0,0,.762c.188.32,4.151,7.01,11.139,7.838a12.938,12.938,0,0,0,2.274,0c-.088,2.009-.121,4.03-.088,6.05a22,22,0,0,0-17.863-5.012.994.994,0,0,0-.629.375.85.85,0,0,0-.155.684c1.391,6.834,4.758,11.437,9.009,12.3a4.193,4.193,0,0,1,.6.1c2.208.254,5.365-.4,9.207-4.052a127.705,127.705,0,0,0,1.579,13.933c-3.709-2.4-12.221-6.779-19.795-2.517a.883.883,0,0,0-.408,1.1c3.08,6.227,6.436,9.472,10.278,9.936h.1c3.2.342,6.624-1.248,10.5-4.813.872,4.5,1.91,8.832,3.014,12.851-3.577-2.992-8.148-3.124-14.12-.442a.961.961,0,0,0-.53.64.773.773,0,0,0,.21.751c.254.254,4.593,4.416,9.936,5.023a10.356,10.356,0,0,0,5.951-1.027,175.2,175.2,0,0,0,7.993,21.55.839.839,0,0,0,.684.475,1.1,1.1,0,0,0,.574-.1.994.994,0,0,0,.486-1.27A182.165,182.165,0,0,1,159.562,236.32Z" transform="translate(-134.274 -188.549)"/><g class="h"><path d="M159.562,236.32a14.352,14.352,0,0,0,4,1.1,12.144,12.144,0,0,0,8.092-1.877c3.787-2.451,6.083-6.745,5.719-10.7a.773.773,0,0,0-.784-.7,23.107,23.107,0,0,0-17.962,8.368c-1.038-4.416-1.954-9.086-2.616-13.9a13.9,13.9,0,0,0,6.282,2.694,8.723,8.723,0,0,0,2.837-.121c4.935-1.016,8.832-6.3,12.387-11.879a.85.85,0,0,0,.11-.684.74.74,0,0,0-.442-.5c-9-3.754-18.536,4.361-21.583,7.286a114.9,114.9,0,0,1-.74-12.21,33.262,33.262,0,0,0,5.906,1.3c4.847.563,8.92-.276,11.835-2.528,3.456-2.65,5.056-7.055,4.626-12.718a.784.784,0,0,0-.916-.707c-10.245,1.49-18.117,8.048-21.4,11.206a21.287,21.287,0,0,1,.077-2.208.784.784,0,0,0-.144-.508,9.351,9.351,0,0,0-3.908-7.01c-2.572-1.667-6.171-1.888-10.709-.673a.993.993,0,0,0-.618.519.839.839,0,0,0,0,.762c.188.32,4.151,7.01,11.139,7.838a12.938,12.938,0,0,0,2.274,0c-.088,2.009-.121,4.03-.088,6.05a22,22,0,0,0-17.863-5.012.994.994,0,0,0-.629.375.85.85,0,0,0-.155.684c1.391,6.834,4.758,11.437,9.009,12.3a4.193,4.193,0,0,1,.6.1c2.208.254,5.365-.4,9.207-4.052a127.705,127.705,0,0,0,1.579,13.933c-3.709-2.4-12.221-6.779-19.795-2.517a.883.883,0,0,0-.408,1.1c3.08,6.227,6.436,9.472,10.278,9.936h.1c3.2.342,6.624-1.248,10.5-4.813.872,4.5,1.91,8.832,3.014,12.851-3.577-2.992-8.148-3.124-14.12-.442a.961.961,0,0,0-.53.64.773.773,0,0,0,.21.751c.254.254,4.593,4.416,9.936,5.023a10.356,10.356,0,0,0,5.951-1.027,175.2,175.2,0,0,0,7.993,21.55.839.839,0,0,0,.684.475,1.1,1.1,0,0,0,.574-.1.994.994,0,0,0,.486-1.27A182.165,182.165,0,0,1,159.562,236.32Z" transform="translate(-134.274 -188.549)"/></g></g><g transform="translate(182.568 224.276)"><rect class="g" width="282.823" height="180.283" rx="7.19" transform="translate(3.853)"/><rect class="i" width="282.823" height="180.283" rx="7.19" transform="translate(3.853)"/><path class="g" d="M337.035,423.312H270.994c6.469-24.4,2.594-50.685-11.614-75.072h66.041C339.63,372.627,343.5,398.914,337.035,423.312Z" transform="translate(-155.593 -193.779)"/><path class="g" d="M333.916,423.312H267.864c6.469-24.4,2.605-50.685-11.614-75.072H322.3C336.566,372.627,340.386,398.914,333.916,423.312Z" transform="translate(-155.918 -193.779)"/><path class="g" d="M336.169,383.3H269.4A107.142,107.142,0,0,0,256.25,348.26h66.77A107.639,107.639,0,0,1,336.169,383.3Z" transform="translate(-155.918 -193.777)"/><g class="j" transform="translate(100.332 154.461)"><path d="M337.035,423.312H270.994c6.469-24.4,2.594-50.685-11.614-75.072h66.041C339.63,372.627,343.5,398.914,337.035,423.312Z" transform="translate(-255.924 -348.24)"/><path d="M333.916,423.312H267.864c6.469-24.4,2.605-50.685-11.614-75.072H322.3C336.566,372.627,340.386,398.914,333.916,423.312Z" transform="translate(-256.25 -348.24)"/><path d="M336.169,383.3H269.4A107.142,107.142,0,0,0,256.25,348.26h66.77A107.639,107.639,0,0,1,336.169,383.3Z" transform="translate(-256.25 -348.238)"/></g><path class="g" d="M333.916,423.312H267.864c6.469-24.4,2.605-50.685-11.614-75.072H322.3C336.566,372.627,340.386,398.914,333.916,423.312Z" transform="translate(-155.918 -193.779)"/><path class="k" d="M333.916,423.312H267.864c6.469-24.4,2.605-50.685-11.614-75.072H322.3C336.566,372.627,340.386,398.914,333.916,423.312Z" transform="translate(-155.918 -193.779)"/><path class="k" d="M335.457,383.3h-66.13A108.071,108.071,0,0,0,256.3,348.26h66.13A108.069,108.069,0,0,1,335.457,383.3Z" transform="translate(-155.913 -193.777)"/><rect class="g" width="282.823" height="180.283" rx="7.19" transform="translate(0.099)"/><rect class="l" width="282.823" height="180.283" rx="7.19" transform="translate(0.099)"/><path class="g" d="M323.1,411.51h-75.4a5.222,5.222,0,0,0-5.222,5.222h85.847a5.222,5.222,0,0,0-5.222-5.222Z" transform="translate(-157.352 -187.199)"/><path class="l" d="M323.1,411.51h-75.4a5.222,5.222,0,0,0-5.222,5.222h85.847a5.222,5.222,0,0,0-5.222-5.222Z" transform="translate(-157.352 -187.199)"/><rect class="g" width="282.823" height="145.32" transform="translate(0.099 9.13)"/><rect class="m" width="282.823" height="145.32" transform="translate(0 9.13)"/><rect class="n" width="196.81" height="117.731" rx="2.84" transform="translate(48.145 20.358)"/><path class="o" d="M405.04,234.11V340.6a3.135,3.135,0,0,1-3.135,3.135H211.365a3.146,3.146,0,0,1-3.135-3.135V234.11Z" transform="translate(-160.913 -205.649)"/><rect class="p" width="195.662" height="101.292" transform="translate(47.892 32.634)"/><path class="q" d="M352.239,306.128a26,26,0,1,1,26-26A26,26,0,0,1,352.239,306.128Zm0-51.722a25.723,25.723,0,1,0,25.723,25.723,25.723,25.723,0,0,0-25.723-25.723Z" transform="translate(-148.64 -203.567)"/><path class="q" d="M312.649,306.128a26,26,0,1,1,26-26A26,26,0,0,1,312.649,306.128Zm0-51.722a25.723,25.723,0,1,0,25.723,25.723A25.723,25.723,0,0,0,312.649,254.406Z" transform="translate(-152.757 -203.567)"/><path class="q" d="M387.689,314.82H234.233a.132.132,0,0,1-.132-.143V310.4a.132.132,0,0,1,.133-.143H387.689a.133.133,0,0,1,.132.144v4.272a.132.132,0,0,1-.132.143Zm-153.357-.276H387.545v-4.008H234.332Z" transform="translate(-158.222 -197.729)"/><path class="q" d="M398.405,328.927H213.773a.132.132,0,0,1-.132-.143v-82.27a.133.133,0,0,1,.132-.144H398.405a.132.132,0,0,1,.132.144v82.248a.132.132,0,0,1-.132.166Zm-184.456-.276H398.317V246.646h-184.4Z" transform="translate(-160.35 -204.374)"/><path class="d" d="M378.77,230.616a1.656,1.656,0,1,0,.489-1.175,1.667,1.667,0,0,0-.489,1.175Z" transform="translate(-143.176 -206.184)"/><circle class="d" cx="1.667" cy="1.667" r="1.667" transform="translate(229.687 22.764)"/><circle class="d" cx="1.667" cy="1.667" r="1.667" transform="translate(223.781 22.764)"/><rect class="g" width="196.81" height="0.42" transform="translate(47.317 28.251)"/><path class="r" d="M236.377,216.6,210.4,361.92h25.712L262.089,216.6Z" transform="translate(-160.687 -207.47)"/><path class="r" d="M265.346,216.6,239.38,361.92h12.851L278.208,216.6Z" transform="translate(-157.673 -207.47)"/><path class="s" d="M395.507,216.6,369.53,361.92h6.436L401.932,216.6Z" transform="translate(-144.137 -207.47)"/><path class="s" d="M385.257,216.6,359.28,361.92h6.436L391.682,216.6Z" transform="translate(-145.203 -207.47)"/><path class="g" d="M333.534,411.51h-13.5a5.222,5.222,0,0,0-5.222,5.222h23.935a5.211,5.211,0,0,0-5.211-5.222Z" transform="translate(-149.828 -187.199)"/><path class="t" d="M333.534,411.51h-13.5a5.222,5.222,0,0,0-5.222,5.222h23.935a5.211,5.211,0,0,0-5.211-5.222Z" transform="translate(-149.828 -187.199)"/><path class="g" d="M299.469,360.74a5.41,5.41,0,1,1-5.41-5.41A5.41,5.41,0,0,1,299.469,360.74Z" transform="translate(-152.549 -193.042)"/><path class="u" d="M299.469,360.74a5.41,5.41,0,1,1-5.41-5.41A5.41,5.41,0,0,1,299.469,360.74Z" transform="translate(-152.549 -193.042)"/></g><g transform="translate(234.831 142.286)"><path class="g" d="M251.725,418.531c-.762-26.43-.7-187.6.839-200.84l2.087-2.881s-.96,2.561-1.192,47.858-.541,149.139-.287,155.863Z" transform="translate(-208.701 -125.665)"/><path class="g" d="M264.035,313.518c8.832-14.705,18.5-25.16,25.5-30.912s-11.349,31.6-18.525,45.5-16.019,29.267-18.867,42.25C251.593,343.944,255.192,328.224,264.035,313.518Z" transform="translate(-208.613 -118.677)"/><path class="g" d="M252.3,227.944c1.811-16.715-.64-32.16,8.457-51.733s16.019-34.942,24.8-42.084c2.109-1.722-5.1,32.3-13.48,51.468-5.906,13.524-7.805,23.184-14.076,32.3C256.528,220.017,252.3,227.944,252.3,227.944Z" transform="translate(-208.591 -134.063)"/><path class="g" d="M252.26,312.368c1.833-20.634,3.489-40.506,15.335-69.861,2.881-7.154,29.587-57.143,36.553-62.553,3.411-2.661-8.523,30.559-20.181,58.512-8.733,20.976-12.354,26.982-22.08,51.314C258.078,299.418,252.26,312.368,252.26,312.368Z" transform="translate(-208.596 -129.306)"/><path class="g" d="M240.829,210.267c-9.936-13.458-19.541-22.555-26.6-27.313s12.144,28.329,21.373,42.769,17.587,26.971,21.407,39.49C255.181,238.86,250.765,223.735,240.829,210.267Z" transform="translate(-212.709 -129.027)"/><path class="g" d="M255.3,340.717c-1.877-14.352-5.741-31.21-11.261-43.707s-14.021-31.663-20.777-38.165c-1.623-1.568,7.066,35.714,12.652,45.628s9.671,19.265,13.182,24.884C250.263,331.179,255.3,340.717,255.3,340.717Z" transform="translate(-211.632 -121.091)"/><path class="v" d="M251.725,418.531c-.762-26.43-.7-187.6.839-200.84l2.087-2.881s-.96,2.561-1.192,47.858-.541,149.139-.287,155.863Z" transform="translate(-208.701 -125.665)"/><path class="v" d="M264.035,313.518c8.832-14.705,18.5-25.16,25.5-30.912s-11.349,31.6-18.525,45.5-16.019,29.267-18.867,42.25C251.593,343.944,255.192,328.224,264.035,313.518Z" transform="translate(-208.613 -118.677)"/><path class="v" d="M252.3,227.944c1.811-16.715-.64-32.16,8.457-51.733s16.019-34.942,24.8-42.084c2.109-1.722-5.1,32.3-13.48,51.468-5.906,13.524-7.805,23.184-14.076,32.3C256.528,220.017,252.3,227.944,252.3,227.944Z" transform="translate(-208.591 -134.063)"/><path class="v" d="M252.26,312.368c1.833-20.634,3.489-40.506,15.335-69.861,2.881-7.154,29.587-57.143,36.553-62.553,3.411-2.661-8.523,30.559-20.181,58.512-8.733,20.976-12.354,26.982-22.08,51.314C258.078,299.418,252.26,312.368,252.26,312.368Z" transform="translate(-208.596 -129.306)"/><path class="v" d="M240.829,210.267c-9.936-13.458-19.541-22.555-26.6-27.313s12.144,28.329,21.373,42.769,17.587,26.971,21.407,39.49C255.181,238.86,250.765,223.735,240.829,210.267Z" transform="translate(-212.709 -129.027)"/><path class="v" d="M255.3,340.717c-1.877-14.352-5.741-31.21-11.261-43.707s-14.021-31.663-20.777-38.165c-1.623-1.568,7.066,35.714,12.652,45.628s9.671,19.265,13.182,24.884C250.263,331.179,255.3,340.717,255.3,340.717Z" transform="translate(-211.632 -121.091)"/><path class="w" d="M275.539,418.505H233.7L230.54,394.46H278.7Z" transform="translate(-210.854 -106.982)"/><path class="w" d="M282.251,397.764H227.857L226.3,389.65h57.507Z" transform="translate(-211.295 -107.482)"/></g><g transform="translate(117.973 249.933)"><rect class="g" width="139.91" height="203.876" rx="6.99" transform="translate(3.698)"/><rect class="i" width="139.91" height="203.876" rx="6.99" transform="translate(3.698)"/><rect class="g" width="139.91" height="203.876" rx="6.99"/><rect class="l" width="139.91" height="203.876" rx="6.99"/><rect class="e" width="139.91" height="176.971" transform="translate(0 8.854)"/><rect class="x" width="139.91" height="176.971" transform="translate(0 8.854)"/><path class="y" d="M154.806,239.99,122.79,416.961h24.454L179.26,239.99Z" transform="translate(-105.203 -230.694)"/><path class="y" d="M183.536,239.59,151.52,416.572h12.221L195.757,239.59Z" transform="translate(-102.215 -230.736)"/><circle class="g" cx="5.255" cy="5.255" r="5.255" transform="translate(64.694 189.491)"/><circle class="u" cx="5.255" cy="5.255" r="5.255" transform="translate(64.694 189.491)"/><path class="g" d="M171.549,235.374a1.214,1.214,0,1,1-1.214-1.214A1.214,1.214,0,0,1,171.549,235.374Z" transform="translate(-100.385 -231.301)"/><path class="u" d="M171.549,235.374a1.214,1.214,0,1,1-1.214-1.214A1.214,1.214,0,0,1,171.549,235.374Z" transform="translate(-100.385 -231.301)"/></g><g transform="translate(103.942 101.059)"><path class="g" d="M329.273,206.194l8.424-1.579a.927.927,0,0,0,.718-1.236l-6.624-19.618a1.3,1.3,0,0,0-1.424-.839l-8.412,1.568a.927.927,0,0,0-.718,1.248l6.624,19.618a1.281,1.281,0,0,0,1.413.839Z" transform="translate(-70.539 -87.757)"/><path class="i" d="M329.273,206.194l8.424-1.579a.927.927,0,0,0,.718-1.236l-6.624-19.618a1.3,1.3,0,0,0-1.424-.839l-8.412,1.568a.927.927,0,0,0-.718,1.248l6.624,19.618a1.281,1.281,0,0,0,1.413.839Z" transform="translate(-70.539 -87.757)"/><path class="g" d="M330.214,206.054l8.413-1.568a.927.927,0,0,0,.718-1.248l-6.624-19.618a1.3,1.3,0,0,0-1.424-.839l-8.412,1.579a.916.916,0,0,0-.718,1.236l6.624,19.618a1.3,1.3,0,0,0,1.424.839Z" transform="translate(-70.443 -87.771)"/><path class="l" d="M330.214,206.054l8.413-1.568a.927.927,0,0,0,.718-1.248l-6.624-19.618a1.3,1.3,0,0,0-1.424-.839l-8.412,1.579a.916.916,0,0,0-.718,1.236l6.624,19.618a1.3,1.3,0,0,0,1.424.839Z" transform="translate(-70.443 -87.771)"/><path class="e" d="M328.311,203.734l10.554-1.976-5.94-17.6-10.565,1.976Z" transform="translate(-70.416 -87.626)"/><path class="z" d="M328.311,203.734l10.554-1.976-5.94-17.6-10.565,1.976Z" transform="translate(-70.416 -87.626)"/><path class="aa" d="M322.36,193.021l.828-1.921,7.949,8.931-6.878.53Z" transform="translate(-70.416 -86.904)"/><circle class="g" cx="17.035" cy="17.035" r="17.035" transform="translate(99.106 2.782)"/><path class="g" d="M201.252,136.773a20.392,20.392,0,0,1-3.489-.3l.188-1.1a19.683,19.683,0,0,0,6.624,0l.188,1.1a20.878,20.878,0,0,1-3.511.3Zm-10.08-2.694a20.215,20.215,0,0,1-5.376-4.493l.85-.718a19.022,19.022,0,0,0,5.078,4.261Zm20.181,0-.552-.949a19.022,19.022,0,0,0,5.078-4.261l.839.707a20.037,20.037,0,0,1-5.365,4.438Zm-29.079-10.554a20.115,20.115,0,0,1-1.214-6.911h1.1a18.978,18.978,0,0,0,1.1,6.525Zm37.956,0-1.038-.375a18.978,18.978,0,0,0,1.1-6.525h1.1a20.114,20.114,0,0,1-1.17,6.812Zm-36.94-13.392-1.038-.375a20.17,20.17,0,0,1,3.5-6.083l.839.707a19.166,19.166,0,0,0-3.3,5.664Zm35.88-.11a18.989,18.989,0,0,0-3.312-5.719l.85-.718a20.336,20.336,0,0,1,3.533,6.05Zm-27.512-9.936-.552-.949a19.784,19.784,0,0,1,6.624-2.418l.188,1.1a19.088,19.088,0,0,0-6.26,2.2Zm19.077,0a18.768,18.768,0,0,0-6.227-2.208l.188-1.1a20.181,20.181,0,0,1,6.624,2.374Z" transform="translate(-85.111 -96.72)"/><rect class="g" width="3.312" height="1.104" transform="translate(245.353 105.951)"/><path class="g" d="M318.507,201.957h-6.624v-1.1h6.624ZM305.17,201.2a21.992,21.992,0,0,1-6.182-2.793l.607-.916a20.975,20.975,0,0,0,5.862,2.639Zm-11.228-7.308a21.894,21.894,0,0,1-3.467-5.818l1.027-.408a21.13,21.13,0,0,0,3.312,5.52Zm-5.012-12.42v-1.7a22.265,22.265,0,0,1,.574-5.056l1.1.254a21.207,21.207,0,0,0-.541,4.8v1.623Zm4-12.475-.949-.563a22.323,22.323,0,0,1,4.306-5.233l.74.828a21.1,21.1,0,0,0-4.1,4.935Zm9.494-8.49-.453-1a21.881,21.881,0,0,1,6.525-1.8l.133,1.1a21.151,21.151,0,0,0-6.2,1.667Zm26.761-1.855h-.729v-1.1h.729a21.4,21.4,0,0,0,5.686-.773l.3,1.1a22.29,22.29,0,0,1-5.984.74Zm-7.364,0h-6.624v-1.1h6.624Zm19.519-3.621-.607-.916a21.2,21.2,0,0,0,4.791-4.306l.861.7a22.079,22.079,0,0,1-5.045,4.493Zm8.49-10.356-1.027-.408a21.494,21.494,0,0,0,1.446-6.282l1.1.088a22.545,22.545,0,0,1-1.523,6.569Zm-.088-13.1a21.088,21.088,0,0,0-2.418-5.973l.949-.563a22.081,22.081,0,0,1,2.539,6.282Zm-6.525-10.93a21.374,21.374,0,0,0-5.4-3.5l.442-1a22.08,22.08,0,0,1,5.686,3.676Zm-11.614-5.2a21.824,21.824,0,0,0-2.407-.132h-4.162v-1.1h4.151a19.046,19.046,0,0,1,2.539.144Zm-13.248-.132h-6.624v-1.1h6.624Zm-13.248,0H298.48v-1.1H305.1Zm-13.248,0h-6.624v-1.1h6.624Zm-13.248,0h-6.624v-1.1h6.624Zm-13.248,0h-6.624v-1.1h6.624Zm-13.248,0h-6.624v-1.1h6.624Zm-13.248,0H232.24v-1.1h6.624Z" transform="translate(-79.789 -94.902)"/><rect class="g" width="3.312" height="1.104" transform="translate(142.317 19.265)"/><rect class="g" width="0.927" height="2.771" transform="translate(115.677 43.608)"/><path class="g" d="M95.086,318.746H94.17v-5.52h.916Zm0-11.04H94.17v-5.52h.916Zm100.762-2.837a14.916,14.916,0,0,1-3.213-.353l.2-.894a14.485,14.485,0,0,0,5.343.132l.144.905a15.355,15.355,0,0,1-2.5.155Zm-56.9,0-.055-.927a14.032,14.032,0,0,0,5.167-1.336l.4.828a14.914,14.914,0,0,1-5.531,1.347Zm-5.663-.784a14.894,14.894,0,0,1-4.957-2.793l.6-.707a13.976,13.976,0,0,0,4.648,2.628Zm70.347-1.446-.486-.784a14.1,14.1,0,0,0,3.93-3.61l.751.552a14.971,14.971,0,0,1-4.2,3.809Zm-16.24-.408a14.97,14.97,0,0,1-4-4.041l.773-.519a13.965,13.965,0,0,0,3.754,3.8Zm-38.4-2.208-.673-.618a14.043,14.043,0,0,0,2.782-4.56l.872.32a14.915,14.915,0,0,1-2.981,4.791Zm-24.222-3.135a14.739,14.739,0,0,1-1.634-5.454l.916-.088a13.855,13.855,0,0,0,1.535,5.112Zm-29.687-.331H94.17v-5.52h.916ZM210.3,293.63l-.894-.232a14.5,14.5,0,0,0,.442-3.511V288h.927v1.888a15.257,15.257,0,0,1-.5,3.742Zm-29.1-.729a15.255,15.255,0,0,1-.309-3.014v-2.605h.927v2.605a14.274,14.274,0,0,0,.287,2.826Zm-28.307-3.4h-.916v-5.52h.916Zm-28.914-3.72h-.927v-5.52h.927Zm-28.892-.32H94.17v-5.52h.916Zm115.688-3h-.927v-5.52h.927Zm-28.925-.729h-.927v-3.908a12.5,12.5,0,0,0-.088-1.579l.916-.11a14.436,14.436,0,0,1,.1,1.689Zm-28.925-3.312h-.916v-.585a14.926,14.926,0,0,1,.861-5.023l.872.309a13.932,13.932,0,0,0-.817,4.714Zm-30.161-3.6a13.877,13.877,0,0,0-2.131-4.9l.762-.519a14.683,14.683,0,0,1,2.208,5.222Zm-27.28-.309-.894-.221a14.794,14.794,0,0,1,2.385-5.167l.74.541a14.142,14.142,0,0,0-2.252,4.836Zm115.291-3.146h-.927v-5.52h.927Zm-31.541-.2a14.054,14.054,0,0,0-3.389-4.129l.585-.707a14.948,14.948,0,0,1,3.621,4.416Zm-22.764-2.628-.7-.618a14.881,14.881,0,0,1,4.526-3.456l.408.828a13.8,13.8,0,0,0-4.261,3.235Zm-39.634-2.363a13.823,13.823,0,0,0-4.924-2.053l.188-.905a14.716,14.716,0,0,1,5.244,2.208Zm-15.235-.166-.486-.784a14.572,14.572,0,0,1,5.3-2.076l.166.916a13.834,13.834,0,0,0-5,1.932Zm69.552-1.524a13.91,13.91,0,0,0-4.217-.651h-1.1l-.066-.927h1.1a15.159,15.159,0,0,1,4.505.685Zm39.623-4.217h-.927v-5.52h.927Zm0-11.1h-.927v-5.52h.927Zm0-11.1h-.927v-5.52h.927Zm0-11.04h-.927v-5.52h.927Zm0-11.1h-.927v-5.52h.927Zm0-11.106h-.927v-5.52h.927Zm0-11.04h-.927v-5.52h.927Zm0-11.1h-.927v-5.52h.927Zm0-11.1h-.927v-5.52h.927Zm0-11.04h-.927v-5.52h.927Zm0-11.1h-.927v-5.52h.927Z" transform="translate(-94.148 -91.808)"/><rect class="g" width="0.927" height="2.771" transform="translate(0 232.602)"/><path class="d" d="M198.16,123.435a1.689,1.689,0,0,1-1.17-.486l-5.785-5.785a1.667,1.667,0,0,1,0-2.34,1.645,1.645,0,0,1,2.34,0l4.615,4.615,8.777-8.777a1.656,1.656,0,0,1,2.34,2.34l-9.936,9.936a1.645,1.645,0,0,1-1.181.5Z" transform="translate(-84.106 -95.316)"/><path class="aa" d="M387.219,152.11c-1.1,5.52-3.511,16.56.331,20.258,0,0-1.5,5.52-11.691,5.52-11.217,0-5.365-5.52-5.365-5.52,6.127-1.457,5.962-5.995,4.9-10.256Z" transform="translate(-65.569 -90.959)"/><path class="g" d="M365.28,172.634c0-.828,1.259-1.678,3.091-2.34.983-.364,1.943-1.744,3.433-2,1.1-.188,2.528.762,3.941.662,1.181-.088,2.418-1.236,3.787-1.248s2.473,1.1,3.82,1.181c.839,0,1.678-1.016,2.385-.949s1.468,1.27,2.142,1.391c.894.155,1.9-.74,2.506-.541.971.309,1.1,1.623,1.535,1.976,1.236,1,2.208,1.954,1.1,2.131-2.727.431-2.837-1.1-5.6-1.1s-2.76,1.1-5.52,1.049-2.749-1.1-5.52-1.1-2.716.762-5.52,1.049a14.517,14.517,0,0,1-5.586-.155Z" transform="translate(-65.952 -89.337)"/><g class="h" transform="translate(299.328 78.373)"><path d="M365.28,172.634c0-.828,1.259-1.678,3.091-2.34.983-.364,1.943-1.744,3.433-2,1.1-.188,2.528.762,3.941.662,1.181-.088,2.418-1.236,3.787-1.248s2.473,1.1,3.82,1.181c.839,0,1.678-1.016,2.385-.949s1.468,1.27,2.142,1.391c.894.155,1.9-.74,2.506-.541.971.309,1.1,1.623,1.535,1.976,1.236,1,2.208,1.954,1.1,2.131-2.727.431-2.837-1.1-5.6-1.1s-2.76,1.1-5.52,1.049-2.749-1.1-5.52-1.1-2.716.762-5.52,1.049a14.517,14.517,0,0,1-5.586-.155Z" transform="translate(-365.28 -167.71)"/></g><path class="aa" d="M405.093,181.23c1.435,3.036,2.561,5.94,3.7,8.964s2.053,6.072,2.937,9.152a96.251,96.251,0,0,1,2.208,9.45c.265,1.6.541,3.2.718,4.847.11.806.21,1.623.265,2.451l.188,2.539a15.621,15.621,0,0,1-1.1,6.138,35.016,35.016,0,0,1-2.263,4.747,69.316,69.316,0,0,1-5.52,8.125,122.949,122.949,0,0,1-12.895,13.988l-3.444-3.18c1.822-2.407,3.687-4.88,5.432-7.375s3.489-4.99,5.067-7.54a73.01,73.01,0,0,0,4.284-7.728,27.606,27.606,0,0,0,1.479-3.765,8.411,8.411,0,0,0,.442-2.97l-.276-2.087c-.077-.718-.2-1.435-.342-2.208-.232-1.435-.552-2.881-.872-4.317s-.684-2.87-1.1-4.306-.795-2.87-1.236-4.295c-.872-2.848-1.877-5.686-2.915-8.49s-2.208-5.652-3.312-8.269Z" transform="translate(-63.394 -87.931)"/><path class="g" d="M401.241,172.383c3.842.839,7.938,14.661,7.938,14.661l-15.125,9.649s-4.747-11.04-2.915-15.853C393.061,175.872,396.7,171.389,401.241,172.383Z" transform="translate(-63.307 -88.866)"/><path class="ab" d="M401.241,172.383c3.842.839,7.938,14.661,7.938,14.661l-15.125,9.649s-4.747-11.04-2.915-15.853C393.061,175.872,396.7,171.389,401.241,172.383Z" transform="translate(-63.307 -88.866)"/><path class="ac" d="M398.877,176.63l-5.167,19.519v.088l6.05-3.864Z" transform="translate(-62.996 -88.409)"/><path class="g" d="M356.294,172.862s-4.416,1.557,4.416,55.807h37.536c-.629-15.279-.651-24.708,6.624-56.072a111.64,111.64,0,0,0-15.953-2.109,122.032,122.032,0,0,0-17.057,0C364.607,171.162,356.294,172.862,356.294,172.862Z" transform="translate(-67.002 -89.079)"/><path class="ab" d="M356.294,172.862s-4.416,1.557,4.416,55.807h37.536c-.629-15.279-.651-24.708,6.624-56.072a111.64,111.64,0,0,0-15.953-2.109,122.032,122.032,0,0,0-17.057,0C364.607,171.162,356.294,172.862,356.294,172.862Z" transform="translate(-67.002 -89.079)"/><path class="aa" d="M392.342,241.254,383.4,238.56l3.732,8.633s5.906.574,8.037-2.628Z" transform="translate(-64.068 -81.969)"/><path class="aa" d="M376.84,241.406l3.511,7.055,7.463-1.248-3.732-8.633Z" transform="translate(-64.75 -81.967)"/><path class="aa" d="M414.081,413.748h-9.24L401.86,392.33h9.252Z" transform="translate(-62.148 -65.977)"/><path class="aa" d="M375.8,413.748h-9.24l-.618-21.418h9.24Z" transform="translate(-65.884 -65.977)"/><path class="ad" d="M365.94,392.34l.32,11.029h9.251l-.32-11.029Z" transform="translate(-65.884 -65.976)"/><path class="ad" d="M411.112,392.34H401.86l1.535,11.029h9.252Z" transform="translate(-62.148 -65.976)"/><path class="g" d="M369.18,223.164s5.365,63.48,10.941,99.25c4.493,28.892,24.443,96.423,24.443,96.423h12.608S406.782,353.613,404.5,325c-5.774-72.312,4.35-85.107-7.673-101.877Z" transform="translate(-65.547 -83.574)"/><path class="i" d="M369.18,223.164s5.365,63.48,10.941,99.25c4.493,28.892,24.443,96.423,24.443,96.423h12.608S406.782,353.613,404.5,325c-5.774-72.312,4.35-85.107-7.673-101.877Z" transform="translate(-65.547 -83.574)"/><path class="t" d="M380.04,245.78s-5.167,16.1-5.089,39.313c.894,7.849,1.844,15.644,2.815,22.864C380.724,301.223,386.167,281.594,380.04,245.78Z" transform="translate(-64.947 -81.218)"/><path class="g" d="M360.834,223.16s-7.3,71.241-6.69,99.437c.629,29.333,11.382,96.236,11.382,96.236h12.5s-1.976-65.136-.872-93.995c1.2-31.409,11.184-101.678,11.184-101.678Z" transform="translate(-67.114 -83.57)"/><path class="i" d="M360.834,223.16s-7.3,71.241-6.69,99.437c.629,29.333,11.382,96.236,11.382,96.236h12.5s-1.976-65.136-.872-93.995c1.2-31.409,11.184-101.678,11.184-101.678Z" transform="translate(-67.114 -83.57)"/><path class="g" d="M401.373,412.441a2.694,2.694,0,0,1-1.766-.475,1.281,1.281,0,0,1-.364-1.17.762.762,0,0,1,.441-.618c1.1-.475,3.886,1.325,4.2,1.535a.221.221,0,0,1,.1.221.21.21,0,0,1-.166.177A11.241,11.241,0,0,1,401.373,412.441Zm-1.236-1.91a.563.563,0,0,0-.276.055c-.066,0-.155.088-.177.276a.8.8,0,0,0,.221.773c.464.431,1.678.486,3.312.166a8.025,8.025,0,0,0-3.08-1.27Z" transform="translate(-62.423 -64.129)"/><path class="g" d="M403.563,412.322a.177.177,0,0,1-.1,0c-.883-.5-2.561-2.5-2.363-3.533a.773.773,0,0,1,.74-.618,1.1,1.1,0,0,1,.927.3c1,.883,1.016,3.555,1.016,3.665a.21.21,0,0,1-.11.188.187.187,0,0,1-.11,0ZM402,408.569h-.1c-.276,0-.342.155-.364.254-.121.64.927,2.142,1.8,2.837a4.957,4.957,0,0,0-.85-2.9.707.707,0,0,0-.486-.188Z" transform="translate(-62.229 -64.33)"/><path class="g" d="M363.306,412.444a3.522,3.522,0,0,1-2.208-.563,1.214,1.214,0,0,1-.386-1.1.7.7,0,0,1,.364-.585c1.1-.618,4.824,1.27,5.233,1.479a.221.221,0,0,1,.121.232.21.21,0,0,1-.177.177A15.831,15.831,0,0,1,363.306,412.444Zm-1.645-1.91a.873.873,0,0,0-.408.077.287.287,0,0,0-.144.243.8.8,0,0,0,.254.7c.563.508,2.087.6,4.129.254A11.9,11.9,0,0,0,361.661,410.534Z" transform="translate(-66.429 -64.132)"/><path class="g" d="M365.963,412.323h-.088c-1.1-.5-3.312-2.5-3.113-3.544,0-.243.221-.552.828-.618a1.611,1.611,0,0,1,1.214.386c1.159.96,1.369,3.455,1.38,3.555a.232.232,0,0,1-.088.2.21.21,0,0,1-.133.022Zm-2.208-3.754h-.132c-.4,0-.431.2-.442.254-.1.629,1.38,2.208,2.506,2.87a5.134,5.134,0,0,0-1.181-2.848,1.159,1.159,0,0,0-.74-.276Z" transform="translate(-66.216 -64.331)"/><path class="w" d="M365.729,143.513a.464.464,0,0,1-.386-.144,3.456,3.456,0,0,0-2.926-1.225.442.442,0,0,1-.5-.375.453.453,0,0,1,.364-.5,4.416,4.416,0,0,1,3.709,1.512.453.453,0,0,1,0,.618A.5.5,0,0,1,365.729,143.513Z" transform="translate(-66.302 -92.088)"/><path class="ae" d="M363.814,148.27a19.873,19.873,0,0,1-1.954,5.089,3.213,3.213,0,0,0,2.7.121Z" transform="translate(-66.308 -91.359)"/><path class="w" d="M364.242,147.115c.1.74-.2,1.391-.684,1.457s-.96-.475-1.1-1.2.2-1.4.684-1.468S364.164,146.419,364.242,147.115Z" transform="translate(-66.25 -91.606)"/><path class="w" d="M363.474,146.024l-1.844-.254S362.734,146.962,363.474,146.024Z" transform="translate(-66.332 -91.619)"/><path class="w" d="M405.256,410.76h10.389a.718.718,0,0,1,.729.629l1.192,8.225a1.49,1.49,0,0,1-1.49,1.645c-3.621-.066-5.365-.276-9.936-.276-2.8,0-6.911.287-10.8.287s-4.085-3.842-2.473-4.184c7.253-1.557,8.39-3.709,10.841-5.763a2.4,2.4,0,0,1,1.546-.563Z" transform="translate(-63.182 -64.06)"/><path class="w" d="M367.627,410.76h10.389a.74.74,0,0,1,.74.629l1.181,8.225a1.49,1.49,0,0,1-1.479,1.645c-3.621-.066-5.365-.276-9.936-.276-2.815,0-8.622.287-12.508.287s-4.085-3.842-2.473-4.184c7.242-1.557,10.1-3.709,12.541-5.763a2.44,2.44,0,0,1,1.546-.563Z" transform="translate(-67.272 -64.06)"/><path class="ac" d="M355.21,180.55v.221c.11,6.171.96,16.56,3.522,34.025l5.233-20.5Z" transform="translate(-67 -88.002)"/><path class="aa" d="M365.428,183.6c-1.038,5.244-2.208,10.378-3.6,15.533s-2.8,10.278-4.637,15.456l-.718,1.932-.784,1.943a9.939,9.939,0,0,1-.629,1.336,8.191,8.191,0,0,1-1.1,1.59,7.32,7.32,0,0,1-3.765,2.208,8.291,8.291,0,0,1-3.687,0,12.334,12.334,0,0,1-2.683-.883,21.934,21.934,0,0,1-4.019-2.44,48.233,48.233,0,0,1-6.2-5.708c-.949-.994-1.833-2.031-2.694-3.08s-1.689-2.1-2.506-3.257l3.5-3.1a82.515,82.515,0,0,0,11.978,8.987,16.383,16.383,0,0,0,2.892,1.325c.85.32,1.612.232,1.314.177a1.1,1.1,0,0,0-.5.2h0l.155-.475.585-1.744.552-1.8c1.435-4.847,2.661-9.936,3.875-14.926l3.456-15.191Z" transform="translate(-69.788 -87.884)"/><path class="aa" d="M329.136,206.874l-5.056-7.154,6.878-.53s3.886,4.482,2.517,8.081Z" transform="translate(-70.237 -86.063)"/><path class="aa" d="M328.28,198.4l1.457-.894.673-3.389,1.115,1.391.828,7.96Z" transform="translate(-69.8 -86.59)"/><path class="aa" d="M388.627,142.618c.751,9.141,1.259,12.994-2.65,18.315-5.884,7.982-17.289,6.9-20.744-1.844-3.124-7.872-3.82-21.506,4.548-26.386a12.508,12.508,0,0,1,18.845,9.914Z" transform="translate(-66.182 -93.159)"/><path class="w" d="M368.206,131.939a8.6,8.6,0,0,0-5.045,9.87s7.187-3.1,7.474,8.412c.21,8.313-5.52,19.53-5.52,19.53s13.325,2.76,32.5-3.113C405.775,164.142,402.1,115.169,368.206,131.939Z" transform="translate(-66.196 -93.42)"/><path class="w" d="M367.151,136.22c-1.3,3.135-.96,9.34,4.173,8.677s3.632-5.84,3.632-5.84Z" transform="translate(-65.825 -92.612)"/><path class="aa" d="M372.855,147.732a6.768,6.768,0,0,1-1.8,4.8c-1.612,1.7-3.632.552-4.184-1.612-.508-1.932-.276-5.167,1.833-6.072a3.014,3.014,0,0,1,4.151,2.881Z" transform="translate(-65.811 -91.738)"/><path class="g" d="M415,401.243H400.595l-1.535-5.023,16.439.386Z" transform="translate(-62.439 -65.572)"/><path class="g" d="M390.184,225.46h.994c.21,0,.364-.1.342-.232l-.475-4.416c0-.121-.188-.232-.4-.232h-1.016c-.2,0-.353.11-.342.232l.475,4.416A.4.4,0,0,0,390.184,225.46Z" transform="translate(-63.456 -83.839)"/><path class="g" d="M367.822,225.46h1.016c.2,0,.353-.1.342-.232l-.475-4.416c0-.121-.2-.232-.4-.232h-1.016c-.21,0-.364.11-.342.232l.475,4.416C367.436,225.382,367.613,225.46,367.822,225.46Z" transform="translate(-65.779 -83.839)"/><path class="g" d="M378.1,401.243H363.678l-1.038-4.295,16-.729Z" transform="translate(-66.227 -65.572)"/><path class="g" d="M398.434,221.2l1.689,3.312c.132.265-.177.53-.607.53H360.093c-.342,0-.618-.166-.64-.375l-.342-3.312c0-.232.276-.431.64-.431h38.033a.7.7,0,0,1,.651.276Z" transform="translate(-66.594 -83.804)"/><path class="af" d="M398.434,221.2l1.689,3.312c.132.265-.177.53-.607.53H360.093c-.342,0-.618-.166-.64-.375l-.342-3.312c0-.232.276-.431.64-.431h38.033a.7.7,0,0,1,.651.276Z" transform="translate(-66.594 -83.804)"/><path class="i" d="M390.184,225.46h.994c.21,0,.364-.1.342-.232l-.475-4.416c0-.121-.188-.232-.4-.232h-1.016c-.2,0-.353.11-.342.232l.475,4.416A.4.4,0,0,0,390.184,225.46Z" transform="translate(-63.456 -83.839)"/><path class="i" d="M367.822,225.46h1.016c.2,0,.353-.1.342-.232l-.475-4.416c0-.121-.2-.232-.4-.232h-1.016c-.21,0-.364.11-.342.232l.475,4.416C367.436,225.382,367.613,225.46,367.822,225.46Z" transform="translate(-65.779 -83.839)"/><path class="g" d="M356.8,172.67c-3.809.972-6.469,16.659-6.469,16.659l14.705,9.991s5.906-18.68,2.937-22.908C364.914,172.085,362.364,171.257,356.8,172.67Z" transform="translate(-67.507 -88.887)"/><path class="ab" d="M356.8,172.67c-3.809.972-6.469,16.659-6.469,16.659l14.705,9.991s5.906-18.68,2.937-22.908C364.914,172.085,362.364,171.257,356.8,172.67Z" transform="translate(-67.507 -88.887)"/></g><g transform="translate(118.349 355.025)"><path class="g" d="M169.773,358.853a.375.375,0,0,0,0-.11c.309-1.777.574-3.566.795-5.377,3.124,3.478,5.84,4.361,7.783,4.361a5.512,5.512,0,0,0,.618,0c3.809-.375,7.021-4.107,8.611-9.936a.839.839,0,0,0-.11-.684,1.038,1.038,0,0,0-.585-.431,18.911,18.911,0,0,0-15.931,2.815c.132-1.7.21-3.4.232-5.112a11.04,11.04,0,0,0,1.866.166c6.293,0,10.19-5.6,10.378-5.873a.773.773,0,0,0,.066-.729.993.993,0,0,0-.574-.563c-3.93-1.479-7.121-1.612-9.472-.375a7.021,7.021,0,0,0-3.235,3.743,24.586,24.586,0,0,0-18.128-13.966.729.729,0,0,0-.894.773c.4,5.708,1.457,12.674,6.16,16.008a10.808,10.808,0,0,0,6.4,1.888,21.441,21.441,0,0,0,5.752-.916,91.631,91.631,0,0,1-1.1,12.144c-2.616-2.97-9.274-9.572-18.36-11.846a.729.729,0,0,0-.938.6c-.673,4.913.5,8.9,3.367,11.526,2.385,2.208,5.807,3.312,9.936,3.312a28.7,28.7,0,0,0,5.454-.574c-.618,3.367-1.38,6.624-2.208,9.8-2.859-2.274-11.128-8.026-19.011-5.63a.718.718,0,0,0-.453.442.817.817,0,0,0,.066.673c2.915,5.432,5.829,8.446,9.152,9.494a9.066,9.066,0,0,0,2.672.409,13.756,13.756,0,0,0,6.624-2.02c-1.248,4.173-2.616,8.059-3.963,11.526a18.459,18.459,0,0,0-17.079-4.416.718.718,0,0,0-.541.883,11.89,11.89,0,0,0,7,8.026,10.31,10.31,0,0,0,3.941.784,10.488,10.488,0,0,0,5.1-1.369,132.1,132.1,0,0,1-5.951,12.6.905.905,0,0,0,.364,1.159.883.883,0,0,0,.486.144.718.718,0,0,0,.64-.353,146.046,146.046,0,0,0,7.121-15.456,1.291,1.291,0,0,0,.1-.265q.618-1.557,1.225-3.213c2.661,3.069,5.9,4.769,9.141,4.769h1.049a8.733,8.733,0,0,0,7.618-6.624.949.949,0,0,0-.508-.994,17.664,17.664,0,0,0-16.041-.629c.872-2.528,1.722-5.211,2.506-7.993a.74.74,0,0,0,.11-.375h0c.21-.784.431-1.568.629-2.374,3.191,3.467,6.138,5.167,8.976,5.167h0c3.444,0,6.624-2.55,9.682-7.728a.905.905,0,0,0-.32-1.1c-6.414-4.416-14.087-1.4-17.509.364q.729-3.1,1.281-6.315Z" transform="translate(-103.467 -326.762)"/><path class="l" d="M169.773,358.853a.375.375,0,0,0,0-.11c.309-1.777.574-3.566.795-5.377,3.124,3.478,5.84,4.361,7.783,4.361a5.512,5.512,0,0,0,.618,0c3.809-.375,7.021-4.107,8.611-9.936a.839.839,0,0,0-.11-.684,1.038,1.038,0,0,0-.585-.431,18.911,18.911,0,0,0-15.931,2.815c.132-1.7.21-3.4.232-5.112a11.04,11.04,0,0,0,1.866.166c6.293,0,10.19-5.6,10.378-5.873a.773.773,0,0,0,.066-.729.993.993,0,0,0-.574-.563c-3.93-1.479-7.121-1.612-9.472-.375a7.021,7.021,0,0,0-3.235,3.743,24.586,24.586,0,0,0-18.128-13.966.729.729,0,0,0-.894.773c.4,5.708,1.457,12.674,6.16,16.008a10.808,10.808,0,0,0,6.4,1.888,21.441,21.441,0,0,0,5.752-.916,91.631,91.631,0,0,1-1.1,12.144c-2.616-2.97-9.274-9.572-18.36-11.846a.729.729,0,0,0-.938.6c-.673,4.913.5,8.9,3.367,11.526,2.385,2.208,5.807,3.312,9.936,3.312a28.7,28.7,0,0,0,5.454-.574c-.618,3.367-1.38,6.624-2.208,9.8-2.859-2.274-11.128-8.026-19.011-5.63a.718.718,0,0,0-.453.442.817.817,0,0,0,.066.673c2.915,5.432,5.829,8.446,9.152,9.494a9.066,9.066,0,0,0,2.672.409,13.756,13.756,0,0,0,6.624-2.02c-1.248,4.173-2.616,8.059-3.963,11.526a18.459,18.459,0,0,0-17.079-4.416.718.718,0,0,0-.541.883,11.89,11.89,0,0,0,7,8.026,10.31,10.31,0,0,0,3.941.784,10.488,10.488,0,0,0,5.1-1.369,132.1,132.1,0,0,1-5.951,12.6.905.905,0,0,0,.364,1.159.883.883,0,0,0,.486.144.718.718,0,0,0,.64-.353,146.046,146.046,0,0,0,7.121-15.456,1.291,1.291,0,0,0,.1-.265q.618-1.557,1.225-3.213c2.661,3.069,5.9,4.769,9.141,4.769h1.049a8.733,8.733,0,0,0,7.618-6.624.949.949,0,0,0-.508-.994,17.664,17.664,0,0,0-16.041-.629c.872-2.528,1.722-5.211,2.506-7.993a.74.74,0,0,0,.11-.375h0c.21-.784.431-1.568.629-2.374,3.191,3.467,6.138,5.167,8.976,5.167h0c3.444,0,6.624-2.55,9.682-7.728a.905.905,0,0,0-.32-1.1c-6.414-4.416-14.087-1.4-17.509.364q.729-3.1,1.281-6.315Z" transform="translate(-103.467 -326.762)"/><path class="g" d="M133.475,380.27a12.762,12.762,0,0,0,3.676.585,11.128,11.128,0,0,0,10.974-12.63.707.707,0,0,0-.773-.552A20.7,20.7,0,0,0,132.25,377c-1.391-3.82-2.694-7.883-3.787-12.089a12.519,12.519,0,0,0,5.873,1.733,7.937,7.937,0,0,0,2.506-.4c4.295-1.424,7.242-6.547,9.792-11.879a.717.717,0,0,0,0-.618.662.662,0,0,0-.442-.4c-8.4-2.4-16.041,5.818-18.448,8.755a100.9,100.9,0,0,1-1.943-10.8,29.809,29.809,0,0,0,5.4.53c4.416,0,7.9-1.17,10.267-3.478,2.8-2.727,3.765-6.812,2.793-11.8a.7.7,0,0,0-.894-.53c-8.964,2.385-15.29,9.053-17.874,12.21,0-.651-.11-1.3-.155-1.954a.762.762,0,0,0-.188-.442,8.324,8.324,0,0,0-4.217-5.818c-2.451-1.214-5.686-1.038-9.594.519a.85.85,0,0,0-.5.519.751.751,0,0,0,.1.684c.2.265,4.416,5.807,10.731,5.807a10.824,10.824,0,0,0,2.031-.2q.2,2.694.563,5.4a19.75,19.75,0,0,0-16.439-2.683.817.817,0,0,0-.519.4.8.8,0,0,0-.077.629c1.954,5.94,5.432,9.682,9.318,10a4.088,4.088,0,0,0,.53,0c1.987,0,4.736-.905,7.728-4.571a114.325,114.325,0,0,0,2.87,12.243c-3.555-1.744-11.592-4.747-17.885-.177a.795.795,0,0,0-.243,1.1c3.389,5.222,6.723,7.728,10.19,7.728h.088c2.881,0,5.785-1.8,8.832-5.388,1.247,3.93,2.616,7.662,4.019,11.128-3.489-2.285-7.573-1.921-12.608,1.1a.905.905,0,0,0-.408.629.718.718,0,0,0,.265.64c.254.2,4.549,3.433,9.351,3.433a9.24,9.24,0,0,0,5.189-1.535,156.184,156.184,0,0,0,9.373,18.349.762.762,0,0,0,.662.353.85.85,0,0,0,.5-.155.872.872,0,0,0,.3-1.181,162.543,162.543,0,0,1-11.824-24.542Z" transform="translate(-107.2 -325.801)"/><path class="v" d="M133.475,380.27a12.762,12.762,0,0,0,3.676.585,11.128,11.128,0,0,0,10.974-12.63.707.707,0,0,0-.773-.552A20.7,20.7,0,0,0,132.25,377c-1.391-3.82-2.694-7.883-3.787-12.089a12.519,12.519,0,0,0,5.873,1.733,7.937,7.937,0,0,0,2.506-.4c4.295-1.424,7.242-6.547,9.792-11.879a.717.717,0,0,0,0-.618.662.662,0,0,0-.442-.4c-8.4-2.4-16.041,5.818-18.448,8.755a100.9,100.9,0,0,1-1.943-10.8,29.809,29.809,0,0,0,5.4.53c4.416,0,7.9-1.17,10.267-3.478,2.8-2.727,3.765-6.812,2.793-11.8a.7.7,0,0,0-.894-.53c-8.964,2.385-15.29,9.053-17.874,12.21,0-.651-.11-1.3-.155-1.954a.762.762,0,0,0-.188-.442,8.324,8.324,0,0,0-4.217-5.818c-2.451-1.214-5.686-1.038-9.594.519a.85.85,0,0,0-.5.519.751.751,0,0,0,.1.684c.2.265,4.416,5.807,10.731,5.807a10.824,10.824,0,0,0,2.031-.2q.2,2.694.563,5.4a19.75,19.75,0,0,0-16.439-2.683.817.817,0,0,0-.519.4.8.8,0,0,0-.077.629c1.954,5.94,5.432,9.682,9.318,10a4.088,4.088,0,0,0,.53,0c1.987,0,4.736-.905,7.728-4.571a114.325,114.325,0,0,0,2.87,12.243c-3.555-1.744-11.592-4.747-17.885-.177a.795.795,0,0,0-.243,1.1c3.389,5.222,6.723,7.728,10.19,7.728h.088c2.881,0,5.785-1.8,8.832-5.388,1.247,3.93,2.616,7.662,4.019,11.128-3.489-2.285-7.573-1.921-12.608,1.1a.905.905,0,0,0-.408.629.718.718,0,0,0,.265.64c.254.2,4.549,3.433,9.351,3.433a9.24,9.24,0,0,0,5.189-1.535,156.184,156.184,0,0,0,9.373,18.349.762.762,0,0,0,.662.353.85.85,0,0,0,.5-.155.872.872,0,0,0,.3-1.181,162.543,162.543,0,0,1-11.824-24.542Z" transform="translate(-107.2 -325.801)"/><path class="w" d="M161.164,418.8h-26.3L132.88,391.61h30.272Z" transform="translate(-104.53 -320.018)"/><rect class="w" width="34.191" height="4.604" transform="translate(26.385 69.759)"/></g><g transform="translate(91.268 292.989)"><rect class="g" width="76.143" height="160.82" rx="6.99" transform="translate(3.698)"/><rect class="i" width="76.143" height="160.82" rx="6.99" transform="translate(3.698)"/><rect class="g" width="76.143" height="160.82" rx="6.99"/><rect class="l" width="76.143" height="160.82" rx="6.99"/><rect class="e" width="76.143" height="138.199" transform="translate(0 8.854)"/><rect class="ag" width="76.143" height="138.199" transform="translate(0.044 8.567)"/><path class="s" d="M110.026,278.6,85.33,416.8h24.454l24.708-138.2Z" transform="translate(-82.393 -269.735)"/><path class="s" d="M137.586,278.6l-24.7,138.2h12.232l24.7-138.2Z" transform="translate(-79.527 -269.735)"/><path class="g" d="M120.917,409.893a3.433,3.433,0,1,1-3.433-3.433,3.433,3.433,0,0,1,3.433,3.433Z" transform="translate(-79.406 -256.437)"/><path class="u" d="M120.917,409.893a3.433,3.433,0,1,1-3.433-3.433,3.433,3.433,0,0,1,3.433,3.433Z" transform="translate(-79.406 -256.437)"/><circle class="g" cx="1.214" cy="1.214" r="1.214" transform="translate(45.86 2.859)"/><path class="g" d="M122.164,275.589H109.114a1.214,1.214,0,0,1-1.214-1.214h0a1.225,1.225,0,0,1,1.214-1.214h13.038a1.226,1.226,0,0,1,1.214,1.214h0a1.214,1.214,0,0,1-1.2,1.214Z" transform="translate(-80.046 -270.301)"/><circle class="u" cx="1.214" cy="1.214" r="1.214" transform="translate(45.86 2.859)"/><path class="u" d="M122.164,275.589H109.114a1.214,1.214,0,0,1-1.214-1.214h0a1.225,1.225,0,0,1,1.214-1.214h13.038a1.226,1.226,0,0,1,1.214,1.214h0a1.214,1.214,0,0,1-1.2,1.214Z" transform="translate(-80.046 -270.301)"/></g></g></svg>