<svg id="Layer_1" data-name="Layer 1" xmlns="http://www.w3.org/2000/svg" viewBox="0 0 414 120"><polygon points="142.76 86.29 142.76 64.51 123.61 64.51 123.61 86.29 113.84 86.29 113.84 34.67 123.61 34.67 123.61 55.91 142.76 55.91 142.76 34.67 152.52 34.67 152.52 86.29 142.76 86.29"/><path d="M188.26,86.29h-7.75l-.7-2.55a20.7,20.7,0,0,1-11.24,3.33c-6.9,0-9.85-4.73-9.85-11.24,0-7.67,3.34-10.62,11-10.62h9.07V61.26c0-4.19-1.16-5.66-7.21-5.66a52.53,52.53,0,0,0-10.46,1.16L160,49.55a49.39,49.39,0,0,1,12.94-1.78c11.86,0,15.35,4.19,15.35,13.64ZM178.8,72h-7c-3.1,0-3.95.85-3.95,3.72,0,2.64.85,3.8,3.8,3.8a14.84,14.84,0,0,0,7.13-1.94Z"/><path d="M206.55,87.07a44.5,44.5,0,0,1-13-2.17l1.32-7.21a42.19,42.19,0,0,0,11.24,1.63c4.18,0,4.8-.93,4.8-3.8,0-2.33-.46-3.49-6.59-5C195.08,68.31,194,66,194,58.7c0-7.6,3.34-10.93,14.11-10.93a49.31,49.31,0,0,1,11.32,1.32l-.93,7.52a65.61,65.61,0,0,0-10.39-1.09c-4.11,0-4.8.93-4.8,3.26,0,3,.23,3.25,5.35,4.57,10.54,2.79,11.55,4.18,11.55,11.94,0,7.28-2.25,11.78-13.65,11.78"/><path d="M248.33,86.29V59.94c0-2-.85-3-3-3-2.33,0-6.43,1.39-9.84,3.17v26.2H226V33.12l9.46-1.32V51.41a33.26,33.26,0,0,1,13.79-3.64c6.28,0,8.53,4.42,8.53,11.16V86.29Z"/><path d="M264.77,32.27h9.45V43.2h-9.45Zm0,16.27h9.45V86.29h-9.45Z"/><path d="M280.81,48.85c0-9.45,5.51-15,18.37-15a58.16,58.16,0,0,1,14,1.71l-1.08,8.45a75.69,75.69,0,0,0-12.64-1.32c-6.74,0-8.91,2.33-8.91,7.83V70.4c0,5.51,2.17,7.83,8.91,7.83a76.68,76.68,0,0,0,12.64-1.31l1.08,8.44a58.16,58.16,0,0,1-14,1.71c-12.86,0-18.37-5.5-18.37-15Z"/><path d="M332.59,87.07c-12.94,0-16.43-7.13-16.43-14.88V62.65c0-7.75,3.49-14.88,16.43-14.88S349,54.9,349,62.65v9.54c0,7.75-3.49,14.88-16.44,14.88m0-31.24c-5,0-7,2.25-7,6.51V72.5c0,4.26,1.94,6.51,7,6.51s7-2.25,7-6.51V62.34c0-4.26-1.94-6.51-7-6.51"/><path d="M374.14,56.45a74.45,74.45,0,0,0-10,5.5V86.29h-9.45V48.54h8l.62,4.19a42.47,42.47,0,0,1,9.92-5Z"/><path d="M410,73.74c0,8.37-3.72,13.33-12.48,13.33A52.23,52.23,0,0,1,387.44,86v15.59L378,102.88V48.54h7.52l.92,3.18a19.91,19.91,0,0,1,11.94-3.95c7.6,0,11.63,4.5,11.63,13.1ZM387.44,78a42.13,42.13,0,0,0,8.37,1c3.42,0,4.73-1.63,4.73-5V60.64c0-3.1-1.16-4.81-4.65-4.81a13.39,13.39,0,0,0-8.45,3.41Z"/><polygon points="42.26 12.85 5 34.34 5 34.36 5 85.97 19 94.06 19 42.42 42.26 28.99 42.26 12.85"/><polygon points="57.14 12.85 57.14 53.97 42.26 53.97 42.26 38.62 28.26 46.7 28.26 99.39 42.26 107.49 42.26 66.48 57.14 66.48 57.14 81.73 71.14 73.65 71.14 20.93 57.14 12.85"/><polygon points="57.14 107.5 94.4 86.01 94.4 85.99 94.4 34.37 80.4 26.29 80.4 77.92 57.14 91.35 57.14 107.5"/></svg>