<svg xmlns="http://www.w3.org/2000/svg" xmlns:xlink="http://www.w3.org/1999/xlink" width="552" height="400.331" viewBox="0 0 552 400.331"><defs><style>.a{fill:none;}.b{fill:#1034fe;}.c,.d{fill:#fff;}.c{opacity:0.7;}.e,.h,.i{fill:#263238;}.f{clip-path:url(#a);}.g{clip-path:url(#b);}.h,.i{font-size:19px;font-family:Montserrat-Light, Montserrat;font-weight:300;}.i{letter-spacing:-0.13em;}.j{letter-spacing:-0.06em;}</style><clipPath id="a"><path class="a" d="M2.707,79.712C-1.968,76.912.832,62.944.832,57.78s0-40.165,2.8-43.452,9.81-11.211,9.81-11.211,18.274-4.3,21.508-2.8,7.46,5.637,7.922,10.747-1.4,61.172-4.2,65.846c-1.748,2.92-13.52,4.376-23.251,4.376C9.573,81.288,4.461,80.762,2.707,79.712ZM13.8,3.739c-1,1.135-7.117,8.081-9.665,11.051-1.624,1.9-2.64,18.378-2.64,43.017,0,1.241-.159,2.93-.33,4.9C.633,68.488-.158,77.229,3.05,79.17c2.046,1.229,9.915,1.8,18.3,1.32,8.938-.515,15.673-2.072,16.755-3.881,2.64-4.463,4.568-60.379,4.106-65.45S37.432,2.234,34.646.953A5.409,5.409,0,0,0,32.557.671C28.359.671,19.7,2.341,13.8,3.739Z" transform="translate(0 0)"/></clipPath><clipPath id="b"><path class="a" d="M16.451,49.064,0,2.852,5.678,0l18.7,30.5a5.28,5.28,0,0,0,5.7,2.64L55.946,25.82l.194.72L30.248,33.867a5.968,5.968,0,0,1-6.456-3.01L5.426.9.819,3.223,17.073,48.761a6.957,6.957,0,0,0,7.671,4.317L67.678,42.823l.452.656L24.862,53.8a7.613,7.613,0,0,1-8.411-4.74Z"/></clipPath></defs><g transform="translate(-41.568 -104.999)"><g transform="translate(63.446 104.999)"><path class="b" d="M531.5,501.1c5.281,0,16.914-45.394,18.247-50.173a399.117,399.117,0,0,0,14.326-130.569c-3.235-54.6-9.243-113.986-40.456-156.184C460.371,78.58,342.728,89.367,282.93,173.8,265.25,198.745,246.765,224.32,223,240.8c-27,18.8-58.782,16.253-87.764,27.9C91.2,286.39,57.005,348.037,58.167,405.366c.937,46.423,29.708,93.388,69.252,96.782C165.313,505.4,531.34,501.1,531.5,501.1Z" transform="translate(-58.138 -104.999)"/><path class="c" d="M531.5,501.1c5.281,0,16.914-45.394,18.247-50.173a399.117,399.117,0,0,0,14.326-130.569c-3.235-54.6-9.243-113.986-40.456-156.184C460.371,78.58,342.728,89.367,282.93,173.8,265.25,198.745,246.765,224.32,223,240.8c-27,18.8-58.782,16.253-87.764,27.9C91.2,286.39,57.005,348.037,58.167,405.366c.937,46.423,29.708,93.388,69.252,96.782C165.313,505.4,531.34,501.1,531.5,501.1Z" transform="translate(-58.138 -104.999)"/><path class="d" d="M400.711,147.878c-5.281-2.852-7.605-.475-9.507-2.852s5.281-8.556-9.031-14.748c0,0-.951-13.309-20.452-13.784s-14.26,13.309-19.488,16.636-6.6-1.9-11.883,1.439-2.852,9.982-7.13,10.932-10-4.278-15.224-.951-5.281,6.179-7.605,6.179-7.13-1.9-9.982,0-6.179,4.278-6.179,4.278H404.514S405.94,150.73,400.711,147.878Z" transform="translate(14.29 -101.321)"/><path class="b" d="M218.446,147.085c-3.288-1.8-4.793-.3-5.981-1.8s3.288-5.374-5.691-9.242c0,0-.594-8.371-12.847-8.675s-8.978,8.371-12.266,10.47-4.186-1.2-7.473.9-1.8,6.285-4.489,6.879-6.272-2.641-9.559-.594-3.3,3.882-4.793,3.882-4.489-1.2-6.272,0l-3.9,2.641h75.656S221.734,148.88,218.446,147.085Z" transform="translate(-30.255 -97.834)"/><path class="b" d="M218.446,147.085c-3.288-1.8-4.793-.3-5.981-1.8s3.288-5.374-5.691-9.242c0,0-.594-8.371-12.847-8.675s-8.978,8.371-12.266,10.47-4.186-1.2-7.473.9-1.8,6.285-4.489,6.879-6.272-2.641-9.559-.594-3.3,3.882-4.793,3.882-4.489-1.2-6.272,0l-3.9,2.641h75.656S221.734,148.88,218.446,147.085Z" transform="translate(-30.255 -97.834)"/><path class="c" d="M218.446,147.085c-3.288-1.8-4.793-.3-5.981-1.8s3.288-5.374-5.691-9.242c0,0-.594-8.371-12.847-8.675s-8.978,8.371-12.266,10.47-4.186-1.2-7.473.9-1.8,6.285-4.489,6.879-6.272-2.641-9.559-.594-3.3,3.882-4.793,3.882-4.489-1.2-6.272,0l-3.9,2.641h75.656S221.734,148.88,218.446,147.085Z" transform="translate(-30.255 -97.834)"/></g><g transform="translate(72.506 496.893)"><rect class="e" width="521.062" height="8.437"/></g><g transform="translate(41.568 143.145)"><path class="e" d="M459.431,363.142c-2.641-23.027-11.276-22.023-13.969-45.05s5.876-24.03,3.182-47.057-11.276-22.023-13.982-45.05,5.889-24.03,3.182-47.057S426.567,156.9,423.874,133.89l-1.32,4.661c-2.641,18.485-10.193,19.436-12.028,40.931-1.98,23.106,6.6,23.845,4.648,46.965s-10.563,22.38-12.57,45.5,6.6,23.845,4.648,46.965-10.563,22.446-12.557,45.5a56.3,56.3,0,0,0,2.007,22.34c1.783,4.133,9.308,19.422,24.479,23.859a24.733,24.733,0,0,0,2.931.66v77.214h3.473V411.546c13.943.092,23.212-13.652,30.249-25.153l.092-.145A56.867,56.867,0,0,0,459.431,363.142Zm-15.686-9.11L426.514,386.01v24.057h-1.479v-24.03l-19.185-31.5a.767.767,0,1,1,1.32-.779l17.917,29.4V292.477a.766.766,0,0,1-.343-.238l-15.329-19.805a.743.743,0,1,1,1.175-.911l14.524,18.709V204.014L414.8,183.39a.752.752,0,0,1,.383-.977.739.739,0,0,1,.937.317L425.1,200.7V170.648a.739.739,0,0,1,1.479,0h0v29.232l5.994-15.158a.744.744,0,0,1,1.386.541h0l-7.381,18.67v85.281l14.035-16.65a.74.74,0,0,1,1.135.951l-15.171,18.01v91.355L442.5,353.319a.739.739,0,0,1,1-.29.726.726,0,0,1,.238,1Z" transform="translate(71.444 -133.89)"/><path class="e" d="M471.006,409l-4.119-1.32c-2.126-.647-2.826-2.575-4.938-6.43s-7.764,1.928-12,1.928.7-4.5-1.413-8.358-7.764.647-12.7-.647,2.113-12.86-4.938-12.213c-1.32.119-2.284,1.162-3.024,2.773-.673-1.611-1.558-2.641-2.746-2.773-6.43-.647,0,10.932-4.5,12.213s-9.638-3.208-11.566.647,2.561,8.358-1.32,8.358-9-5.783-10.932-1.928-2.575,5.783-4.5,6.43L388.55,409Z" transform="translate(69.587 -54.431)"/><path class="e" d="M217.745,282.6v-.066h-.079v-.066h0c-1.835-.185-20.835-1.809-38.171,7.2a46.45,46.45,0,0,0,9.81-34.1c-4.172-41.855-43.677-65.819-46.714-67.6v-.106h-.185v.2c-3.05,1.782-42.542,25.747-46.727,67.6A46.582,46.582,0,0,0,99.3,279.416c-22.235-13.3-48.166-11.051-50.556-10.827h-.264v.079c-1.175,2.641-16.016,38.4,1.809,68.658,15.95,27.107,49.394,19.95,58.478,17.4,7.632,8.014,21.548,26.249,27.727,57.4h-8.661l4.186,58.967H151.5l4.186-58.888H145.482a180.176,180.176,0,0,1,24.9-59.31c9.084,2.271,33.708,6.1,45.842-14.524C230.7,313.745,218.642,284.8,217.745,282.6Zm-75.867-.224-20.6-28.612a.555.555,0,0,1,.119-.779h0a.568.568,0,0,1,.792.119l19.66,27.371V251.517h0l-20.6-28.6a.568.568,0,0,1,.119-.792.581.581,0,0,1,.792.132l19.713,27.4V207.4a.581.581,0,0,1,.647-.475.555.555,0,0,1,.475.475V248.19l21.39-27.133a.568.568,0,0,1,.779-.106h0a.568.568,0,0,1,.092.779L142.973,250.1v29.048l21.39-27.133a.56.56,0,0,1,.885.687h0l-22.274,28.255v24.506l21.39-27.12a.568.568,0,0,1,.779-.106h0a.568.568,0,0,1,.092.779l-22.261,28.255v.541h-1.809L121.24,280.089a.568.568,0,0,1,.119-.792.581.581,0,0,1,.792.132l19.7,27.45V282.321Zm-32.784,69.833-2.02-2.773-29.048-8.08a.475.475,0,0,1,.251-.911l27.9,7.764L94.068,331.649l-28.982-8.081a.475.475,0,0,1-.33-.581.462.462,0,0,1,.568-.317h0l27.846,7.764L78.857,310.84,49.81,302.76a.436.436,0,0,1-.317-.541h0a.462.462,0,0,1,.568-.33h0l27.846,7.764L57.837,282.11a.475.475,0,0,1,.106-.66.462.462,0,0,1,.634.079h0l20.835,28.493-.2-28.229a.475.475,0,1,1,.937-.158.317.317,0,0,1,0,.158l.277,29.47h0l14.3,19.581-.2-28.242a.475.475,0,1,1,.937-.158.317.317,0,0,1,0,.158l.211,29.5h0l11.883,16.5-.211-28.242a.488.488,0,0,1,.475-.462.462.462,0,0,1,.462.462h0l.211,29.483h0l1.73,2.363Zm3.3,0c4.225-6.43,16.425-27.543,9.137-47.863a91.871,91.871,0,0,0,18.076,9.242v91.685c-6.694-28.1-19.3-44.892-26.975-53.065Zm31.688,47.414V314.009a91.484,91.484,0,0,0,17.283-8.45c-11.632,18.643,1.32,40.178,4.832,45.262a179.343,179.343,0,0,0-22.116,48.8ZM216.6,310.246l-23.515,6.6-11.619,15.844,22.591-6.311a.385.385,0,0,1,.211.739l-23.529,6.6-9.81,13.428,22.591-6.3a.383.383,0,0,1,.462.264.4.4,0,0,1-.264.475l-23.515,6.6-1.241,1.69c-.224-.132-.449-.251-.647-.4l.7-.964h0l.172-23.925a.4.4,0,0,1,.383-.383.383.383,0,0,1,.383.383h0l-.158,22.908,9.81-13.415h0l.172-23.925a.383.383,0,0,1,.383-.383h0a.4.4,0,0,1,.383.383l-.172,22.921,11.606-15.844h0l.172-23.938a.383.383,0,0,1,.753,0h0l-.238,22.816L209.558,293a.383.383,0,0,1,.528-.079.37.37,0,0,1,.092.515h0l-16.333,22.353,22.578-6.272a.383.383,0,0,1,.462.264.356.356,0,0,1-.224.449Z" transform="translate(-41.568 -116.604)"/></g><g transform="translate(176.786 159.43)"><path class="d" d="M348.562,203.481,345.063,193,337.7,182.91l-4.225,11.764,9.652,12.689Z" transform="translate(-83.276 -134.472)"/><path class="e" d="M343.169,208.613,332.91,195.133l4.753-13.283,8.213,11.289,3.644,10.946Zm-8.82-13.705,9.058,11.883,4.516-3.222-3.314-9.916-6.6-9.018Z" transform="translate(-83.455 -134.811)"/><path class="b" d="M398.376,231.076l-29.364,1.03a5.678,5.678,0,0,1-5.281-3.1L346.222,198.49s-5.044,2.72-5.44,3.882,11.7,30.5,16.887,43.571a5.664,5.664,0,0,0,5.545,3.578l32.837-1.32" transform="translate(-80.937 -129.481)"/><path class="e" d="M363.131,250.41a6.351,6.351,0,0,1-5.915-3.961c-1.056-2.641-2.39-5.994-3.855-9.625-11.448-28.559-13.3-33.642-13.045-34.408.423-1.32,4.159-3.393,5.744-4.252l.568-.3,17.825,31.068a5.07,5.07,0,0,0,4.687,2.773l29.364-1.03v1.32l-29.365,1.03a6.417,6.417,0,0,1-5.9-3.459l-17.165-29.919a19.04,19.04,0,0,0-4.516,3.129c.357,2.073,7.922,20.98,12.979,33.563,1.452,3.631,2.8,6.971,3.855,9.625a5,5,0,0,0,4.9,3.169l32.837-1.32v1.32l-32.837,1.32Z" transform="translate(-81.09 -129.683)"/><rect class="e" width="4.978" height="0.99" transform="translate(262.667 75.921) rotate(-22.52)"/><rect class="b" width="277.669" height="209.896" transform="translate(0.662 125.877)"/><path class="e" d="M422.309,452.256H144.64a.66.66,0,0,1-.66-.66V241.66a.66.66,0,0,1,.66-.66H422.309a.687.687,0,0,1,.66.66V451.6A.66.66,0,0,1,422.309,452.256Zm-276.983-1.32H421.676V242.32H145.327Z" transform="translate(-143.979 -115.863)"/><path class="b" d="M144.48,271.944,267.616,151.686a20.98,20.98,0,0,1,26.869-.211L422.149,271.944Z" transform="translate(-143.818 -146.067)"/><path class="e" d="M422.308,272.761H144.639a.647.647,0,0,1-.607-.409.673.673,0,0,1,.145-.726L267.313,151.381a21.641,21.641,0,0,1,27.727-.264L422.731,271.625a.647.647,0,0,1,.158.726A.66.66,0,0,1,422.308,272.761Zm-276.045-1.32H420.645L294.2,152.107a20.281,20.281,0,0,0-25.984.251Z" transform="translate(-143.978 -146.224)"/><rect class="d" width="231.615" height="195.464" transform="translate(23.688 25.689)"/><path class="e" d="M393.7,361.942H162.08a.66.66,0,0,1-.66-.66V165.87a.66.66,0,0,1,.66-.66H393.7a.66.66,0,0,1,.66.66V361.282A.66.66,0,0,1,393.7,361.942Zm-230.955-1.32h230.3V166.53H162.74Z" transform="translate(-138.392 -140.142)"/><path class="b" d="M381.027,346.362H169.772a.5.5,0,0,1-.5-.5h0V175.179a.5.5,0,0,1,.5-.489H381.027a.515.515,0,0,1,.489.489V345.86a.5.5,0,0,1-.489.5Zm-210.794-.937H380.526V175.68H170.234Z" transform="translate(-135.877 -137.105)"/><path class="b" d="M372.855,340.6H175.04a1.32,1.32,0,0,1-1.32-1.32V179.52a1.32,1.32,0,0,1,1.32-1.32H372.855a1.32,1.32,0,0,1,1.32,1.32V339.282A1.32,1.32,0,0,1,372.855,340.6Zm-196.494-2.641H371.534V180.841H176.361Z" transform="translate(-134.452 -135.981)"/><path class="b" d="M252.29,221.815c.977,1.545,1.994,2.324,3.05,2.324v.119c-.687,0-1.584.607-2.641,1.822,0,.33-.119.489-.37.489,0-.621-.4-1.149-1.215-1.584a5.176,5.176,0,0,0-2.561-.489H221.341l-2.561.977-.37.37h-.2a1.888,1.888,0,0,1-.555-2.641,1.848,1.848,0,0,1,.555-.555h.238a6.061,6.061,0,0,0,2.641,1.1l.251.251h28.031C251.313,223.65,252.29,222.977,252.29,221.815Zm4.4-.845c1.069,0,1.928.766,2.548,2.311v.251h-.356c-1.716-.555-2.561-1.2-2.561-1.954v-.251Zm2.06,3.961H259l.238.251c0,.673-.687,1.439-2.073,2.311h-.119c-.423,0-.673-.119-.726-.356v-.489a4.159,4.159,0,0,1,2.429-1.677Zm4.634-3.961.251.357v.251c0,.568-.739,1.215-2.192,1.954H260.7v-.251c0-.673.647-1.4,1.954-2.192Zm-2.429,3.961a2.786,2.786,0,0,1,1.584.621c.726.423,1.1.871,1.1,1.32v.251c-.079.238-.33.356-.739.356h-.119a4.529,4.529,0,0,1-1.822-1.7l-.251-.37v-.238Zm6.694-3.169c0,1.162.977,1.888,2.931,2.2h28.031a3.129,3.129,0,0,1,1.822-.621l1.1-.726h.251a1.9,1.9,0,0,1,0,3.169h-.251a8.609,8.609,0,0,0-3.169-1.32H271.422c-1.981,0-3.248.581-3.776,1.716v.356c-1.017-1.32-1.862-2.073-2.561-2.073q0-.238-.475-.238c0-.158.277-.238.845-.238a3.961,3.961,0,0,0,2.073-2.2Z" transform="translate(-120.478 -122.279)"/><path class="b" d="M144.48,242.47,283.315,347.411,422.136,242.47V452.352H144.48Z" transform="translate(-143.818 -115.392)"/><path class="e" d="M422.309,453.2H144.64a.66.66,0,0,1-.66-.66V242.6a.713.713,0,0,1,1.056-.581L283.475,346.659,421.9,242.034a.66.66,0,0,1,.924.106.673.673,0,0,1,.145.409V452.485a.66.66,0,0,1-.594.726ZM145.3,451.877H421.649v-207.9L283.871,348.124a.673.673,0,0,1-.792,0L145.327,243.975Z" transform="translate(-143.979 -115.577)"/><path class="b" d="M144.48,430.431,264.011,310.9H302.6L422.136,430.431Z" transform="translate(-143.818 -93.47)"/><path class="e" d="M422.31,431.251H144.64a.673.673,0,0,1-.607-.4.647.647,0,0,1,.145-.726L263.709,310.6a.621.621,0,0,1,.462-.2h38.594a.62.62,0,0,1,.462.2L422.772,430.129a.7.7,0,0,1,.145.726.673.673,0,0,1-.607.4Zm-276.072-1.32H420.712L302.448,311.72h-38Z" transform="translate(-143.979 -93.631)"/><path class="d" d="M378.593,214.581l-.383,11.131,13.27-2.113.462-19.409Z" transform="translate(-68.944 -127.655)"/><path class="e" d="M377.69,226.824l.409-12.24,14.709-11.434-.515,21.35Zm1.716-11.579-.343,10.021,11.883-1.9.409-17.468Z" transform="translate(-69.11 -127.988)"/><path class="d" d="M376.953,401.72a18.71,18.71,0,0,1-.673-2.377l-.753-5.585-9.771-1.558L357.61,398l-5.176,2.852h-.106a19.923,19.923,0,0,0-3.631,1.928c-.858.753-.436,1.6,2.139,1.6h25.588S377.666,403.647,376.953,401.72Z" transform="translate(-78.527 -67.426)"/><path class="e" d="M376.725,405.2h-25.76c-1.783,0-2.839-.4-3.129-1.175a1.4,1.4,0,0,1,.555-1.584,19.963,19.963,0,0,1,3.816-2.033h.145l5.07-2.786,8.305-5.915,10.563,1.69.805,6.06a21.583,21.583,0,0,0,.647,2.231h0a2.733,2.733,0,0,1-.819,3.486Zm-27.635-1.571a5.283,5.283,0,0,0,1.875.251h25.364c.2-.2.541-.726.145-1.769h0a19.589,19.589,0,0,1-.713-2.469l-.687-5.149-9.018-1.452-7.922,5.651-5.453,2.958a18.59,18.59,0,0,0-3.406,1.783.62.62,0,0,0-.172.2Z" transform="translate(-78.695 -67.583)"/><path class="d" d="M377.121,400H349.1a2.634,2.634,0,0,0-.436.33c-.858.753-.436,1.6,2.139,1.6H376.4A1.875,1.875,0,0,0,377.121,400Z" transform="translate(-78.537 -64.927)"/><path class="e" d="M376.725,402.718h-25.76c-1.783,0-2.839-.4-3.129-1.175a1.4,1.4,0,0,1,.555-1.584,3.638,3.638,0,0,1,.515-.37l.158-.119h28.784l.092.568a2.535,2.535,0,0,1-1.056,2.641Zm-27.635-1.571a5.281,5.281,0,0,0,1.875.251h25.351a1.162,1.162,0,0,0,.3-.607H349.46l-.2.158a.621.621,0,0,0-.172.2Z" transform="translate(-78.695 -65.097)"/><path class="d" d="M409.606,401.72a21.229,21.229,0,0,1-.687-2.377l-.739-5.585-9.771-1.558-8.147,5.8-5.176,2.852h-.106a20.042,20.042,0,0,0-3.644,1.928c-.858.753-.423,1.6,2.139,1.6h25.588S410.345,403.647,409.606,401.72Z" transform="translate(-68.07 -67.426)"/><path class="e" d="M409.408,405.2H383.635c-1.783,0-2.826-.4-3.129-1.175a1.4,1.4,0,0,1,.555-1.584,19.962,19.962,0,0,1,3.816-2.033h.158l5.057-2.786,8.318-5.915,10.563,1.69.805,6.06a21.549,21.549,0,0,0,.634,2.231,2.707,2.707,0,0,1-.819,3.486Zm-27.635-1.571a4.927,4.927,0,0,0,1.862.251H409c.2-.2.555-.726.145-1.769h0a22.826,22.826,0,0,1-.7-2.469l-.7-5.149-9.018-1.452-7.922,5.651-5.453,2.958a18.59,18.59,0,0,0-3.406,1.783.843.843,0,0,0-.172.2Z" transform="translate(-68.229 -67.583)"/><path class="d" d="M409.8,400H381.786a3.57,3.57,0,0,0-.449.33c-.858.753-.423,1.6,2.139,1.6h25.588A1.888,1.888,0,0,0,409.8,400Z" transform="translate(-68.07 -64.927)"/><path class="e" d="M409.408,402.718H383.635c-1.783,0-2.826-.4-3.129-1.175a1.4,1.4,0,0,1,.555-1.584,3.642,3.642,0,0,1,.515-.37l.172-.119h28.784l.079.568a2.522,2.522,0,0,1-1.043,2.641Zm-27.635-1.571a4.926,4.926,0,0,0,1.862.251H409a1.2,1.2,0,0,0,.3-.607h-27.16l-.211.158a.844.844,0,0,0-.172.2Z" transform="translate(-68.229 -65.097)"/><path class="b" d="M369.446,275.53l-1.175,14.524s-8.12,57.778-7.737,64.42,1.32,75.167,1.32,75.167l9.771,1.558,10.985-76.012,15.422-77.24Z" transform="translate(-74.611 -104.801)"/><path class="e" d="M372.293,432.125,361.308,430.3v-.555c0-.687-.871-68.566-1.254-75.128s7.407-62.188,7.737-64.552l1.215-15.078,29.932,2.456-.145.726-15.435,77.254Zm-9.665-2.944,8.556,1.32,10.88-75.352,15.29-76.58-27.133-2.245-1.122,13.8c-.079.621-8.107,57.831-7.737,64.327S362.522,422.631,362.628,429.18Z" transform="translate(-74.764 -104.974)"/><path class="e" d="M366.911,415.338l-.911-.145c0-.211,4.225-21.72,4.225-33.3s0-22.644,2.826-33.524c2.786-10.668,6.6-32.665,6.6-32.89l.977.172c0,.224-3.8,22.248-6.6,33.009s-2.746,21.641-2.746,33.273S366.951,415.193,366.911,415.338Z" transform="translate(-72.855 -92.003)"/><path class="b" d="M386.17,273.714c6.456-3.367,13.388-5.625,15.342-1.122,3.961,8.992-.779,22.67-.779,22.67l3.525,63.033,7.011,74.626-11.025-.106S386,368.594,383.661,364.686s-6.047-58.874-6.047-58.874l-7.394-6.787" transform="translate(-71.503 -106.55)"/><path class="e" d="M412.157,433.766l-12.279-.119-.119-.515c-4.912-22.169-14.7-64.908-16.5-67.932-2.324-3.869-5.664-52.127-6.113-58.9l-7.262-6.6.885-.977,7.658,6.932v.264c1.479,22.037,4.291,55.811,5.955,58.584,2.284,3.816,15.092,61.3,16.544,67.813l9.771.092-6.945-73.939-3.591-63.218v-.132c0-.132,4.555-13.547.792-22.182a3.156,3.156,0,0,0-1.954-1.848c-2.4-.858-6.721.29-12.477,3.288l-.607-1.175c6.166-3.222,10.721-4.344,13.534-3.354a4.463,4.463,0,0,1,2.72,2.561c3.8,8.767-.224,21.535-.726,23.014l3.578,62.915Z" transform="translate(-71.612 -106.734)"/><path class="e" d="M400.886,416.886c0-.264-2.865-27-7.051-46.041-3.169-14.431-2.931-15.3-2.641-16.61a5.821,5.821,0,0,0,.225-1.849v-2.641c.079-4.489.2-11.276-.951-15.065-1.756-5.876-2.641-14.26-2.878-25.641h.99c.172,11.289,1.109,19.581,2.839,25.377,1.188,3.961,1.069,10.814.99,15.356v2.641a7.131,7.131,0,0,1-.251,2.113c-.29,1.083-.528,1.928,2.641,16.135,4.2,19.092,7.037,45.882,7.077,46.212Z" transform="translate(-65.939 -94.066)"/><path class="e" d="M388.63,309.6h-.99v-3.459c.4-18.683.119-20.756,0-20.98l.449-.172-.449-.224.568-.264c.5.119.832.2.37,21.667C388.657,307.342,388.643,308.491,388.63,309.6Z" transform="translate(-65.923 -101.928)"/><path class="e" d="M372.677,296.2a.541.541,0,0,1-.383-.172l-2.284-2.641a.449.449,0,0,1-.092-.475l1.505-4.529.3-6.6a.489.489,0,0,1,.515-.475.5.5,0,0,1,.475.5h0l-.317,6.6a.279.279,0,0,1,0,.145l-1.439,4.318,2.113,2.469a.488.488,0,0,1,0,.687h0A.5.5,0,0,1,372.677,296.2Z" transform="translate(-71.61 -102.95)"/><path class="e" d="M379.667,288.188c-7.381,0-10.378-2.9-10.563-3.05a.475.475,0,0,1,0-.673h0a.489.489,0,0,1,.687,0s3.829,3.644,13.375,2.535a.475.475,0,0,1,.541.409h0a.488.488,0,0,1-.409.555h0a30.06,30.06,0,0,1-3.631.224Z" transform="translate(-71.906 -101.984)"/><path class="e" d="M393.641,286.062c7.447-1.452,7.922-3.552,10.47-5.281a21.494,21.494,0,0,0-1.545-8.2c-1.954-4.5-8.886-2.245-15.342,1.122l-3.037,4.951-16.729-1.32-.528,6.6a55.877,55.877,0,0,0,26.711,2.126Z" transform="translate(-72.557 -106.553)"/><path class="d" d="M368.578,278.97l-.158,2.614,4.252.977.317-3.42Z" transform="translate(-72.08 -103.699)"/><path class="e" d="M373.262,283.307l-5.2-1.2.211-3.525,5.413.211Zm-4.172-1.981,3.288.753.224-2.337-3.393-.132Z" transform="translate(-72.195 -103.824)"/><path class="b" d="M391.166,283.649l-.726-6.483,2.165-.726,1.083,5.77" transform="translate(-65.026 -104.51)"/><path class="e" d="M390.679,283.94l-.779-7.024,3.38-1.136,1.228,6.523-1.294.238-.951-5.017-.937.3.66,5.968Z" transform="translate(-65.199 -104.721)"/><path class="b" d="M378.772,285.389l-1.452-7.579h3.6l1.452,6.5" transform="translate(-69.229 -104.071)"/><path class="e" d="M378.3,285.668l-1.584-8.358h4.938l1.558,7.011-1.294.277-1.334-5.968h-2.271l1.294,6.787Z" transform="translate(-69.421 -104.231)"/><path class="d" d="M378.661,221.287s-7.011,7.922-9.81,11.21-2.8,38.29-2.8,43.453-2.8,19.132,1.875,21.931,33.167,1.875,35.966-2.8,4.661-60.736,4.2-65.846-4.687-9.242-7.922-10.748S378.661,221.287,378.661,221.287Z" transform="translate(-73.105 -123.177)"/><path class="e" d="M380.777,300.258c-5.611,0-11.038-.475-13.032-1.664-3.961-2.363-3.116-11.236-2.522-17.719.172-1.941.33-3.6.33-4.78,0-15.1.383-40.931,2.958-43.875,2.773-3.235,9.744-11.144,9.823-11.223l.132-.158h.211c1.888-.449,18.485-4.318,21.9-2.76,3.789,1.743,7.856,6.166,8.331,11.276s-1.413,61.462-4.291,66.242c-1.954,3.274-13.111,4.251-17.811,4.529C384.9,300.2,382.811,300.258,380.777,300.258Zm-1.6-78.2c-1,1.136-7.117,8.081-9.665,11.051-1.624,1.9-2.641,18.379-2.641,43.017,0,1.241-.158,2.931-.33,4.9-.528,5.783-1.32,14.524,1.888,16.465,2.047,1.228,9.916,1.8,18.3,1.32,8.939-.515,15.673-2.073,16.755-3.882,2.641-4.463,4.568-60.38,4.106-65.45s-4.78-8.926-7.566-10.206C397.823,218.211,386.428,220.337,379.18,222.053Z" transform="translate(-73.267 -123.323)"/><g class="f" transform="translate(292.115 94.991)"><path class="b" d="M398.961,218.474a3.459,3.459,0,0,0-1.215-.264l-2.02,1.056s5.6,4.331,6.6,10.946a58.093,58.093,0,0,1-.251,18.828c-1.017,6.879-17.31,0-14.247,2.548s14.524,6.879,15.012,9.163-5.6,6.113-7.922,6.364,1.532,5.347,3.829,9.678,1.518,10.431-3.829,14.524-17.587,6.153-22.895,6.364c-1.73.066-2.812.449-3.116.964,8.147,1.809,31.253.634,33.761-3.552,2.812-4.674,4.661-60.736,4.2-65.846S402.222,219.979,398.961,218.474Z" transform="translate(-364.038 -218.155)"/></g><path class="d" d="M389.691,249.629c-7.526-2.35-14.1-8.939-14.1-8.939a31.754,31.754,0,0,0,12.7,19.29" transform="translate(-69.783 -115.962)"/><path class="e" d="M388.412,260.589a.449.449,0,0,1-.29-.092,32.572,32.572,0,0,1-12.9-19.607.5.5,0,0,1,.832-.436c0,.066,6.6,6.6,13.916,8.82a.5.5,0,0,1,.317.621.476.476,0,0,1-.607.33h0a38.9,38.9,0,0,1-13.111-7.922,31.689,31.689,0,0,0,12.121,17.4.475.475,0,0,1,.119.673h0A.475.475,0,0,1,388.412,260.589Z" transform="translate(-69.903 -116.082)"/><path class="d" d="M396.389,214.52l-22.419,5.136-1.4,6.536,25.219-6.536Z" transform="translate(-70.75 -124.346)"/><path class="e" d="M371.91,227.3l1.716-8,23.489-5.374,1.743,6.4Zm2.826-6.892-1.083,5.083,23.542-6.113-1.056-3.882Z" transform="translate(-70.962 -124.538)"/><path class="d" d="M343.517,192.848l-6.034-3.486s-2.337-.3-1.32,2.324l6.021,4.648" transform="translate(-82.496 -132.408)"/><path class="e" d="M342.334,197.176a.621.621,0,0,1-.4-.132l-6.034-4.661a.621.621,0,0,1-.211-.277,2.535,2.535,0,0,1,.079-2.522,2.3,2.3,0,0,1,1.954-.7.792.792,0,0,1,.251.079l6.034,3.5a.66.66,0,1,1-.541,1.2l-.119-.066-5.836-3.406a.911.911,0,0,0-.66.2c-.132.172-.106.568.066,1.069L342.8,196a.647.647,0,0,1,.132.911h0a.7.7,0,0,1-.594.264Z" transform="translate(-82.659 -132.564)"/><path class="d" d="M344.8,201.573a5.851,5.851,0,0,0-1.228-1.941l-1.122-1.215h0l-6.126-7.592s-1.9-1.32-1.479,1.479l3.8,7.381-6.76-6.324s-1.32-1.056-1.32.409S336.7,201.8,336.7,201.8l-6.76-3.169s-1.479,1.056-.423,2.113,6.76,3.169,6.76,3.169l-5.07-.211s-1.479,1.32-.423,1.69,6.971,1.69,6.971,1.69a8.57,8.57,0,0,0,2.535,1.479l1.479,2.746,5.678-2.852Z" transform="translate(-84.666 -132.036)"/><path class="e" d="M341.961,212.073a.673.673,0,0,1-.581-.343l-1.32-2.535a8.689,8.689,0,0,1-2.416-1.4c-1.188-.264-5.862-1.32-6.866-1.677a1.215,1.215,0,0,1-.779-.9c-.132-.845.753-1.677,1.017-1.914a.726.726,0,0,1,.462-.158h1.241a14.143,14.143,0,0,1-3.42-1.875,1.743,1.743,0,0,1-.568-1.426,2.64,2.64,0,0,1,1.069-1.69.634.634,0,0,1,.66-.066l3.789,1.782c-1.941-2.231-4.093-4.938-4.093-6.047a1.32,1.32,0,0,1,.673-1.32,1.743,1.743,0,0,1,1.677.423l3.961,3.75-2.06-3.961a.5.5,0,0,1,0-.2c0-.436-.264-1.782.594-2.337a1.862,1.862,0,0,1,1.914.211.685.685,0,0,1,.145.132l6.126,7.605a.846.846,0,0,1,.106.185l.964,1.043a6.748,6.748,0,0,1,1.32,2.139l2.707,6.826a.647.647,0,0,1-.317.832l-5.678,2.865a.911.911,0,0,1-.33.053Zm-10.655-7.156c1.1.383,5.215,1.32,6.773,1.624a.647.647,0,0,1,.409.277,7.724,7.724,0,0,0,2.231,1.241.674.674,0,0,1,.343.29l1.175,2.192,4.568-2.3-2.5-6.272h0a5.915,5.915,0,0,0-1.1-1.73l-1.135-1.215a.739.739,0,0,1-.145-.264l-5.915-7.328a1.518,1.518,0,0,0-.409-.145,2.643,2.643,0,0,0,0,.911l3.75,7.3a.674.674,0,0,1-1.03.819l-6.76-6.338-.158-.106h0c0,.819,3.129,4.568,5.942,7.579a.66.66,0,0,1,0,.937.634.634,0,0,1-.726.119l-6.364-2.984a.99.99,0,0,0-.264.489.594.594,0,0,0,.185.37,32.1,32.1,0,0,0,6.523,3.01.673.673,0,0,1,.422.753.66.66,0,0,1-.673.528l-4.793-.2A2.1,2.1,0,0,0,331.306,204.917Z" transform="translate(-84.796 -132.197)"/><path class="d" d="M406.88,247.549l-43.268,10.325a7.618,7.618,0,0,1-8.411-4.74L338.75,206.922l5.677-2.852,18.7,30.5a5.281,5.281,0,0,0,5.7,2.641l25.892-7.328" transform="translate(-81.585 -127.693)"/><path class="e" d="M362.53,258.779a8.305,8.305,0,0,1-7.737-5.281L338.13,206.823l6.734-3.393,19.026,31.028a4.608,4.608,0,0,0,5,2.377l25.839-7.341.357,1.32L369.2,238.142a5.968,5.968,0,0,1-6.457-3.01l-18.366-29.959-4.608,2.324,16.253,45.539a6.958,6.958,0,0,0,7.671,4.318l43.228-10.325.3,1.32-43.255,10.338A8.785,8.785,0,0,1,362.53,258.779Z" transform="translate(-81.783 -127.898)"/><g class="g" transform="translate(257.166 76.376)"><path class="b" d="M343.35,220.17s13.481,25.443,18.577,27.226,15.778-2.033,15.778-2.033-14.761-1.32-9.678-1.783,10.946.766,20.624-1.518,14.524-6.6,11.962-2.3-16.808,7.13-21.891,8.912-16.293,4.582-19.594,4.067a7.091,7.091,0,0,1-4.846-3.816Z" transform="translate(-337.277 -198.912)"/></g><rect class="e" width="7.368" height="0.99" transform="translate(259.218 84.826) rotate(-26.6)"/><path class="d" d="M400.549,202.354a2.865,2.865,0,0,1,3.05,1.6,4.938,4.938,0,0,1-.2,4.714c-2.06,3.618-6.958,4.9-6.958,4.9s-4.648,6.707-9.242,8.516-12.068,2.218-14.194-7.222c-.924-4.146,1.809-21.126,1.809-21.126a9.374,9.374,0,0,1,3.222-6.47c3.063-2.337,10.193-2.773,14.273-1.466s6.6,5.1,7.724,8.015a17.442,17.442,0,0,1,.871,6.694l-.436,1.9Z" transform="translate(-70.672 -133.78)"/><path class="e" d="M382.155,223.935a9.506,9.506,0,0,1-4.542-1.069c-2.562-1.32-4.291-3.961-5.123-7.7-.951-4.225,1.677-20.7,1.8-21.4a9.837,9.837,0,0,1,3.473-6.892c3.3-2.509,10.708-2.9,14.88-1.558,4.938,1.584,7.328,6.39,8.12,8.384a17.971,17.971,0,0,1,.924,7l-.251,1.149a3.486,3.486,0,0,1,2.931,1.994,5.585,5.585,0,0,1-.211,5.281c-1.941,3.38-6.087,4.819-7.143,5.149-.819,1.149-5.07,6.853-9.454,8.556a15.46,15.46,0,0,1-5.4,1.109Zm4.833-38.066c-3.208,0-6.6.66-8.424,2.047a8.728,8.728,0,0,0-2.971,5.981c0,.238-2.72,17.006-1.822,20.98.753,3.354,2.258,5.651,4.463,6.826,3.3,1.756,7.288.541,8.846-.066,4.4-1.716,8.939-8.213,8.992-8.279l.132-.2.238-.066s4.661-1.32,6.6-4.595a4.212,4.212,0,0,0,.172-4.106,2.231,2.231,0,0,0-2.363-1.215l-1.083.172.66-2.852h0a17.27,17.27,0,0,0-.845-6.3c-.739-1.822-2.9-6.219-7.315-7.632a17.455,17.455,0,0,0-5.281-.7Z" transform="translate(-70.842 -133.945)"/><path class="e" d="M382.245,198.409c-.158.673,0,1.32.317,1.32s.739-.4.9-1.069,0-1.32-.317-1.32S382.4,197.736,382.245,198.409Z" transform="translate(-67.671 -129.849)"/><path class="e" d="M376.815,197.386c-.158.66,0,1.32.317,1.32s.739-.4.9-1.056,0-1.32-.317-1.32S376.973,196.713,376.815,197.386Z" transform="translate(-69.41 -130.173)"/><path class="e" d="M386.72,197.205a.555.555,0,0,1-.5-.317,4.278,4.278,0,0,0-3.459-2.113.568.568,0,0,1-.528-.607h0a.594.594,0,0,1,.621-.528,5.387,5.387,0,0,1,4.384,2.746.555.555,0,0,1-.224.753h0a.541.541,0,0,1-.29.066Z" transform="translate(-67.656 -131.035)"/><path class="e" d="M375.59,195.718a.581.581,0,0,1-.409-.172.568.568,0,0,1,0-.805h0a4.08,4.08,0,0,1,4.621-.871.568.568,0,0,1,.211.779.555.555,0,0,1-.713.238h0a3,3,0,0,0-3.341.673.555.555,0,0,1-.37.158Z" transform="translate(-69.968 -131.079)"/><path class="e" d="M379.647,204.724h0a2.39,2.39,0,0,1-2.205-1.624c-.224-.885.37-1.505.9-2.047a2.852,2.852,0,0,0,.9-1.32c.277-1.32.621-3.75.621-3.763a.573.573,0,0,1,1.135.158h0c0,.106-.356,2.429-.647,3.829a3.763,3.763,0,0,1-1.188,1.888c-.462.475-.673.713-.621.951.172.673,1.188.766,1.188.779a.568.568,0,0,1,.528.607h0a.568.568,0,0,1-.594.541Z" transform="translate(-69.205 -130.446)"/><path class="e" d="M381.79,206.435a5.625,5.625,0,0,1-1.624-.238.568.568,0,0,1-.37-.713h0a.581.581,0,0,1,.726-.37,3.75,3.75,0,0,0,3.076-.357.57.57,0,0,1,.687.911,4.2,4.2,0,0,1-2.5.766Z" transform="translate(-68.444 -127.51)"/><path class="e" d="M398.182,183.812s-5.677-4.912-11.1-4.912-9.8,3.1-13.2,3.354-5.677-2.839-7.75,1.32,5.677,11.091,10.84,12.134,12.385-.515,14.458-.779a40.394,40.394,0,0,1,5.928,0s-1.545,4.9,0,6.456a4.754,4.754,0,0,1,1.809,3.6,24.228,24.228,0,0,0,.515,3.354l1.545.515L402,206.02a16.412,16.412,0,0,0,4.119-8c.779-4.634-3.09-9.242-3.09-9.242Z" transform="translate(-72.926 -135.756)"/><path class="d" d="M379.922,193.21a38.65,38.65,0,0,1-6.053-.476.277.277,0,0,1-.219-.316h0a.264.264,0,0,1,.3-.238h0c.079,0,8.82,1.624,15.567-1.175,1.835-.753,2.878-1.769,3.116-3.037.462-2.429-2.218-5.044-2.245-5.07a.277.277,0,0,1,0-.409.3.3,0,0,1,.409,0c.119.106,2.931,2.852,2.4,5.585a4.938,4.938,0,0,1-3.446,3.459,26.472,26.472,0,0,1-9.837,1.677Z" transform="translate(-70.405 -134.632)"/><path class="d" d="M389.535,194.042a.285.285,0,0,1-.04-.568c.092,0,2.231-.277,3.341-3.38a3.75,3.75,0,0,0-.66-3.2,12.676,12.676,0,0,0-4.555-4.291.29.29,0,0,1-.29-.29h0a.277.277,0,0,1,.277-.277h0c.607,0,3.182,1.875,4.714,4.053a4.608,4.608,0,0,1,1.043,4.185c-1.241,3.473-3.71,3.763-3.816,3.763Z" transform="translate(-66.022 -134.751)"/><text class="h" transform="translate(79.42 85.9)"><tspan x="0" y="0">INVI</tspan></text><text class="i" transform="translate(122.913 85.9)"><tspan x="0" y="0">T</tspan><tspan class="j" y="0">A</tspan></text><text class="h" transform="translate(147.26 85.9)"><tspan x="0" y="0">TION</tspan></text></g></g></svg>