<svg id="Layer_1" data-name="Layer 1" xmlns="http://www.w3.org/2000/svg" viewBox="0 0 313.83 120"><defs><style>.cls-1{fill:#427af3;}.cls-2{fill:#3e76f7;}.cls-3{fill:#fefefe;}.cls-4{fill:#fff;}</style></defs><rect class="cls-1" x="127" y="55.74" width="177.52" height="28.43"/><path class="cls-2" d="M62,117.58c-7.4,0-14.8,0-22.19,0a8.74,8.74,0,0,1-7.32-3.54c-4.32-5.47-8.72-10.88-13.09-16.31L5.89,80.94c-.6-.76-1.25-1.49-1.8-2.28A8.09,8.09,0,0,1,3,71.85C4.4,65.67,5.8,59.48,7.22,53.29Q9.11,45.13,11,37c.68-3,1.34-5.92,2-8.87a7.77,7.77,0,0,1,4.42-5.45L29.28,17,54.38,5l4.24-2a7.82,7.82,0,0,1,7,0L88.22,13.75c6.25,3,12.51,5.95,18.75,9a7.79,7.79,0,0,1,4.3,5.59Q113.64,38.68,116,49c1.81,7.83,3.63,15.66,5.4,23.49A7.36,7.36,0,0,1,119.91,79c-4,5-8,10-12.06,15L95.67,109.15c-1.58,2-3.13,4-4.79,5.88a7.48,7.48,0,0,1-5.09,2.5,14.93,14.93,0,0,1-1.5,0Zm.1-5.06H85.93a.78.78,0,0,0,.7-.33q2.93-3.67,5.87-7.32,5.82-7.26,11.65-14.49l12.26-15.25a.52.52,0,0,0,.11-.49q-.9-3.83-1.77-7.65-2.19-9.51-4.37-19-2.26-9.81-4.52-19.61a.58.58,0,0,0-.35-.44L84.4,17.85q-11-5.24-21.91-10.47a.81.81,0,0,0-.77,0l-19.6,9.37L18.76,27.92a.62.62,0,0,0-.39.48c-.47,2.09-.95,4.17-1.43,6.26Q15.52,40.8,14.1,46.94q-1.59,6.93-3.17,13.85L7.72,74.73a.42.42,0,0,0,.09.39l5.28,6.56q4.59,5.7,9.19,11.41l7.86,9.79q3.77,4.66,7.51,9.34a.72.72,0,0,0,.64.31Z"/><path class="cls-3" d="M62.11,112.52H38.29a.72.72,0,0,1-.64-.31q-3.75-4.68-7.51-9.34l-7.86-9.79q-4.61-5.7-9.19-11.41L7.81,75.12a.42.42,0,0,1-.09-.39l3.21-13.94q1.59-6.93,3.17-13.85,1.43-6.13,2.84-12.28c.48-2.09,1-4.17,1.43-6.26a.62.62,0,0,1,.39-.48L42.12,16.76l19.6-9.37a.81.81,0,0,1,.77,0q11,5.25,21.91,10.47l21.11,10.07a.58.58,0,0,1,.35.44q2.25,9.81,4.52,19.61,2.19,9.51,4.37,19,.87,3.82,1.77,7.65a.52.52,0,0,1-.11.49L104.15,90.39q-5.82,7.24-11.65,14.49-2.94,3.65-5.87,7.32a.78.78,0,0,1-.7.33Zm0-1.73H85.17a.71.71,0,0,0,.61-.3l5.89-7.34q3.9-4.86,7.81-9.7l9.45-11.77q2.77-3.47,5.57-6.92a.57.57,0,0,0,.16-.51l-3.24-14-3.63-15.79-3.42-14.88a.61.61,0,0,0-.36-.46l-10.2-4.86-20.9-10-10.52-5a.52.52,0,0,0-.5,0L41.66,18.9l-15.6,7.45c-1.92.92-3.83,1.84-5.75,2.74a.76.76,0,0,0-.47.58c-.21,1-.45,2-.69,3.08q-1.38,6-2.78,12.06Q14.69,52.15,13,59.5T9.61,74.18a.62.62,0,0,0,.14.6c1.31,1.61,2.6,3.23,3.9,4.84L26.26,95.31q6.14,7.6,12.25,15.22a.6.6,0,0,0,.55.26Z"/><path class="cls-1" d="M62.11,92.88H93.75c.33,0,.43-.06.43-.41q0-10,0-20c0-.33-.09-.41-.42-.41q-31.65,0-63.29,0c-.31,0-.4.06-.4.39q0,10,0,20c0,.49-.05.43.43.43Zm-.82-70c0,.28-.19.62-.28,1-.14.52-.43.51-.79.56a1.79,1.79,0,0,0-.23,0,14.19,14.19,0,0,0-7.94,4c-.2.19-.36.41-.63.11a.18.18,0,0,0-.16,0,1,1,0,0,1-.95-.38c-.3-.25-.57-.53-.86-.8a10.57,10.57,0,0,0-1.31-1.28,1.17,1.17,0,0,0-1.57.18,1.19,1.19,0,0,0,.2,1.57,3.34,3.34,0,0,0,.76.53,14.13,14.13,0,0,1,1.91,1.23.89.89,0,0,1,.38.6.55.55,0,0,0,.23.39c.14.09.12.19,0,.33-.27.43-.53.87-.76,1.33a14.29,14.29,0,0,0-1.4,8.19c0,.12,0,.22-.12.24a.74.74,0,0,0-.52.37.86.86,0,0,1-.52.28,12.71,12.71,0,0,1-2.21.27,3.3,3.3,0,0,0-1,.19A1.15,1.15,0,0,0,42.74,43a1.16,1.16,0,0,0,1.47.89c.8-.17,1.51-.59,2.3-.79.49-.13,1-.38,1.49,0a.21.21,0,0,0,.2,0c.24-.08.35,0,.43.26a12.61,12.61,0,0,0,1.13,2.48,14.33,14.33,0,0,0,4.81,4.95c.17.11.33.2.18.44a.43.43,0,0,0,0,.44.64.64,0,0,1,0,.54A11.32,11.32,0,0,1,53.59,54,5,5,0,0,0,53,55.08a1.17,1.17,0,0,0,.5,1.45A1.14,1.14,0,0,0,55,56.07,4.23,4.23,0,0,0,55.4,55a14,14,0,0,1,.71-2,.89.89,0,0,1,.61-.57.29.29,0,0,0,.2-.2c.09-.27.24-.24.46-.16a14,14,0,0,0,9.47,0c.24-.08.43-.13.52.17a.3.3,0,0,0,.23.18.76.76,0,0,1,.5.46,11.25,11.25,0,0,1,.73,2A4.47,4.47,0,0,0,69.29,56a1.16,1.16,0,0,0,1.43.51,1.13,1.13,0,0,0,.58-1.38,3.41,3.41,0,0,0-.55-1,15,15,0,0,1-1-1.58,1.17,1.17,0,0,1-.19-1.1.22.22,0,0,0,0-.19c-.17-.26,0-.37.19-.51a14.18,14.18,0,0,0,5.86-7.3c.1-.28.16-.56.57-.43a.17.17,0,0,0,.15,0,1,1,0,0,1,1-.07c.36.1.72.22,1.08.34a11.23,11.23,0,0,0,1.83.61,1.12,1.12,0,0,0,1.24-1.45,1.26,1.26,0,0,0-1-.79c-.65-.09-1.31-.12-2-.21s-1.32,0-1.72-.69a.37.37,0,0,0-.21-.09c-.23,0-.23-.16-.21-.33a13,13,0,0,0,0-3.35,14.12,14.12,0,0,0-2.08-5.89c-.15-.24-.29-.44,0-.64a.24.24,0,0,0,.1-.23,1,1,0,0,1,.46-.7l1-.7a13.93,13.93,0,0,0,1.55-1,1.22,1.22,0,0,0,.42-1.26,1,1,0,0,0-.86-.73,1.39,1.39,0,0,0-1.23.47c-.43.43-.83.9-1.28,1.31s-.82,1-1.56.87a.15.15,0,0,0-.09,0c-.29.32-.5.16-.71-.1a4,4,0,0,0-.36-.35,14.51,14.51,0,0,0-8.16-3.69c-.09,0-.26.05-.25-.13a.79.79,0,0,0-.27-.64A.59.59,0,0,1,63,23.2a11,11,0,0,1,.1-1.52,10.23,10.23,0,0,0,.18-1.83,1.17,1.17,0,0,0-.92-1.08,1.09,1.09,0,0,0-1.23.79,2.36,2.36,0,0,0,0,1.12A14.37,14.37,0,0,1,61.29,22.9ZM44.39,64.79c0,1.39,0,2.78,0,4.17,0,.28.06.41.36.47a9.75,9.75,0,0,0,2.58.26,3,3,0,0,0,2.89-2.86,4.14,4.14,0,0,0-.6-2.87,2.63,2.63,0,0,0-3.1-.88c-.29.1-.33,0-.33-.24,0-.86,0-1.72,0-2.57,0-.15,0-.31-.22-.26-.43.08-.87.17-1.31.22-.23,0-.28.14-.28.35C44.39,62,44.39,63.39,44.39,64.79Zm-7.88-1.73a9,9,0,0,1-1,0,1.54,1.54,0,0,0-1.77.81,1.89,1.89,0,0,1-.25.31l-1,1.18v-5.1c0-.14,0-.3-.22-.25-.43.08-.87.16-1.31.22-.22,0-.28.12-.28.35,0,.79,0,1.58,0,2.37q0,3.14,0,6.28c0,.26.08.34.34.33a7.1,7.1,0,0,1,1.13,0c.29,0,.35-.09.34-.36,0-.71,0-1.42,0-2.14a.34.34,0,0,1,.1-.33,3.81,3.81,0,0,0,.24.32,12,12,0,0,1,1.59,2.22.52.52,0,0,0,.53.29c.47,0,.94,0,1.4,0,.25,0,.32,0,.18-.28a14.71,14.71,0,0,0-2.28-3.15c-.17-.18-.18-.27,0-.44C35,64.87,35.72,64,36.51,63.06Zm18.64,3.87h1.73c.18,0,.28,0,.29-.23A4.07,4.07,0,0,0,56.63,64a2.92,2.92,0,0,0-4.75.16,4,4,0,0,0-.55,2.87,2.81,2.81,0,0,0,1.81,2.41,5.32,5.32,0,0,0,3.5-.07.22.22,0,0,0,.16-.28c-.07-.35-.14-.7-.18-1s-.08-.25-.28-.18a4.44,4.44,0,0,1-1.88.21,1.41,1.41,0,0,1-1.24-.83c-.1-.22-.07-.34.22-.33Zm19,0c.56,0,1.12,0,1.67,0,.29,0,.37-.1.38-.35a6,6,0,0,0,0-1.2A2.68,2.68,0,0,0,74.19,63,3,3,0,0,0,71,64a3.92,3.92,0,0,0-.68,3.19,2.74,2.74,0,0,0,1.8,2.3,5.35,5.35,0,0,0,3.49-.07c.18-.06.17-.18.15-.32-.06-.35-.14-.69-.18-1,0-.18-.06-.22-.24-.15a4.43,4.43,0,0,1-1.91.22,1.44,1.44,0,0,1-1.28-.91c-.06-.2,0-.25.19-.25Zm12,0h1.77c.19,0,.26-.06.26-.25a8.38,8.38,0,0,0-.07-1.5A2.57,2.57,0,0,0,86.31,63a2.87,2.87,0,0,0-3,.6,3.65,3.65,0,0,0-1,3.27,3.12,3.12,0,0,0,1,2.06c1.11,1,3.35.8,4.38.4.13-.05.13-.13.11-.24-.06-.35-.13-.7-.17-1s-.09-.28-.31-.2a4,4,0,0,1-1.87.2,1.35,1.35,0,0,1-1.24-.86c-.1-.23,0-.3.2-.29ZM63.55,66.4c0,.94,0,1.89,0,2.83,0,.24,0,.34.3.33a7.62,7.62,0,0,1,1.17,0c.26,0,.34-.07.34-.34,0-1.36,0-2.73,0-4.1,0-.56,0-.59.54-.62.81-.06,1.13.2,1.24.88a3.08,3.08,0,0,1,0,.53c0,1.12,0,2.25,0,3.37,0,.19,0,.28.26.28.43,0,.86,0,1.3,0,.21,0,.26-.08.26-.27,0-.76,0-1.52,0-2.27a14.69,14.69,0,0,0-.07-2.1A2.12,2.12,0,0,0,67.09,63a8.3,8.3,0,0,0-3.36.22c-.18.05-.18.16-.18.3Zm-20.79-.2c0-1,0-1.92,0-2.87,0-.2-.05-.28-.26-.27-.41,0-.83,0-1.24,0-.25,0-.32.06-.31.31,0,1.31,0,2.63,0,3.94,0,.82,0,.82-.83.79a.83.83,0,0,1-.91-.75,2.42,2.42,0,0,1-.06-.46c0-1.17,0-2.34,0-3.51,0-.23,0-.34-.31-.32s-.8,0-1.2,0c-.24,0-.3.06-.3.3q0,1.78,0,3.57a4.67,4.67,0,0,0,.08.83,2.18,2.18,0,0,0,1.91,1.87,8.37,8.37,0,0,0,3.26-.26c.19-.05.17-.17.17-.3Zm48.43,3.5a4.93,4.93,0,0,0,1.17-.08c.77-.19,1.45-.54,1.57-1.39A1.81,1.81,0,0,0,92.84,66c-.41-.21-.85-.37-1.28-.57-.25-.12-.54-.25-.46-.6s.37-.36.66-.38a3.2,3.2,0,0,1,1.34.18c.26.1.34,0,.38-.23a7.83,7.83,0,0,1,.18-.84c.06-.22,0-.32-.21-.38A5.61,5.61,0,0,0,91,62.94a2,2,0,0,0-1.62,2.67,2.11,2.11,0,0,0,1.3,1.21,8.58,8.58,0,0,1,1.24.56.42.42,0,0,1,.23.44.4.4,0,0,1-.39.34,4,4,0,0,1-2.06-.25c-.26-.09-.34,0-.37.22a4.58,4.58,0,0,1-.18.91c-.08.26,0,.32.24.39A4.72,4.72,0,0,0,91.19,69.7Zm-13.74-5c0,.9-.08,2,.07,3.1a2,2,0,0,0,1.59,1.78,4.16,4.16,0,0,0,1.92,0c.59-.16.59-.15.5-.74a2.93,2.93,0,0,0,0-.29c-.11-.56-.11-.56-.69-.46-1.13.22-1.54-.12-1.54-1.26,0-.65,0-1.29,0-1.94,0-.2,0-.27.26-.27.54,0,1.09,0,1.63,0,.18,0,.26,0,.25-.24,0-.35,0-.71,0-1.06,0-.19,0-.25-.24-.25-.55,0-1.09,0-1.64,0-.2,0-.27-.06-.26-.27,0-.46,0-.93,0-1.4,0-.17,0-.26-.23-.21a11,11,0,0,1-1.28.2c-.23,0-.3.11-.29.34C77.46,62.66,77.45,63.6,77.45,64.73ZM58.54,66.45c0,.93,0,1.87,0,2.8,0,.23,0,.32.3.31a9,9,0,0,1,1.16,0c.29,0,.36-.08.36-.35,0-1.43,0-2.86,0-4.28,0-.3.1-.39.38-.4a4.08,4.08,0,0,1,1.35.12c.19.06.28,0,.31-.2a7,7,0,0,1,.21-1c.08-.27,0-.32-.26-.37a6.55,6.55,0,0,0-3.51.23.36.36,0,0,0-.28.41C58.55,64.62,58.54,65.53,58.54,66.45Z"/><path class="cls-1" d="M114.66,74.25a.55.55,0,0,1-.16.51l-5.57,6.92L99.48,93.45q-3.9,4.85-7.81,9.7l-5.89,7.34a.69.69,0,0,1-.61.3H39.06a.61.61,0,0,1-.55-.26L26.27,95.31,13.65,79.62,9.76,74.78a.6.6,0,0,1-.15-.6Q11.32,66.85,13,59.5t3.37-14.69q1.39-6,2.78-12.06c.24-1,.48-2.05.7-3.08a.73.73,0,0,1,.46-.58c1.92-.9,3.83-1.82,5.75-2.74l15.6-7.45L61.89,9.22a.52.52,0,0,1,.5,0l10.52,5,20.9,10L104,29.12a.61.61,0,0,1,.36.46l3.42,14.88q1.81,7.9,3.64,15.79Q113,67.26,114.66,74.25Z"/><path class="cls-1" d="M166.32,28.61c0-4,0-8,0-12,0-.62.14-.91.79-1,1.26-.17,2.5-.41,3.75-.64.69-.14.61.32.61.73,0,2.45,0,4.89,0,7.34,0,.78.13,1,.94.69,3.56-1.16,7-.19,8.86,2.51a11.89,11.89,0,0,1,1.69,8.19,8.44,8.44,0,0,1-8.24,8.14,27.63,27.63,0,0,1-7.36-.72c-.84-.18-1-.55-1-1.34C166.34,36.55,166.32,32.58,166.32,28.61Zm5.13,4.53V36c0,2.07,0,2.07,2.05,2.07a3.67,3.67,0,0,0,4-3,9,9,0,0,0,.17-4.05c-.55-3.35-2.94-3.77-5.52-2.9a.94.94,0,0,0-.69,1.08C171.47,30.53,171.45,31.84,171.45,33.14Z"/><path class="cls-1" d="M143.84,23.69c-2.24,2.66-4.35,5.15-6.66,7.45-.51.5-.5.76,0,1.27a42.13,42.13,0,0,1,6.52,9c.4.72.19.82-.51.8-1.34,0-2.67-.05-4,0a1.44,1.44,0,0,1-1.51-.83,34.43,34.43,0,0,0-4.54-6.32c-.26-.28-.46-.61-.7-.92a1,1,0,0,0-.27,1c0,2,0,4.06,0,6.09,0,.77-.14,1.08-1,1a25,25,0,0,0-3.24,0c-.74,0-1-.18-1-1,0-6,0-11.94,0-17.9,0-2.26,0-4.51,0-6.77,0-.63.16-.89.8-1,1.25-.17,2.5-.41,3.74-.64.69-.14.61.3.61.72V30.24l3-3.36a5.5,5.5,0,0,0,.72-.89c1.1-2.06,2.84-2.64,5-2.32A24,24,0,0,0,143.84,23.69Z"/><path class="cls-1" d="M197,34.72c-1.62,0-3.24,0-4.86,0-.84,0-.91.32-.63.95A3.94,3.94,0,0,0,195.05,38a12,12,0,0,0,5.35-.58c.57-.21.75-.13.81.5.11,1,.33,2,.5,3,.06.38,0,.67-.44.8-3.31,1-6.66,1.43-10,.2-3.13-1.16-4.71-3.65-5.17-6.86a11.42,11.42,0,0,1,1.56-8.21c3.15-4.76,10.47-5,13.55-.45,1.57,2.32,1.74,5,1.54,7.68,0,.54-.33.65-.82.64C200.31,34.71,198.66,34.72,197,34.72ZM194.6,31c.86,0,1.71,0,2.57,0,.51,0,.73,0,.6-.68a3.1,3.1,0,0,0-3-2.77,3.2,3.2,0,0,0-3.33,2.65c-.12.52-.09.85.59.81C192.89,31,193.75,31,194.6,31Z"/><path class="cls-1" d="M251.11,34.72c-1.68,0-3.37,0-5.05,0-.57,0-.7.14-.52.71a4,4,0,0,0,3.65,2.6,12.81,12.81,0,0,0,5.43-.62c.53-.19.64-.09.7.44.12,1,.33,2,.5,3,.07.4.09.74-.41.9-3.31,1-6.65,1.43-10,.21a7.85,7.85,0,0,1-5.13-6.56,11.25,11.25,0,0,1,1.94-9.1,8.46,8.46,0,0,1,9.07-2.76,7.6,7.6,0,0,1,5.48,6.81,17.78,17.78,0,0,1,.15,3.42c-.05.7-.27,1-1.08,1C254.28,34.67,252.69,34.72,251.11,34.72ZM248.59,31c.83,0,1.66-.06,2.48,0s.92-.34.77-1a3.12,3.12,0,0,0-3.37-2.46,3.4,3.4,0,0,0-3,3.07c0,.45.24.37.47.37Z"/><path class="cls-1" d="M285.36,34.72c-1.65,0-3.3,0-5,0-.69,0-.83.19-.56.83A3.93,3.93,0,0,0,283.38,38a12,12,0,0,0,5.34-.57c.62-.23.82-.11.89.56.09,1,.29,2,.47,3,.06.32.06.52-.3.66-2.94,1.16-9.35,1.82-12.51-1.14a8.94,8.94,0,0,1-2.82-5.85c-.38-3.52.21-6.8,2.94-9.33a8.2,8.2,0,0,1,8.51-1.71c3,.94,4.46,3.17,5,6.13a22.59,22.59,0,0,1,.19,4.27c0,.54-.2.71-.72.7C288.72,34.71,287,34.72,285.36,34.72ZM282.92,31c.82,0,1.65-.05,2.47,0s.87-.34.7-1a3.1,3.1,0,0,0-3.34-2.48,3.36,3.36,0,0,0-3,2.93c-.07.5.18.52.53.52Q281.58,31,282.92,31Z"/><path class="cls-1" d="M221,33.19q0-4.09,0-8.19c0-.4,0-.73.51-.85a23.26,23.26,0,0,1,9.6-.64c3,.54,4.65,2.44,5.15,5.47a38.49,38.49,0,0,1,.21,6c0,2.16,0,4.32,0,6.48,0,.56-.13.78-.74.76-1.23,0-2.47,0-3.71,0-.62,0-.73-.23-.73-.78,0-3.21,0-6.41,0-9.62a9.5,9.5,0,0,0-.1-1.51c-.31-1.95-1.23-2.67-3.54-2.51-1.53.1-1.53.17-1.53,1.77,0,3.9,0,7.81,0,11.71,0,.77-.21,1-1,1a28.46,28.46,0,0,0-3.33,0c-.76,0-.89-.24-.88-.92C221,38.59,221,35.89,221,33.19Z"/><path class="cls-1" d="M161.68,32.63v8.19c0,.38.06.72-.49.85a23.43,23.43,0,0,1-9.31.73,6.13,6.13,0,0,1-5.42-5.33,12.42,12.42,0,0,1-.23-2.36c0-3.39,0-6.79,0-10.19,0-.66.18-.88.86-.85a30,30,0,0,0,3.42,0c.76,0,.88.26.88.93,0,3.34,0,6.67,0,10a5.82,5.82,0,0,0,.18,1.31,2.36,2.36,0,0,0,2.59,2.14c2.38.09,2.38.09,2.38-2.25,0-3.75,0-7.49,0-11.24,0-.72.19-.93.9-.89,1.18.06,2.35,0,3.53,0,.6,0,.74.2.74.77C161.67,27.17,161.68,29.9,161.68,32.63Z"/><path class="cls-1" d="M299.8,42.6a12.93,12.93,0,0,1-5-.75c-.59-.2-.92-.36-.68-1.11a15.33,15.33,0,0,0,.51-2.6c.1-.73.31-.89,1.06-.63a11.4,11.4,0,0,0,5.87.73,1.18,1.18,0,0,0,1.12-1A1.2,1.2,0,0,0,302,36a22.6,22.6,0,0,0-3.54-1.61c-1.64-.72-3.09-1.63-3.71-3.44a5.63,5.63,0,0,1,4.65-7.61,16,16,0,0,1,6.85.53c.66.17.77.47.6,1.09a24,24,0,0,0-.51,2.41c-.11.68-.33.94-1.08.65a9,9,0,0,0-3.83-.52c-.82.05-1.68.12-1.89,1.09s.62,1.37,1.34,1.7c1.2.56,2.45,1,3.64,1.62,3.3,1.68,3.53,3.6,3.1,6.52-.34,2.42-2.29,3.42-4.48,4A12.5,12.5,0,0,1,299.8,42.6Z"/><path class="cls-1" d="M260.62,28.45c0-3.24,0-5.91,0-8.57,0-.64.17-.88.83-.95a34.26,34.26,0,0,0,3.65-.59c.64-.14.68.11.67.61,0,1.33,0,2.66,0,4,0,.58.17.76.75.75,1.55,0,3.11,0,4.66,0,.54,0,.73.16.71.7,0,1,0,2,0,3.05,0,.57-.21.69-.72.68-1.56,0-3.11,0-4.67,0-.6,0-.74.19-.73.76,0,1.84,0,3.68,0,5.52,0,3.28,1.16,4.22,4.39,3.62,1.64-.31,1.64-.31,2,1.29.05.28.11.56.15.84.25,1.67.25,1.65-1.43,2.11a11.86,11.86,0,0,1-5.46.15,5.67,5.67,0,0,1-4.55-5.09C260.4,34.15,260.76,31,260.62,28.45Z"/><path class="cls-1" d="M206.68,33.34c0-2.6,0-5.21,0-7.81,0-.63.13-1,.78-1.16a18.77,18.77,0,0,1,10-.66c.61.14,1,.29.73,1.06a19,19,0,0,0-.58,2.89c-.09.6-.35.73-.88.56a11.19,11.19,0,0,0-3.87-.33c-.79,0-1.08.27-1.08,1.12.05,4.06,0,8.13,0,12.2,0,.79-.2,1-1,1a28.46,28.46,0,0,0-3.33,0c-.69,0-.84-.22-.83-.87C206.7,38.68,206.68,36,206.68,33.34Z"/><path class="cls-4" d="M195.39,80.06h-5c-.44,0-.55-.38-.74-.65-1.15-1.71-2.32-3.41-3.43-5.15a1.25,1.25,0,0,0-1.32-.68c-.84.1-1.92-.37-2.46.2s-.13,1.58-.15,2.4q0,1.62,0,3.24c0,.5-.17.66-.66.65q-1.62,0-3.24,0c-.52,0-.65-.22-.65-.69q0-9.52,0-19c0-.36.05-.61.51-.59,3.64.1,7.3-.28,10.93.21a6.1,6.1,0,0,1,5.43,5.1c.52,3.43-.66,6-3.47,7.43-.57.29-.65.48-.28,1C192.38,75.6,193.81,77.73,195.39,80.06ZM182.31,66.49V69c0,.31,0,.59.44.58a26.92,26.92,0,0,0,5.31-.2,2.62,2.62,0,0,0,2.1-3,2.55,2.55,0,0,0-2.39-2.51,19.7,19.7,0,0,0-2.66-.07c-.91,0-2.07-.4-2.64.21S182.37,65.78,182.31,66.49Z"/><path class="cls-4" d="M279.57,69.84c0-3,0-6.09,0-9.14,0-.82.24-1,1-1,3,.12,6-.22,9,.2a10.07,10.07,0,0,1-.46,20c-3,.27-6,0-8.94.12-.73,0-.62-.46-.62-.9C279.56,76.06,279.57,73,279.57,69.84Zm4.5,0c0,1.81,0,3.61,0,5.42,0,.54.15.72.69.7,1.08,0,2.16,0,3.24,0a6.06,6.06,0,0,0-.07-12.09c-1.05,0-2.09,0-3.14,0-.62,0-.73.24-.72.78C284.09,66.37,284.07,68.12,284.07,69.86Z"/><path class="cls-4" d="M259.48,69.82c0-3.08,0-6.16,0-9.24,0-.64.13-.86.82-.86,4.57,0,9.15,0,13.72,0,.66,0,.92.17.85.84-.11,1,.44,2.39-.23,3s-1.87.15-2.85.15c-2.35,0-4.7,0-7,0-.58,0-.79.17-.76.75A18.66,18.66,0,0,1,264,67c-.06.77.29.88.95.87,2.57,0,5.14,0,7.71,0,.78,0,1,.23.94,1a12.21,12.21,0,0,0,0,2.18c.09.81-.26.94-1,.93-2.57,0-5.14,0-7.72,0-.7,0-1,.19-.91.91a15.76,15.76,0,0,1,0,2.38c-.06.75.26.89.94.89,3,0,6.09,0,9.14,0,.69,0,1,.16.91.89s0,1.72,0,2.57c0,.46-.17.61-.61.61H260.05c-.67,0-.57-.41-.57-.82Z"/><path class="cls-4" d="M157.69,69.88c0-3.12,0-6.23,0-9.34,0-.6.13-.82.78-.81q6.9,0,13.82,0c.64,0,.83.19.79.8,0,.83,0,1.66,0,2.48,0,.59-.18.75-.76.74-3.05,0-6.1,0-9.14,0-.82,0-1.06.24-1,1a15.77,15.77,0,0,1,0,2.28c0,.64.2.81.82.81,2.57,0,5.14,0,7.71,0,.79,0,1.1.2,1,1a11,11,0,0,0,0,2c.08.82-.16,1.11-1,1.09-2.5-.06-5,0-7.52,0-.82,0-1.06.25-1,1a14.46,14.46,0,0,1,0,2.28c-.05.67.18.87.85.87,3.05,0,6.1,0,9.15,0,.82,0,1.05.25,1,1a18.88,18.88,0,0,0,0,2.38c0,.48-.13.67-.64.67-4.74,0-9.47,0-14.2,0-.62,0-.64-.3-.64-.77C157.7,76.17,157.69,73,157.69,69.88Z"/><path class="cls-4" d="M145.07,59.38A11.19,11.19,0,0,1,152.76,62c.46.4.55.71.08,1.14a5.14,5.14,0,0,0-.38.42c-.62.72-1.13,1.78-1.91,2s-1.43-.89-2.23-1.29a6,6,0,0,0-6.62.52,6.41,6.41,0,0,0-2,7c1.19,4.3,5.9,5.8,9.6,3.1,1.35-1,1.35-1,2.55.21l.74.74c.92.92.94.95,0,1.78a10.57,10.57,0,0,1-11.53,1.94c-4.1-1.61-6.17-4.9-6.32-9.24a10,10,0,0,1,5.79-9.9A10.43,10.43,0,0,1,145.07,59.38Z"/><path class="cls-4" d="M229.36,69.84c0-3,0-6.1,0-9.15,0-.69.1-1,.91-1,4.57,0,9.14,0,13.72,0,.64,0,.92.12.87.82a17.11,17.11,0,0,0,0,2.48c0,.68-.21.85-.86.85-3,0-6.1,0-9.15,0-.72,0-1,.15-1,.94a14.55,14.55,0,0,1,0,2.47c-.06.76.25.89.92.88,2.58,0,5.15,0,7.72,0,.88,0,1.09.26,1,1.07a14.46,14.46,0,0,0,0,2.28c0,.64-.19.82-.81.81-2.6,0-5.21,0-7.81,0-.87,0-1.06.27-1,1.08.06,2,0,3.94,0,5.91,0,.67-.21.89-.87.86a27.28,27.28,0,0,0-2.86,0c-.62,0-.81-.17-.8-.81C229.38,76.13,229.36,73,229.36,69.84Z"/><path class="cls-4" d="M206.45,59.74c2.54,0,5.08,0,7.62,0,.63,0,.83.18.79.8a20.36,20.36,0,0,0,0,2.47c0,.7-.15,1-.88.92-1.46-.06-2.92,0-4.38,0-.71,0-.91.19-.91.9,0,4.76,0,9.52,0,14.28,0,.8-.22,1.07-1,1a17,17,0,0,0-2.57,0c-.83.07-1-.26-1-1,0-4.7,0-9.4,0-14.09,0-.91-.27-1.12-1.12-1.08-1.42.06-2.85,0-4.28,0-.61,0-.86-.14-.83-.79a23.6,23.6,0,0,0,0-2.66c0-.6.2-.75.77-.74C201.31,59.76,203.88,59.74,206.45,59.74Z"/><path class="cls-4" d="M223.62,69.84c0,3.12,0,6.23,0,9.34,0,.73-.22.94-.92.9-.95-.06-1.91,0-2.86,0-.55,0-.78-.12-.77-.73q0-9.44,0-18.87c0-.61.2-.76.76-.74,1,0,2,.05,3.05,0,.62,0,.73.22.73.77C223.61,63.62,223.62,66.73,223.62,69.84Z"/><path class="cls-4" d="M249.26,69.75c0-3,0-6,0-9,0-.91.29-1.13,1.12-1.06a20,20,0,0,0,2.57,0c.66,0,.87.15.86.83,0,2.6,0,5.21,0,7.81,0,3.62,0,7.24,0,10.86,0,.66-.18.89-.85.85a21.18,21.18,0,0,0-2.76,0c-.71,0-.94-.18-.93-.91C249.28,76,249.26,72.89,249.26,69.75Z"/><path class="cls-1" d="M290.77,104.74c-.95,0-1.71,0-2.47,0a.87.87,0,0,1-.82-.52c-.56-.84-1.17-1.66-1.68-2.53s-1.28-.52-2-.5c-.31,0-.24.39-.24.63a20.8,20.8,0,0,0,0,2.09c.06.7-.23.84-.87.84-1.71,0-1.71,0-1.71-1.69,0-2.91,0-5.83,0-8.75,0-.63.18-.83.81-.81,1.55,0,3.11,0,4.66,0,2.68.07,4.08,1.65,3.87,4.3a2.84,2.84,0,0,1-1.46,2.43c-.86.45-.66.83-.22,1.42C289.36,102.62,290,103.6,290.77,104.74Zm-5.57-5.86a10.08,10.08,0,0,0,1.23,0,1.42,1.42,0,0,0,1.42-1.38,1.44,1.44,0,0,0-1.17-1.6,6.21,6.21,0,0,0-1.61-.11c-1.47,0-1.47,0-1.47,1.52S283.6,98.9,285.2,98.88Z"/><path class="cls-1" d="M238.52,99.19a5.93,5.93,0,1,1-5.8-5.86A5.75,5.75,0,0,1,238.52,99.19Zm-2.63,0a3.31,3.31,0,1,0-3.27,3.46A3.3,3.3,0,0,0,235.89,99.16Z"/><path class="cls-1" d="M158.66,104.59c-2,.59-3.38,0-4.16-1.82a6.39,6.39,0,0,0-.69-1,2,2,0,0,0-2-.57c-.28.12-.22.36-.22.56,0,.8,0,1.59,0,2.38,0,.51-.17.63-.65.64-1.86.06-1.86.07-1.86-1.81,0-2.85,0-5.71,0-8.56,0-.65.15-.91.84-.87a46.1,46.1,0,0,1,5.51.16,3.32,3.32,0,0,1,2.95,2.8,3.56,3.56,0,0,1-1.66,3.93c-.5.31-.58.49-.22,1C157.23,102.42,157.93,103.51,158.66,104.59Zm-5.43-5.7a10.84,10.84,0,0,0,1.14,0,1.52,1.52,0,0,0,.18-3,8.5,8.5,0,0,0-1.6-.07c-1.38,0-1.38,0-1.38,1.4C151.57,98.9,151.57,98.9,153.23,98.89Z"/><path class="cls-1" d="M225.35,104.74c-1,0-1.79,0-2.61,0-.41,0-.52-.31-.69-.56-.59-.86-1.17-1.74-1.76-2.6a2.25,2.25,0,0,0-2-.38c-.22.15-.17.39-.17.61,0,.79,0,1.58,0,2.38,0,.41-.15.52-.55.55-1.93.14-1.93.15-1.93-1.75,0-2.85,0-5.71,0-8.57,0-.68.13-1,.88-.93,1.49.07,3,0,4.48,0,2.68.06,4.18,1.68,4,4.23a3.22,3.22,0,0,1-1.8,2.73c-.44.22-.45.38-.18.76C223.76,102.35,224.5,103.48,225.35,104.74ZM219.77,99a9.65,9.65,0,0,0,1.32-.08,1.46,1.46,0,0,0,1.36-1.55,1.42,1.42,0,0,0-1.32-1.48,7.61,7.61,0,0,0-1.51-.07c-1.5,0-1.5,0-1.5,1.49C218.12,99,218.12,99,219.77,99Z"/><path class="cls-1" d="M257.93,99.13c0-1.62,0-3.24,0-4.86,0-.57.14-.79.74-.76a39.72,39.72,0,0,1,4.76.12,5.39,5.39,0,0,1,4.83,5.74,5.47,5.47,0,0,1-5.22,5.32c-1.52.13-3,0-4.57.06-.54,0-.53-.29-.53-.67C257.94,102.43,257.93,100.78,257.93,99.13Zm2.51,0v1.42c0,1.95,0,1.95,1.95,1.91a3.19,3.19,0,0,0,3.28-3.12,3.24,3.24,0,0,0-2.91-3.51c-.59-.07-1.2,0-1.8,0-.44,0-.53.2-.52.58C260.45,97.28,260.44,98.2,260.44,99.12Z"/><path class="cls-1" d="M189.58,99.2c0-1.59,0-3.18,0-4.77,0-.68.13-.94.88-.93,2.26.06,4.51,0,6.76,0,.66,0,1,.16.86.84a2.51,2.51,0,0,0,0,.67c.1.66-.22.79-.82.77-1.45,0-2.92,0-4.38,0-.78,0-.83.38-.75.93s-.38,1.3.72,1.27,2.48,0,3.71,0c.64,0,.87.2.79.81a2.76,2.76,0,0,0,0,.76c.07.56-.17.71-.7.69-1.24,0-2.48,0-3.71,0-.62,0-.9.17-.81.81a3.22,3.22,0,0,1,0,.76c-.07.6.2.76.76.74,1.43,0,2.86,0,4.29,0,.83,0,1.08.26,1,1a3,3,0,0,0,0,.67c0,.46-.15.6-.6.6-2.44,0-4.89,0-7.33,0-.55,0-.61-.25-.61-.7C189.58,102.43,189.58,100.81,189.58,99.2Z"/><path class="cls-1" d="M270.35,99.06c0-1.58,0-3.17,0-4.76,0-.64.2-.8.81-.79,2.32,0,4.64,0,7,0,.66,0,.85.22.78.83a3.22,3.22,0,0,0,0,.76c.06.54-.17.7-.7.69-1.49,0-3,0-4.47,0-.88,0-.82.46-.79,1s-.24,1.25.8,1.2c1.2-.07,2.41,0,3.62,0,.59,0,.91.13.8.79a2.18,2.18,0,0,0,0,.57c.1.68-.11,1-.86.91-1.17-.07-2.35,0-3.52,0-.68,0-.93.22-.84.87a2.18,2.18,0,0,1,0,.57c-.13.76.25.9.92.87,1.39,0,2.79,0,4.19,0,.72,0,1,.2.88.91a1.83,1.83,0,0,0,0,.66c.09.63-.22.73-.77.72-2.35,0-4.69,0-7,0-.57,0-.78-.14-.76-.74C270.38,102.36,270.35,100.71,270.35,99.06Z"/><path class="cls-1" d="M138.39,99.14c0-1.62,0-3.24,0-4.86,0-.57.15-.78.75-.77q3.47,0,7,0c.57,0,.84.15.76.75a.27.27,0,0,0,0,.09c0,1.75.18,1.4-1.38,1.43-1.27,0-2.54,0-3.81,0-.56,0-.79.11-.76.73.06,1.76-.15,1.42,1.37,1.45,1.05,0,2.1,0,3.15,0,.58,0,.82.18.76.77a4,4,0,0,0,0,.85c.05.52-.2.65-.68.64-1.27,0-2.54,0-3.81,0-.62,0-.87.18-.79.8a1.89,1.89,0,0,1,0,.67c-.1.67.17.87.84.85,1.46,0,2.92,0,4.38,0,.61,0,.9.14.82.78a6.15,6.15,0,0,0,0,1c0,.42-.17.54-.57.54-2.48,0-5,0-7.43,0-.52,0-.54-.27-.54-.66C138.4,102.44,138.39,100.79,138.39,99.14Z"/><path class="cls-1" d="M205,99.12c0-1.62,0-3.24,0-4.86,0-.58.18-.76.76-.75,1.39,0,2.79,0,4.19,0a3.86,3.86,0,0,1,3.82,5.07,3.81,3.81,0,0,1-3.43,2.71,16.76,16.76,0,0,1-2,.11c-.56,0-.8.16-.77.75s0,1.33,0,2c0,.39-.11.54-.54.58-2,.19-2,.2-2-1.83Zm2.52-1.65c0,1.86-.19,1.71,1.12,1.71,1.89,0,2.74-.53,2.74-1.71s-.8-1.69-2.65-1.69C207.49,95.78,207.49,95.78,207.49,97.47Z"/><path class="cls-1" d="M132.21,104.92a7.68,7.68,0,0,1-4.15-1.32c-.48-.34-.67-.65-.16-1.1a2.17,2.17,0,0,0,.24-.29c.45-.68.87-1,1.68-.31a3.59,3.59,0,0,0,2.87.73c.53-.07,1-.28,1.12-.87s-.35-.93-.86-1.09c-.81-.28-1.64-.49-2.45-.75-2-.62-2.72-1.64-2.58-3.54A3.27,3.27,0,0,1,131,93.44a6.57,6.57,0,0,1,4.38.93c.49.29.62.58.2,1a1.34,1.34,0,0,0-.22.31c-.39.78-.85,1.07-1.67.46a3.13,3.13,0,0,0-2.17-.56c-.53.06-1,.24-1.13.84s.32.93.83,1.1c1,.32,1.95.54,2.89.92a3.14,3.14,0,0,1,1.57,5A4.23,4.23,0,0,1,132.21,104.92Z"/><path class="cls-1" d="M183.11,104.93a5.72,5.72,0,0,1-5.77-6.28,5.82,5.82,0,0,1,6.83-5.27A6.06,6.06,0,0,1,187,94.56c.41.33.61.63.13,1a1.37,1.37,0,0,0-.24.29c-.53.79-1,1-1.93.33a3.09,3.09,0,0,0-4.27.6,3.81,3.81,0,0,0,.07,4.68,3.3,3.3,0,0,0,4.33.53c.34-.21.67-.78,1-.61a5.44,5.44,0,0,1,1.37,1.3c.29.33-.12.51-.3.67A5.7,5.7,0,0,1,183.11,104.93Z"/><path class="cls-1" d="M159.69,93.6l.22-.07c2.42-.13,2.42-.13,3.25,2.13.67,1.8,1.33,3.61,2.08,5.64.6-1.63,1.13-3,1.66-4.46.29-.77.64-1.52.85-2.31a1.17,1.17,0,0,1,1.49-1,10.77,10.77,0,0,0,1.39,0c.23.26,0,.46,0,.64-1.33,3.33-2.68,6.64-4,10a.85.85,0,0,1-1.08.63c-.58-.1-1.33.37-1.69-.57-1.33-3.39-2.7-6.76-4.05-10.15A2.16,2.16,0,0,1,159.69,93.6Z"/><path class="cls-1" d="M245.36,101.25c.44-1.17.79-2.06,1.12-3,.48-1.27,1-2.54,1.4-3.83a1.15,1.15,0,0,1,1.35-1c1.73.07,1.73,0,1.09,1.63-1.2,3-2.43,5.91-3.55,8.91-.34.92-1,.68-1.59.73a1.08,1.08,0,0,1-1.31-.74c-1.24-3.22-2.53-6.41-3.84-9.61-.28-.68-.25-.93.6-.92,1.82,0,1.81,0,2.47,1.75C243.81,97.16,244.53,99.07,245.36,101.25Z"/><path class="cls-1" d="M172.57,99.12c0-1.62,0-3.24,0-4.86,0-.6.19-.75.76-.75,1.82,0,1.82,0,1.82,1.79,0,2.85,0,5.71,0,8.57,0,.63-.1.9-.82.89-1.76,0-1.76,0-1.76-1.73Z"/><path class="cls-1" d="M255.24,99.15c0,1.58,0,3.17,0,4.75,0,.66-.16.87-.84.86-1.65,0-1.65,0-1.65-1.64,0-2.89,0-5.77,0-8.65,0-.73.16-1,.94-1,1.56.06,1.56,0,1.56,1.56Z"/><path class="cls-1" d="M66,42.49a.93.93,0,0,1,1.1-1l5.47.9c.2,0,.27.09.18.3a11.45,11.45,0,0,1-4.28,5.36c-.15.1-.21.09-.28-.09q-1-2.56-2.12-5.14A.7.7,0,0,1,66,42.49Z"/><path class="cls-1" d="M60.72,27.5c-.07,1.25-.14,2.49-.22,3.73l-.09,1.63a1.19,1.19,0,0,1-.38.92.93.93,0,0,1-1.23,0c-1.13-.78-2.26-1.59-3.38-2.38-.35-.25-.68-.5-1-.73-.2-.13-.22-.21,0-.39a11.27,11.27,0,0,1,5.18-2.74c.32-.08.65-.13,1-.19C60.65,27.3,60.76,27.32,60.72,27.5Z"/><path class="cls-1" d="M50.73,38.63a11.55,11.55,0,0,1,1.51-5.72c.13-.24.2-.23.39-.06,1.31,1.19,2.64,2.36,3.95,3.54a1,1,0,0,1-.4,1.83c-1.71.51-3.43,1-5.14,1.5-.2.06-.26,0-.26-.18S50.7,38.87,50.73,38.63Z"/><path class="cls-1" d="M71.82,32.67a11,11,0,0,1,1.35,3.18,12.38,12.38,0,0,1,.34,3.54c0,.29-.08.38-.39.28l-5-1.45a1.06,1.06,0,0,1-.87-.78,1.08,1.08,0,0,1,.45-1.1c1.33-1.17,2.64-2.36,4-3.54Z"/><path class="cls-1" d="M56,48.19a11.49,11.49,0,0,1-2.85-2.62,12.17,12.17,0,0,1-1.57-2.73c-.11-.27-.07-.36.2-.4l3.71-.62a14.63,14.63,0,0,1,1.74-.27.91.91,0,0,1,1,1.26c-.31.9-.69,1.77-1,2.66S56.36,47.27,56,48.19Z"/><path class="cls-1" d="M62.13,50a10.82,10.82,0,0,1-3.35-.48c-.22-.07-.28-.13-.15-.36l2.57-4.63a1,1,0,0,1,.93-.65,1.06,1.06,0,0,1,.94.65c.76,1.36,1.52,2.74,2.27,4.11a5.39,5.39,0,0,0,.3.52c.18.24.06.3-.16.36A10.91,10.91,0,0,1,62.13,50Z"/><path class="cls-1" d="M63.55,27.75c0-.44,0-.46.52-.36a11.44,11.44,0,0,1,5.8,2.88c.14.13.21.21,0,.36-1.46,1-2.9,2.05-4.36,3.08a1,1,0,0,1-1.43-.09,1.17,1.17,0,0,1-.24-.71C63.73,31.22,63.64,29.54,63.55,27.75Z"/><path class="cls-1" d="M62.13,36.84c.68-.22,1,.17,1.44.64A1.58,1.58,0,0,1,63.92,39a1.85,1.85,0,0,1-3.61,0,1.57,1.57,0,0,1,.36-1.51C61.08,37,61.46,36.62,62.13,36.84Z"/><path class="cls-3" d="M60.91,30a28.36,28.36,0,0,0-.48-4.5,4.75,4.75,0,0,1,.06-2.28A2.21,2.21,0,0,1,63,21.65a2.37,2.37,0,0,1,1.85,2.21,19.06,19.06,0,0,1-.35,3.69,22.7,22.7,0,0,0-.21,3.09,1.32,1.32,0,0,0,.26.82,1.61,1.61,0,0,1,.56,1.31c0,.36.31.23.51.26A29.22,29.22,0,0,1,82.11,40.5a8.16,8.16,0,0,1,.74.7c.42.52.85.86,1.44.21a.22.22,0,0,1,.18-.08c1.5.22,2.26-.93,3.16-1.76s1.71-1.79,2.6-2.66a2.82,2.82,0,0,1,2.48-1,2,2,0,0,1,1.74,1.5A2.42,2.42,0,0,1,93.6,40a24.79,24.79,0,0,1-3.14,2l-2,1.42a1.9,1.9,0,0,0-.93,1.41c0,.18,0,.38-.22.48-.69.39-.4.8-.09,1.3a28.55,28.55,0,0,1,4.2,11.92,26.23,26.23,0,0,1,0,6.8c-.05.34,0,.62.4.67a.65.65,0,0,1,.43.17c.82,1.32,2.23,1.21,3.49,1.39s2.64.25,4,.44a2.54,2.54,0,0,1,2.11,1.59,2.24,2.24,0,0,1-2.52,2.93,21.7,21.7,0,0,1-3.7-1.23c-.73-.23-1.45-.49-2.19-.69a2,2,0,0,0-2,.14.4.4,0,0,1-.31.08c-.82-.27-1,.3-1.15.87A28.7,28.7,0,0,1,78,86.44c-.43.28-.72.5-.37,1a.49.49,0,0,1,.05.39,2.38,2.38,0,0,0,.39,2.23,28.63,28.63,0,0,0,2,3.2,6.69,6.69,0,0,1,1.11,2.07A2.31,2.31,0,0,1,80,98.16a2.35,2.35,0,0,1-2.91-1,9.61,9.61,0,0,1-.92-2.31,22.71,22.71,0,0,0-1.49-4,1.59,1.59,0,0,0-1-.92.56.56,0,0,1-.45-.36c-.2-.61-.58-.51-1.06-.34a28.33,28.33,0,0,1-11.29,1.57A27.74,27.74,0,0,1,53,89.15c-.45-.16-.76-.22-.94.32a.57.57,0,0,1-.41.41A1.83,1.83,0,0,0,50.42,91,28.35,28.35,0,0,0,49,95a8.65,8.65,0,0,1-.9,2.18,2.29,2.29,0,0,1-3,.93,2.33,2.33,0,0,1-1-2.92,9.7,9.7,0,0,1,1.23-2.17,22.66,22.66,0,0,0,2.23-3.77,1.37,1.37,0,0,0,.07-1.1.93.93,0,0,1,0-.9c.32-.48,0-.66-.35-.88a28.92,28.92,0,0,1-9.75-10,26.2,26.2,0,0,1-2.3-5c-.15-.48-.38-.68-.87-.51-.13,0-.27.09-.39,0-1-.72-2-.22-3,0-1.59.42-3,1.26-4.64,1.62a2.38,2.38,0,0,1-3-1.81,2.3,2.3,0,0,1,1.57-2.46,6.12,6.12,0,0,1,2.11-.4,25.05,25.05,0,0,0,4.48-.55,1.65,1.65,0,0,0,1-.56A1.54,1.54,0,0,1,33.62,66c.32,0,.26-.24.23-.49a29,29,0,0,1,2.83-16.59c.46-.93,1-1.81,1.54-2.7.16-.27.22-.47-.08-.67a1,1,0,0,1-.46-.78,1.8,1.8,0,0,0-.78-1.21A27.92,27.92,0,0,0,33,41a7.53,7.53,0,0,1-1.54-1.09,2.25,2.25,0,1,1,2.79-3.53A21,21,0,0,1,36.94,39c.57.54,1.13,1.09,1.72,1.62a2.21,2.21,0,0,0,1.93.77.43.43,0,0,1,.32.06c.56.62.88.18,1.29-.22a28.82,28.82,0,0,1,16.08-8.06c.15,0,.31,0,.47,0,.72-.09,1.31-.08,1.59-1.12C60.54,31.28,61,30.58,60.91,30Zm9.58,39.68a1.56,1.56,0,0,0,.14.75c1.43,3.47,2.87,6.94,4.29,10.41.15.35.28.38.59.17a23,23,0,0,0,8.66-10.85c.17-.43,0-.55-.36-.61L72.72,67.76A1.89,1.89,0,0,0,70.49,69.71ZM59.76,39.35c.08-.38-.15-.4-.43-.35-.67.13-1.33.23-2,.39a22.87,22.87,0,0,0-10.49,5.55c-.39.36-.33.52.07.78.72.47,1.4,1,2.1,1.48,2.28,1.61,4.55,3.23,6.84,4.83a1.88,1.88,0,0,0,2.49,0,2.35,2.35,0,0,0,.79-1.86l.18-3.31Q59.55,43.13,59.76,39.35ZM39.51,61.89c0,.49.11,1.16.11,1.83,0,.42.13.49.52.37,3.47-1,7-2,10.42-3,1.94-.58,2.33-2.35.82-3.71-2.66-2.4-5.35-4.77-8-7.17-.39-.35-.53-.36-.8.12A23.57,23.57,0,0,0,39.51,61.89ZM82.24,49.81l-.34.28c-2.67,2.38-5.33,4.78-8,7.15A2.2,2.2,0,0,0,73,59.48a2.15,2.15,0,0,0,1.77,1.57c3.38,1,6.77,2,10.15,3,.63.19.76,0,.78-.58A24.65,24.65,0,0,0,85,56.26,22.22,22.22,0,0,0,82.24,49.81ZM50.15,81.24c.77-1.86,1.54-3.68,2.29-5.51s1.51-3.56,2.14-5.38a1.84,1.84,0,0,0-1.95-2.54,26.65,26.65,0,0,0-3.53.54L41.6,69.6c-.57.09-.65.27-.42.81A24.58,24.58,0,0,0,44.36,76,22.68,22.68,0,0,0,50.15,81.24Zm12.46,3.65a21.89,21.89,0,0,0,6.78-1c.45-.13.69-.25.33-.73a9.19,9.19,0,0,1-.59-1.06c-1.54-2.78-3.07-5.56-4.62-8.33a2,2,0,0,0-3.79,0c-1.72,3.13-3.45,6.27-5.2,9.39-.26.46-.13.59.31.72A21.94,21.94,0,0,0,62.61,84.89Zm2.88-45c.19,3.61.37,7,.57,10.44a2.31,2.31,0,0,0,.48,1.44,2,2,0,0,0,2.91.17c3-2.07,5.87-4.17,8.82-6.23.44-.31.31-.46,0-.73a23.22,23.22,0,0,0-11.74-5.83C65.48,38.93,65.47,39,65.49,39.86Zm-2.87,18.4c-1.37-.45-2.14.29-3,1.3a3.14,3.14,0,0,0-.72,3.06,3.34,3.34,0,0,0,2,2.59,3.73,3.73,0,0,0,5.28-2.52,3.22,3.22,0,0,0-.71-3.14C64.71,58.6,64,57.82,62.62,58.26Z"/></svg>