<svg id="Layer_1" data-name="Layer 1" xmlns="http://www.w3.org/2000/svg" viewBox="0 0 345 120"><defs><style>.cls-1{fill:#003764;}.cls-2{fill:#0096d6;}</style></defs><path class="cls-1" d="M211.5,58V79.64c0,1.91,0,1.91-1.84,1.91-3.27,0-6.54,0-9.81,0-.92,0-1.19-.23-1.19-1.17q0-20.79,0-41.58c0-.83.16-1.14,1.08-1.13,3.93.05,7.87.06,11.8,0a1.59,1.59,0,0,1,1.58,1.08c4,7.39,8,14.76,12.12,22.23.4-.46.22-.94.22-1.35,0-6.86,0-13.72,0-20.58,0-1.14.32-1.4,1.41-1.37,3.41.07,6.83.05,10.24,0,.87,0,1.21.15,1.21,1.14q-.06,20.79,0,41.57c0,.94-.26,1.18-1.18,1.17-3.6,0-7.21-.06-10.81,0a1.8,1.8,0,0,1-1.86-1.09q-6-10.71-12-21.37l-.69-1.2Z"/><path class="cls-1" d="M288.35,53c0,4.16.07,8.32,0,12.48-.18,10-4.81,15.33-14.66,16.8a32,32,0,0,1-15.17-1.07c-6.13-2.07-9.28-6.58-10-12.85-.63-5.66-.19-11.34-.27-17-.06-4.06,0-8.13,0-12.2,0-1.06.19-1.46,1.37-1.43,3.65.09,7.3.07,10.94,0,1.07,0,1.35.25,1.34,1.32,0,8.37,0,16.75,0,25.12a16.19,16.19,0,0,0,.17,2c.66,5,4.2,6.16,8.4,5.3,2.53-.52,4-2.64,4.2-5.89.15-2.26.16-4.54.17-6.81,0-6.52,0-13.05,0-19.58,0-1,.17-1.47,1.36-1.44,3.65.09,7.3.07,10.94,0,1,0,1.28.22,1.27,1.23-.06,4.68,0,9.37,0,14Z"/><path class="cls-1" d="M295.79,37.71h7.78c2.18,0,4.36.06,6.54,0a1.86,1.86,0,0,1,2,1.19c1.91,3.53,3.9,7,6,10.72L321.13,44c1-1.82,2-3.64,3-5.46.23-.42.41-.8,1-.8,4.73,0,9.45,0,14.21,0a2.72,2.72,0,0,1-.74,1.43c-4.13,6.06-8.25,12.12-12.43,18.13a1.63,1.63,0,0,0,.05,2.2q7.15,10.5,14.23,21c.18.26.35.53.53.81-.41.41-.85.24-1.24.24-4.55,0-9.1,0-13.65,0a1.84,1.84,0,0,1-1.89-1.08c-2.2-3.94-4.47-7.86-6.85-12l-2,3.39q-2.61,4.4-5.2,8.78c-.3.49-.54.91-1.27.9-4.82,0-9.65,0-14.47,0-.17-.59.26-.85.48-1.17,4.73-7,9.45-13.93,14.22-20.85a1.83,1.83,0,0,0,0-2.54c-4.28-6-8.48-12-12.69-18C296.19,38.67,295.78,38.37,295.79,37.71Z"/><path class="cls-1" d="M133.07,59.56c0-6.81,0-13.62,0-20.43,0-1.22.34-1.47,1.49-1.45q5.25.12,10.52,0c1.23,0,1.66.22,1.65,1.58-.06,9.84,0,19.67-.07,29.5,0,1.33.37,1.63,1.65,1.61,5.49-.07,11,0,16.48,0,1,0,1.4.14,1.37,1.28-.09,3-.06,6,0,8.93,0,.82-.24,1-1,1q-15.5,0-31,0c-1,0-1-.38-1-1.16C133.08,73.46,133.07,66.51,133.07,59.56Z"/><path class="cls-1" d="M188.54,59.72c0,6.86,0,13.72,0,20.58,0,.94-.17,1.3-1.22,1.28-3.74-.07-7.49,0-11.23,0-.84,0-1.15-.17-1.15-1.09q0-20.87,0-41.72c0-.79.2-1.07,1-1.06,3.84,0,7.68,0,11.51,0,1,0,1,.39,1,1.17C188.53,45.81,188.54,52.76,188.54,59.72Z"/><path class="cls-1" d="M203,95c0,6.75,0,13.09,0,19.43,0,1.22-.35,1.53-1.5,1.44-.71-.06-.86-.3-.85-.93,0-7.57,0-15.14,0-22.71,0-.38-.17-1,.51-.93.87.06,1.86-.43,2.56.64,1.59,2.4,3.27,4.75,4.91,7.12l8,11.56c.26.37.55.73.86,1.15a2,2,0,0,0,.19-1.42q0-8.8,0-17.59c0-.8-.18-1.54,1.15-1.54s1.2.61,1.2,1.48c0,7.23,0,14.47,0,21.7,0,.47.42,1.34-.44,1.38s-1.82.51-2.49-.45l-1.86-2.68L203.88,96.17C203.68,95.88,203.46,95.58,203,95Z"/><path class="cls-1" d="M322.57,95.43c0,6.37,0,12.74,0,19.11,0,.95-.19,1.31-1.23,1.31s-1.16-.35-1.16-1.23c0-7.29,0-14.57,0-21.85,0-.5-.37-1.35.38-1.45s2-.51,2.7.58c1.64,2.42,3.32,4.82,5,7.23L337,111.75c.43-.37.23-.82.23-1.2,0-6,0-12,0-18,0-.91.11-1.33,1.19-1.33s1.16.51,1.16,1.37c0,7.19,0,14.38,0,21.56,0,.56.46,1.51-.49,1.62s-1.89.41-2.64-.72c-2.54-3.82-5.18-7.56-7.79-11.34l-5.79-8.37Z"/><path class="cls-1" d="M244.28,99.1a9.47,9.47,0,0,0-8.71-7.68c-3.12-.36-6.25-.1-9.37-.22-1,0-1.29.24-1.27,1.25.06,3.69,0,7.37,0,11.06v11.2c0,.58-.11,1.14.81,1.11,3.36-.12,6.73.2,10.08-.25a9.43,9.43,0,0,0,8.38-7.35A18.89,18.89,0,0,0,244.28,99.1ZM242,107.37a7.36,7.36,0,0,1-6.65,6.19,60.18,60.18,0,0,1-7.23.26c-.87,0-.86-.47-.86-1.08,0-3.07,0-6.14,0-9.21s0-6,0-9.06c0-1,.31-1.3,1.29-1.26,2.12.08,4.25,0,6.37.2,3.95.45,6.29,2.49,7.12,6.37A17.51,17.51,0,0,1,242,107.37Z"/><path class="cls-1" d="M173.13,100.16C172,94.61,168,91,162.57,90.8c-5.9-.26-10.09,2.76-11.71,8.42a15.52,15.52,0,0,0-.55,4.34,16.73,16.73,0,0,0,.38,3.66,11.42,11.42,0,0,0,22.11.94A16.66,16.66,0,0,0,173.13,100.16Zm-2.8,8a8.91,8.91,0,0,1-16.86.16,13.79,13.79,0,0,1,.06-9.84,8.38,8.38,0,0,1,8.4-5.74c4.14,0,7.1,2.19,8.46,6.25A13.87,13.87,0,0,1,170.33,108.19Z"/><path class="cls-1" d="M316.58,103.5a16.13,16.13,0,0,0-.37-3.66c-1.19-5.41-5.15-8.82-10.52-9-5.71-.24-10,2.71-11.59,8.06a16.46,16.46,0,0,0-.31,8.13,11,11,0,0,0,11.08,9.31c5.5.15,9.8-3.17,11.25-8.72A15.05,15.05,0,0,0,316.58,103.5Zm-2.77,3.67c-1.2,4.65-4.62,7.32-9.12,7.11s-7.76-3.13-8.64-7.89a14.67,14.67,0,0,1,.22-6.59c1.24-4.62,4.45-7.13,9-7,4.4.09,7.58,2.81,8.61,7.38a12,12,0,0,1,.33,3.38A11.46,11.46,0,0,1,313.81,107.17Z"/><path class="cls-1" d="M174.21,18.2c0,3.69,0,7.38,0,11.06,0,1-.31,1.18-1.21,1.17s-1.25-.15-1.22-1.15c.06-3.21,0-6.43,0-9.64,0-.94-.26-1.18-1.18-1.17q-6.18.08-12.36,0c-.9,0-1.11.24-1.09,1.1,0,3.22,0,6.43,0,9.64,0,.86-.13,1.23-1.13,1.23s-1.23-.31-1.23-1.28Q155,18.1,154.9,7c0-.88.18-1.24,1.15-1.21s1.23.18,1.2,1.16c-.07,2.83,0,5.67,0,8.5,0,.81.23,1,1,1q6.24-.06,12.5,0c.87,0,1.12-.22,1.1-1.1-.06-2.74,0-5.48,0-8.22,0-.88.06-1.39,1.18-1.38s1.25.38,1.24,1.33C174.18,10.83,174.21,14.52,174.21,18.2Z"/><path class="cls-1" d="M179.14,18.14c0-3.68,0-7.37,0-11.06,0-.83.09-1.25,1.12-1.24,4.92.06,9.85,0,14.77,0,.81,0,1.19.13,1.18,1.07s-.45,1-1.15,1c-4.07,0-8.14,0-12.21,0-1,0-1.44.17-1.39,1.3.1,2.13.08,4.26,0,6.38,0,1,.34,1.25,1.3,1.24,3.74-.05,7.48,0,11.22,0,.66,0,1.28-.15,1.29.94s-.54,1.07-1.32,1.07c-3.74,0-7.48,0-11.22,0-1,0-1.3.24-1.27,1.25.08,2.45.07,4.91,0,7.37,0,.9.27,1.1,1.12,1.09,4.17,0,8.34,0,12.51,0,.66,0,1.26-.12,1.24,1s-.34,1.07-1.16,1.06c-5,0-9.94,0-14.91,0-1,0-1.14-.36-1.13-1.22C179.16,25.52,179.14,21.83,179.14,18.14Z"/><path class="cls-1" d="M267.51,114.47c-2.87-7.37-5.81-14.73-8.67-22.12a1.44,1.44,0,0,0-1.62-1.14c-.9,0-1.51.08-1.93,1.14-2.11,5.46-4.34,10.86-6.53,16.28l-2.87,7.08c2.43.22,2.43.21,3.2-1.79.6-1.54,1.23-3.06,1.77-4.62a1.42,1.42,0,0,1,1.61-1.16c3,.07,6,.06,9,0a1.35,1.35,0,0,1,1.55,1c.71,2,1.54,4,2.3,5.93.49,1.26,1.59.73,2.31.6S267.66,114.86,267.51,114.47Zm-6.61-8.29c-2.65,0-5.3,0-7.95,0-1.12,0-.67-.56-.48-1.06,1.46-3.73,2.92-7.46,4.5-11.53,1.57,4.15,3,8,4.51,11.89C261.73,106.13,261.42,106.18,260.9,106.18Z"/><path class="cls-1" d="M196,100.33c0,2.22,0,4.44,0,6.66-.09,6-3.67,9.44-9.72,9.3s-9.34-3.52-9.37-9.54c0-4.72,0-9.45,0-14.18,0-.84,0-1.39,1.15-1.37s1.22.4,1.21,1.33c0,4.35,0,8.69,0,13a19.36,19.36,0,0,0,.13,2.41A7.33,7.33,0,0,0,191,113.14c2.08-1.42,2.63-3.63,2.66-6,.07-4.86,0-9.73,0-14.6,0-.85,0-1.39,1.15-1.37s1.23.41,1.21,1.33c-.05,2.6,0,5.2,0,7.8Z"/><path class="cls-1" d="M140.84,91.23c2.27,0,4.54,0,6.81,0,.77,0,1.08.18,1.07,1s-.24,1-1,1c-3.69,0-7.38,0-11.08,0-.91,0-1.25.21-1.22,1.17.07,2.22.06,4.44,0,6.66,0,.9.3,1.11,1.14,1.1,3.18,0,6.35,0,9.52,0,.74,0,1.23,0,1.22,1s-.52,1-1.25,1c-3.17,0-6.34,0-9.51,0-.86,0-1.14.23-1.12,1.11,0,3.17,0,6.33,0,9.5,0,1-.46,1.08-1.27,1.11s-1.12-.24-1.11-1.11q0-11.2,0-22.4c0-.87.24-1.13,1.11-1.11C136.39,91.27,138.61,91.23,140.84,91.23Z"/><path class="cls-1" d="M141.63,19.09c0-3.35,0-6.71,0-10.06,0-.93-.25-1.21-1.18-1.18-2.13.06-4.27,0-6.39,0-.81,0-1-.23-1.05-1s.33-1,1.08-1q8.67,0,17.33,0c.8,0,1.21.11,1.19,1.06s-.44,1-1.14,1c-2.08,0-4.17,0-6.25,0-1,0-1.26.29-1.25,1.27,0,6.61,0,13.23,0,19.84,0,1-.06,1.58-1.32,1.48-.88-.07-1.11-.29-1.09-1.14C141.66,25.9,141.63,22.49,141.63,19.09Z"/><path class="cls-1" d="M273.85,104.47c0-3.31,0-6.61,0-9.92,0-1-.19-1.41-1.3-1.35-2.08.09-4.17,0-6.25,0-.79,0-1.05-.19-1.05-1s.28-1,1.06-1q8.67,0,17.33,0c.83,0,1.17.18,1.17,1.09s-.48.94-1.16.93c-2.09,0-4.17,0-6.25,0-1,0-1.26.32-1.25,1.29,0,6.66,0,13.32,0,20,0,1-.19,1.41-1.31,1.37-.93,0-1.08-.35-1.07-1.16C273.87,111.28,273.85,107.87,273.85,104.47Z"/><path class="cls-1" d="M287.24,103.64c0-3.73,0-7.46,0-11.19,0-.87.13-1.26,1.14-1.26s1.26.33,1.25,1.3q0,11.06,0,22.1c0,.87-.14,1.26-1.15,1.25s-1.27-.31-1.25-1.29C287.28,110.92,287.24,107.28,287.24,103.64Z"/><polygon class="cls-2" points="25.51 93.82 69.45 93.82 69.45 116.3 3.04 116.3 3.04 49.59 25.51 49.59 25.51 93.82"/><polygon class="cls-1" points="113.94 5.4 113.94 116.3 80.55 116.3 80.55 93.82 91.46 93.82 91.46 27.87 25.51 27.87 25.51 38.49 3.04 38.49 3.04 5.4 113.94 5.4"/></svg>