<svg id="Layer_1" data-name="Layer 1" xmlns="http://www.w3.org/2000/svg" viewBox="0 0 464.61 120"><defs><style>.cls-1{fill:#ea5321;}.cls-2{fill:#7fb900;}.cls-3{fill:#08a0ee;}.cls-4{fill:#faba01;}.cls-5{fill:#767676;}.cls-6{fill:#737373;}.cls-7{fill:#979797;}</style></defs><rect class="cls-1" x="4.31" y="6.37" width="52.71" height="52.71"/><rect class="cls-2" x="62.66" y="6.37" width="52.71" height="52.71"/><rect class="cls-3" x="4.31" y="63.55" width="52.71" height="52.71"/><rect class="cls-4" x="62.66" y="63.55" width="52.71" height="52.71"/><path class="cls-5" d="M140.83,20.36v5c0,11.44,0,22.88,0,34.31,0,1.72-.22,2.59-2.23,2.36s-4.89.66-6.11-.4c-1.4-1.22-.44-4.09-.45-6.23,0-15,0-30,0-45.05,0-3,0-3,3.12-3,2.88,0,5.77.06,8.64,0A2.26,2.26,0,0,1,146.33,9c2.77,7.11,5.6,14.2,8.42,21.29,2.3,5.78,4.61,11.56,7.08,17.75,1.39-3.26,2.67-6.15,3.86-9.08Q171.77,24,177.77,9a2.35,2.35,0,0,1,2.55-1.66c3,.07,6.05.11,9.06,0,1.66-.07,2.11.43,2.1,2.1-.06,15.79,0,31.58,0,47.36,0,5.23,0,5.23-5.19,5.23-4.09,0-4.09,0-4.09-4V20c-1.63,2.1-2.1,4.2-2.86,6.09-4.62,11.52-9.14,23.09-13.66,34.66a1.81,1.81,0,0,1-2,1.32c-5.11,0-5.21.12-7.11-4.51-4-9.82-7.94-19.68-11.92-29.52-1-2.59-2.15-5.15-3.23-7.73Z"/><path class="cls-5" d="M409.11,46.47c0,4.63,0,9.26,0,13.89,0,1.26-.27,1.76-1.63,1.68a46.46,46.46,0,0,0-5.9,0c-1.44.09-1.74-.47-1.73-1.8,0-9.2,0-18.39.07-27.58,0-1.88-.48-2.36-2.33-2.29-4.11.14-4.12,0-4.12-4.14,0-3.32,0-3.32,3.32-3.32a15.88,15.88,0,0,1,1.69,0c1.14.12,1.41-.42,1.42-1.47A50.25,50.25,0,0,1,400.2,15c1.32-10,11.27-12.86,18.48-11,.88.22.95.87.94,1.62,0,1.69-.05,3.37,0,5.06.06,1.3-.39,1.28-1.48.93-2.79-.88-5.66-1.14-7.57,1.63s-1.57,6-1.33,9.09c.06.71.81.64,1.37.64,3.73,0,7.45,0,11.18,0,1,0,1.34-.4,1.3-1.36a28.26,28.26,0,0,0-.06-4.42c-.49-2.52.82-3.45,2.92-4,1.22-.29,2.43-.63,3.63-1,2.72-.78,2.72-.79,2.72,2.11,0,2.39.05,4.77,0,7.16,0,1.12.37,1.46,1.45,1.43,2.18-.06,4.36,0,6.54,0,1,0,1.37.35,1.35,1.32-.05,1.74-.07,3.49,0,5.23,0,1.14-.75,1-1.43,1-2.18,0-4.36,0-6.54,0-.77,0-1.37,0-1.33,1.08.24,6.5-.31,13,.32,19.52.44,4.6,4.29,5,7.23,4,1.9-.68,2-.23,1.76,1.35a9.18,9.18,0,0,0,0,2.72c.45,2.42-.7,3.41-2.94,3.66-4.58.52-9.08.86-12.64-3-2.47-2.67-2.8-6-2.89-9.34-.15-6-.09-11.93,0-17.89,0-1.56-.27-2.23-2-2.15-3.3.15-6.61.14-9.91,0-1.75-.07-2.13.6-2.1,2.2C409.17,37.2,409.11,41.84,409.11,46.47Z"/><path class="cls-5" d="M317.09,36.83c-1.17-5.64-4-10.15-9.37-12.76-5.07-2.44-10.36-2.6-15.72-1.41C286.07,24,281.63,27.29,279.21,33a25.37,25.37,0,0,0-1.75,13.63c.72,5.25,2.87,9.64,7.15,12.75,5.2,3.8,11.14,4.28,17.32,3.27a17.75,17.75,0,0,0,8.14-3.5c5.46-4.29,7.39-10.2,7.57-17.63A15.9,15.9,0,0,0,317.09,36.83ZM307.92,42c0,4.34-.31,8-3.29,10.94-4.25,4.15-12.89,3.2-15.78-2a16.31,16.31,0,0,1,.36-17.26c2.16-3.55,5.84-4.43,9.69-4a9.27,9.27,0,0,1,8.12,6.3A14.11,14.11,0,0,1,307.92,42Z"/><path class="cls-5" d="M392.13,37.4a19.23,19.23,0,0,0-4.35-9.55c-6.31-7.28-19.92-7.48-27.42-2.41-6.23,4.2-8.08,10.52-8.2,15.94,0,8.91,2.44,15,8.75,18.89,4.26,2.65,9.07,3,14.08,2.63a18.83,18.83,0,0,0,16-11.73A26.29,26.29,0,0,0,392.13,37.4ZM381.81,49.47c-1.57,4.3-4.51,6-9.72,5.89-4.73-.08-7.82-2.26-9.42-6.51a15.74,15.74,0,0,1-.84-6.41,13,13,0,0,1,2.8-9.51c4.32-5.22,14.87-4.74,17.47,3.45A19.85,19.85,0,0,1,381.81,49.47Z"/><path class="cls-5" d="M345.84,31.88a26.33,26.33,0,0,0-7.6-2.52,8.15,8.15,0,0,0-4.25.46,3.41,3.41,0,0,0-2.54,3,4.18,4.18,0,0,0,2.21,4.35c2.72,1.57,5.74,2.45,8.49,4,4.72,2.65,6.48,6.65,5.74,11.75-.68,4.67-3.83,7.5-8.1,9-5.55,2-11.09,1.28-16.57-.52a1.8,1.8,0,0,1-1.35-2c.06-1.89,0-3.79,0-5.68,0-1.38.31-1.59,1.55-.83a17.63,17.63,0,0,0,10.93,2.86c1.95-.16,3.62-.77,4.27-2.7s-.12-3.52-2.22-4.91c-2.62-1.73-5.65-2.62-8.42-4.07a10.47,10.47,0,0,1-6-9.79,10.71,10.71,0,0,1,5.82-10c5.45-3.06,11.19-2.73,17-1a1.36,1.36,0,0,1,1.05,1.56C345.81,27.12,345.84,29.42,345.84,31.88Z"/><path class="cls-5" d="M246.71,32.82c-7.58-5.14-14.59-3.48-18.16.75-3.86,4.56-4,13.42-.3,17.92s10.92,5.59,18.44.71c0,2.74,0,5.27,0,7.8,0,.82-.8.91-1.33,1.13A24.82,24.82,0,0,1,234,63a20.13,20.13,0,0,1-9.83-3.13A17.28,17.28,0,0,1,216.47,48c-1.23-6.68-.17-13,4-18.6,2.91-3.91,7-5.84,11.56-6.91a24.33,24.33,0,0,1,13,.79c1.17.36,1.83.9,1.73,2.34C246.59,27.93,246.71,30.23,246.71,32.82Z"/><path class="cls-5" d="M263.07,28.83a34.92,34.92,0,0,1,3.6-4.29c2.56-2.3,5.58-2.33,8.68-2a1.35,1.35,0,0,1,1.29,1.56c-.07,2.52,0,5,0,7.71-1.92-.44-3.67-1.42-5.61-1.15-4.1.58-6.36,2.7-7.45,6.81a19,19,0,0,0-.48,5c0,6,0,11.91,0,17.87,0,1.39-.4,1.84-1.79,1.75a57.86,57.86,0,0,0-5.89,0c-1.17,0-1.57-.29-1.56-1.51q.06-18.09,0-36.17c0-1.07.29-1.5,1.42-1.46,2,.08,4.07.07,6.11,0,1.29,0,1.76.49,1.69,1.74C263,26,263.07,27.43,263.07,28.83Z"/><path class="cls-6" d="M302.06,75.43c-3-2.77-6.8-3.43-10.65-3.56-3.07-.11-6.17,0-9.23.06-2,0-2.18.53-2.17,2.13.05,6.09,0,12.18,0,18.26v17.47c0,3.29,0,3.23,3.22,3.2,1.27,0,1.75-.44,1.74-1.7-.06-3.93.08-7.86-.11-11.78-.08-1.71.37-2.18,2-2.16,3.27,0,6.55.21,9.78-.82C306.6,93.36,308.1,81,302.06,75.43Zm-1.73,10.18c-.17,3.53-2.65,6.27-6.46,7.15-2.55.59-5.15.38-7.73.45-1.17,0-1.17-.67-1.17-1.48,0-2.39,0-4.76,0-7.14h0V77.66c0-.63-.06-1.37.9-1.32,2.91.14,5.86-.44,8.73.45C299.13,78.2,300.57,80.4,300.33,85.61Z"/><path class="cls-6" d="M333.18,91.09a8.62,8.62,0,0,0-6.64-7.61,18.44,18.44,0,0,0-10.47.79c-3.78,1.32-4.21,2-3.16,6.07a14.34,14.34,0,0,1,10.16-3.17c2.94.18,4.4,1.25,5.15,4.2s.56,3.07-2.4,3.52c-3.71.55-7.51.65-11,2.14a7.74,7.74,0,0,0-4.94,6.73c-.29,3.12.22,6.08,3,8.09a11,11,0,0,0,15.22-2.66c.56.31.42.7.43,1,.12,2.75.11,2.75,2.85,2.74a4.44,4.44,0,0,1,.63,0c1.16.15,1.6-.28,1.56-1.51C333.35,104.66,333.93,97.87,333.18,91.09Zm-4.64,10a8.09,8.09,0,0,1-10.64,8.16,4.56,4.56,0,0,1-3.23-4.38,4.46,4.46,0,0,1,2.56-4.62c3.22-1.53,6.78-1.53,10.2-1.92C329.45,98.11,328.1,100.31,328.54,101.11Z"/><path class="cls-6" d="M435.48,86.56c-5.34-5.81-15.86-4.3-20.11,2.6-2.42,3.92-2.83,8.13-2.39,12.47.61,5.93,4.38,10.36,9.57,11.67a19.6,19.6,0,0,0,10.33-.49c4-1.14,4.32-1.68,3.94-6.09-5,2.75-5.95,3-10,2.94a8.86,8.86,0,0,1-8.84-8.06c-.21-1.62.17-2.19,1.94-2.15,5.76.11,11.53.06,17.29,0,.65,0,1.73.49,1.8-.79C439.21,94.25,438.6,90,435.48,86.56Zm-2.85,9.13c-1.82-.06-3.63,0-5.44,0v-.21c-2.7,0-5.4-.09-8.1.05-1,0-1.26-.33-1.08-1,.86-3.13,2.3-6,5.67-6.93,2.8-.81,5.65-.93,8,1.33a8.37,8.37,0,0,1,2.3,5.23C434.15,95.15,433.8,95.74,432.63,95.69Z"/><path class="cls-5" d="M209.59,42.63c0,5.89-.05,11.78,0,17.67,0,1.4-.41,1.81-1.77,1.73A52.61,52.61,0,0,0,202,62c-1.35.08-1.63-.43-1.63-1.68q.06-17.77,0-35.54c0-1.48.49-2,2-1.93a53.81,53.81,0,0,0,5.68,0c1.32-.07,1.66.4,1.65,1.67C209.56,30.58,209.59,36.61,209.59,42.63Z"/><path class="cls-6" d="M387,87.6A21.54,21.54,0,0,1,389.91,85c3.68-2.29,7.62-2.81,11.55-.8,3.58,1.84,5,5.18,5.06,9,.13,6,0,12.07.08,18.1,0,1.22-.24,1.73-1.6,1.72-3,0-3,.06-3-3,0-4.63.12-9.27-.06-13.9-.09-2.38-.16-4.89-1.93-6.87-3.25-3.64-9.49-2.63-12.05,1.94a10.23,10.23,0,0,0-1.25,5.2c0,4.91-.12,9.83.06,14.74.08,2.47-1.49,1.75-2.75,1.86s-2.32.06-2.29-1.89c.12-8.57.08-17.13,0-25.69,0-1.42.31-2,1.85-1.93,3.08.09,3.08,0,3.19,3.06C386.77,86.89,386.56,87.37,387,87.6Z"/><path class="cls-6" d="M368.56,75.24c0,2.26.05,4.48,0,6.7,0,1.16.26,1.68,1.51,1.57s2.38,0,3.58,0c2.47,0,3.2,1.05,2.55,3.44-.22.8-.74.72-1.29.72-1.61,0-3.23,0-4.84,0-1,0-1.52.2-1.51,1.37,0,5.61,0,11.22.06,16.82,0,3,2.78,4.59,5.9,3.63a12.73,12.73,0,0,0,1.32-.59c.94,3.49.18,4.6-3.26,4.87-5.5.42-8.92-2.72-8.92-8.24,0-5.26-.07-10.52,0-15.77,0-1.64-.41-2.36-2.09-2.08a3.93,3.93,0,0,1-.84,0,2.47,2.47,0,0,1-2.18-3.73c.45-.79,1.27-.4,1.91-.41,3.16-.07,3.17,0,3.17-3.26C363.64,76.27,363.64,76.27,368.56,75.24Z"/><path class="cls-6" d="M346.68,88.63c1.68-2.27,3.11-4.52,6.09-5.16,4-.86,4.66-.37,4.46,3.5,0,.33,0,.66,0,1-1.38,0-2.63-.59-4-.48-4,.33-6.43,5.19-6.5,9.25-.09,4.77-.1,9.54,0,14.3,0,1.64-.49,2.15-2,1.91a4.83,4.83,0,0,0-1.47,0c-1.33.2-1.65-.38-1.64-1.65q.07-13,0-26.07c0-1.33.3-1.81,1.73-1.8,3.35,0,3.35,0,3.36,3.29Z"/><path class="cls-6" d="M450.66,88.58a9.22,9.22,0,0,1,6.53-5.39c2.56-.57,4,.49,4.14,2.69.11,1.82-.18,2.33-2.26,1.86-4.5-1-8.07,2.3-8.68,7.45s-.35,10.59-.31,15.88c0,1.93-.85,2-2.25,1.91s-2.49.21-2.46-1.93c.13-8.55.16-17.1,0-25.64-.05-2.86,1.82-1.67,3.08-1.92,1.69-.35,1.79.77,1.68,1.92A4.07,4.07,0,0,0,450.66,88.58Z"/><path class="cls-5" d="M205.2,6.41a5.33,5.33,0,0,1,5.6,5.19c0,2.77-2.6,5.25-5.6,5.3a5.44,5.44,0,0,1-5.7-5.39C199.51,8.65,202,6.41,205.2,6.41Z"/><path class="cls-7" d="M132.39,107.27c4.66,2.52,9.21,3.89,14.21,2.78,2.35-.53,4.12-1.72,4.8-4.18a6,6,0,0,0-2-6.43c-1.9-1.71-4.26-2.68-6.47-3.89a44,44,0,0,1-6.65-4,9.73,9.73,0,0,1,.93-16.2c5.2-3.09,10.83-3,16.51-1.42a1.32,1.32,0,0,1,1.15,1.5c-.12,1.24.37,2.58-.3,3.68-.27.44-1-.24-1.49-.45a16.21,16.21,0,0,0-10.27-1.1c-2.55.57-4.69,1.74-5.27,4.5a6,6,0,0,0,3.15,6.76c2.9,1.71,5.9,3.25,8.84,4.88a18.15,18.15,0,0,1,3.86,2.9A9.88,9.88,0,0,1,156.09,107c-1.21,4.38-4.65,6.29-8.77,7.19a26.5,26.5,0,0,1-12.69-.67c-1.72-.45-2.52-1.24-2.26-3.07A23.59,23.59,0,0,0,132.39,107.27Z"/><path class="cls-7" d="M223.2,100.72c4.49.12,9,0,13.48,0,4.82,0,5,0,4.5-4.81s-2.06-9-7-10.79c-5.17-1.86-9.87-.91-13.64,3.19-4.4,4.79-4.72,10.55-3.43,16.56,1,4.62,3.64,7.9,8.25,9.21a17.1,17.1,0,0,0,11.53-.85c2.84-1.19,3.2-2.19,2-5.36a18,18,0,0,1-6.28,2.79c-5.74,1.11-10.69-2.36-11.24-7.89C221.23,101.34,221.47,100.67,223.2,100.72ZM221.44,96c.85-4.82,5-9.1,10.09-7.57a7.73,7.73,0,0,1,5.08,7.44c-.06,1-.56,1.11-1.35,1.1-2.1,0-4.21,0-6.32,0h-6.32C222,97,221.27,97,221.44,96Z"/><path class="cls-7" d="M187.25,85.32c4.86-.45,4.85-.45,6.28,3.68l7,20.12c2.34-7.67,5.38-15.19,8.07-22.83.32-.89,4.15-1.68,4.83-1,.39.39,0,.81-.1,1.15-3.44,8.73-6.94,17.44-10.34,26.19-.68,1.77-2,1.07-3.17,1.19-1,.1-1.88.12-2.35-1.14C194.12,103.6,190.71,94.56,187.25,85.32Z"/><path class="cls-7" d="M182.56,92.74c0,6.45-.08,12.9,0,19.35,0,2.13-1.24,1.7-2.44,1.73s-2.27.25-2.25-1.7q.12-19.35,0-38.7c0-1.91,1-1.78,2.23-1.73s2.51-.49,2.47,1.7C182.48,79.84,182.56,86.29,182.56,92.74Z"/><path class="cls-7" d="M263.18,88.9c-.29.62-.76.51-1.23.47-5.59-.5-8.74,2.28-8.86,8-.1,4.84-.15,9.69,0,14.52.06,2.06-1,2-2.44,2s-2.37-.16-2.34-2.1q.16-12.32,0-24.63c0-2,.86-2.07,2.38-2.07s2.66.06,2.37,2.07a25.88,25.88,0,0,0,0,3.26c1.44-2.82,2.88-4.81,5.6-5.41a8.83,8.83,0,0,1,1.84-.3c2.48,0,3.72,1.93,2.7,4.19"/><path class="cls-7" d="M164,99.38c0-4.2.09-8.41,0-12.61-.06-2.06,1.24-1.59,2.34-1.59s2.37-.45,2.35,1.6q-.15,12.72,0,25.43c0,2.06-1.25,1.59-2.36,1.59s-2.39.45-2.33-1.6C164.12,107.93,164,103.66,164,99.38Z"/><path class="cls-7" d="M166.3,72.12a2.95,2.95,0,1,1,0,5.89,2.95,2.95,0,0,1,0-5.89Z"/></svg>