<svg xmlns="http://www.w3.org/2000/svg" width="85" height="83.607" viewBox="0 0 85 83.607"><g transform="translate(-8 -16)"><g transform="translate(8 16)"><path d="M21.934,363.869A13.934,13.934,0,1,0,8,349.934a13.934,13.934,0,0,0,13.934,13.934Zm-4.18-3.6V358.3a4.18,4.18,0,1,1,8.361,0v1.97a11.111,11.111,0,0,1-8.361,0Zm1.393-11.725a2.787,2.787,0,1,1,2.787,2.787A2.787,2.787,0,0,1,19.148,348.541Zm2.787-9.754a11.141,11.141,0,0,1,6.967,19.84V358.3a6.966,6.966,0,0,0-3.071-5.773,5.574,5.574,0,1,0-7.792,0,6.966,6.966,0,0,0-3.071,5.773v.332a11.141,11.141,0,0,1,6.967-19.84Z" transform="translate(-8 -280.262)"/><path d="M183.814,246.194a1.393,1.393,0,0,0-1.159-.62H176.11l-3.829-2.553a1.392,1.392,0,0,0-.773-.234h-2.365l-3.829-2.553a1.393,1.393,0,0,0-1.4-.087l-5.574,2.787a1.391,1.391,0,0,0-.362.261l-2.787,2.787a1.4,1.4,0,0,0-.174.212l-2.787,4.18a1.393,1.393,0,0,0,0,1.546l2.787,4.18a1.4,1.4,0,0,0,.323.342l5.574,4.18a1.393,1.393,0,0,0,.836.279h1.578l1.223,8.558a1.393,1.393,0,0,0,1.106,1.169l6.967,1.393a1.408,1.408,0,0,0,.275.027,1.393,1.393,0,0,0,1.351-1.056l1.263-5.051,3.732-2.488a1.393,1.393,0,0,0,.62-1.159v-3.176l3.228-1.076a1.393,1.393,0,0,0,.806-.7l2.787-5.574a1.393,1.393,0,0,0-.087-1.4Zm-2.147,9.388-3.633,1.211a1.393,1.393,0,0,0-.953,1.321v3.435l-3.56,2.373a1.393,1.393,0,0,0-.579.821l-1.071,4.285-4.7-.939-1.254-8.779a1.393,1.393,0,0,0-1.379-1.2h-2.322l-5.011-3.758-2.14-3.209,2.195-3.292,2.529-2.529L164.44,243l3.507,2.338a1.392,1.392,0,0,0,.773.234h2.365l3.829,2.553a1.392,1.392,0,0,0,.773.234h6.222l1.925,2.887Z" transform="translate(-126.917 -200.983)"/><path d="M48,84.229a36.184,36.184,0,0,0,1.895,11.593l2.641-.891q-.391-1.158-.694-2.341h3.125a1.393,1.393,0,0,0,1.159-.62l2.547-3.82,6.565-2.626a1.4,1.4,0,0,0,.468-.308l2.787-2.787a1.393,1.393,0,0,0,.408-.985v-6.39l2.918-2.918,4.607,3.455.063.045,4.18,2.787a1.393,1.393,0,0,0,1.583-.025l9.754-6.967a1.393,1.393,0,0,0,.542-.8l1.393-5.574a1.393,1.393,0,0,0-.579-1.5l-3.783-2.522-1.242-3.727a1.393,1.393,0,0,0-.881-.881l-7.168-2.388.688-3.1q1.606-.156,3.253-.159a33.285,33.285,0,0,1,12.039,2.232l1-2.6A36.251,36.251,0,0,0,48,84.229Zm30.215-27.94,7.7,2.567,1.173,3.518a1.393,1.393,0,0,0,.549.719L91,65.335l-1.031,4.124-8.554,6.11-3.348-2.232L72.524,69.18a1.393,1.393,0,0,0-1.821.129l-4.18,4.18a1.393,1.393,0,0,0-.408.985v6.39l-2.177,2.176-6.7,2.681a1.393,1.393,0,0,0-.642.521L54.221,89.8H51.25A33.473,33.473,0,0,1,78.029,51.365l-.733,3.3A1.393,1.393,0,0,0,78.215,56.289Z" transform="translate(-41.033 -42.426)"/><path d="M349.934,16a13.934,13.934,0,1,0,13.934,13.934A13.934,13.934,0,0,0,349.934,16Zm-4.18,24.266V38.3a4.18,4.18,0,0,1,8.361,0v1.971a11.111,11.111,0,0,1-8.361,0Zm1.393-11.725a2.787,2.787,0,1,1,2.787,2.787,2.787,2.787,0,0,1-2.787-2.787ZM356.9,38.627V38.3a6.966,6.966,0,0,0-3.071-5.773,5.574,5.574,0,1,0-7.792,0,6.966,6.966,0,0,0-3.071,5.773v.332a11.148,11.148,0,1,1,13.934,0Z" transform="translate(-278.869 -16)"/><path d="M481.784,234.064c-.033-.96-.1-1.93-.2-2.882l-2.772.285c.091.888.153,1.794.184,2.692Z" transform="translate(-396.808 -193.702)"/><path d="M473.431,198.746c.219.885.41,1.791.566,2.69l2.746-.477c-.168-.964-.372-1.934-.607-2.883Z" transform="translate(-392.362 -166.362)"/><path d="M283.142,290.411A38.817,38.817,0,0,1,256,301.4v2.787a41.8,41.8,0,0,0,41.779-40.363l-2.785-.094A38.8,38.8,0,0,1,283.142,290.411Z" transform="translate(-212.803 -220.579)"/><path d="M16.14,263.823c.033.96.1,1.93.2,2.882l2.772-.285c-.091-.888-.153-1.794-.184-2.692Z" transform="translate(-14.722 -220.579)"/><path d="M22.866,297.32c-.219-.885-.41-1.791-.566-2.69l-2.746.477c.168.964.372,1.934.607,2.883Z" transform="translate(-17.542 -246.098)"/><path d="M30.776,29.775A38.817,38.817,0,0,1,57.919,18.787V16A41.8,41.8,0,0,0,16.14,56.363l2.785.094A38.8,38.8,0,0,1,30.776,29.775Z" transform="translate(-14.722 -16)"/><rect width="3" height="3" transform="translate(40 25)"/><rect width="3" height="3" transform="translate(17 35)"/><rect width="3" height="3" transform="translate(33 49)"/><rect width="3" height="3" transform="translate(68 40)"/><path d="M213.7,214.7l-1.28,6.4-3.7,2.467a1.393,1.393,0,0,0-.562,1.56l1.64,5.467a33.47,33.47,0,0,1-27.672,1.655l-1,2.6a36.254,36.254,0,0,0,47.377-45.4l-2.641.891q.521,1.543.887,3.129l-10.179-.784a1.394,1.394,0,0,0-1.222.554l-4.18,5.574a1.393,1.393,0,0,0-.1,1.527l5.2,9.107-2.453,4.907A1.391,1.391,0,0,0,213.7,214.7Zm1.339,7.514,1.357-6.784,2.7-5.407a1.393,1.393,0,0,0-.036-1.315l-5.12-8.958,3.172-4.229,10.159.782a33.472,33.472,0,0,1-15,32.842l-1.148-3.828,3.322-2.215A1.393,1.393,0,0,0,215.037,222.209Z" transform="translate(-150.966 -159.231)"/></g></g></svg>