<svg xmlns="http://www.w3.org/2000/svg" width="61.002" height="83.7" viewBox="0 0 61.002 83.7"><defs><style>.a{stroke:#000;stroke-width:0.7px;}</style></defs><g transform="translate(-19.122 -7.65)"><g transform="translate(19.5 8)"><path class="a" d="M37.012,960.362a1,1,0,1,0,.278,1.975H39.3v27.4L19.6,1034.043c-.484,2.041.823,4.165,1.945,5.245,1.439,1.338,3.655,2.164,6.729,2.252,12.094-.114,24.486-.155,35.433-.061a8.667,8.667,0,0,0,5.216,1.882,7.378,7.378,0,0,0,5.617-2.376,9.4,9.4,0,0,0,2.253-6.449V976.222h1.975a.987.987,0,1,0,0-1.975H58.833a.992.992,0,1,0,.185,1.975h1.975v28.448l-5.9-14.718V962.337h1.945a.987.987,0,1,0,0-1.975H37.012Zm4.259,1.975H53.123v27.769a.99.99,0,0,0,.062.339l4.969,12.435H35.623l5.556-12.5a.989.989,0,0,0,.093-.4Zm21.7,13.885H74.822v7.9H62.969Zm0,9.874H74.822v48.442a7.412,7.412,0,0,1-1.728,5.122,5.329,5.329,0,0,1-4.167,1.728,6.531,6.531,0,0,1-4.259-1.728,7.436,7.436,0,0,1-1.7-5.153V986.095Zm5.926.926a.987.987,0,1,0,.988.987A.988.988,0,0,0,68.9,987.02Zm2.963,5.06a.987.987,0,1,0,.988.987A.988.988,0,0,0,71.859,992.081ZM68.9,997.017a.987.987,0,1,0,.988.987A.987.987,0,0,0,68.9,997.017Zm2.963,5.924a.987.987,0,1,0,.988.987A.987.987,0,0,0,71.859,1002.942Zm-37.1,1.913h24.2l2.037,5.122v24.529a10.333,10.333,0,0,0,1.142,4.968c-11.685-.038-23.555-.045-33.859.093-2.724-.084-4.4-.8-5.4-1.728a4.376,4.376,0,0,1-1.358-3.24l13.241-29.744Zm8.55.895a1.975,1.975,0,1,0,1.975,1.975A1.975,1.975,0,0,0,43.308,1005.749Zm8.8,1.08a1.975,1.975,0,1,0,1.975,1.975A1.975,1.975,0,0,0,52.1,1006.829Zm-13.828,3.949a.987.987,0,1,0,.988.987A.988.988,0,0,0,38.277,1010.779Zm10.865,1.975a.987.987,0,1,0,.988.987A.988.988,0,0,0,49.142,1012.753Zm6.914,3.949a.987.987,0,1,0,.988.987A.987.987,0,0,0,56.055,1016.7Zm-15.8.987a.987.987,0,1,0,.988.987A.987.987,0,0,0,40.252,1017.69Zm7.9,4.937a.987.987,0,1,0,.988.987A.987.987,0,0,0,48.154,1022.627Zm-12.84,3.949a.987.987,0,1,0,.988.987A.987.987,0,0,0,35.314,1026.576Zm19.754.987a.987.987,0,1,0,.988.987A.988.988,0,0,0,55.068,1027.563Z" transform="translate(-19.5 -960.362)"/></g></g></svg>