<svg xmlns="http://www.w3.org/2000/svg" width="57.934" height="84.3" viewBox="0 0 57.934 84.3"><defs><style>.a{stroke:#000;}</style></defs><g transform="translate(-89.4 -12.3)"><g transform="translate(89.9 12.8)"><g transform="translate(0 11.691)"><path class="a" d="M124.191,138.389H101.8a.691.691,0,0,1-.684-.65c-.581-10.1-3.47-14.428-6.256-18.6-2.547-3.812-4.957-7.419-4.957-14.906a23.136,23.136,0,0,1,21.624-23.043.68.68,0,0,1,.632.325,1.009,1.009,0,0,1,.068.137l3.043,1.744a.684.684,0,0,1,.308.8,14.01,14.01,0,0,0-.632,4.205,14.283,14.283,0,0,0,.632,4.188.692.692,0,0,1-.308.8l-2.838,1.641,2.462,4.274,2.855-1.641a.7.7,0,0,1,.855.137A13.76,13.76,0,0,0,125.849,102a.679.679,0,0,1,.53.667v3.282h4.906v-3.282a.679.679,0,0,1,.53-.667,13.866,13.866,0,0,0,3.094-1.094.689.689,0,0,1,.632.017.741.741,0,0,1,.359.513,23.228,23.228,0,0,1,.171,2.8c0,7.487-2.41,11.094-4.957,14.906-2.786,4.171-5.675,8.5-6.256,18.6A.664.664,0,0,1,124.191,138.389Zm-21.761-1.368h21.111c.7-10.017,3.744-14.6,6.445-18.633,2.53-3.795,4.718-7.077,4.718-14.137,0-.547-.017-1.128-.068-1.709a13.514,13.514,0,0,1-1.983.667v3.419a.686.686,0,0,1-.684.684h-6.291a.686.686,0,0,1-.684-.684V103.21a15.145,15.145,0,0,1-7.043-4.086l-2.974,1.709a.7.7,0,0,1-.94-.256l-3.145-5.453a.673.673,0,0,1-.068-.513.649.649,0,0,1,.325-.41l2.957-1.709a15.467,15.467,0,0,1,0-8.154l-2.957-1.709c-.017,0-.017-.017-.034-.017a21.762,21.762,0,0,0-19.829,21.641c0,7.077,2.188,10.342,4.718,14.137C98.686,122.441,101.729,127,102.43,137.022Z" transform="translate(-89.9 -81.191)"/></g><g transform="translate(10.855 67.522)"><path class="a" d="M176.323,412.911H154.938a1.532,1.532,0,0,1-1.538-1.539v-2.034a1.543,1.543,0,0,1,1.538-1.538h21.4a1.532,1.532,0,0,1,1.538,1.538v2.034A1.558,1.558,0,0,1,176.323,412.911Zm-21.385-3.744a.184.184,0,0,0-.171.171v2.034a.184.184,0,0,0,.171.171h21.4a.184.184,0,0,0,.171-.171v-2.034a.184.184,0,0,0-.171-.171Z" transform="translate(-153.4 -407.8)"/></g><g transform="translate(12.376 71.3)"><path class="a" d="M182.181,434.994H163.838a1.543,1.543,0,0,1-1.538-1.538v-2.017a1.543,1.543,0,0,1,1.538-1.538h18.342a1.543,1.543,0,0,1,1.538,1.538v2.017A1.532,1.532,0,0,1,182.181,434.994Zm-18.342-3.761a.161.161,0,0,0-.171.171v2.017a.171.171,0,0,0,.171.171h18.342a.184.184,0,0,0,.171-.171V431.4a.171.171,0,0,0-.171-.171Z" transform="translate(-162.3 -429.9)"/></g><g transform="translate(15.966 75.009)"><path class="a" d="M190.411,459.891a7.128,7.128,0,0,1-7.111-7.111c0-.188.017-.359.017-.53a.691.691,0,0,1,.684-.65h12.821a.676.676,0,0,1,.684.633c.017.171.017.342.017.53A7.109,7.109,0,0,1,190.411,459.891Zm-5.727-6.906a5.738,5.738,0,0,0,11.47,0Z" transform="translate(-183.3 -451.6)"/></g><g transform="translate(15.896 47.725)"><path class="a" d="M194.071,313.274h-.017a.7.7,0,0,1-.667-.7l.359-10.257-10.615-9.128a.679.679,0,1,1,.889-1.026l10.872,9.333a.737.737,0,0,1,.239.547l-.376,10.581A.691.691,0,0,1,194.071,313.274Z" transform="translate(-182.89 -291.989)"/></g><g transform="translate(30.804 53.368)"><path class="a" d="M270.784,340.2h0a.686.686,0,0,1-.684-.684l.137-13.829a.686.686,0,0,1,.684-.684h0a.686.686,0,0,1,.684.684l-.137,13.829A.686.686,0,0,1,270.784,340.2Z" transform="translate(-270.1 -325)"/></g><g transform="translate(21.197 40.377)"><path class="a" d="M214.584,277.513a.686.686,0,0,1-.684-.684V249.684a.684.684,0,1,1,1.368,0v27.146A.675.675,0,0,1,214.584,277.513Z" transform="translate(-213.9 -249)"/></g><g transform="translate(14.41 57.966)"><path class="a" d="M174.884,362.5a.686.686,0,0,1-.684-.684v-9.231a.684.684,0,0,1,1.368,0v9.231A.686.686,0,0,1,174.884,362.5Z" transform="translate(-174.2 -351.9)"/></g><g transform="translate(20.899)"><path class="a" d="M233.329,50.612h-6.291a.686.686,0,0,1-.684-.684V46.51a15.145,15.145,0,0,1-7.043-4.086l-2.974,1.709a.7.7,0,0,1-.94-.256l-3.145-5.453a.673.673,0,0,1-.068-.513.649.649,0,0,1,.325-.41l2.957-1.709a15.467,15.467,0,0,1,0-8.154l-2.957-1.709a.709.709,0,0,1-.325-.41.673.673,0,0,1,.068-.513l3.145-5.47a.692.692,0,0,1,.94-.256l2.974,1.709a15.137,15.137,0,0,1,7.043-4.068V13.484a.686.686,0,0,1,.684-.684h6.291a.686.686,0,0,1,.684.684V16.92a15.275,15.275,0,0,1,7.06,4.068l2.957-1.709a.673.673,0,0,1,.513-.068.649.649,0,0,1,.41.325l3.145,5.47a.673.673,0,0,1,.068.513.649.649,0,0,1-.325.41l-2.957,1.709a15.466,15.466,0,0,1,0,8.154l2.957,1.709a.709.709,0,0,1,.325.41.673.673,0,0,1-.068.513l-3.145,5.453a.7.7,0,0,1-.94.256l-2.957-1.709A15.284,15.284,0,0,1,234,46.51v3.419A.661.661,0,0,1,233.329,50.612Zm-5.607-1.368h4.923V45.963a.679.679,0,0,1,.53-.667,13.873,13.873,0,0,0,7.265-4.188.7.7,0,0,1,.855-.137l2.838,1.641,2.462-4.274L243.756,36.7a.683.683,0,0,1-.308-.8,13.818,13.818,0,0,0,.632-4.188,14.662,14.662,0,0,0-.632-4.205.692.692,0,0,1,.308-.8l2.838-1.624L244.132,20.8l-2.838,1.641a.677.677,0,0,1-.838-.137,13.975,13.975,0,0,0-7.282-4.171.679.679,0,0,1-.53-.667v-3.3h-4.923v3.3a.679.679,0,0,1-.53.667,13.777,13.777,0,0,0-7.248,4.188.68.68,0,0,1-.838.137L216.234,20.8l-2.462,4.274,2.838,1.624a.684.684,0,0,1,.308.8,14.01,14.01,0,0,0-.632,4.205,14.283,14.283,0,0,0,.632,4.188.692.692,0,0,1-.308.8l-2.838,1.641,2.462,4.274,2.855-1.641a.7.7,0,0,1,.855.137,13.76,13.76,0,0,0,7.248,4.188.679.679,0,0,1,.53.667v3.282Z" transform="translate(-212.159 -12.8)"/></g><g transform="translate(28.923 8.923)"><path class="a" d="M269.1,85a10,10,0,1,1,10.017-10A10.013,10.013,0,0,1,269.1,85Zm0-18.65a8.633,8.633,0,1,0,8.65,8.633A8.641,8.641,0,0,0,269.1,66.35Z" transform="translate(-259.1 -65)"/></g><g transform="translate(33.094 13.077)"><path class="a" d="M289.329,100.958a5.829,5.829,0,1,1,5.846-5.829A5.836,5.836,0,0,1,289.329,100.958Zm0-10.291a4.462,4.462,0,1,0,4.479,4.462A4.465,4.465,0,0,0,289.329,90.668Z" transform="translate(-283.5 -89.3)"/></g><g transform="translate(28.257 48.018)"><path class="a" d="M258.568,300.418a3.359,3.359,0,1,1,3.368-3.368A3.363,3.363,0,0,1,258.568,300.418Zm0-5.351a1.992,1.992,0,1,0,2,1.983A2,2,0,0,0,258.568,295.068Z" transform="translate(-255.2 -293.7)"/></g><g transform="translate(18.513 35.026)"><path class="a" d="M201.568,224.418a3.359,3.359,0,1,1,3.35-3.368A3.363,3.363,0,0,1,201.568,224.418Zm0-5.35a1.991,1.991,0,1,0,1.983,1.983A1.973,1.973,0,0,0,201.568,219.068Z" transform="translate(-198.2 -217.7)"/></g><g transform="translate(11.111 43.385)"><path class="a" d="M158.268,273.335a3.368,3.368,0,1,1,3.368-3.368A3.363,3.363,0,0,1,158.268,273.335Zm0-5.368a2,2,0,1,0,2,2A2,2,0,0,0,158.268,267.967Z" transform="translate(-154.9 -266.6)"/></g><g transform="translate(11.829 52.428)"><path class="a" d="M162.45,326.218a3.359,3.359,0,1,1,3.368-3.368A3.36,3.36,0,0,1,162.45,326.218Zm0-5.35a1.991,1.991,0,0,0,0,3.983,1.991,1.991,0,1,0,0-3.983Z" transform="translate(-159.1 -319.5)"/></g></g></g></svg>