<svg xmlns="http://www.w3.org/2000/svg" width="552" height="411.306" viewBox="0 0 552 411.306"><defs><style>.a{fill:#e0e0e0;}.b{fill:#ebebeb;}.c{fill:#f5f5f5;}.d,.h,.k,.l,.o,.r{fill:#fff;}.d{opacity:0.7;}.e,.i{fill:#1034fe;}.f,.h{opacity:0.3;}.g{fill:#263238;}.i,.o{opacity:0.6;}.j,.k{opacity:0.2;}.l,.p{opacity:0.4;}.m{fill:#e4897b;}.n{fill:#ce6f64;}.q{fill:#de5753;}.r{opacity:0.1;}</style></defs><g transform="translate(0 -55)"><g transform="translate(0 55)"><rect class="a" width="552" height="0.276" transform="translate(0 361.45)"/><rect class="a" width="53.688" height="0.276" transform="translate(99.912 373.991)"/><rect class="a" width="14.12" height="0.276" transform="translate(73.847 374.135)"/><rect class="a" width="16.527" height="0.276" transform="translate(214.971 372.28)"/><rect class="a" width="67.587" height="0.276" transform="translate(237.846 372.28)"/><rect class="a" width="62.685" height="0.276" transform="translate(401.735 374.411)"/><rect class="a" width="16.604" height="0.276" transform="translate(378.992 374.411)"/><rect class="a" width="14.231" height="0.276" transform="translate(480.98 369.432)"/><path class="a" d="M257.674,367.211H44.5a6.3,6.3,0,0,1-6.293-6.3V61.249A6.3,6.3,0,0,1,44.5,55H257.674a6.3,6.3,0,0,1,6.3,6.3v299.6A6.3,6.3,0,0,1,257.674,367.211ZM44.5,55.221a6.028,6.028,0,0,0-6.017,6.028V360.907a6.028,6.028,0,0,0,6.017,6.028H257.674a6.039,6.039,0,0,0,6.028-6.028V61.249a6.039,6.039,0,0,0-6.028-6.028Z" transform="translate(3.974 -55)"/><path class="a" d="M473.986,367.211H260.8a6.315,6.315,0,0,1-6.3-6.3V61.249A6.315,6.315,0,0,1,260.8,55H473.986a6.3,6.3,0,0,1,6.282,6.249V360.907A6.3,6.3,0,0,1,473.986,367.211ZM260.8,55.221a6.039,6.039,0,0,0-6.028,6.028V360.907a6.039,6.039,0,0,0,6.028,6.028H473.986a6.039,6.039,0,0,0,6.028-6.028V61.249a6.039,6.039,0,0,0-6.028-6.028Z" transform="translate(26.468 -55)"/><path class="a" d="M508.452,387.015H432.386a3.1,3.1,0,0,1-3.1-3.091V183.912a2.55,2.55,0,0,0-2.55-2.55h-8v-.552h8.026a3.1,3.1,0,0,1,3.1,3.1V383.924a2.55,2.55,0,0,0,2.55,2.539h76.044Z" transform="translate(43.548 -41.916)"/><path class="a" d="M508.452,383.362H434.97a3.1,3.1,0,0,1-3.1-3.1V180.292a2.55,2.55,0,0,0-2.539-2.55h-10.6v-.552h10.6a3.1,3.1,0,0,1,3.091,3.1V380.26a2.561,2.561,0,0,0,2.55,2.55h73.482Z" transform="translate(43.548 -42.292)"/><path class="a" d="M508.452,379.706h-70.9a3.1,3.1,0,0,1-3.1-3.1V176.592a2.55,2.55,0,0,0-2.539-2.55H418.73v-.552h13.182a3.1,3.1,0,0,1,3.091,3.1V376.6a2.561,2.561,0,0,0,2.55,2.55h70.9Z" transform="translate(43.548 -42.677)"/><path class="a" d="M508.452,376.045H440.137a3.1,3.1,0,0,1-3.091-3.1V172.931a2.55,2.55,0,0,0-2.55-2.539H418.73v-.552h15.754a3.1,3.1,0,0,1,3.1,3.091V372.943a2.55,2.55,0,0,0,2.539,2.55h68.327Z" transform="translate(43.548 -43.057)"/><path class="a" d="M508.452,372.428H442.72a3.1,3.1,0,0,1-3.091-3.1V169.292a2.55,2.55,0,0,0-2.55-2.55H418.73v-.552h18.348a3.1,3.1,0,0,1,3.1,3.1v199.99a2.55,2.55,0,0,0,2.539,2.55h65.732Z" transform="translate(43.548 -43.436)"/><path class="a" d="M508.456,368.725H445.318a3.1,3.1,0,0,1-3.1-3.1v-200a2.55,2.55,0,0,0-2.55-2.55H418.69v-.552h20.976a3.1,3.1,0,0,1,3.1,3.1v200a2.539,2.539,0,0,0,2.55,2.55h63.138Z" transform="translate(43.544 -43.818)"/><path class="a" d="M508.452,365.065H447.9a3.1,3.1,0,0,1-3.1-3.091V161.962a2.561,2.561,0,0,0-2.55-2.55H418.73v-.552h23.482a3.1,3.1,0,0,1,3.1,3.1V361.974a2.539,2.539,0,0,0,2.55,2.539h60.588Z" transform="translate(43.548 -44.199)"/><rect class="a" width="68.227" height="0.552" transform="translate(239.612 158.998)"/><rect class="a" width="68.227" height="0.552" transform="translate(239.612 154.957)"/><rect class="a" width="68.227" height="0.552" transform="translate(239.612 150.917)"/><rect class="a" width="68.227" height="0.552" transform="translate(239.612 146.876)"/><rect class="a" width="68.227" height="0.552" transform="translate(239.612 142.847)"/><rect class="a" width="68.227" height="0.552" transform="translate(239.612 138.806)"/><rect class="a" width="68.227" height="0.552" transform="translate(239.612 134.765)"/><rect class="a" width="68.227" height="0.552" transform="translate(239.612 295.85)"/><rect class="a" width="68.227" height="0.552" transform="translate(239.612 291.809)"/><rect class="a" width="68.227" height="0.552" transform="translate(239.612 287.769)"/><rect class="a" width="68.227" height="0.552" transform="translate(239.612 283.728)"/><rect class="a" width="68.227" height="0.552" transform="translate(239.612 279.687)"/><rect class="a" width="68.227" height="0.552" transform="translate(239.612 275.658)"/><rect class="a" width="68.227" height="0.552" transform="translate(239.612 271.617)"/><path class="a" d="M101.918,369.194h-26.5a3.1,3.1,0,0,1-3.1-3.058V166.091a2.539,2.539,0,0,0-2.539-2.55H38.46V163H69.78a3.091,3.091,0,0,1,3.091,3.1V366.136a2.55,2.55,0,0,0,2.55,2.55h26.5Z" transform="translate(4 -43.768)"/><path class="a" d="M101.915,372.855H72.835a3.1,3.1,0,0,1-3.1-3.1v-200a2.539,2.539,0,0,0-2.539-2.55H38.49v-.552h28.7a3.1,3.1,0,0,1,3.091,3.1v200a2.55,2.55,0,0,0,2.55,2.55h29.079Z" transform="translate(4.003 -43.388)"/><path class="a" d="M101.918,376.515H70.255a3.1,3.1,0,0,1-3.1-3.1V173.4a2.539,2.539,0,0,0-2.539-2.539H38.46v-.552H64.614A3.1,3.1,0,0,1,67.7,173.4V373.413a2.561,2.561,0,0,0,2.55,2.55h31.663Z" transform="translate(4 -43.008)"/><path class="a" d="M101.918,380.172H67.694a3.1,3.1,0,0,1-3.1-3.1V177.058a2.55,2.55,0,0,0-2.55-2.55H38.46V174H62.019a3.1,3.1,0,0,1,3.1,3.1V377.07a2.561,2.561,0,0,0,2.55,2.55H101.9Z" transform="translate(4 -42.624)"/><path class="a" d="M101.918,383.836H65.088a3.1,3.1,0,0,1-3.1-3.1V180.722a2.55,2.55,0,0,0-2.55-2.55H38.46v-.552H59.436a3.1,3.1,0,0,1,3.1,3.1V380.734a2.561,2.561,0,0,0,2.55,2.55h36.829Z" transform="translate(4 -42.248)"/><path class="a" d="M101.918,387.485H62.505a3.1,3.1,0,0,1-3.1-3.091V184.382a2.561,2.561,0,0,0-2.55-2.55H38.46v-.552H56.853a3.1,3.1,0,0,1,3.1,3.1V384.394a2.55,2.55,0,0,0,2.55,2.539h39.413Z" transform="translate(4 -41.867)"/><path class="a" d="M101.918,391.145H59.966a3.1,3.1,0,0,1-3.1-3.091V188.042a2.561,2.561,0,0,0-2.55-2.55H38.46v-.552H54.269a3.1,3.1,0,0,1,3.1,3.1V388.054a2.539,2.539,0,0,0,2.55,2.539h41.952Z" transform="translate(4 -41.486)"/><rect class="b" width="112.012" height="16.615" transform="translate(105.918 344.823)"/><rect class="a" width="22.72" height="16.615" transform="translate(240.65 361.45) rotate(180)"/><rect class="c" width="119.596" height="293.631" transform="translate(98.333 51.204)"/><rect class="b" width="129.808" height="2.506" transform="translate(108.38 48.686)"/><rect class="b" width="30.294" height="293.631" transform="translate(248.223 344.823) rotate(180)"/><rect class="b" width="112.464" height="32.171" transform="translate(101.899 54.714)"/><rect class="b" width="112.464" height="32.171" transform="translate(101.899 308.954)"/><rect class="b" width="112.464" height="32.171" transform="translate(101.899 272.633)"/><rect class="b" width="112.464" height="32.171" transform="translate(101.899 236.322)"/><rect class="b" width="112.464" height="32.171" transform="translate(101.899 200.001)"/><rect class="b" width="112.464" height="32.171" transform="translate(101.899 163.679)"/><rect class="b" width="112.464" height="32.171" transform="translate(101.899 127.357)"/><rect class="b" width="112.464" height="32.171" transform="translate(101.899 91.036)"/><rect class="d" width="31.309" height="22.985" rx="4.25" transform="translate(178.66 59.318)"/><rect class="c" width="5.873" height="5.884" rx="1.28" transform="translate(206.316 67.874) rotate(90)"/><rect class="d" width="31.309" height="22.985" rx="4.25" transform="translate(178.66 95.628)"/><rect class="c" width="5.873" height="5.884" rx="1.28" transform="translate(206.316 104.196) rotate(90)"/><rect class="d" width="31.309" height="22.985" rx="4.25" transform="translate(178.66 131.95)"/><rect class="c" width="5.873" height="5.884" rx="1.28" transform="translate(206.316 140.517) rotate(90)"/><rect class="d" width="31.309" height="22.985" rx="4.25" transform="translate(178.66 168.272)"/><rect class="c" width="5.873" height="5.884" rx="1.28" transform="translate(206.316 176.828) rotate(90)"/><rect class="d" width="31.309" height="22.985" rx="4.25" transform="translate(178.66 204.593)"/><rect class="c" width="5.873" height="5.884" rx="1.28" transform="translate(206.316 213.149) rotate(90)"/><rect class="d" width="31.309" height="22.985" rx="4.25" transform="translate(178.66 240.915)"/><rect class="c" width="5.873" height="5.884" rx="1.28" transform="translate(206.316 249.471) rotate(90)"/><rect class="d" width="31.309" height="22.985" rx="4.25" transform="translate(178.66 277.236)"/><rect class="c" width="5.873" height="5.884" rx="1.28" transform="translate(206.316 285.792) rotate(90)"/><rect class="d" width="31.309" height="22.985" rx="4.25" transform="translate(178.66 313.547)"/><rect class="c" width="5.873" height="5.884" rx="1.28" transform="translate(206.316 322.114) rotate(90)"/><rect class="c" width="5.873" height="5.884" rx="1.28" transform="translate(197.252 67.863) rotate(90)"/><rect class="c" width="5.873" height="5.884" rx="1.28" transform="translate(197.252 104.184) rotate(90)"/><rect class="c" width="5.873" height="5.884" rx="1.28" transform="translate(197.252 140.506) rotate(90)"/><rect class="c" width="5.873" height="5.884" rx="1.28" transform="translate(197.252 176.828) rotate(90)"/><rect class="c" width="5.873" height="5.884" rx="1.28" transform="translate(197.263 213.149) rotate(90)"/><rect class="c" width="5.873" height="5.884" rx="1.28" transform="translate(197.263 249.471) rotate(90)"/><rect class="c" width="5.873" height="5.884" rx="1.28" transform="translate(197.252 285.781) rotate(90)"/><rect class="c" width="5.873" height="5.884" rx="1.28" transform="translate(197.252 322.103) rotate(90)"/><circle class="c" cx="3.709" cy="3.709" r="3.709" transform="translate(163.657 67.09)"/><path class="c" d="M146.061,119.479a3.72,3.72,0,1,1-3.72-3.709A3.72,3.72,0,0,1,146.061,119.479Z" transform="translate(14.416 -48.68)"/><path class="c" d="M136.451,119.479a3.72,3.72,0,1,1-3.72-3.709,3.72,3.72,0,0,1,3.72,3.709Z" transform="translate(13.417 -48.68)"/><circle class="c" cx="3.709" cy="3.709" r="3.709" transform="translate(131.829 67.09)"/><circle class="c" cx="3.709" cy="3.709" r="3.709" transform="translate(163.657 103.412)"/><path class="c" d="M146.061,152.349a3.72,3.72,0,1,1-3.72-3.709A3.72,3.72,0,0,1,146.061,152.349Z" transform="translate(14.416 -45.261)"/><path class="c" d="M136.451,152.349a3.72,3.72,0,1,1-3.72-3.709,3.72,3.72,0,0,1,3.72,3.709Z" transform="translate(13.417 -45.261)"/><circle class="c" cx="3.709" cy="3.709" r="3.709" transform="translate(131.829 103.412)"/><path class="c" d="M155.7,185.279a3.71,3.71,0,1,1-1.09-2.627,3.72,3.72,0,0,1,1.09,2.627Z" transform="translate(15.419 -41.837)"/><path class="c" d="M146.061,185.279a3.709,3.709,0,1,1-1.09-2.627A3.72,3.72,0,0,1,146.061,185.279Z" transform="translate(14.416 -41.837)"/><path class="c" d="M136.451,185.279a3.709,3.709,0,1,1-1.09-2.627A3.72,3.72,0,0,1,136.451,185.279Z" transform="translate(13.417 -41.837)"/><path class="c" d="M126.841,185.279a3.709,3.709,0,1,1-1.09-2.627,3.72,3.72,0,0,1,1.09,2.627Z" transform="translate(12.418 -41.837)"/><path class="c" d="M155.7,218.179a3.709,3.709,0,1,1-1.09-2.627,3.72,3.72,0,0,1,1.09,2.627Z" transform="translate(15.419 -38.415)"/><path class="c" d="M146.061,218.179a3.709,3.709,0,1,1-1.09-2.627A3.72,3.72,0,0,1,146.061,218.179Z" transform="translate(14.416 -38.415)"/><path class="c" d="M136.451,218.179a3.709,3.709,0,1,1-1.09-2.627A3.72,3.72,0,0,1,136.451,218.179Z" transform="translate(13.417 -38.415)"/><path class="c" d="M126.841,218.179a3.709,3.709,0,1,1-1.09-2.627,3.721,3.721,0,0,1,1.09,2.627Z" transform="translate(12.418 -38.415)"/><path class="c" d="M155.7,251.08a3.709,3.709,0,1,1-1.086-2.634,3.72,3.72,0,0,1,1.086,2.634Z" transform="translate(15.419 -34.995)"/><path class="c" d="M146.061,251.08a3.709,3.709,0,1,1-1.086-2.634A3.72,3.72,0,0,1,146.061,251.08Z" transform="translate(14.416 -34.995)"/><path class="c" d="M136.451,251.08a3.709,3.709,0,1,1-1.086-2.634,3.721,3.721,0,0,1,1.086,2.634Z" transform="translate(13.417 -34.995)"/><path class="c" d="M126.841,251.08a3.709,3.709,0,1,1-1.086-2.634A3.72,3.72,0,0,1,126.841,251.08Z" transform="translate(12.418 -34.995)"/><path class="c" d="M155.7,283.98a3.72,3.72,0,1,1-3.72-3.72A3.72,3.72,0,0,1,155.7,283.98Z" transform="translate(15.419 -31.573)"/><path class="c" d="M146.061,283.98a3.72,3.72,0,1,1-3.72-3.72A3.72,3.72,0,0,1,146.061,283.98Z" transform="translate(14.416 -31.573)"/><path class="c" d="M136.451,283.98a3.72,3.72,0,1,1-3.72-3.72,3.721,3.721,0,0,1,3.72,3.72Z" transform="translate(13.417 -31.573)"/><path class="c" d="M126.841,283.98a3.72,3.72,0,1,1-3.72-3.72A3.72,3.72,0,0,1,126.841,283.98Z" transform="translate(12.418 -31.573)"/><circle class="c" cx="3.709" cy="3.709" r="3.709" transform="translate(163.657 285.009)"/><path class="c" d="M146.061,316.869a3.72,3.72,0,1,1-3.72-3.709,3.721,3.721,0,0,1,3.72,3.709Z" transform="translate(14.416 -28.151)"/><path class="c" d="M136.451,316.869a3.72,3.72,0,1,1-3.72-3.709,3.721,3.721,0,0,1,3.72,3.709Z" transform="translate(13.417 -28.151)"/><circle class="c" cx="3.709" cy="3.709" r="3.709" transform="translate(131.829 285.009)"/><circle class="c" cx="3.709" cy="3.709" r="3.709" transform="translate(163.657 321.33)"/><path class="c" d="M146.061,349.769a3.72,3.72,0,1,1-3.72-3.709A3.72,3.72,0,0,1,146.061,349.769Z" transform="translate(14.416 -24.73)"/><path class="c" d="M136.451,349.769a3.72,3.72,0,1,1-3.72-3.709,3.72,3.72,0,0,1,3.72,3.709Z" transform="translate(13.417 -24.73)"/><circle class="c" cx="3.709" cy="3.709" r="3.709" transform="translate(131.829 321.33)"/><circle class="a" cx="8.048" cy="8.048" r="8.048" transform="translate(108.336 62.751)"/><circle class="a" cx="8.048" cy="8.048" r="8.048" transform="translate(108.336 99.073)"/><circle class="a" cx="8.048" cy="8.048" r="8.048" transform="translate(107.159 150.114) rotate(-80.8)"/><circle class="a" cx="8.048" cy="8.048" r="8.048" transform="translate(107.156 186.436) rotate(-80.8)"/><circle class="a" cx="8.048" cy="8.048" r="8.048" transform="translate(105.863 211.723) rotate(-22.39)"/><circle class="a" cx="8.048" cy="8.048" r="8.048" transform="translate(105.854 248.045) rotate(-22.39)"/><circle class="a" cx="8.048" cy="8.048" r="8.048" transform="translate(108.336 280.67)"/><circle class="a" cx="8.048" cy="8.048" r="8.048" transform="translate(108.336 316.992)"/><rect class="b" width="129.51" height="15.246" transform="translate(304.008 346.203)"/><rect class="a" width="21.572" height="15.246" transform="translate(455.091 361.45) rotate(180)"/><rect class="c" width="136.697" height="269.31" transform="translate(296.81 76.894)"/><rect class="b" width="146.39" height="2.307" transform="translate(306.349 74.586)"/><rect class="b" width="28.77" height="269.31" transform="translate(462.278 346.203) rotate(180)"/><rect class="b" width="129.93" height="29.51" transform="translate(430.129 109.627) rotate(180)"/><rect class="b" width="129.93" height="29.51" transform="translate(430.129 342.814) rotate(180)"/><rect class="b" width="129.93" height="29.51" transform="translate(430.129 309.495) rotate(180)"/><rect class="b" width="129.93" height="29.51" transform="translate(430.129 276.188) rotate(180)"/><rect class="b" width="129.93" height="29.51" transform="translate(430.129 242.869) rotate(180)"/><rect class="b" width="129.93" height="29.51" transform="translate(430.129 209.572) rotate(180)"/><rect class="b" width="129.93" height="29.51" transform="translate(430.129 176.254) rotate(180)"/><rect class="b" width="129.93" height="29.51" transform="translate(430.129 142.946) rotate(180)"/><rect class="a" width="71.307" height="21.075" rx="3.97" transform="translate(375.669 105.41) rotate(180)"/><rect class="c" width="5.388" height="5.586" rx="1.19" transform="translate(313.415 92.184) rotate(90)"/><rect class="a" width="71.307" height="21.075" rx="3.97" transform="translate(375.669 138.729) rotate(180)"/><rect class="c" width="5.388" height="5.586" rx="1.19" transform="translate(313.426 125.492) rotate(90)"/><rect class="a" width="71.307" height="21.075" rx="3.97" transform="translate(375.669 172.036) rotate(180)"/><rect class="c" width="5.388" height="5.586" rx="1.19" transform="translate(313.426 158.81) rotate(90)"/><rect class="a" width="71.307" height="21.075" rx="3.97" transform="translate(375.669 205.355) rotate(180)"/><rect class="c" width="5.388" height="5.586" rx="1.19" transform="translate(313.415 192.118) rotate(90)"/><rect class="a" width="71.307" height="21.075" rx="3.97" transform="translate(375.669 238.663) rotate(180)"/><rect class="c" width="5.388" height="5.586" rx="1.19" transform="translate(313.426 225.426) rotate(90)"/><rect class="a" width="71.307" height="21.075" rx="3.97" transform="translate(375.669 271.97) rotate(180)"/><rect class="c" width="5.388" height="5.586" rx="1.19" transform="translate(313.415 258.744) rotate(90)"/><rect class="a" width="71.307" height="21.075" rx="3.97" transform="translate(375.669 305.289) rotate(180)"/><rect class="c" width="5.388" height="5.586" rx="1.19" transform="translate(313.426 292.052) rotate(90)"/><rect class="a" width="71.307" height="21.075" rx="3.97" transform="translate(375.669 338.597) rotate(180)"/><rect class="c" width="5.388" height="5.586" rx="1.19" transform="translate(313.426 325.371) rotate(90)"/><rect class="c" width="5.388" height="5.586" rx="1.19" transform="translate(322.015 92.184) rotate(90)"/><rect class="c" width="5.388" height="5.586" rx="1.19" transform="translate(322.026 125.492) rotate(90)"/><rect class="c" width="5.388" height="5.586" rx="1.19" transform="translate(322.026 158.81) rotate(90)"/><rect class="c" width="5.388" height="5.586" rx="1.19" transform="translate(322.026 192.118) rotate(90)"/><rect class="c" width="5.388" height="5.586" rx="1.19" transform="translate(322.026 225.426) rotate(90)"/><rect class="c" width="5.388" height="5.586" rx="1.19" transform="translate(322.015 258.744) rotate(90)"/><rect class="c" width="5.388" height="5.586" rx="1.19" transform="translate(322.026 292.052) rotate(90)"/><rect class="c" width="5.388" height="5.586" rx="1.19" transform="translate(322.026 325.371) rotate(90)"/><rect class="c" width="5.388" height="5.586" rx="1.19" transform="translate(330.615 92.184) rotate(90)"/><rect class="c" width="5.388" height="5.586" rx="1.19" transform="translate(330.626 125.492) rotate(90)"/><rect class="c" width="5.388" height="5.586" rx="1.19" transform="translate(330.626 158.799) rotate(90)"/><rect class="c" width="5.388" height="5.586" rx="1.19" transform="translate(330.626 192.118) rotate(90)"/><rect class="c" width="5.388" height="5.586" rx="1.19" transform="translate(330.626 225.426) rotate(90)"/><rect class="c" width="5.388" height="5.586" rx="1.19" transform="translate(330.615 258.744) rotate(90)"/><rect class="c" width="5.388" height="5.586" rx="1.19" transform="translate(330.626 292.052) rotate(90)"/><rect class="c" width="5.388" height="5.586" rx="1.19" transform="translate(330.626 325.36) rotate(90)"/><rect class="c" width="5.388" height="5.586" rx="1.19" transform="translate(339.226 92.184) rotate(90)"/><rect class="c" width="5.388" height="5.586" rx="1.19" transform="translate(339.226 125.492) rotate(90)"/><rect class="c" width="5.388" height="5.586" rx="1.19" transform="translate(339.226 158.799) rotate(90)"/><rect class="c" width="5.388" height="5.586" rx="1.19" transform="translate(339.226 192.118) rotate(90)"/><rect class="c" width="5.388" height="5.586" rx="1.19" transform="translate(339.226 225.426) rotate(90)"/><rect class="c" width="5.388" height="5.586" rx="1.19" transform="translate(339.226 258.744) rotate(90)"/><rect class="c" width="5.388" height="5.586" rx="1.19" transform="translate(339.226 292.052) rotate(90)"/><rect class="c" width="5.388" height="5.586" rx="1.19" transform="translate(339.226 325.36) rotate(90)"/><path class="c" d="M346.8,141.261a3.533,3.533,0,1,0,3.533-3.411,3.466,3.466,0,0,0-3.533,3.411Z" transform="translate(36.067 -46.384)"/><path class="c" d="M355.93,141.261a3.533,3.533,0,1,0,3.522-3.411,3.467,3.467,0,0,0-3.522,3.411Z" transform="translate(37.017 -46.384)"/><path class="c" d="M365.05,141.261a3.533,3.533,0,1,0,3.533-3.411,3.467,3.467,0,0,0-3.533,3.411Z" transform="translate(37.965 -46.384)"/><path class="c" d="M374.18,141.261a3.522,3.522,0,1,0,3.522-3.411,3.467,3.467,0,0,0-3.522,3.411Z" transform="translate(38.915 -46.384)"/><path class="c" d="M346.8,171.434A3.533,3.533,0,1,0,350.333,168a3.467,3.467,0,0,0-3.533,3.433Z" transform="translate(36.067 -43.248)"/><path class="c" d="M355.93,171.431a3.533,3.533,0,1,0,3.522-3.411,3.467,3.467,0,0,0-3.522,3.411Z" transform="translate(37.017 -43.246)"/><path class="c" d="M365.05,171.431a3.533,3.533,0,1,0,3.533-3.411,3.467,3.467,0,0,0-3.533,3.411Z" transform="translate(37.965 -43.246)"/><path class="c" d="M374.18,171.431a3.522,3.522,0,1,0,3.522-3.411,3.467,3.467,0,0,0-3.522,3.411Z" transform="translate(38.915 -43.246)"/><path class="c" d="M346.8,201.6a3.533,3.533,0,1,0,3.533-3.4A3.467,3.467,0,0,0,346.8,201.6Z" transform="translate(36.067 -40.107)"/><path class="c" d="M355.93,201.6a3.533,3.533,0,1,0,3.522-3.4,3.467,3.467,0,0,0-3.522,3.4Z" transform="translate(37.016 -40.107)"/><path class="c" d="M365.05,201.6a3.533,3.533,0,1,0,3.533-3.4A3.467,3.467,0,0,0,365.05,201.6Z" transform="translate(37.965 -40.107)"/><path class="c" d="M374.18,201.6a3.522,3.522,0,1,0,3.522-3.4,3.467,3.467,0,0,0-3.522,3.4Z" transform="translate(38.915 -40.107)"/><path class="c" d="M346.8,231.781a3.533,3.533,0,1,0,3.533-3.411,3.467,3.467,0,0,0-3.533,3.411Z" transform="translate(36.067 -36.97)"/><path class="c" d="M355.93,231.781a3.533,3.533,0,1,0,3.522-3.411,3.467,3.467,0,0,0-3.522,3.411Z" transform="translate(37.017 -36.97)"/><path class="c" d="M365.05,231.781a3.533,3.533,0,1,0,3.533-3.411,3.467,3.467,0,0,0-3.533,3.411Z" transform="translate(37.965 -36.97)"/><path class="c" d="M374.18,231.781a3.522,3.522,0,1,0,3.522-3.411,3.467,3.467,0,0,0-3.522,3.411Z" transform="translate(38.915 -36.97)"/><path class="c" d="M346.8,261.95a3.533,3.533,0,1,0,3.533-3.4A3.467,3.467,0,0,0,346.8,261.95Z" transform="translate(36.067 -33.831)"/><path class="c" d="M355.93,261.95a3.533,3.533,0,1,0,3.522-3.4,3.467,3.467,0,0,0-3.522,3.4Z" transform="translate(37.016 -33.831)"/><path class="c" d="M365.05,261.95a3.533,3.533,0,1,0,3.533-3.4A3.467,3.467,0,0,0,365.05,261.95Z" transform="translate(37.965 -33.831)"/><path class="c" d="M374.18,261.95a3.522,3.522,0,1,0,3.522-3.4,3.467,3.467,0,0,0-3.522,3.4Z" transform="translate(38.915 -33.831)"/><path class="c" d="M346.8,292.131a3.533,3.533,0,1,0,3.533-3.411,3.466,3.466,0,0,0-3.533,3.411Z" transform="translate(36.067 -30.693)"/><path class="c" d="M355.93,292.131a3.533,3.533,0,1,0,3.522-3.411,3.467,3.467,0,0,0-3.522,3.411Z" transform="translate(37.017 -30.693)"/><path class="c" d="M365.05,292.131a3.533,3.533,0,1,0,3.533-3.411,3.467,3.467,0,0,0-3.533,3.411Z" transform="translate(37.965 -30.693)"/><path class="c" d="M374.18,292.131a3.522,3.522,0,1,0,3.522-3.411,3.467,3.467,0,0,0-3.522,3.411Z" transform="translate(38.915 -30.693)"/><path class="c" d="M346.8,322.32a3.533,3.533,0,1,0,3.533-3.4,3.466,3.466,0,0,0-3.533,3.4Z" transform="translate(36.067 -27.552)"/><path class="c" d="M355.93,322.32a3.533,3.533,0,1,0,3.522-3.4,3.467,3.467,0,0,0-3.522,3.4Z" transform="translate(37.016 -27.552)"/><path class="c" d="M365.05,322.32a3.533,3.533,0,1,0,3.533-3.4,3.466,3.466,0,0,0-3.533,3.4Z" transform="translate(37.965 -27.552)"/><path class="c" d="M374.18,322.32a3.522,3.522,0,1,0,3.522-3.4,3.467,3.467,0,0,0-3.522,3.4Z" transform="translate(38.915 -27.552)"/><path class="c" d="M346.8,352.47a3.533,3.533,0,1,0,3.533-3.4A3.466,3.466,0,0,0,346.8,352.47Z" transform="translate(36.067 -24.417)"/><path class="c" d="M355.93,352.47a3.533,3.533,0,1,0,3.522-3.4,3.467,3.467,0,0,0-3.522,3.4Z" transform="translate(37.016 -24.417)"/><path class="c" d="M365.05,352.47a3.533,3.533,0,1,0,3.533-3.4A3.467,3.467,0,0,0,365.05,352.47Z" transform="translate(37.965 -24.417)"/><path class="c" d="M374.18,352.47a3.522,3.522,0,1,0,3.522-3.4,3.467,3.467,0,0,0-3.522,3.4Z" transform="translate(38.915 -24.417)"/></g><g transform="translate(61.945 441.312)"><ellipse class="c" cx="214.055" cy="12.497" rx="214.055" ry="12.497"/></g><g transform="translate(111.57 177.577)"><rect class="e" width="129.091" height="14.727" transform="translate(19.673 262.498)"/><rect class="f" width="129.091" height="14.727" transform="translate(19.673 262.498)"/><rect class="g" width="3.235" height="10.543" transform="translate(23.029 264.596)"/><rect class="g" width="3.235" height="10.543" transform="translate(28.704 264.596)"/><rect class="g" width="3.235" height="10.543" transform="translate(34.39 264.596)"/><rect class="g" width="3.235" height="10.543" transform="translate(40.064 264.596)"/><rect class="g" width="3.235" height="10.543" transform="translate(45.739 264.596)"/><rect class="g" width="3.235" height="10.543" transform="translate(51.413 264.596)"/><rect class="g" width="3.235" height="10.543" transform="translate(57.099 264.596)"/><rect class="g" width="3.235" height="10.543" transform="translate(62.773 264.596)"/><rect class="g" width="3.235" height="10.543" transform="translate(68.448 264.596)"/><rect class="g" width="3.235" height="10.543" transform="translate(74.123 264.596)"/><rect class="g" width="3.235" height="10.543" transform="translate(79.797 264.596)"/><rect class="g" width="3.235" height="10.543" transform="translate(85.483 264.596)"/><rect class="g" width="3.235" height="10.543" transform="translate(91.157 264.596)"/><rect class="g" width="3.235" height="10.543" transform="translate(96.832 264.596)"/><rect class="g" width="3.235" height="10.543" transform="translate(102.506 264.596)"/><rect class="g" width="3.235" height="10.543" transform="translate(108.192 264.596)"/><rect class="g" width="3.235" height="10.543" transform="translate(113.867 264.596)"/><rect class="g" width="3.235" height="10.543" transform="translate(119.541 264.596)"/><rect class="g" width="3.235" height="10.543" transform="translate(125.216 264.596)"/><rect class="g" width="3.235" height="10.543" transform="translate(130.901 264.596)"/><rect class="g" width="3.235" height="10.543" transform="translate(136.576 264.596)"/><rect class="g" width="3.235" height="10.543" transform="translate(142.25 264.596)"/><rect class="g" width="20.137" height="14.727" transform="translate(168.912 277.237) rotate(180)"/><rect class="e" width="135.814" height="260.268" transform="translate(12.961 2.23)"/><rect class="h" width="135.814" height="260.268" transform="translate(12.961 2.23)"/><rect class="g" width="144.856" height="2.23" transform="translate(21.859 0)"/><rect class="e" width="1.104" height="10.963" transform="translate(7.573 123.504)"/><rect class="e" width="1.104" height="28.516" transform="translate(7.573 138.155)"/><rect class="e" width="26.86" height="260.268" transform="translate(175.624 262.498) rotate(180)"/><rect class="i" width="129.488" height="25.834" rx="3.27" transform="translate(16.118 71.076)"/><rect class="j" width="129.488" height="25.834" rx="3.27" transform="translate(16.118 71.076)"/><path class="e" d="M223.572,240.015,218.35,229.24v28.439h16.174V243.448h-5.41a6.149,6.149,0,0,1-5.542-3.433Z" transform="translate(-88.862 -159.456)"/><rect class="e" width="129.488" height="28.516" transform="translate(16.118 5.343)"/><rect class="k" width="129.488" height="28.516" transform="translate(16.118 5.343)"/><rect class="e" width="129.488" height="28.516" transform="translate(16.118 230.703)"/><rect class="k" width="129.488" height="28.516" transform="translate(16.118 230.703)"/><rect class="e" width="129.488" height="28.516" transform="translate(16.118 198.51)"/><rect class="k" width="129.488" height="28.516" transform="translate(16.118 198.51)"/><rect class="e" width="129.488" height="28.516" transform="translate(16.118 166.318)"/><rect class="k" width="129.488" height="28.516" transform="translate(16.118 166.318)"/><rect class="e" width="129.488" height="28.516" transform="translate(16.118 134.125)"/><rect class="k" width="129.488" height="28.516" transform="translate(16.118 134.125)"/><rect class="e" width="129.488" height="28.516" transform="translate(16.118 101.932)"/><rect class="k" width="129.488" height="28.516" transform="translate(16.118 101.932)"/><rect class="e" width="129.488" height="28.516" transform="translate(0 69.74)"/><rect class="k" width="129.488" height="28.516" transform="translate(0 69.74)"/><rect class="e" width="129.488" height="28.516" transform="translate(16.118 37.536)"/><rect class="k" width="129.488" height="28.516" transform="translate(16.118 37.536)"/><rect class="e" width="57.552" height="20.369" rx="3.77" transform="translate(84.158 9.417)"/><rect class="k" width="5.211" height="19.486" rx="1.6" transform="translate(134.125 17.002) rotate(90)"/><rect class="e" width="57.552" height="20.369" rx="3.77" transform="translate(84.158 41.61)"/><rect class="k" width="5.211" height="19.486" rx="1.6" transform="translate(134.125 49.194) rotate(90)"/><rect class="e" width="57.552" height="20.369" rx="3.77" transform="translate(68.04 73.813)"/><rect class="k" width="5.211" height="19.486" rx="1.6" transform="translate(118.007 81.387) rotate(90)"/><rect class="e" width="57.552" height="20.369" rx="3.77" transform="translate(84.158 106.006)"/><rect class="k" width="5.211" height="19.486" rx="1.6" transform="translate(134.125 113.58) rotate(90)"/><rect class="e" width="57.552" height="20.369" rx="3.77" transform="translate(84.158 138.199)"/><rect class="k" width="5.211" height="19.486" rx="1.6" transform="translate(134.125 145.772) rotate(90)"/><rect class="e" width="57.552" height="20.369" rx="3.77" transform="translate(84.158 170.391)"/><rect class="k" width="5.211" height="19.486" rx="1.6" transform="translate(134.125 177.965) rotate(90)"/><rect class="e" width="57.552" height="20.369" rx="3.77" transform="translate(84.158 202.584)"/><rect class="k" width="5.211" height="19.486" rx="1.6" transform="translate(134.125 210.168) rotate(90)"/><rect class="e" width="57.552" height="20.369" rx="3.77" transform="translate(84.158 234.777)"/><rect class="k" width="5.211" height="19.486" rx="1.6" transform="translate(134.136 242.361) rotate(90)"/><circle class="e" cx="3.29" cy="3.29" r="3.29" transform="translate(70.855 16.317)"/><circle class="e" cx="3.29" cy="3.29" r="3.29" transform="translate(61.449 16.317)"/><circle class="e" cx="3.29" cy="3.29" r="3.29" transform="translate(52.054 16.317)"/><circle class="l" cx="3.29" cy="3.29" r="3.29" transform="translate(52.054 16.317)"/><path class="e" d="M146.274,184.1a3.312,3.312,0,1,1-3.312-3.312A3.312,3.312,0,0,1,146.274,184.1Z" transform="translate(-97.047 -164.495)"/><circle class="e" cx="3.29" cy="3.29" r="3.29" transform="translate(70.855 48.51)"/><circle class="e" cx="3.29" cy="3.29" r="3.29" transform="translate(61.449 48.51)"/><circle class="e" cx="3.29" cy="3.29" r="3.29" transform="translate(52.054 48.51)"/><path class="e" d="M146.274,213.312A3.312,3.312,0,1,1,142.962,210,3.312,3.312,0,0,1,146.274,213.312Z" transform="translate(-97.047 -161.457)"/><path class="l" d="M146.274,213.312A3.312,3.312,0,1,1,142.962,210,3.312,3.312,0,0,1,146.274,213.312Z" transform="translate(-97.047 -161.457)"/><circle class="e" cx="3.29" cy="3.29" r="3.29" transform="translate(54.736 80.702)"/><circle class="l" cx="3.29" cy="3.29" r="3.29" transform="translate(54.736 80.702)"/><circle class="e" cx="3.29" cy="3.29" r="3.29" transform="translate(45.33 80.702)"/><circle class="e" cx="3.29" cy="3.29" r="3.29" transform="translate(35.935 80.702)"/><circle class="l" cx="3.29" cy="3.29" r="3.29" transform="translate(35.935 80.702)"/><circle class="e" cx="3.29" cy="3.29" r="3.29" transform="translate(26.529 80.702)"/><circle class="e" cx="3.29" cy="3.29" r="3.29" transform="translate(70.855 112.895)"/><circle class="l" cx="3.29" cy="3.29" r="3.29" transform="translate(70.855 112.895)"/><circle class="e" cx="3.29" cy="3.29" r="3.29" transform="translate(61.449 112.895)"/><circle class="l" cx="3.29" cy="3.29" r="3.29" transform="translate(61.449 112.895)"/><circle class="e" cx="3.29" cy="3.29" r="3.29" transform="translate(52.054 112.895)"/><path class="e" d="M146.274,271.582a3.312,3.312,0,1,1-3.312-3.312A3.312,3.312,0,0,1,146.274,271.582Z" transform="translate(-97.047 -155.397)"/><circle class="e" cx="3.29" cy="3.29" r="3.29" transform="translate(70.855 145.088)"/><circle class="e" cx="3.29" cy="3.29" r="3.29" transform="translate(61.449 145.088)"/><circle class="l" cx="3.29" cy="3.29" r="3.29" transform="translate(61.449 145.088)"/><circle class="e" cx="3.29" cy="3.29" r="3.29" transform="translate(52.054 145.088)"/><path class="e" d="M146.274,300.742a3.312,3.312,0,1,1-3.312-3.312A3.312,3.312,0,0,1,146.274,300.742Z" transform="translate(-97.047 -152.364)"/><circle class="e" cx="3.29" cy="3.29" r="3.29" transform="translate(70.855 177.28)"/><circle class="e" cx="3.29" cy="3.29" r="3.29" transform="translate(61.449 177.28)"/><circle class="e" cx="3.29" cy="3.29" r="3.29" transform="translate(52.054 177.28)"/><circle class="l" cx="3.29" cy="3.29" r="3.29" transform="translate(52.054 177.28)"/><path class="e" d="M146.274,329.9a3.312,3.312,0,1,1-3.312-3.312A3.312,3.312,0,0,1,146.274,329.9Z" transform="translate(-97.047 -149.332)"/><path class="l" d="M146.274,329.9a3.312,3.312,0,1,1-3.312-3.312A3.312,3.312,0,0,1,146.274,329.9Z" transform="translate(-97.047 -149.332)"/><path class="e" d="M171.824,359.072a3.312,3.312,0,1,1-3.312-3.312A3.312,3.312,0,0,1,171.824,359.072Z" transform="translate(-94.389 -146.298)"/><path class="l" d="M171.824,359.072a3.312,3.312,0,1,1-3.312-3.312A3.312,3.312,0,0,1,171.824,359.072Z" transform="translate(-94.389 -146.298)"/><path class="e" d="M163.314,359.072A3.312,3.312,0,1,1,160,355.76,3.312,3.312,0,0,1,163.314,359.072Z" transform="translate(-95.274 -146.298)"/><path class="e" d="M154.794,359.072a3.312,3.312,0,1,1-3.312-3.312A3.312,3.312,0,0,1,154.794,359.072Z" transform="translate(-96.161 -146.298)"/><path class="e" d="M146.274,359.072a3.312,3.312,0,1,1-3.312-3.312A3.312,3.312,0,0,1,146.274,359.072Z" transform="translate(-97.047 -146.298)"/><circle class="e" cx="3.29" cy="3.29" r="3.29" transform="translate(70.855 241.677)"/><circle class="e" cx="3.29" cy="3.29" r="3.29" transform="translate(61.449 241.677)"/><circle class="e" cx="3.29" cy="3.29" r="3.29" transform="translate(52.054 241.677)"/><circle class="l" cx="3.29" cy="3.29" r="3.29" transform="translate(52.054 241.677)"/><path class="e" d="M146.274,388.232a3.312,3.312,0,1,1-3.312-3.312A3.312,3.312,0,0,1,146.274,388.232Z" transform="translate(-97.047 -143.265)"/><path class="e" d="M135.084,184.462a7.132,7.132,0,1,1-7.121-7.132A7.132,7.132,0,0,1,135.084,184.462Z" transform="translate(-99.005 -164.855)"/><path class="l" d="M135.084,184.462a7.132,7.132,0,1,1-7.121-7.132A7.132,7.132,0,0,1,135.084,184.462Z" transform="translate(-99.005 -164.855)"/><path class="e" d="M135.084,213.672a7.132,7.132,0,1,1-7.121-7.132,7.132,7.132,0,0,1,7.121,7.132Z" transform="translate(-99.005 -161.817)"/><path class="l" d="M135.084,213.672a7.132,7.132,0,1,1-7.121-7.132,7.132,7.132,0,0,1,7.121,7.132Z" transform="translate(-99.005 -161.817)"/><path class="e" d="M120.484,242.782a7.132,7.132,0,1,1-7.121-7.132A7.132,7.132,0,0,1,120.484,242.782Z" transform="translate(-100.523 -158.79)"/><path class="l" d="M120.484,242.782a7.132,7.132,0,1,1-7.121-7.132A7.132,7.132,0,0,1,120.484,242.782Z" transform="translate(-100.523 -158.79)"/><path class="e" d="M135.084,271.942a7.132,7.132,0,1,1-7.121-7.132A7.132,7.132,0,0,1,135.084,271.942Z" transform="translate(-99.005 -155.757)"/><path class="l" d="M135.084,271.942a7.132,7.132,0,1,1-7.121-7.132A7.132,7.132,0,0,1,135.084,271.942Z" transform="translate(-99.005 -155.757)"/><path class="e" d="M135.084,301.1a7.132,7.132,0,1,1-7.121-7.121,7.132,7.132,0,0,1,7.121,7.121Z" transform="translate(-99.005 -152.723)"/><path class="l" d="M135.084,301.1a7.132,7.132,0,1,1-7.121-7.121,7.132,7.132,0,0,1,7.121,7.121Z" transform="translate(-99.005 -152.723)"/><path class="e" d="M135.084,330.261a7.132,7.132,0,1,1-7.121-7.121,7.132,7.132,0,0,1,7.121,7.121Z" transform="translate(-99.005 -149.691)"/><path class="l" d="M135.084,330.261a7.132,7.132,0,1,1-7.121-7.121,7.132,7.132,0,0,1,7.121,7.121Z" transform="translate(-99.005 -149.691)"/><path class="e" d="M135.084,359.432A7.121,7.121,0,1,1,133,354.39,7.132,7.132,0,0,1,135.084,359.432Z" transform="translate(-99.005 -146.658)"/><path class="l" d="M135.084,359.432A7.121,7.121,0,1,1,133,354.39,7.132,7.132,0,0,1,135.084,359.432Z" transform="translate(-99.005 -146.658)"/><path class="e" d="M135.084,388.592A7.121,7.121,0,1,1,133,383.55,7.132,7.132,0,0,1,135.084,388.592Z" transform="translate(-99.005 -143.625)"/><path class="l" d="M135.084,388.592A7.121,7.121,0,1,1,133,383.55,7.132,7.132,0,0,1,135.084,388.592Z" transform="translate(-99.005 -143.625)"/></g><g transform="translate(165.751 123.282)"><path class="e" d="M229.419,148.458a18.359,18.359,0,0,0-9.042-12.751h0v-.431a18.426,18.426,0,0,0-18.426-18.426h-7.066v1.4a18.481,18.481,0,0,0-10.19,10.6,11.316,11.316,0,0,0-1.833-.166,11.04,11.04,0,0,0-10.234,6.944,12.42,12.42,0,0,0-7.6.563A13.4,13.4,0,0,0,156.5,148.17a13.182,13.182,0,0,0,13.182,13.469h49.912a10.013,10.013,0,0,0,10.113-9.792v-.11a17.731,17.731,0,0,0-.287-3.279Z" transform="translate(-149.475 -116.85)"/><path class="e" d="M223.026,148.457a18.36,18.36,0,0,0-9.009-12.751h0v-.431a18.426,18.426,0,0,0-35.692-6.425,10.908,10.908,0,0,0-12.056,6.779,12.42,12.42,0,0,0-7.6.563,13.4,13.4,0,0,0-8.534,11.978,13.171,13.171,0,0,0,13.171,13.469h49.923a10.024,10.024,0,0,0,10.113-9.792v-.11a17.732,17.732,0,0,0-.32-3.279Z" transform="translate(-150.137 -116.849)"/><path class="h" d="M223.026,148.457a18.36,18.36,0,0,0-9.009-12.751h0v-.431a18.426,18.426,0,0,0-35.692-6.425,10.908,10.908,0,0,0-12.056,6.779,12.42,12.42,0,0,0-7.6.563,13.4,13.4,0,0,0-8.534,11.978,13.171,13.171,0,0,0,13.171,13.469h49.923a10.024,10.024,0,0,0,10.113-9.792v-.11a17.732,17.732,0,0,0-.32-3.279Z" transform="translate(-150.137 -116.849)"/></g><g transform="translate(211.604 87.424)"><rect class="e" width="0.927" height="2.771" transform="translate(0 24.233)"/><rect class="j" width="0.927" height="2.771" transform="translate(0 24.233)"/><path class="e" d="M370.2,171.553h-.927v-5.52h.927Zm0-11.04h-.927v-5.52h.927Zm0-11.04h-.927v-5.52h.927Zm0-11.04h-.927v-5.52h.927Zm0-11.04h-.927v-5.52h.927Zm0-11.04h-.927v-5.52h.927Zm0-11.04h-.927v-5.52h.927Zm-177.6-2.3h-.927V99.3a15.645,15.645,0,0,1,.1-1.766l.916.11A16.46,16.46,0,0,0,192.6,99.3Zm175.867-8.479a13.944,13.944,0,0,0-2.683-4.571l.685-.486a14.827,14.827,0,0,1,2.87,4.88ZM194.3,92.584l-.806-.442a15.059,15.059,0,0,1,3.6-4.416l.6.718A13.878,13.878,0,0,0,194.3,92.584ZM361.576,86.8a13.679,13.679,0,0,0-5.045-1.446l.077-.927a14.827,14.827,0,0,1,5.443,1.546Zm-159.241-.85-.276-.872a14.937,14.937,0,0,1,4.537-.707h1.049V85.3H206.6a14.2,14.2,0,0,0-4.261.651ZM351.01,85.3h-5.52V84.37h5.52Zm-11.04,0h-5.52V84.37h5.52Zm-11.04,0h-5.52V84.37h5.52Zm-11.04,0h-5.52V84.37h5.52Zm-11.04,0h-5.52V84.37h5.52Zm-11.04,0h-5.52V84.37h5.52Zm-11.04,0h-5.52V84.37h5.52Zm-11.04,0h-5.52V84.37h5.52Zm-11.04,0h-5.52V84.37h5.52Zm-11.04,0h-5.52V84.37h5.52Zm-11.04,0h-5.52V84.37h5.52Zm-11.04,0h-5.52V84.37h5.52Zm-11.04,0h-5.52V84.37h5.52Z" transform="translate(-191.67 -84.37)"/><path class="j" d="M370.2,171.553h-.927v-5.52h.927Zm0-11.04h-.927v-5.52h.927Zm0-11.04h-.927v-5.52h.927Zm0-11.04h-.927v-5.52h.927Zm0-11.04h-.927v-5.52h.927Zm0-11.04h-.927v-5.52h.927Zm0-11.04h-.927v-5.52h.927Zm-177.6-2.3h-.927V99.3a15.645,15.645,0,0,1,.1-1.766l.916.11A16.46,16.46,0,0,0,192.6,99.3Zm175.867-8.479a13.944,13.944,0,0,0-2.683-4.571l.685-.486a14.827,14.827,0,0,1,2.87,4.88ZM194.3,92.584l-.806-.442a15.059,15.059,0,0,1,3.6-4.416l.6.718A13.878,13.878,0,0,0,194.3,92.584ZM361.576,86.8a13.679,13.679,0,0,0-5.045-1.446l.077-.927a14.827,14.827,0,0,1,5.443,1.546Zm-159.241-.85-.276-.872a14.937,14.937,0,0,1,4.537-.707h1.049V85.3H206.6a14.2,14.2,0,0,0-4.261.651ZM351.01,85.3h-5.52V84.37h5.52Zm-11.04,0h-5.52V84.37h5.52Zm-11.04,0h-5.52V84.37h5.52Zm-11.04,0h-5.52V84.37h5.52Zm-11.04,0h-5.52V84.37h5.52Zm-11.04,0h-5.52V84.37h5.52Zm-11.04,0h-5.52V84.37h5.52Zm-11.04,0h-5.52V84.37h5.52Zm-11.04,0h-5.52V84.37h5.52Zm-11.04,0h-5.52V84.37h5.52Zm-11.04,0h-5.52V84.37h5.52Zm-11.04,0h-5.52V84.37h5.52Zm-11.04,0h-5.52V84.37h5.52Z" transform="translate(-191.67 -84.37)"/><rect class="e" width="0.927" height="2.771" transform="translate(177.6 92.725)"/><rect class="j" width="0.927" height="2.771" transform="translate(177.6 92.725)"/></g><g transform="translate(300.895 110.012)"><path class="m" d="M286.2,411.409h8.114l.872-18.779h-8.114Z" transform="translate(-271.13 -74.899)"/><path class="g" d="M294.821,408.79h-8.832a.684.684,0,0,0-.673.563L284,416.562A1.225,1.225,0,0,0,285.216,418c3.191-.055,7.805-.243,11.824-.243,4.692,0,5.354.265,10.852.265,3.312,0,4.14-3.312,2.738-3.676-6.4-1.391-8.181-1.535-13.789-4.913A3.787,3.787,0,0,0,294.821,408.79Z" transform="translate(-271.361 -73.218)"/><path class="n" d="M295.136,392.64l-.442,9.671H286.58l.453-9.671Z" transform="translate(-271.091 -74.898)"/><path class="m" d="M336.726,165.242c-.155,2.55-.331,5.343-.408,8.015s-.132,5.388-.1,8.048.132,5.31.364,7.849a40.915,40.915,0,0,0,1.159,7.1,12.588,12.588,0,0,0,.96,2.561,5.192,5.192,0,0,0,.42.707l.5.806a16.706,16.706,0,0,0,1.1,1.612c1.446,2.153,3.047,4.295,4.7,6.447,3.312,4.25,6.922,8.545,10.466,12.751l-4.228,4.935A101.114,101.114,0,0,1,337.9,215.33a81.7,81.7,0,0,1-6.227-6.414c-.5-.585-1-1.1-1.468-1.766l-.718-.927a9.389,9.389,0,0,1-.762-1.1,23.407,23.407,0,0,1-2.517-5.1A49.05,49.05,0,0,1,324,190.6c-.453-3.036-.651-6.028-.806-8.987a87.28,87.28,0,0,1,0-8.832c.144-2.926.232-5.785.563-8.832Z" transform="translate(-267.295 -98.682)"/><path class="e" d="M340.116,183l-3.444,1.38-5.8,2.307L320.586,190.8s-4.692-24.409-2.208-31.828c2.782-8.148,12.608-7.96,17.918,1.325C341.551,169.352,340.116,183,340.116,183Z" transform="translate(-267.859 -99.811)"/><path class="o" d="M340.116,183l-3.444,1.38-5.8,2.307L320.586,190.8s-4.692-24.409-2.208-31.828c2.782-8.148,12.608-7.96,17.918,1.325C341.551,169.352,340.116,183,340.116,183Z" transform="translate(-267.859 -99.811)"/><path class="e" d="M335.039,182.829l-5.288,2.109c-.883-3.831-1.7-10.245.916-15.048C334.244,172.882,334.8,178.921,335.039,182.829Z" transform="translate(-266.69 -98.064)"/><path class="l" d="M335.039,182.829l-5.288,2.109c-.883-3.831-1.7-10.245.916-15.048C334.244,172.882,334.8,178.921,335.039,182.829Z" transform="translate(-266.69 -98.064)"/><path class="e" d="M334.351,218.714H289.959c-.32-3.985.684-14.783,0-29.488-.155-3.389-.4-6.977-.762-10.742a183.618,183.618,0,0,0-4.217-25.392,112.941,112.941,0,0,1,14.794-1.877,163.065,163.065,0,0,1,18.878,0,81.282,81.282,0,0,1,12.873,2.363S341.979,172.048,334.351,218.714Z" transform="translate(-271.257 -100.034)"/><path class="o" d="M334.351,218.714H289.959c-.32-3.985.684-14.783,0-29.488-.155-3.389-.4-6.977-.762-10.742a183.618,183.618,0,0,0-4.217-25.392,112.941,112.941,0,0,1,14.794-1.877,163.065,163.065,0,0,1,18.878,0,81.282,81.282,0,0,1,12.873,2.363S341.979,172.048,334.351,218.714Z" transform="translate(-271.257 -100.034)"/><path class="e" d="M289.582,186.675c-.155-3.389-.4-6.977-.762-10.742,1.435-.894,3.312-.949,3.7,4.306C292.872,185.1,291.227,186.443,289.582,186.675Z" transform="translate(-270.858 -97.483)"/><path class="l" d="M289.582,186.675c-.155-3.389-.4-6.977-.762-10.742,1.435-.894,3.312-.949,3.7,4.306C292.872,185.1,291.227,186.443,289.582,186.675Z" transform="translate(-270.858 -97.483)"/><path class="m" d="M365.518,221.629l-6.4,3.985-7.9-1.689,6.293-7.805Z" transform="translate(-264.369 -93.256)"/><path class="m" d="M350.579,215l7.4,1.192L351.683,224s-3.952-.4-5.023-5.741Z" transform="translate(-264.843 -93.372)"/><path class="m" d="M299.514,131.94c1.4,6.072,2.992,17.2-1.1,21.252,0,0,2.064,4.074,13.347,4.074,10.3,0,5.52-4.074,5.52-4.074-6.834-1.623-6.834-6.624-5.829-11.36Z" transform="translate(-269.861 -102.011)"/><path class="n" d="M303.835,135.6l7.066,5.851a18.469,18.469,0,0,0-.464,3.312c-2.153,2.1-6.26-3.213-6.624-5.917A9.185,9.185,0,0,1,303.835,135.6Z" transform="translate(-269.313 -101.63)"/><path class="g" d="M322.048,118.125c2.826,3.511-.475,14.573-6.326,14.352S316.682,111.413,322.048,118.125Z" transform="translate(-268.294 -103.586)"/><path class="m" d="M300.552,123.756c-.64,8.192-1.424,12.928,2.109,17.808a10.852,10.852,0,0,0,18.967-2.363c2.771-6.966,3.312-19.176-4.184-23.791a10.908,10.908,0,0,0-16.891,8.346Z" transform="translate(-269.695 -103.917)"/><path class="g" d="M298.2,113.47l8.832,3.135c-3.875,5.178,1.755,17.388-5.089,15.1C298.806,130.67,288.583,119.365,298.2,113.47Z" transform="translate(-270.301 -103.931)"/><path class="g" d="M302.32,116.488c3.312,2.451,16.9,5.365,24.663,1.038a24.155,24.155,0,0,1-4.626-1.744s5.807-.276,8.379-4.571a18.58,18.58,0,0,1-10.665-1.347A9.6,9.6,0,0,0,326,104.83c-10.72.132-33.8,2.307-29.808,9.848S302.32,116.488,302.32,116.488Z" transform="translate(-270.139 -104.83)"/><path class="g" d="M297.931,114.784a15.213,15.213,0,0,1-4.361-3.124C293.063,112.93,293.063,116.363,297.931,114.784Z" transform="translate(-270.387 -104.12)"/><path class="m" d="M296.032,130.775a8.247,8.247,0,0,0,4.416,4.25c2.572,1.049,4.085-1.1,3.555-3.709-.475-2.307-2.385-5.63-5.056-5.586S295.039,128.424,296.032,130.775Z" transform="translate(-270.143 -102.656)"/><path class="m" d="M308.75,411.409h8.1l1.678-18.779h-8.1Z" transform="translate(-268.785 -74.899)"/><path class="g" d="M317.454,408.79h-8.832a.673.673,0,0,0-.673.563l-1.347,7.209A1.225,1.225,0,0,0,307.816,418c3.2-.055,7.805-.243,11.824-.243,4.692,0,8.766.265,14.264.265,3.312,0,4.14-3.312,2.727-3.676-6.392-1.391-11.581-1.535-17.178-4.913a3.82,3.82,0,0,0-2-.64Z" transform="translate(-269.01 -73.218)"/><path class="n" d="M318.456,392.64l-.861,9.671H309.48l.861-9.671Z" transform="translate(-268.709 -74.898)"/><path class="e" d="M319.712,410.1a2.462,2.462,0,0,0,1.634-.166,1.1,1.1,0,0,0,.53-.972.64.64,0,0,0-.265-.6c-.85-.607-3.709.6-4.041.74a.2.2,0,0,0-.11.177.232.232,0,0,0,.132.188,10.509,10.509,0,0,0,2.12.629Zm1.435-1.5a.53.53,0,0,1,.243.088c.055,0,.1.088.1.243a.773.773,0,0,1-.353.662,4.03,4.03,0,0,1-2.948-.309A7.784,7.784,0,0,1,321.147,408.6Z" transform="translate(-267.879 -73.28)"/><path class="e" d="M317.636,409.685h.1c.905-.331,2.771-1.866,2.716-2.8a.673.673,0,0,0-.563-.607,1.037,1.037,0,0,0-.861.121c-1.1.629-1.546,2.959-1.557,3.058a.221.221,0,0,0,.166.243Zm2.064-3.069h.088c.254.077.265.188.265.243,0,.552-1.181,1.744-2.109,2.208a4.626,4.626,0,0,1,1.292-2.418.717.717,0,0,1,.464-.033Z" transform="translate(-267.879 -73.484)"/><path class="e" d="M307.068,418.745h13.248s20.325-77.633,19.938-103.964c-.386-25.326-7.728-102.451-7.728-102.451H303.27s2.263,17.156,4.847,38.32c2.307,18.68,4.847,40.506,6.3,56.4.42,4.725.762,8.92.96,12.365C316.893,345.274,307.068,418.745,307.068,418.745Z" transform="translate(-269.355 -93.65)"/><path class="f" d="M307.068,418.745h13.248s20.325-77.633,19.938-103.964c-.386-25.326-7.728-102.451-7.728-102.451H303.27s2.263,17.156,4.847,38.32c2.307,18.68,4.847,40.506,6.3,56.4.42,4.725.762,8.92.96,12.365C316.893,345.274,307.068,418.745,307.068,418.745Z" transform="translate(-269.355 -93.65)"/><path class="e" d="M307.66,248.716c2.307,18.68,4.847,40.506,6.3,56.4,3.08-13.877,10.6-54.217-.684-74.619C310.453,234.574,308.731,241.54,307.66,248.716Z" transform="translate(-268.899 -91.76)"/><path class="p" d="M307.66,248.716c2.307,18.68,4.847,40.506,6.3,56.4,3.08-13.877,10.6-54.217-.684-74.619C310.453,234.574,308.731,241.54,307.66,248.716Z" transform="translate(-268.899 -91.76)"/><path class="e" d="M318.71,212.33s-1.1,74.377-5.421,98.135c-4.725,26.021-14.131,108.28-14.131,108.28H284s2.208-80.161,4.526-105.918c2.5-27.964,1.579-100.464,1.579-100.464Z" transform="translate(-271.359 -93.65)"/><path class="f" d="M318.71,212.33s-1.1,74.377-5.421,98.135c-4.725,26.021-14.131,108.28-14.131,108.28H284s2.208-80.161,4.526-105.918c2.5-27.964,1.579-100.464,1.579-100.464Z" transform="translate(-271.359 -93.65)"/><path class="g" d="M283.493,400.23h16.372l1.2-6.182-18.139-.508Z" transform="translate(-271.47 -74.804)"/><path class="g" d="M306.077,400.182h16.372L323.664,394l-18.084.32Z" transform="translate(-269.115 -74.756)"/><path class="e" d="M289.232,408.922h0a.132.132,0,0,1-.121-.155c.1-.773,1.236-72.71,3.312-95.849,2.208-25.116.839-91.753.883-92.316a.143.143,0,0,1,.155-.121.155.155,0,0,1,.133.155c0,.563,1.358,67.2-.894,92.316-2.064,23.184-3.2,95.088-3.312,95.86A.144.144,0,0,1,289.232,408.922Z" transform="translate(-270.828 -92.802)"/><path class="h" d="M289.232,408.922h0a.132.132,0,0,1-.121-.155c.1-.773,1.236-72.71,3.312-95.849,2.208-25.116.839-91.753.883-92.316a.143.143,0,0,1,.155-.121.155.155,0,0,1,.133.155c0,.563,1.358,67.2-.894,92.316-2.064,23.184-3.2,95.088-3.312,95.86A.144.144,0,0,1,289.232,408.922Z" transform="translate(-270.828 -92.802)"/><path class="g" d="M311.412,126.986c-.1.651.177,1.248.618,1.325s.861-.4.949-1.1-.188-1.259-.618-1.336S311.5,126.323,311.412,126.986Z" transform="translate(-268.51 -102.643)"/><path class="g" d="M318.342,127.816c-.088.662.188,1.248.618,1.325s.861-.4.949-1.1-.188-1.259-.618-1.336S318.43,127.153,318.342,127.816Z" transform="translate(-267.789 -102.556)"/><path class="q" d="M316.082,127.92a25.016,25.016,0,0,0,2.385,6.193,3.875,3.875,0,0,1-3.257,0Z" transform="translate(-268.113 -102.429)"/><path class="g" d="M314.418,136.295a.188.188,0,0,0,.221-.166.21.21,0,0,0-.177-.221,5.52,5.52,0,0,1-4.107-2.628.2.2,0,1,0-.353.166A5.873,5.873,0,0,0,314.418,136.295Z" transform="translate(-268.657 -101.883)"/><path class="g" d="M309.609,122.707a.386.386,0,0,0,.342-.066,3.058,3.058,0,0,1,2.749-.607.386.386,0,0,0,.5-.243.42.42,0,0,0-.265-.508,3.842,3.842,0,0,0-3.478.74.375.375,0,0,0-.055.552A.43.43,0,0,0,309.609,122.707Z" transform="translate(-268.728 -103.133)"/><path class="e" d="M290.956,151.548l2.087-.188a.453.453,0,0,1,.453.331c6.955,31.32,4.869,64.573,4.869,64.573h-2.307a301.158,301.158,0,0,0-5.454-64.2.375.375,0,0,1,.353-.519Z" transform="translate(-270.675 -99.991)"/><path class="r" d="M290.956,151.548l2.087-.188a.453.453,0,0,1,.453.331c6.955,31.32,4.869,64.573,4.869,64.573h-2.307a301.158,301.158,0,0,0-5.454-64.2.375.375,0,0,1,.353-.519Z" transform="translate(-270.675 -99.991)"/><path class="g" d="M296,210.96h1.6a.718.718,0,0,0,.729-.74h0a.8.8,0,0,0-.784-.751h-1.59a.729.729,0,0,0-.729.751h0a.784.784,0,0,0,.773.74Z" transform="translate(-270.191 -93.947)"/><path class="g" d="M297.8,212.879l-.077-2.1a1.016,1.016,0,0,0-1.016-.972h0a.927.927,0,0,0-.938.972l.077,2.1a1.016,1.016,0,0,0,1,.972h0a.949.949,0,0,0,.949-.972Z" transform="translate(-270.135 -93.912)"/><path class="g" d="M321.708,124.41a.32.32,0,0,0,.177,0,.375.375,0,0,0,.254-.486,4.051,4.051,0,0,0-2.473-2.683.375.375,0,0,0-.475.265.409.409,0,0,0,.276.5h0a3.235,3.235,0,0,1,1.932,2.142.375.375,0,0,0,.309.265Z" transform="translate(-267.701 -103.125)"/><path class="m" d="M291.2,165.086c-1.27,5.2-2.55,10.609-3.676,15.876-.552,2.639-1.1,5.266-1.49,7.849a47.094,47.094,0,0,0-.7,7.231,20.976,20.976,0,0,0,4.493,12.3,35.119,35.119,0,0,0,5.056,5.4c.949.85,1.943,1.667,2.981,2.429.519.375,1.049.751,1.579,1.1s1.1.74,1.535,1l-2.407,6.039c-.883-.265-1.546-.5-2.3-.773s-1.413-.574-2.12-.883c-1.391-.629-2.76-1.325-4.107-2.1a38.883,38.883,0,0,1-7.507-5.73,31.464,31.464,0,0,1-5.917-7.993,28.837,28.837,0,0,1-2.981-9.936,53,53,0,0,1,0-9.561c.254-2.981.618-5.9,1.1-8.777a154.068,154.068,0,0,1,3.754-16.935Z" transform="translate(-272.458 -98.923)"/><path class="e" d="M286.295,152.91c-8.777,1.568-13.745,25.028-13.745,25.028l21.7,7.728a53.169,53.169,0,0,0,0-17.852C292.687,157.856,294.63,151.42,286.295,152.91Z" transform="translate(-272.55 -99.852)"/><path class="o" d="M286.295,152.91c-8.777,1.568-13.745,25.028-13.745,25.028l21.7,7.728a53.169,53.169,0,0,0,0-17.852C292.687,157.856,294.63,151.42,286.295,152.91Z" transform="translate(-272.55 -99.852)"/><path class="e" d="M322.8,151.911l2.087.386a.42.42,0,0,1,.342.353c5.52,31.332,1.866,63.557,1.866,63.557h-2.318c2.208-34.1-1.755-59.8-2.44-63.844a.386.386,0,0,1,.464-.453Z" transform="translate(-267.372 -99.935)"/><path class="r" d="M322.8,151.911l2.087.386a.42.42,0,0,1,.342.353c5.52,31.332,1.866,63.557,1.866,63.557h-2.318c2.208-34.1-1.755-59.8-2.44-63.844a.386.386,0,0,1,.464-.453Z" transform="translate(-267.372 -99.935)"/><path class="g" d="M324.99,210.96h1.6a.751.751,0,0,0,.751-.74h0a.751.751,0,0,0-.74-.751H325a.762.762,0,0,0-.751.751h0a.729.729,0,0,0,.74.74Z" transform="translate(-267.173 -93.947)"/><path class="g" d="M326.694,212.879v-2.1a.96.96,0,0,0-.972-.972h0a.983.983,0,0,0-.983.972v2.1a.96.96,0,0,0,.96.972h0A1,1,0,0,0,326.694,212.879Z" transform="translate(-267.122 -93.912)"/><path class="e" d="M297.081,410.1a2.5,2.5,0,0,0,1.645-.166,1.1,1.1,0,0,0,.53-.971.64.64,0,0,0-.265-.6c-.85-.607-3.72.6-4.041.74a.176.176,0,0,0-.11.177.221.221,0,0,0,.121.188,10.732,10.732,0,0,0,2.12.629Zm1.435-1.5a.574.574,0,0,1,.254.088.243.243,0,0,1,.088.243.751.751,0,0,1-.353.662,4,4,0,0,1-2.937-.309,7.729,7.729,0,0,1,2.948-.685Z" transform="translate(-270.232 -73.28)"/><path class="e" d="M295.016,409.685h.1c.916-.331,2.782-1.866,2.716-2.8a.673.673,0,0,0-.563-.607,1.038,1.038,0,0,0-.861.121c-1.049.629-1.535,2.959-1.557,3.058a.2.2,0,0,0,.066.188A.221.221,0,0,0,295.016,409.685Zm2.076-3.069h.088c.243.077.254.188.254.243,0,.552-1.17,1.744-2.1,2.208a4.538,4.538,0,0,1,1.281-2.418.729.729,0,0,1,.464-.033Z" transform="translate(-270.231 -73.484)"/><path class="m" d="M292.45,217.435l2.539-4.615,6.966.243,5.421,2.208,3.687,5.432-9.472-.574S295.784,221.773,292.45,217.435Z" transform="translate(-270.48 -93.599)"/><path class="e" d="M310.34,154.98l-1.667-1.17-3.323,3.312Z" transform="translate(-269.139 -99.736)"/><path class="l" d="M310.34,154.98l-1.667-1.17-3.323,3.312Z" transform="translate(-269.139 -99.736)"/><path class="e" d="M309.7,154.255s-2.7,3.985-3.157,6.867c-3.456-1.413-10.013-4.946-11.04-9.936a14.143,14.143,0,0,0,3.467-1.656S302.488,152.445,309.7,154.255Z" transform="translate(-270.163 -100.181)"/><path class="k" d="M309.7,154.255s-2.7,3.985-3.157,6.867c-3.456-1.413-10.013-4.946-11.04-9.936a14.143,14.143,0,0,0,3.467-1.656S302.488,152.445,309.7,154.255Z" transform="translate(-270.163 -100.181)"/><path class="e" d="M309.87,155l.618-1.358,4.582,3.5Z" transform="translate(-268.669 -99.754)"/><path class="l" d="M309.87,155l.618-1.358,4.582,3.5Z" transform="translate(-268.669 -99.754)"/><path class="e" d="M310.43,154.022a11.636,11.636,0,0,1,3.511,6.359c3.312-1.413,4.515-6.028,3.522-9.086a20.2,20.2,0,0,0-4.085-1.325A3.765,3.765,0,0,1,310.43,154.022Z" transform="translate(-268.61 -100.135)"/><path class="k" d="M310.43,154.022a11.636,11.636,0,0,1,3.511,6.359c3.312-1.413,4.515-6.028,3.522-9.086a20.2,20.2,0,0,0-4.085-1.325A3.765,3.765,0,0,1,310.43,154.022Z" transform="translate(-268.61 -100.135)"/><path class="e" d="M389.946,183.672l-69.519-2.462L310.37,221.848l69.519,2.462Z" transform="translate(-268.617 -96.886)"/><path class="r" d="M389.946,183.672l-69.519-2.462L310.37,221.848l69.519,2.462Z" transform="translate(-268.617 -96.886)"/><path class="g" d="M391.875,183.731l-69.508-2.451L312.31,221.918l69.519,2.462Z" transform="translate(-268.415 -96.879)"/><path class="g" d="M381.856,220.552l-.287,2.252-69.519-2.462.287-2.252Z" transform="translate(-268.442 -93.051)"/><path class="e" d="M314.907,218.18l-.287,2.252-27.28-.96.276-2.252Z" transform="translate(-271.012 -93.141)"/><path class="r" d="M314.907,218.18l-.287,2.252-27.28-.96.276-2.252Z" transform="translate(-271.012 -93.141)"/></g></g></svg>